<svg width="16" height="16" viewBox="0 0 16 16" fill="none" xmlns="http://www.w3.org/2000/svg">
<path fill-rule="evenodd" clip-rule="evenodd" d="M14 8C14 11.3137 11.3137 14 8 14C4.68629 14 2 11.3137 2 8C2 4.68629 4.68629 2 8 2C11.3137 2 14 4.68629 14 8ZM9.93595 3.35514L9.41172 3.90033V3.90121C10 4.35509 10.3995 5.08377 10.3995 5.9178H5.59966C5.59949 5.52462 5.68857 5.13698 5.85966 4.78651C6.03074 4.43604 6.27897 4.13268 6.58407 3.90121L6.05984 3.35514C6.04085 3.33591 6.02576 3.31292 6.01546 3.28751C6.00515 3.2621 5.99984 3.23479 5.99984 3.20721C5.99984 3.17963 6.00515 3.15232 6.01546 3.12691C6.02576 3.10151 6.04085 3.07851 6.05984 3.05928C6.09749 3.02172 6.14761 3.00075 6.19975 3.00075C6.25188 3.00075 6.302 3.02172 6.33966 3.05928L6.93553 3.68085C7.2558 3.51404 7.61568 3.41747 8 3.41747C8.36727 3.4195 8.72938 3.50773 9.05942 3.67558L9.65192 3.05928C9.69018 3.02123 9.74104 3 9.79393 3C9.84683 3 9.89769 3.02123 9.93595 3.05928C9.97247 3.09913 9.99286 3.15211 9.99286 3.20721C9.99286 3.26231 9.97247 3.31529 9.93595 3.35514ZM7.20017 5.08465H6.79983V4.66851H7.20017V5.08465ZM9.20017 5.08465H8.79983V4.66851H9.20017V5.08465ZM10.9756 6.51789C10.8631 6.63512 10.7998 6.79411 10.7998 6.95989V9.87635C10.7998 10.0421 10.8631 10.2011 10.9756 10.3183C11.0881 10.4356 11.2408 10.5014 11.3999 10.5014C11.5591 10.5014 11.7117 10.4356 11.8242 10.3183C11.9368 10.2011 12 10.0421 12 9.87635V6.95989C12 6.79411 11.9368 6.63512 11.8242 6.51789C11.7117 6.40067 11.5591 6.33481 11.3999 6.33481C11.2408 6.33481 11.0881 6.40067 10.9756 6.51789ZM4.37018 6.38192C4.44309 6.35059 4.52122 6.33458 4.60009 6.33481C4.67895 6.33458 4.75709 6.34971 4.82999 6.38104C4.9029 6.41237 4.96914 6.45841 5.02491 6.5165C5.08067 6.57459 5.12487 6.64359 5.15495 6.71953C5.18502 6.79547 5.20039 6.87686 5.20017 6.95901V9.87635C5.20017 10.0421 5.13695 10.2011 5.02441 10.3183C4.91187 10.4356 4.75924 10.5014 4.60009 10.5014C4.44093 10.5014 4.2883 10.4356 4.17576 10.3183C4.06323 10.2011 4 10.0421 4 9.87635V6.95989C3.99978 6.87774 4.01515 6.79635 4.04523 6.72041C4.07531 6.64447 4.1195 6.57547 4.17527 6.51738C4.23103 6.45929 4.29728 6.41325 4.37018 6.38192ZM5.71692 10.7945C5.79179 10.8725 5.89327 10.9165 5.99916 10.9167L6.3995 10.9176V12.3749C6.3995 12.5407 6.46272 12.6997 6.57526 12.8169C6.68779 12.9341 6.84043 13 6.99958 13C7.15873 13 7.31137 12.9341 7.4239 12.8169C7.53644 12.6997 7.59966 12.5407 7.59966 12.3749V10.9176H8.3995V12.3749C8.3995 12.5407 8.46272 12.6997 8.57526 12.8169C8.68779 12.9341 8.84043 13 8.99958 13C9.15873 13 9.31137 12.9341 9.4239 12.8169C9.53644 12.6997 9.59966 12.5407 9.59966 12.3749V10.9176H10C10.106 10.9173 10.2076 10.8733 10.2825 10.7951C10.3574 10.7169 10.3995 10.611 10.3995 10.5006V6.33393H5.59966V10.5006C5.59989 10.6108 5.64205 10.7166 5.71692 10.7945Z" fill="#C3E88D"/>
</svg>
