<svg width="16" height="16" viewBox="0 0 16 16" fill="none" xmlns="http://www.w3.org/2000/svg">
<path fill-rule="evenodd" clip-rule="evenodd" d="M14 8C14 11.3137 11.3137 14 8 14C4.68629 14 2 11.3137 2 8C2 4.68629 4.68629 2 8 2C11.3137 2 14 4.68629 14 8ZM9.22602 8.368H6.87602L7.97602 5.698L9.22602 8.368ZM9.70402 9.49L10.516 11.406H11.795L7.96802 3L4.27002 11.406H5.64802L6.39002 9.49H9.70402Z" fill="#9883EC"/>
<path fill-rule="evenodd" clip-rule="evenodd" d="M16 7.49799L13.83 9.80999C13.7759 9.86764 13.711 9.91407 13.6389 9.94662C13.5669 9.97918 13.4891 9.99723 13.4101 9.99973C13.3311 10.0022 13.2523 9.98916 13.1784 9.96124C13.1044 9.93331 13.0367 9.89109 12.979 9.83699C12.9213 9.78288 12.8749 9.71795 12.8424 9.6459C12.8098 9.57386 12.7918 9.4961 12.7893 9.41708C12.7867 9.33806 12.7998 9.25931 12.8278 9.18535C12.8557 9.11138 12.8979 9.04364 12.952 8.98599L14.349 7.49799L12.953 6.01299C12.8989 5.95547 12.8566 5.88785 12.8287 5.81401C12.8007 5.74016 12.7875 5.66153 12.79 5.5826C12.7924 5.50367 12.8103 5.42599 12.8427 5.35399C12.8752 5.282 12.9215 5.21709 12.979 5.16299C13.0365 5.10888 13.1041 5.06664 13.178 5.03866C13.2518 5.01069 13.3305 4.99753 13.4094 4.99995C13.4883 5.00236 13.566 5.0203 13.638 5.05273C13.71 5.08517 13.7749 5.13147 13.829 5.18899L16 7.49799ZM0 7.49799L2.17 9.80999C2.2241 9.86764 2.28903 9.91407 2.36108 9.94662C2.43313 9.97918 2.51089 9.99723 2.58991 9.99973C2.66893 10.0022 2.74767 9.98916 2.82164 9.96124C2.89561 9.93331 2.96335 9.89109 3.021 9.83699C3.07865 9.78288 3.12508 9.71795 3.15764 9.6459C3.19019 9.57386 3.20824 9.4961 3.21075 9.41708C3.21326 9.33806 3.20017 9.25931 3.17225 9.18535C3.14432 9.11138 3.1021 9.04364 3.048 8.98599L1.651 7.49799L3.047 6.01299C3.1011 5.95547 3.14335 5.88785 3.17132 5.81401C3.1993 5.74016 3.21246 5.66153 3.21004 5.5826C3.20763 5.50367 3.18969 5.42599 3.15725 5.35399C3.12482 5.282 3.07852 5.21709 3.021 5.16299C2.96348 5.10888 2.89587 5.06664 2.82202 5.03866C2.74818 5.01069 2.66955 4.99753 2.59062 4.99995C2.51169 5.00236 2.434 5.0203 2.36201 5.05273C2.29001 5.08517 2.2251 5.13147 2.171 5.18899L0 7.49799Z" fill="white"/>
</svg>
