<svg width="16" height="16" viewBox="0 0 16 16" fill="none" xmlns="http://www.w3.org/2000/svg">
<path fill-rule="evenodd" clip-rule="evenodd" d="M14 8C14 11.3137 11.3137 14 8 14C4.68629 14 2 11.3137 2 8C2 4.68629 4.68629 2 8 2C11.3137 2 14 4.68629 14 8ZM9.79179 6.76365C10.2403 6.45735 10.8607 6.43002 11.4207 6.66086C11.9793 6.89115 12.3881 7.3406 12.4748 7.87884L12.475 7.87986C12.5585 8.39217 12.3271 8.93739 11.8936 9.32506C11.4605 9.71233 10.9013 9.8756 10.407 9.72649L10.3897 9.72126L10.372 9.71728C9.6046 9.54422 8.9874 8.89722 8.59084 8.10138C8.9459 7.54122 9.28882 7.08209 9.7768 6.7735L9.78438 6.76871L9.79179 6.76365ZM9.22635 5.9195C8.70365 6.25193 8.32208 6.69402 8.00728 7.14289C7.51487 6.45821 6.84802 5.79679 5.90561 5.58331L5.90561 5.58329L5.90099 5.58229C5.67506 5.53332 5.44441 5.50948 5.21325 5.51121L5.19837 5.51132C4.28184 5.45749 3.48256 5.96821 3.00556 6.64114C2.52218 7.32307 2.30591 8.26194 2.68512 9.1172C3.05339 10.0209 3.90435 10.5601 4.7726 10.7151C5.6389 10.8698 6.62103 10.6596 7.27686 9.94015C7.54476 9.6754 7.77333 9.37546 7.97784 9.07302C8.46295 9.81901 9.17629 10.4831 10.1311 10.7044C11.0334 10.9689 11.9418 10.6449 12.5708 10.0824C13.2034 9.51676 13.6288 8.64317 13.4777 7.71652C13.3224 6.75394 12.6147 6.05411 11.8079 5.72154C11.0047 5.39047 10.0142 5.38575 9.22635 5.9195ZM6.55443 9.22564C6.8855 8.90098 7.1388 8.51337 7.4105 8.07585C6.93888 7.33437 6.40357 6.73885 5.68343 6.57472C5.542 6.54424 5.39785 6.52831 5.25323 6.52719L5.22082 6.53182L5.1646 6.52736C4.66595 6.48778 4.16393 6.76387 3.83444 7.22869C3.50497 7.69349 3.41232 8.25602 3.61614 8.71039L3.62017 8.71937L3.62385 8.7285C3.83128 9.24344 4.34344 9.60642 4.95119 9.71494C5.55894 9.82346 6.16257 9.65984 6.53239 9.24864L6.54305 9.23679L6.55443 9.22564ZM4.36045 8.2737H6.17086V7.8427H4.36045V8.2737ZM10.3774 7.78185V7.30411H10.9284V7.78185H11.4219V8.33285H10.9284V8.81147H10.3774V8.33285H9.91367V7.78185H10.3774Z" fill="#80CBC4"/>
</svg>
