<svg width="16" height="16" viewBox="0 0 16 16" fill="none" xmlns="http://www.w3.org/2000/svg">
<path fill-rule="evenodd" clip-rule="evenodd" d="M14 8C14 11.3137 11.3137 14 8 14C4.68629 14 2 11.3137 2 8C2 4.68629 4.68629 2 8 2C11.3137 2 14 4.68629 14 8ZM4.00024 12.0575V3.94101H5.31432V4.75252H4.65728V11.2475H5.31432V12.0575H4.00024ZM10.6867 4.75252V3.94101H12V12.059H10.6867V11.2475H11.3437V4.75252H10.6867ZM8.72845 4.98388C8.88774 4.92158 9.05789 4.89181 9.22888 4.89632C9.43152 4.89632 9.60141 4.92669 9.73856 4.98744C9.87524 5.04676 9.98747 5.1355 10.0753 5.25367C10.1621 5.36946 10.225 5.51278 10.2639 5.68363C10.3033 5.85257 10.323 6.04857 10.323 6.27162C10.323 6.49371 10.3028 6.69303 10.2625 6.86957C10.2306 7.02488 10.1665 7.17181 10.0746 7.30095C9.98683 7.41584 9.87048 7.50568 9.73714 7.56149C9.59951 7.61986 9.43009 7.64905 9.22888 7.64905C9.05608 7.65355 8.88416 7.62304 8.72346 7.55936C8.58857 7.50418 8.47121 7.41338 8.38391 7.29668C8.29125 7.16793 8.22652 7.02124 8.19384 6.86601C8.15261 6.67111 8.13304 6.47224 8.13547 6.27304C8.13547 6.04335 8.15564 5.84403 8.19598 5.67509C8.23584 5.50566 8.29991 5.36211 8.38818 5.24441C8.47596 5.1284 8.59355 5.03835 8.72845 4.98388ZM6.53025 5.12126C6.56324 5.06765 6.58141 5.00624 6.58292 4.9433H7.1702V7.13225H7.71548V7.59353H5.95151V7.13225H6.50889V5.73488H5.95009V5.3035C6.03551 5.3035 6.11737 5.29875 6.19568 5.28926C6.2629 5.28084 6.32858 5.26286 6.39072 5.23587C6.44679 5.21139 6.49559 5.17168 6.53025 5.12126ZM9.22817 5.38465C9.37386 5.38465 9.47826 5.45299 9.54138 5.58966C9.60308 5.72491 9.63416 5.95223 9.63463 6.27162C9.63463 6.58768 9.6026 6.815 9.53853 6.95357C9.47494 7.0912 9.37149 7.16001 9.22817 7.16001C9.08532 7.16001 8.98163 7.0912 8.91709 6.95357C8.85349 6.81452 8.8217 6.58815 8.8217 6.27446C8.8217 5.95271 8.85302 5.72444 8.91566 5.58966C8.9399 5.5271 8.98317 5.47372 9.03936 5.43706C9.09556 5.40041 9.16185 5.38232 9.22888 5.38536L9.22817 5.38465ZM6.27042 8.43921C6.42999 8.37706 6.60039 8.34753 6.77156 8.35236C6.97373 8.35236 7.14363 8.38226 7.28125 8.44205C7.4184 8.50137 7.53064 8.59036 7.61796 8.709C7.70433 8.82479 7.76721 8.96787 7.8066 9.13824C7.84551 9.30766 7.86497 9.50366 7.86497 9.72623C7.86497 9.94881 7.8448 10.1481 7.80446 10.3242C7.77262 10.4797 7.70861 10.6269 7.61653 10.7563C7.5288 10.8712 7.41245 10.961 7.27912 11.0168C7.14197 11.0747 6.97278 11.1037 6.77156 11.1037C6.57367 11.1037 6.4052 11.0742 6.26615 11.0154C6.13117 10.96 6.0138 10.869 5.9266 10.752C5.8336 10.6231 5.76861 10.4762 5.73582 10.3206C5.69459 10.1257 5.67501 9.92686 5.67745 9.72766C5.67745 9.49844 5.69762 9.29912 5.73796 9.1297C5.77829 8.96028 5.84236 8.8172 5.93016 8.70046C6.01748 8.58419 6.1309 8.49758 6.27042 8.43921ZM9.04095 8.39792H9.62823V10.5862H10.1735V11.0481H8.40882V10.5862H8.9662V9.1895H8.40882V8.7574C8.49425 8.7574 8.57587 8.75266 8.6537 8.74317C8.72113 8.73504 8.78706 8.7173 8.84946 8.69049C8.90536 8.6657 8.9532 8.62575 8.98756 8.57517C9.0208 8.52162 9.03922 8.46021 9.04095 8.39721V8.39792ZM7.08336 9.04286C7.0592 8.98053 7.01615 8.92732 6.96024 8.89068C6.90433 8.85405 6.83835 8.83582 6.77156 8.83856C6.70454 8.83552 6.63825 8.8536 6.58205 8.89026C6.52585 8.92691 6.48258 8.98029 6.45835 9.04286C6.39666 9.17763 6.36581 9.40614 6.36581 9.72837C6.36533 10.0416 6.39689 10.2677 6.46049 10.4068C6.52455 10.5449 6.62825 10.6139 6.77156 10.6139C6.91441 10.6139 7.0181 10.5449 7.08264 10.4068C7.14624 10.2682 7.17779 10.0409 7.17732 9.72481C7.17732 9.40543 7.14552 9.17811 7.08336 9.04286Z" fill="#FFCB6B"/>
</svg>
