<svg width="16" height="16" viewBox="0 0 16 16" fill="none" xmlns="http://www.w3.org/2000/svg">
<path fill-rule="evenodd" clip-rule="evenodd" d="M14 8C14 11.3137 11.3137 14 8 14C4.68629 14 2 11.3137 2 8C2 4.68629 4.68629 2 8 2C11.3137 2 14 4.68629 14 8ZM4 9.91988C4 9.91988 5.35501 9.22683 6.71411 9.22683L7.73855 5.89658C7.77619 5.73457 7.88829 5.62492 8.01512 5.62492C8.14113 5.62492 8.25323 5.73457 8.29169 5.89576L9.31613 9.22601C10.9256 9.22601 12.0302 9.91988 12.0302 9.91988L9.72361 3.31993C9.65815 3.12519 9.54605 3 9.39631 3H6.63392C6.48419 3 6.377 3.12519 6.30663 3.31993L4 9.91988ZM6.49254 11.8771C5.99669 11.4066 5.85186 10.4174 6.05887 9.70059C6.41644 10.1523 6.9123 10.2955 7.42616 10.3765C8.21985 10.5008 8.99882 10.4542 9.73524 10.0778C9.79295 10.0481 9.84759 10.0119 9.90573 9.97335C9.9325 9.95561 9.96 9.93737 9.98889 9.91906C10.0584 10.1277 10.0764 10.338 10.0527 10.5524C9.9938 11.0736 9.74424 11.477 9.34657 11.7822C9.23638 11.8674 9.12146 11.9459 9.00673 12.0243L9.0067 12.0243L9.00663 12.0243C8.95612 12.0588 8.90564 12.0933 8.85563 12.1283C8.35159 12.4826 8.21494 12.8975 8.40478 13.5013L8.42359 13.5668C8.17933 13.4554 7.97411 13.2732 7.83446 13.0439C7.68597 12.8041 7.60746 12.5274 7.60781 12.2453L7.60743 12.2113C7.60605 12.0816 7.60465 11.951 7.58735 11.8231C7.54316 11.4844 7.39015 11.333 7.10213 11.324C6.80593 11.3158 6.57273 11.5056 6.51054 11.8043L6.50457 11.8288L6.50454 11.829C6.50092 11.844 6.49706 11.8601 6.49254 11.8771Z" fill="#F78C6C"/>
</svg>
