<svg width="16" height="16" viewBox="0 0 16 16" fill="none" xmlns="http://www.w3.org/2000/svg">
<path fill-rule="evenodd" clip-rule="evenodd" d="M14 8C14 11.3137 11.3137 14 8 14C4.68629 14 2 11.3137 2 8C2 4.68629 4.68629 2 8 2C11.3137 2 14 4.68629 14 8ZM9.92008 7.32014C9.90477 7.32379 9.891 7.32708 9.8936 7.34333L9.7878 7.02389C9.80075 7.03962 9.81343 7.05508 9.82585 7.07027C10.0072 7.29932 9.95876 7.31089 9.92008 7.32014ZM9.82585 7.07027C10.1106 7.41846 10.2576 7.62148 10.2668 7.67933L10.1804 8.23067C10.0364 8.59956 9.7224 8.97956 9.2384 9.37067C9.0028 9.53378 8.6546 9.81022 8.1938 10.2C8.1032 10.28 7.9394 10.3367 7.703 10.3767L7.7054 10.4053L7.733 10.402L7.8542 10.3627L7.8566 10.3913C7.6898 10.544 7.4444 10.6393 7.1222 10.6687C6.801 10.8576 6.3378 11.0493 5.7326 11.244C5.60648 11.5173 5.44697 11.7699 5.2586 11.9947L5.2112 12L5.2094 11.9747C5.269 11.7662 5.3248 11.6298 5.3768 11.5653C5.4352 11.4573 5.4624 11.3767 5.4584 11.3233L5.4536 11.2693C5.4208 11.2724 5.4038 11.2658 5.4026 11.2493L5.354 11.28L5.306 11.284L5.3018 11.2307L5.2742 11.234C5.2402 11.2678 5.1588 11.3016 5.03 11.3353C5.01533 11.3126 5.00511 11.2867 5 11.2593C5.5212 10.3127 6.1636 8.85067 6.9272 6.87333C7.264 6.02267 7.4296 5.56289 7.424 5.494C7.40237 5.46601 7.38971 5.43084 7.388 5.394C7.4124 5.39089 7.4586 5.33378 7.5266 5.22267L7.5224 5.16933C7.1568 5.304 6.788 5.52289 6.416 5.826L6.3638 5.83133C6.3614 5.80467 6.3262 5.78156 6.2582 5.762C6.121 5.85889 5.9956 5.97489 5.882 6.11L5.822 6.01133C5.84487 5.99643 5.86981 5.98584 5.8958 5.98L5.8898 5.902C5.8742 5.90378 5.8192 5.95178 5.7248 6.046L5.6972 5.99867C5.8056 5.83067 5.916 5.74133 6.0284 5.73067C6.05335 5.74123 6.07971 5.74708 6.1064 5.748L6.0488 5.67867L6.0458 5.64933C6.0962 5.64444 6.1208 5.634 6.1196 5.618L6.173 5.63867L6.197 5.63667L6.1706 5.58933C6.5174 5.32 6.69 5.17244 6.6884 5.14667L6.6872 5.12133L6.6632 5.12267L6.614 5.15267C6.6112 5.12067 6.5938 5.10578 6.5618 5.108C6.53947 5.12472 6.51404 5.13565 6.4874 5.14L6.4832 5.08667C6.7608 4.91689 7.008 4.74556 7.2248 4.57267C8.0136 4.23711 8.654 4.04622 9.146 4C9.738 4.01333 10.148 4.10467 10.376 4.274C10.7624 4.46689 10.9676 4.71867 10.9916 5.02933L11 5.13267C10.9732 5.57311 10.8892 5.89333 10.748 6.09333L10.115 6.70533C9.8914 6.84311 9.782 6.94889 9.7868 7.02267C9.78714 7.02307 9.78747 7.02348 9.7878 7.02389L9.7874 7.02267C9.80124 7.0395 9.81403 7.05534 9.82585 7.07027ZM5.9666 5.868L5.9906 5.86533C6.0226 5.83467 6.0472 5.81844 6.0632 5.81667L6.062 5.778L5.9624 5.79267L5.9666 5.868ZM5.3504 11.15C5.40361 11.1459 5.45683 11.1576 5.5046 11.184C5.5758 11.1782 5.62 11.0964 5.6372 10.9387L5.5832 10.914C5.5752 10.9158 5.5292 10.9733 5.4452 11.0867C5.4428 11.0353 5.4236 11.01 5.3924 11.0133C5.3576 11.0213 5.3416 11.0409 5.3444 11.072L5.3504 11.15ZM10.562 4.96C10.6332 5.12711 10.6814 5.20933 10.7066 5.20667L10.7018 5.15867C10.6518 4.98844 10.6038 4.90556 10.5578 4.91L10.562 4.96ZM10.6172 4.66733L10.637 4.61533C10.625 4.45133 10.3814 4.36133 9.911 4.344L10.6172 4.66733ZM7.5536 7.46867L7.6538 7.45467L7.6496 7.37933L7.5494 7.39333L7.5536 7.46867ZM7.5974 5.73733L7.5722 5.738C7.5758 5.77 7.5524 5.81533 7.508 5.87333L7.5116 5.92667C7.5494 5.85467 7.5806 5.81533 7.6034 5.81533L7.5974 5.73733ZM7.4204 6.38467L7.3982 6.28067L7.3388 6.28267L7.3604 6.386L7.4204 6.38467ZM7.3016 6.47L7.2536 6.47533C7.2564 6.50511 7.2426 6.54889 7.2122 6.60667L7.2362 6.60533C7.275 6.60133 7.2968 6.55622 7.3016 6.47ZM7.199 6.74133L7.1708 6.74467C7.1752 6.79667 7.1538 6.82444 7.1066 6.828L7.1078 6.854L7.1558 6.85L7.2002 6.76667L7.199 6.74133ZM7.0988 7.11733L7.1228 6.988L7.0412 6.99067L7.0574 7.11933L7.0988 7.11733ZM6.1766 9.78933C6.2134 9.78667 6.2478 9.69644 6.2798 9.51867C6.2018 9.59467 6.1672 9.67645 6.176 9.764L6.1766 9.78933ZM6.1688 9.9L6.1658 9.872C6.1086 9.88089 6.0826 9.90111 6.0878 9.934L6.0908 9.962C6.1476 9.95933 6.1736 9.93867 6.1688 9.9ZM6.1628 10.598L6.0872 10.6093C6.07321 10.6152 6.06084 10.6262 6.05321 10.6405C6.04558 10.6548 6.04254 10.6715 6.0446 10.688L6.092 10.6813C6.11303 10.6608 6.1381 10.6459 6.1652 10.638L6.1628 10.598ZM7.481 10.3467C7.555 10.2649 7.803 10.1096 8.225 9.88067C8.3678 9.76667 8.4386 9.70067 8.4368 9.67533L8.4326 9.62733C7.6026 10.1709 7.0956 10.4622 6.9116 10.5013C6.9136 10.5124 6.8662 10.5516 6.7694 10.6187C6.7374 10.6222 6.72 10.6073 6.7172 10.574C6.7322 10.4993 6.8036 10.4593 6.932 10.446L6.9308 10.4213L6.8558 10.428C6.5842 10.5489 6.4392 10.6236 6.4208 10.652L6.5708 10.638L6.5756 10.6913C6.3888 10.7433 6.2578 10.7904 6.1826 10.8327C6.11825 10.8024 6.04814 10.7905 5.9786 10.798C5.9 10.8573 5.8628 10.9293 5.8688 11.02C5.90959 11.0438 5.95476 11.0568 6.0008 11.058C6.1292 10.978 6.3962 10.8473 6.8018 10.6713C6.7978 10.6282 7.0242 10.52 7.481 10.3467ZM7.2626 10.1827C7.17917 10.2751 7.06868 10.3311 6.9512 10.3407L6.9536 10.3933L6.9788 10.3913C7.1438 10.2873 7.2584 10.234 7.3178 10.2273C7.3162 10.194 7.2978 10.1791 7.2626 10.1827ZM8.369 9.162L9.0068 8.60733V8.60667C9.1444 8.54489 9.2704 8.33222 9.3848 7.96867L9.3764 7.866C9.2232 7.70644 8.991 7.64133 8.6798 7.67067L8.5298 7.68467C7.9154 7.95089 7.4652 8.09756 7.1792 8.12467C6.5292 9.542 6.1932 10.2973 6.1712 10.3907L6.1982 10.3867C6.3806 10.3698 6.849 10.1333 7.6034 9.67733C7.6418 9.67533 7.895 9.50333 8.369 9.162ZM7.8644 7.82867L7.7624 7.85333L7.7636 7.91867L7.8656 7.89333L7.8644 7.82867ZM9.2774 7.562L9.2018 7.57C9.259 7.65222 9.3206 7.69022 9.3866 7.684L9.3854 7.65867C9.383 7.63022 9.347 7.598 9.2774 7.562ZM8.8598 6.74133C9.1578 6.53156 9.3398 6.38333 9.4058 6.29667V6.296C9.427 6.29422 9.481 6.228 9.5678 6.09733C9.663 6.08711 9.817 5.908 10.0298 5.56L10.0418 5.40133L10.0928 5.396C10.0968 5.44711 10.1148 5.47156 10.1468 5.46933C10.2236 5.36089 10.2592 5.27 10.2536 5.19667C10.2444 5.09089 10.1784 5.00067 10.0556 4.926L10.004 4.93067L10.0136 5.06267L9.9656 5.06667C9.9488 4.844 9.731 4.74933 9.3116 4.78933C9.2568 4.79511 9.1158 4.81689 8.8886 4.85467L8.8826 4.78L8.8076 4.78867C8.5772 4.83133 8.4644 4.89311 8.4692 4.974L7.943 6.27667C7.8838 6.31711 7.8298 6.47978 7.781 6.76467C7.6918 6.91756 7.6508 7.04356 7.658 7.14267L7.6622 7.19133C7.69683 7.18702 7.73185 7.19396 7.763 7.21133C8.396 6.906 8.7614 6.75133 8.8598 6.74133ZM9.6248 7.16267C9.6508 7.16044 9.6858 7.17533 9.7298 7.20733L9.7292 7.208C9.7624 7.20444 9.7768 7.18444 9.7724 7.148L9.6674 7.08L9.62 7.08467L9.6248 7.16267ZM10.1456 7.708C10.1392 7.68667 10.112 7.66556 10.064 7.64467L10.073 7.74933L10.109 7.71867C10.1137 7.71713 10.1185 7.71623 10.1234 7.716L10.1216 7.71467L10.1456 7.708ZM10.0916 7.86533L10.0964 7.91667L10.1738 7.87733L10.1678 7.82733L10.0916 7.86533Z" fill="#FFCB6B"/>
</svg>
