<svg width="16" height="16" viewBox="0 0 16 16" fill="none" xmlns="http://www.w3.org/2000/svg">
<path fill-rule="evenodd" clip-rule="evenodd" d="M14 8C14 11.3137 11.3137 14 8 14C4.68629 14 2 11.3137 2 8C2 4.68629 4.68629 2 8 2C11.3137 2 14 4.68629 14 8ZM6.21818 7.168L8 4L12 11.1111L4 11.1104C4 10.0437 4.47636 9.03467 5.29091 8.37262C5.68588 8.04754 6.15376 7.81821 6.65648 7.70329C7.1592 7.58838 7.68257 7.59112 8.184 7.71129L7.90182 8.94009C6.87564 8.69191 5.87273 9.23804 5.44727 10.1397L6.00509 10.4164C6.30545 9.7792 7.01745 9.37956 7.75927 9.55876L8.36218 9.70453L8.92873 7.2384L8.32727 7.09262C7.62182 6.92196 6.89455 6.95396 6.21818 7.168Z" fill="#82AAFF"/>
</svg>
