<svg width="16" height="16" viewBox="0 0 16 16" fill="none" xmlns="http://www.w3.org/2000/svg">
<path fill-rule="evenodd" clip-rule="evenodd" d="M14 8C14 11.3137 11.3137 14 8 14C4.68629 14 2 11.3137 2 8C2 4.68629 4.68629 2 8 2C11.3137 2 14 4.68629 14 8ZM10.6836 8.29872L10.6841 8.29858L10.6844 8.2997L10.6843 8.29977L10.6836 8.29872ZM11.6124 10.0501L11.5334 9.8736L11.5331 9.87376L11.5328 9.87391L11.6116 10.0493C11.5562 10.0748 10.9685 10.3066 10.3855 10.5353C9.80483 10.7635 9.20426 10.9969 9.11923 11.0257L9.1193 11.0259L9.1116 11.0283L9.09876 11.0325C9.05747 11.046 9.01241 11.0609 8.96989 11.0706C8.92213 11.0814 8.86283 11.0906 8.7989 11.0814C8.65642 11.0606 8.56246 10.9636 8.48929 10.8511C8.43461 10.7679 8.27672 10.4668 8.10805 10.141C7.96651 9.86617 7.81189 9.56152 7.69118 9.32319C7.20154 9.46347 6.47137 9.67096 6.24265 9.73126C6.17014 9.75362 6.0935 9.75921 6.01851 9.74761C5.94353 9.736 5.87216 9.7075 5.80981 9.66425C5.72612 9.60286 5.66194 9.51862 5.62496 9.42165L5.2676 8.57675L5.44495 8.50173L5.44476 8.50128L5.44461 8.50094L5.2676 8.57598C4.8232 7.52698 4.11231 5.8472 4.04839 5.68238C3.99833 5.55222 3.97214 5.4082 4.04531 5.28651C4.12079 5.16097 4.25326 5.14094 4.31025 5.13555C4.82212 5.08795 5.33431 5.04379 5.84678 5.00308C5.94017 4.99196 6.03466 5.01113 6.11634 5.05776C6.18984 5.1046 6.23367 5.1784 6.25794 5.21925L6.26268 5.2272L6.27423 5.24646L6.27962 5.25416L6.11591 5.34346L6.11035 5.34687L6.11035 5.34687L6.27962 5.25416L8.0404 8.47312L9.94266 7.97483L9.32417 7.01712C9.29722 6.97707 9.27257 6.92316 9.26872 6.86154C9.26365 6.79575 9.28436 6.73057 9.32648 6.67978C9.38668 6.61603 9.46684 6.57473 9.55369 6.56271L9.58912 6.75142L9.58914 6.75142L9.58973 6.75131L9.55523 6.56271C9.65535 6.54422 10.5411 6.38171 10.6196 6.36939L10.635 6.36631L10.6414 6.36516C10.6761 6.35881 10.7533 6.34471 10.8407 6.37863C10.9295 6.41917 11.0056 6.48306 11.0609 6.56348C11.1195 6.6405 11.3059 6.89312 11.4892 7.14343L11.7795 7.537L11.9135 7.71722L11.9236 7.73108L11.9266 7.73493L11.9274 7.73647C11.9651 7.78346 12.0291 7.88358 11.9852 8.0045C11.9444 8.11926 11.8388 8.16316 11.7772 8.18164L10.9932 8.4097C11.3094 8.87282 11.7465 9.51415 11.7919 9.58647C11.8205 9.63163 11.8393 9.68225 11.8473 9.73511C11.8547 9.79942 11.8379 9.86418 11.8003 9.91688C11.7734 9.95447 11.7384 9.98553 11.6979 10.0078C11.6686 10.0247 11.637 10.0393 11.6124 10.0501ZM11.2273 9.5395L11.2274 9.53965L11.2187 9.5448L11.2271 9.53913L11.2273 9.5395ZM10.7078 9.11179L10.972 9.50422L10.8769 9.53948L10.3139 9.74743L10.3804 9.92807L10.3801 9.92816L10.3139 9.74897L9.0523 10.2157L8.98688 10.241L8.97297 10.2165L8.88286 10.0486C8.71727 9.74115 8.55301 9.433 8.39009 9.12416L10.3487 8.56706L10.4233 8.68013L10.4725 8.75466L10.6326 8.64896L10.6327 8.64916L10.6329 8.64941L10.4733 8.75543L10.6789 9.06659L10.7005 9.10048L10.8628 9.00617L10.8586 9.00904L10.7005 9.10125L10.7036 9.10664L10.7074 9.11203L10.7078 9.11179ZM11.2326 9.54826L11.2323 9.5478L11.1857 9.57541L11.186 9.57605L11.2326 9.54826ZM11.1857 9.57624L11.0686 9.64612L11.0686 9.64607L11.0829 9.6364L11.1854 9.5756L11.1857 9.57624ZM10.359 8.37284L10.3578 8.36889L10.3779 8.4272L10.359 8.37284ZM7.57123 8.73104L7.60306 8.71429L7.60307 8.71431L7.57125 8.73112L7.43942 8.80076L7.43935 8.8004L7.57123 8.73104ZM8.10882 9.0042L8.10856 9.00331L8.10892 9.0032L8.10915 9.00403L8.10882 9.0042ZM6.19166 9.11907L6.20048 9.15436L6.20039 9.15438L6.19165 9.11907L6.19112 9.11692L6.19166 9.11907ZM6.30682 9.08215L6.30658 9.08222V9.08154L6.30682 9.08215ZM6.23033 8.90331L6.24818 8.94418L7.35377 8.65517L5.75114 5.62996L5.65115 5.63925L5.25065 5.67776L4.81867 5.71919C5.2317 6.64764 5.64371 7.57655 6.05473 8.50589L6.23033 8.90331ZM5.83984 5.62231L5.83622 5.62186L5.83907 5.62154L5.83161 5.49318L5.83208 5.49293L5.83984 5.62231ZM5.83046 5.47337L5.83161 5.49302L5.83207 5.49277L5.8309 5.47317L5.82829 5.42978L5.82793 5.42979L5.83046 5.47337ZM5.88237 5.46626L5.84609 5.48538L5.8822 5.46593L5.88222 5.46597L5.88237 5.46626ZM11.1446 7.65588C10.9559 7.70586 10.7675 7.75656 10.5794 7.80863L10.1049 7.09723C10.2952 7.06006 10.5455 7.01031 10.6638 6.98621C10.7359 7.08823 10.9005 7.31684 11.0407 7.51161L11.0409 7.51187L11.1446 7.65588ZM9.83329 6.95244L9.83321 6.95245L9.8409 7.00532L9.84135 7.00502L9.84133 7.00487L9.83359 6.95239L9.83329 6.95244ZM9.84902 7.06113L9.84934 7.0616L9.84144 7.00566L9.841 7.00595L9.84902 7.06113ZM10.6273 6.93374C10.6271 6.93352 10.627 6.93342 10.627 6.93345L10.6286 6.93545C10.628 6.93461 10.6275 6.93405 10.6273 6.93374ZM11.3686 7.78218L11.3272 7.61006L11.357 7.73265L11.3687 7.78215L11.3715 7.79421L11.3686 7.78218ZM11.3374 7.604C11.3377 7.604 11.3371 7.60438 11.3357 7.60499L11.3374 7.604Z" fill="#FC8289"/>
</svg>
