<svg width="16" height="16" viewBox="0 0 16 16" fill="none" xmlns="http://www.w3.org/2000/svg">
<path d="M8 14C11.3137 14 14 11.3137 14 8C14 4.68629 11.3137 2 8 2C4.68629 2 2 4.68629 2 8C2 11.3137 4.68629 14 8 14Z" fill="#648896"/>
<path d="M7.98583 12.4025C10.74 12.4025 12.9717 10.6 12.9717 8.3775C12.9717 6.99917 12.1175 5.78167 10.8033 5.05917C10.2683 4.7625 9.84833 4.49584 9.49917 4.27417C8.84083 3.85584 8.435 3.5975 7.98583 3.5975C7.53 3.5975 7.01667 3.92417 6.33833 4.35417C5.95556 4.60195 5.56528 4.83695 5.1675 5.05917C3.855 5.78167 3 6.99917 3 8.3775C3 10.6 5.23167 12.4025 7.98583 12.4025ZM7.40417 4.97334C7.5425 4.6575 7.6125 4.31667 7.61083 3.9725C7.61083 3.9125 7.69417 3.895 7.70583 3.96084C7.98 5.11667 7.33083 5.69 6.85167 5.88167C6.8 5.90167 6.76833 5.83167 6.80917 5.795C7.06333 5.56667 7.26667 5.28667 7.40417 4.97334ZM8.25833 4.93084C8.21884 4.59204 8.10808 4.26543 7.93333 3.9725V3.96667C7.905 3.915 7.96917 3.85667 8.01083 3.895C8.82583 4.77167 8.55417 5.58417 8.24167 5.99334C8.2075 6.03584 8.14667 5.9925 8.16333 5.94084C8.26583 5.615 8.29833 5.27084 8.25833 4.93084ZM8.99667 4.6975C8.82967 4.40263 8.60151 4.1469 8.3275 3.9475V3.94167C8.28 3.90667 8.31667 3.8275 8.37417 3.85084C9.4525 4.3025 9.52667 5.1725 9.39583 5.6825C9.39271 5.6941 9.38552 5.70419 9.37558 5.71092C9.36563 5.71766 9.35359 5.72058 9.34167 5.71917C9.33008 5.71671 9.31974 5.71021 9.3125 5.70084C9.30538 5.69095 9.30212 5.6788 9.30333 5.66667C9.27086 5.32581 9.16633 4.99491 8.99667 4.6975ZM6.88333 4.93167C6.62667 5.15834 6.35 5.2475 6.02583 5.3475C5.9775 5.3475 5.945 5.31417 5.96083 5.2725C6.68917 4.89417 6.94833 4.58667 7.20667 4.1175C7.20667 4.1175 7.27167 4.06917 7.28583 4.15334C7.28583 4.27917 7.14 4.705 6.88333 4.93167ZM8.93833 9.6C8.87917 9.85 8.7425 10.0758 8.54833 10.245C8.40448 10.3887 8.2162 10.4795 8.01417 10.5025C7.80624 10.4832 7.61151 10.3921 7.46333 10.245C7.27106 10.0753 7.13648 9.84981 7.07833 9.6C7.0763 9.58513 7.07764 9.57 7.08226 9.55571C7.08688 9.54143 7.09465 9.52837 7.105 9.5175C7.11544 9.5072 7.12802 9.49933 7.14185 9.49443C7.15567 9.48953 7.1704 9.48774 7.185 9.48917H8.8325C8.84707 9.48734 8.86186 9.48903 8.87564 9.4941C8.88941 9.49918 8.90177 9.50749 8.91167 9.51834C8.9219 9.52911 8.9296 9.54203 8.93422 9.55616C8.93883 9.57029 8.94024 9.58527 8.93833 9.6ZM6.67 8.69584C6.51951 8.79884 6.33737 8.84514 6.15596 8.82653C5.97454 8.80791 5.80561 8.72558 5.67917 8.59417C5.55058 8.46055 5.47103 8.28732 5.45347 8.1027C5.43592 7.91809 5.4814 7.73297 5.5825 7.5775C5.66799 7.44586 5.79069 7.34259 5.935 7.28084C6.0784 7.2196 6.23707 7.20354 6.38983 7.23481C6.54259 7.26608 6.68219 7.34318 6.79 7.45584C6.8998 7.57039 6.97424 7.71417 7.00439 7.86996C7.03455 8.02575 7.01913 8.18692 6.96 8.33417C6.90115 8.48071 6.80024 8.60655 6.67 8.69584ZM10.2 8.6975C10.0493 8.79964 9.86727 8.84513 9.68621 8.82591C9.50516 8.80669 9.33676 8.72401 9.21083 8.5925C9.06438 8.43993 8.98282 8.23649 8.98333 8.025C8.98382 7.86598 9.02979 7.71041 9.11583 7.57667C9.20106 7.44499 9.32386 7.34193 9.46833 7.28084C9.61211 7.21943 9.77122 7.20344 9.92433 7.23501C10.0775 7.26659 10.2173 7.34422 10.325 7.4575C10.4346 7.57256 10.5086 7.71681 10.5381 7.87292C10.5677 8.02902 10.5516 8.19035 10.4917 8.3375C10.4321 8.48365 10.3306 8.6089 10.2 8.6975Z" fill="#B2CCD6"/>
</svg>
