<svg width="16" height="16" viewBox="0 0 16 16" fill="none" xmlns="http://www.w3.org/2000/svg">
<path fill-rule="evenodd" clip-rule="evenodd" d="M14 8C14 11.3137 11.3137 14 8 14C4.68629 14 2 11.3137 2 8C2 4.68629 4.68629 2 8 2C11.3137 2 14 4.68629 14 8ZM10.1175 11.6623L9.86353 10.2684C9.64496 10.3513 9.41793 10.4126 9.18494 10.4511L8.36434 10.5197C7.57375 10.5137 6.95739 10.2857 6.51817 9.84574C6.08042 9.39976 5.85203 8.79379 5.85203 8.01716C5.87033 7.16586 6.11116 6.52589 6.58039 6.10857C7.04303 5.68593 7.63597 5.47394 8.3519 5.47994C8.64067 5.47638 8.92882 5.50527 9.20983 5.56593L9.86353 5.75992L10.2222 4.33732C10.0619 4.25132 9.81522 4.17733 9.48141 4.10866C9.14761 4.04 8.74719 4 8.28382 4C7.06207 4 6.04967 4.36598 5.23493 5.07995C4.44434 5.78859 4.03075 6.79988 4 8.11982C4 9.23399 4.34552 10.154 5.03655 10.8797C5.72246 11.5997 6.74656 11.977 8.11106 11.9996C8.52804 12.0041 8.94425 11.9659 9.35184 11.8857C9.69736 11.817 9.9565 11.7423 10.1175 11.6623Z" fill="#3965BD"/>
</svg>
