<svg width="16" height="16" viewBox="0 0 16 16" fill="none" xmlns="http://www.w3.org/2000/svg">
<path fill-rule="evenodd" clip-rule="evenodd" d="M14 8C14 11.3137 11.3137 14 8 14C4.68629 14 2 11.3137 2 8C2 4.68629 4.68629 2 8 2C11.3137 2 14 4.68629 14 8ZM6.62289 4.941C7.17499 4.89424 7.27811 5.12289 7.08789 5.2036C6.20529 4.91089 5.98625 5.57188 6.82593 5.50142C7.17246 5.4718 7.36038 5.3493 7.56678 5.21476C7.81549 5.05264 8.09101 4.87303 8.7032 4.81738C9.57682 4.73732 10.0642 5.00697 10.1296 5.33426C10.1808 5.58917 9.9688 5.82359 9.33664 5.887C8.51041 5.97026 8.08128 5.50398 8.71793 5.40663C8.74739 5.53089 8.89983 5.66154 9.26363 5.62504C9.52623 5.60326 9.74399 5.50911 9.71517 5.36308C9.68571 5.21064 9.40902 5.12289 8.9722 5.1594C8.51186 5.20095 8.2316 5.35219 7.96268 5.49732C7.71339 5.63184 7.47385 5.76111 7.10966 5.79285C6.12587 5.90685 5.58978 5.04732 6.62289 4.941ZM5.04353 5.36693C3.23351 6.05609 5.71156 6.76767 8.21587 6.75679L8.21651 6.75743C10.5953 6.74782 13.033 6.0926 11.5342 5.4329C12.119 6.03496 10.1597 6.4295 8.20434 6.41925C6.24444 6.40836 4.28903 5.9914 5.04353 5.36693ZM4.47601 6.53262C4.53695 6.93459 4.63604 7.32985 4.77191 7.71304C4.61307 7.80911 4.46896 7.93785 4.33766 8.10438C4.10187 8.39536 3.9825 8.76351 4.00269 9.13749C4.02446 9.49424 4.19932 9.78502 4.47601 10.0105C4.76679 10.2359 5.07999 10.3019 5.43674 10.2359C5.52734 10.2216 5.62458 10.1854 5.71991 10.1499L5.71992 10.1499C5.76949 10.1314 5.81854 10.1131 5.86587 10.0982C5.57445 10.0982 5.32722 10.0034 5.07999 9.8068C4.81034 9.61017 4.63165 9.33348 4.58489 8.99914C4.53301 8.62446 4.59578 8.285 4.884 8.00766C5.10048 8.58282 5.56804 9.27071 6.02599 9.86508C6.13703 10.0792 6.22012 10.3068 6.27322 10.5421C6.92139 11.5175 9.65884 11.3958 10.2135 10.5421C10.2571 10.316 10.341 10.0905 10.4505 9.86508C10.5481 9.72519 10.6457 9.58909 10.7433 9.45299L10.7434 9.45289C10.9147 9.21391 11.0861 8.97492 11.2575 8.7154C11.6143 8.06787 11.8615 7.32554 11.9998 6.53262C11.3107 7.57918 5.17094 7.55164 4.47601 6.53262Z" fill="#F78C6C"/>
</svg>
