<svg width="16" height="16" viewBox="0 0 16 16" fill="none" xmlns="http://www.w3.org/2000/svg">
<path fill-rule="evenodd" clip-rule="evenodd" d="M14 8C14 11.3137 11.3137 14 8 14C4.68629 14 2 11.3137 2 8C2 4.68629 4.68629 2 8 2C11.3137 2 14 4.68629 14 8ZM8.20075 10.7469L8.0275 9.70143C7.8955 9.75693 7.74325 9.80417 7.561 9.83792L6.997 9.88967C6.45475 9.88517 6.03025 9.71418 5.7295 9.3842C5.42875 9.04972 5.272 8.59525 5.272 8.01254C5.28475 7.37434 5.44975 6.89437 5.77225 6.58164C6.09075 6.26366 6.49625 6.10642 6.98875 6.10992C7.18691 6.10703 7.38467 6.1287 7.5775 6.17442L8.0275 6.31991L8.27275 5.25273C8.16225 5.18874 7.99275 5.13174 7.76425 5.08174C7.53475 5.03 7.26025 5 6.94225 5C6.10225 5 5.40775 5.27448 4.8475 5.80994C4.3045 6.34091 4.022 7.10086 4 8.08979C4 8.92523 4.23725 9.61519 4.71175 10.1596C5.182 10.6996 5.8855 10.9823 6.82225 10.9996C7.10908 11.0038 7.39546 10.9751 7.67575 10.9141C7.91275 10.8624 8.0905 10.8069 8.20075 10.7469ZM8.3365 7.57157H7.489L7.48975 8.42802H8.33725V9.28446H9.18475V8.42727H10.0323V7.57157H9.18475V6.71438H8.3365V7.57157ZM10.4567 7.57157H11.3043L11.305 6.71438H12.1525V7.57232H13V8.42802H12.1518V9.28446H11.3043V8.42727H10.4567V7.57157Z" fill="#3965BD"/>
</svg>
