<svg width="16" height="16" viewBox="0 0 16 16" fill="none" xmlns="http://www.w3.org/2000/svg">
<path fill-rule="evenodd" clip-rule="evenodd" d="M14 8C14 11.3137 11.3137 14 8 14C4.68629 14 2 11.3137 2 8C2 4.68629 4.68629 2 8 2C11.3137 2 14 4.68629 14 8ZM9.09255 11.9859L11.988 9.09047L11.9873 9.0898C11.9993 9.07847 12.0053 9.06647 11.994 9.04914L10.9339 5.0932C10.933 5.08031 10.9235 5.07054 10.9053 5.06387L6.94916 4.00207C6.93783 3.99673 6.9205 4.00207 6.90916 4.01406L4.01375 6.90953C4.00131 6.9202 3.99731 6.93375 4.00175 6.95019L5.06778 10.9068C5.06778 10.9188 5.07912 10.9301 5.09645 10.9361L9.05189 11.9979C9.06322 12.0033 9.08055 11.9979 9.09255 11.9859ZM4.22176 6.97885L8.10786 5.94038C8.11386 5.93505 8.12586 5.94704 8.1192 5.94704L7.07717 9.83366C7.07717 9.84566 7.06517 9.84566 7.05983 9.83966L4.21643 6.99618C4.21043 6.99085 4.21643 6.97885 4.22176 6.97885Z" fill="#B2CCD6"/>
</svg>
