<svg width="16" height="16" viewBox="0 0 16 16" fill="none" xmlns="http://www.w3.org/2000/svg">
<path fill-rule="evenodd" clip-rule="evenodd" d="M14 8C14 11.3137 11.3137 14 8 14C4.68629 14 2 11.3137 2 8C2 4.68629 4.68629 2 8 2C11.3137 2 14 4.68629 14 8ZM6.44034 12H4.91524L5.35623 9.79304H4V8.65544H5.62747L5.89872 7.27631H4.47424V6.1387H6.13584L6.54271 4H8.06781L7.62769 6.1387H9.15279L9.59291 4H11.0848L10.6438 6.1387H12V7.27631H10.4408L10.1695 8.65544H11.559V9.79304H9.89828L9.49142 12H7.96544L8.37231 9.79304H6.84721L6.44034 12ZM7.11933 8.65631H8.64443L8.91567 7.27718H7.39057L7.11933 8.65631Z" fill="#9179E4"/>
</svg>
