<svg width="16" height="16" viewBox="0 0 16 16" fill="none" xmlns="http://www.w3.org/2000/svg">
<path fill-rule="evenodd" clip-rule="evenodd" d="M14 8C14 11.3137 11.3137 14 8 14C4.68629 14 2 11.3137 2 8C2 4.68629 4.68629 2 8 2C11.3137 2 14 4.68629 14 8ZM6.16626 9.11323C6.16631 9.08564 6.16636 9.05726 6.1664 9.02807C6.17173 8.45553 6.02987 8.11012 5.49973 7.99893C5.74436 7.9453 5.91644 7.84357 6.016 7.69373C6.18229 7.41471 6.17444 7.03099 6.1672 6.67725C6.16023 6.33664 6.15383 6.02382 6.304 5.85902C6.39893 5.74546 6.71573 5.70524 7.1456 5.71707V5.00495C7.10989 5.00459 7.07455 5.0042 7.03959 5.00381C6.27887 4.99544 5.69784 4.98905 5.3664 5.28649C5.00268 5.5952 5.01598 6.09659 5.02823 6.55875C5.03819 6.93422 5.04745 7.2838 4.85333 7.48317C4.71893 7.62276 4.42667 7.68072 4 7.66534V8.37155C4.3104 8.35144 4.68373 8.38219 4.8544 8.55963C5.04213 8.76068 5.03932 9.08412 5.03501 9.57932C5.03432 9.6581 5.0336 9.74123 5.0336 9.82891C5.03253 10.8817 5.77067 10.9834 6.4256 11H7.1456V10.2879C6.71893 10.2926 6.45333 10.2725 6.30507 10.1471C6.1647 9.98804 6.16507 9.78423 6.16626 9.11323ZM9.98293 7.69255C10.0832 7.84317 10.2556 7.94491 10.5003 7.99774C9.97013 8.10894 9.82827 8.45435 9.83253 9.02807C9.83258 9.05746 9.83263 9.08602 9.83268 9.11378C9.83387 9.78434 9.83423 9.98809 9.69493 10.1471C9.54667 10.2725 9.28 10.2926 8.85333 10.2879V11H9.57547C10.2293 10.9834 10.9685 10.8817 10.9664 9.82891C10.9664 9.74314 10.9657 9.66172 10.9651 9.58446C10.961 9.08636 10.9583 8.76138 11.1467 8.55963C11.3173 8.38101 11.6896 8.35144 12 8.37155V7.66416C11.5733 7.67954 11.2811 7.62157 11.1456 7.48199C10.9521 7.28275 10.9615 6.93349 10.9716 6.5583C10.984 6.09593 10.9975 5.59418 10.6336 5.2853C10.3022 4.98786 9.72113 4.99426 8.96041 5.00263C8.92545 5.00302 8.89011 5.0034 8.8544 5.00377V5.71589C9.28427 5.70406 9.60107 5.74428 9.69493 5.85665C9.84588 6.02231 9.83947 6.33621 9.8325 6.67764C9.82528 7.03106 9.81746 7.41398 9.98293 7.69255Z" fill="#264DE4"/>
</svg>
