<svg width="16" height="16" viewBox="0 0 16 16" fill="none" xmlns="http://www.w3.org/2000/svg">
<path fill-rule="evenodd" clip-rule="evenodd" d="M2.0498 7.40031C2.25102 7.9157 3.4993 10.7773 6.50819 11.062V10.44C6.66056 10.46 6.8136 10.47 6.96732 10.47C8.9512 10.47 10.3857 9.452 11.7752 8.247C11.8773 8.32899 12.1193 8.46323 12.3741 8.60454C12.6941 8.78207 13.0342 8.97075 13.1425 9.081C11.8213 10.192 8.74168 11.088 6.99839 11.088C6.82998 11.0873 6.66724 11.0787 6.51019 11.062V12H12.5182C13.4706 10.9385 14.0498 9.53671 14.0498 8C14.0498 6.46329 13.4706 5.06151 12.5182 4H6.50819V5.07916C4.30291 5.25779 2.37135 6.99081 2.06298 7.28014C2.0582 7.32008 2.0538 7.36014 2.0498 7.40031ZM6.51019 5.07985C6.57971 5.07458 6.64988 5.06996 6.72071 5.066C9.45544 4.974 11.2378 7.321 11.2378 7.321C11.2378 7.321 9.19079 9.821 7.05854 9.821C6.874 9.82188 6.68977 9.80581 6.50819 9.773V9.20466C6.50852 9.20477 6.50885 9.20489 6.50919 9.205L6.50819 9.203V9.20466C5.47442 8.85422 5.13881 7.642 5.13881 7.642C5.30574 7.44235 5.51516 7.2823 5.75186 7.1735C5.98856 7.0647 6.24658 7.00987 6.50718 7.013L6.50919 7.012V9.202C6.69659 9.26455 6.89301 9.29597 7.09062 9.295C8.5843 9.295 9.97773 7.352 9.97773 7.352C9.97773 7.352 8.68755 5.592 6.72071 5.653C6.64922 5.65498 6.57905 5.65892 6.51019 5.66483V5.07985ZM6.50819 5.66516C6.50885 5.6651 6.50952 5.66505 6.51019 5.665V5.66483C6.50952 5.66488 6.50885 5.66494 6.50819 5.665V5.66516ZM6.50819 5.66516C5.87023 5.71472 5.25009 5.89888 4.68881 6.20543C4.12694 6.51231 3.6369 6.93484 3.25117 7.445L3.25017 7.444C3.25017 7.444 4.08221 10.133 6.50819 10.44V9.773C4.67367 9.444 4.16542 7.528 4.16542 7.528C4.79525 6.89494 5.62131 6.49314 6.50919 6.388V7.012C7.22589 7.09914 7.4057 7.40227 7.80488 8.07523C7.83171 8.12047 7.85954 8.16737 7.88858 8.216L8.9121 7.348C8.66717 7.05082 8.3614 6.80928 8.01527 6.63958C7.66914 6.46987 7.29065 6.37591 6.90516 6.364C6.77254 6.36511 6.64005 6.37279 6.50819 6.387V5.66516Z" fill="#AEE33E"/>
<path fill-rule="evenodd" clip-rule="evenodd" d="M6.51099 4V2.18903C6.9916 2.06563 7.49546 2 8.01469 2C9.79607 2 11.3966 2.7725 12.4979 4H6.51099ZM6.51099 12H12.4979C11.3966 13.2275 9.79607 14 8.01469 14C7.49546 14 6.9916 13.9344 6.51099 13.811V12Z" fill="#AEE33E"/>
</svg>
