<svg width="16" height="16" viewBox="0 0 16 16" fill="none" xmlns="http://www.w3.org/2000/svg">
<path fill-rule="evenodd" clip-rule="evenodd" d="M14 8C14 11.3137 11.3137 14 8 14C4.68629 14 2 11.3137 2 8C2 4.68629 4.68629 2 8 2C11.3137 2 14 4.68629 14 8ZM5.65859 6.21121C7.66859 6.10961 8.20216 7.19761 8.18287 7.95601C8.11001 9.54161 6.75644 9.77841 5.68859 9.78321L4.7743 9.78481V6.21281L5.65859 6.21121ZM11.3236 6.42161C10.965 5.67121 9.97501 5.12801 9.0093 5.94721C8.28859 5.33361 7.51787 5.12161 6.20073 5.11601L4.12216 5.11921C4.02144 5.13281 3.94287 5.21841 3.94287 5.32241L3.94859 10.6376C3.94144 10.8056 4.03001 10.868 4.16073 10.884H6.08001C8.78716 11.0064 9.73859 9.44401 9.91573 8.39441C11.2522 8.42801 11.6807 7.16881 11.3236 6.42161ZM11.4157 5.02561C11.1072 5.20001 11.1072 5.63921 11.4157 5.81521C11.7243 5.98961 12.1129 5.76961 12.1129 5.42001C12.1129 5.07041 11.7243 4.85041 11.4157 5.02561Z" fill="#FC8289"/>
</svg>
