<svg width="16" height="16" viewBox="0 0 16 16" fill="none" xmlns="http://www.w3.org/2000/svg">
<path fill-rule="evenodd" clip-rule="evenodd" d="M14 8C14 11.3137 11.3137 14 8 14C4.68629 14 2 11.3137 2 8C2 4.68629 4.68629 2 8 2C11.3137 2 14 4.68629 14 8ZM8.19753 5H7.4098V5.70875H8.19753V5ZM11.1814 5.88486C10.7628 6.25714 10.8527 7.0969 11.1814 7.37897C10.7215 7.60949 10.2623 7.64958 9.52395 7.63097L9.33776 7.64886H4.11963L3.93344 7.63097H3.02238C2.95554 8.39269 3.02874 8.79002 3.37407 9.34127C3.99551 10.277 5.02353 10.7273 6.45975 10.7273C9.17941 10.7094 11.0119 9.6033 11.8641 7.75697C12.8054 7.79061 13.2263 7.47919 13.5 6.98307C13.0783 6.75255 12.6693 6.6559 12.1123 6.80266C12.0577 6.4552 11.8301 6.14331 11.4296 5.86697L11.3047 5.75886L11.1814 5.88486ZM4.1801 6.89H4.96784V7.59875H4.1801V6.89ZM6.05077 6.89H5.26304V7.59875H6.05077V6.89ZM6.34597 6.89H7.1329L7.1337 7.59875H6.34597V6.89ZM8.19674 6.89H7.40901V7.59875H8.19674V6.89ZM5.26383 5.945H6.05156V6.65375H5.26383V5.945ZM7.1345 5.945H6.34676V6.65375H7.1345V5.945ZM7.4098 5.945H8.19753V6.65375H7.4098V5.945ZM8.47921 6.89H9.26694V7.59875H8.47921V6.89Z" fill="#3965BD"/>
</svg>
