<svg width="16" height="16" viewBox="0 0 16 16" fill="none" xmlns="http://www.w3.org/2000/svg">
<path d="M8 14C11.3137 14 14 11.3137 14 8C14 4.68629 11.3137 2 8 2C4.68629 2 2 4.68629 2 8C2 11.3137 4.68629 14 8 14Z" fill="#EDECEA"/>
<path d="M7.56325 12C6.14768 12 5 10.6367 5 8.95526C5 7.57775 6.01728 5.89472 6.80264 4.86944C7.17481 4.38448 7.87744 4 7.87744 4C7.87744 4 7.51719 5.96178 8.49436 6.74082C9.36154 7.43243 10 8.33207 10 9.12347C10 10.7085 8.97905 12 7.56325 12Z" fill="#5654BC"/>
</svg>
