<svg width="16" height="16" viewBox="0 0 16 16" fill="none" xmlns="http://www.w3.org/2000/svg">
<path d="M8 14C11.3137 14 14 11.3137 14 8C14 4.68629 11.3137 2 8 2C4.68629 2 2 4.68629 2 8C2 11.3137 4.68629 14 8 14Z" fill="white"/>
<path d="M8 7L11 5.47565L8.13483 4.0288C8.03371 3.9904 7.93258 3.9904 7.86517 4.0288L5 5.47565L8 7Z" fill="#89DDFF"/>
<path d="M8.4 7.50017V12L11.76 10.6126C11.92 10.537 12 10.4244 12 10.275V6L8.4 7.50017ZM7.6 7.50017L4 6V10.275C4 10.4249 4.08 10.5748 4.24 10.6119L7.6 12V7.50017Z" fill="#82AAFF"/>
</svg>
