<svg width="16" height="16" viewBox="0 0 16 16" fill="none" xmlns="http://www.w3.org/2000/svg">
<path d="M8 14C11.3137 14 14 11.3137 14 8C14 4.68629 11.3137 2 8 2C4.68629 2 2 4.68629 2 8C2 11.3137 4.68629 14 8 14Z" fill="#FFCB6B"/>
<path d="M11.7145 6.43369L9.35458 6.11914L8.29995 4.15718C8.26936 4.10933 8.22568 4.06965 8.17323 4.04208C8.12078 4.01451 8.0614 4 8.00096 4C7.94052 4 7.88113 4.01451 7.82868 4.04208C7.77623 4.06965 7.73255 4.10933 7.70197 4.15718L6.64533 6.11914L4.28541 6.4343C4.22392 6.4425 4.16616 6.46631 4.11864 6.50304C4.07111 6.53978 4.03571 6.58797 4.01644 6.64219C3.99717 6.69641 3.99479 6.75449 4.00957 6.80989C4.02435 6.86529 4.0557 6.91579 4.10008 6.95569L5.80869 8.48377L5.40537 10.6422C5.39482 10.6985 5.40166 10.7564 5.42511 10.8093C5.44857 10.8622 5.48769 10.9081 5.53807 10.9416C5.58844 10.9752 5.64804 10.9952 5.71013 10.9992C5.77221 11.0033 5.8343 10.9913 5.88936 10.9647L7.99996 9.94575L10.1106 10.9647C10.1656 10.9913 10.2277 11.0033 10.2898 10.9992C10.3519 10.9952 10.4115 10.9752 10.4618 10.9416C10.5122 10.9081 10.5513 10.8622 10.5748 10.8093C10.5982 10.7564 10.6051 10.6985 10.5945 10.6422L10.1919 8.48377L11.8998 6.95569C11.9442 6.91583 11.9756 6.86537 11.9904 6.81002C12.0052 6.75467 12.0029 6.69663 11.9837 6.64242C11.9645 6.58822 11.9292 6.54001 11.8817 6.50324C11.8343 6.46647 11.7766 6.44259 11.7152 6.4343L11.7145 6.43369Z" fill="#35394B"/>
</svg>
