<svg width="16" height="16" viewBox="0 0 16 16" fill="none" xmlns="http://www.w3.org/2000/svg">
<path fill-rule="evenodd" clip-rule="evenodd" d="M3.94507 9.83699L5.12807 2.22999C5.13676 2.17376 5.16293 2.1217 5.20286 2.08118C5.2428 2.04065 5.29447 2.01373 5.35057 2.00421C5.40666 1.9947 5.46432 2.00308 5.51538 2.02817C5.56645 2.05325 5.60832 2.09378 5.63507 2.14399L6.90707 4.52999L3.94507 9.83699Z" fill="#AC4142"/>
<path fill-rule="evenodd" clip-rule="evenodd" d="M12.343 11.682L11.217 4.682C11.2086 4.63288 11.1869 4.58701 11.1542 4.54939C11.1215 4.51177 11.0791 4.48386 11.0317 4.46869C10.9842 4.45352 10.9335 4.45168 10.885 4.46338C10.8366 4.47507 10.7923 4.49984 10.757 4.535L3.65698 11.682L7.58598 13.896C7.70708 13.964 7.84361 13.9997 7.98248 13.9997C8.12135 13.9997 8.25789 13.964 8.37898 13.896L12.343 11.682Z" fill="#FFCB6B"/>
<path fill-rule="evenodd" clip-rule="evenodd" d="M9.14989 5.57398L8.23989 3.83398C8.21693 3.7902 8.18243 3.75353 8.14013 3.72795C8.09783 3.70237 8.04933 3.68884 7.99989 3.68884C7.95045 3.68884 7.90196 3.70237 7.85966 3.72795C7.81735 3.75353 7.78285 3.7902 7.75989 3.83398L3.76489 10.992L9.14989 5.57398Z" fill="#F78C6C"/>
</svg>
