<svg width="16" height="16" viewBox="0 0 16 16" fill="none" xmlns="http://www.w3.org/2000/svg">
<path fill-rule="evenodd" clip-rule="evenodd" d="M8 14C11.3137 14 14 11.3137 14 8C14 4.68629 11.3137 2 8 2C4.68629 2 2 4.68629 2 8C2 11.3137 4.68629 14 8 14ZM5.25 11V10.5188L6.07188 10.472C6.16875 10.466 6.1875 10.439 6.1875 10.34V5.6H4.68375C4.60813 5.6 4.58687 5.6066 4.57312 5.6732L4.46312 6.2H4V5H9V6.2H8.5375L8.42688 5.6732C8.4125 5.606 8.39188 5.6 8.31625 5.6H6.8125V10.34C6.8125 10.4324 6.825 10.4588 6.92812 10.466L7.75 10.5182V11H5.25ZM9 10.5065V11H11V10.5065L10.4567 10.4523C10.3467 10.4449 10.3333 10.4178 10.3333 10.3231V7.61538H11.2707C11.3513 7.61538 11.374 7.62215 11.3887 7.69046L11.5067 8.23077H12V7H8V8.23077H8.494L8.61133 7.69046C8.626 7.62215 8.64867 7.61538 8.72933 7.61538H9.66667V10.3231C9.66667 10.4246 9.64667 10.4523 9.54333 10.4585L9 10.5065Z" fill="#9883EC"/>
</svg>
