<svg width="16" height="16" viewBox="0 0 16 16" fill="none" xmlns="http://www.w3.org/2000/svg">
<path fill-rule="evenodd" clip-rule="evenodd" d="M14 8C14 11.3137 11.3137 14 8 14C4.68629 14 2 11.3137 2 8C2 4.68629 4.68629 2 8 2C11.3137 2 14 4.68629 14 8ZM8.44414 3.1886L12.8106 7.5554L12.8114 7.55457C12.9322 7.67537 13 7.83919 13 8.01C13 8.18081 12.9322 8.34463 12.8114 8.46543L8.46581 12.8114C8.34502 12.9322 8.18121 13 8.01042 13C7.83962 13 7.67582 12.9322 7.55502 12.8114L3.18858 8.4446C3.06783 8.32379 3 8.15998 3 7.98917C3 7.81836 3.06783 7.65454 3.18858 7.53374L6.18259 4.54114L7.31337 5.67451C7.27438 5.76782 7.25424 5.86792 7.2541 5.96904C7.25396 6.07017 7.27382 6.17033 7.31255 6.26374C7.35127 6.35716 7.4081 6.44199 7.47974 6.51335C7.55139 6.58471 7.63645 6.64119 7.73001 6.67954V9.42546C7.5778 9.48804 7.44977 9.59795 7.36484 9.73893C7.27992 9.87991 7.24261 10.0445 7.25844 10.2083C7.27427 10.3721 7.3424 10.5265 7.45274 10.6486C7.56308 10.7707 7.70979 10.8541 7.87117 10.8864C8.03255 10.9186 8.20003 10.8981 8.34884 10.8279C8.49766 10.7576 8.61992 10.6413 8.69753 10.4961C8.77515 10.351 8.804 10.1848 8.77983 10.022C8.75566 9.85915 8.67974 9.70845 8.5633 9.59213C8.50164 9.53158 8.43414 9.48324 8.36081 9.44713V6.72704L9.39576 7.76208C9.32916 7.92574 9.32113 8.10739 9.37303 8.2763C9.42493 8.4452 9.53357 8.591 9.68058 8.68901C9.8276 8.78703 10.004 8.83125 10.1798 8.8142C10.3557 8.79715 10.5202 8.71987 10.6457 8.59543C10.7699 8.47337 10.8487 8.3126 10.8691 8.13969C10.8896 7.96677 10.8504 7.79206 10.7581 7.6444C10.6659 7.49675 10.526 7.38499 10.3616 7.3276C10.1972 7.2702 10.0182 7.2706 9.85407 7.32873L8.74579 6.22036C8.79301 6.08507 8.80123 5.93922 8.76953 5.79948C8.73783 5.65973 8.66748 5.53172 8.56651 5.43005C8.46554 5.32837 8.33802 5.25714 8.19851 5.22448C8.059 5.19182 7.91311 5.19904 7.77751 5.24533L6.62757 4.09529L7.53336 3.1886C7.65415 3.06784 7.81795 3 7.98875 3C8.15955 3 8.32335 3.06784 8.44414 3.1886Z" fill="#FC8289"/>
</svg>
