<svg width="16" height="16" viewBox="0 0 16 16" fill="none" xmlns="http://www.w3.org/2000/svg">
<path fill-rule="evenodd" clip-rule="evenodd" d="M14 8C14 11.3137 11.3137 14 8 14C4.68629 14 2 11.3137 2 8C2 4.68629 4.68629 2 8 2C11.3137 2 14 4.68629 14 8ZM3.8731 7.00865L3.73123 7.20407L5.55992 7.20339L5.67554 7.00798L3.8731 7.00865ZM5.42617 7.48843L5.36617 7.68384L3 7.68586L3.14187 7.49045L5.42617 7.48843ZM5.31805 7.97089L5.30055 8.16631L4.17809 8.16698L4.27871 7.97157L5.31805 7.97089ZM9.19668 8.74985C9.56229 10.0369 10.9272 10.2882 11.9272 9.69457L11.9278 9.69525C12.8591 9.14203 13.0778 8.20606 12.9778 7.51538C12.6959 5.57136 9.9229 5.47702 9.2123 7.64004H7.57048L7.21861 8.45808L8.31233 8.45471C8.09046 8.81724 7.7936 9.05173 7.35174 8.99109C6.50114 8.81589 6.48801 7.63734 7.19237 7.16903C7.63985 6.81998 8.22233 7.05111 8.32983 7.3732L9.33855 7.08749C9.01793 6.16568 8.09171 5.79507 7.15237 6.11043C6.56239 6.31797 5.56242 7.14073 5.69054 8.47223C5.86366 9.86168 7.21424 10.3037 8.20921 9.797C8.63622 9.57453 8.98329 9.20649 9.19668 8.74985ZM10.1854 8.38126C10.0685 7.91834 10.2579 7.19531 11.0166 7.02011C12.131 6.76203 12.3884 8.39339 11.406 8.88866C10.7935 9.19795 10.3104 8.87451 10.1854 8.38126Z" fill="#FC8289"/>
<path fill-rule="evenodd" clip-rule="evenodd" d="M15.375 11.329H15.063V10.663C15.063 9.745 14.363 9 13.5 9C12.637 9 11.938 9.745 11.938 10.663V11.328H11.625C11.281 11.328 11 11.628 11 11.994V15.32C11 15.686 11.281 15.986 11.625 15.986H15.375C15.719 15.986 16 15.686 16 15.32V11.994C16 11.628 15.719 11.329 15.375 11.329ZM13.5 14.322C13.156 14.322 12.875 14.023 12.875 13.657C12.875 13.291 13.156 12.992 13.5 12.992C13.844 12.992 14.125 13.292 14.125 13.657C14.125 14.022 13.844 14.322 13.5 14.322ZM12.531 10.663V11.328H14.469V10.663C14.469 10.094 14.034 9.632 13.5 9.632C12.966 9.632 12.531 10.094 12.531 10.663Z" fill="#FFCB6B"/>
</svg>
