<svg width="16" height="16" viewBox="0 0 16 16" fill="none" xmlns="http://www.w3.org/2000/svg">
<path fill-rule="evenodd" clip-rule="evenodd" d="M14 8C14 11.3137 11.3137 14 8 14C4.68629 14 2 11.3137 2 8C2 4.68629 4.68629 2 8 2C11.3137 2 14 4.68629 14 8ZM11.7594 5.63485C11.4762 5.15162 10.9701 5.00684 10.6123 5.00023C10.1736 4.99164 9.81302 5.22235 9.88117 5.37373C9.92471 5.46709 9.97401 5.55802 10.0288 5.64609C10.097 5.74062 10.2155 5.67914 10.268 5.65138L10.2787 5.64609C10.4159 5.57755 10.5733 5.55205 10.7273 5.57337C10.8863 5.59056 11.0971 5.68311 11.2384 5.94092C11.5713 6.54777 10.5435 7.79585 9.25863 6.93119C7.9731 6.06718 6.72307 6.35342 6.15661 6.52794C5.59015 6.7018 5.33035 6.87698 5.55466 7.28221C5.60626 7.37554 5.64618 7.44822 5.67834 7.50679C5.74619 7.63032 5.77954 7.69104 5.81518 7.75024C5.84821 7.80524 5.88337 7.85926 5.95001 7.96167C5.97787 8.00449 6.01124 8.05576 6.05226 8.11911C6.52005 8.84231 7.54436 7.78593 7.54436 7.78593C6.78198 8.85354 6.12751 8.59507 5.87622 8.22223C5.64978 7.88642 5.47445 7.49837 5.47445 7.49837C3.54083 8.14555 4.0647 11 4.0647 11H5.0237C5.2693 9.94892 6.14454 9.98792 6.29432 11H7.02688C7.67497 8.94741 9.31684 11 9.31684 11H10.2716C10.0701 9.94547 10.477 9.43577 10.907 8.8973L10.9076 8.89651C11.0482 8.72067 11.1908 8.54152 11.3158 8.33858C11.8233 7.51821 12.3039 6.51406 11.7594 5.63485ZM9.29625 8.33858C8.79155 8.18191 8.97256 7.70528 8.97256 7.70528C8.97256 7.70528 9.41338 7.84014 10.0096 8.02524C9.97558 8.17331 9.67815 8.45625 9.29625 8.33858Z" fill="#209BC4"/>
</svg>
