<svg width="16" height="16" viewBox="0 0 16 16" fill="none" xmlns="http://www.w3.org/2000/svg">
<path fill-rule="evenodd" clip-rule="evenodd" d="M14 8C14 11.3137 11.3137 14 8 14C4.68629 14 2 11.3137 2 8C2 4.68629 4.68629 2 8 2C11.3137 2 14 4.68629 14 8ZM8.28125 4.03688C8.30729 4.03009 8.31025 4.02464 8.2936 4.01411C8.27619 4.00312 8.27691 4.0002 8.29713 4.00001C8.35101 3.99948 8.36198 4.0369 8.36394 4.22808C8.36633 4.46129 8.37696 4.51718 8.41756 4.51013C8.43835 4.50651 8.44362 4.51149 8.43492 4.52649C8.42759 4.53913 8.42861 4.5424 8.43738 4.53442C8.44559 4.5269 8.45233 4.5128 8.45233 4.50304C8.45233 4.49329 8.46259 4.48189 8.47514 4.47774C8.49074 4.47255 8.49381 4.4773 8.48483 4.49273C8.47708 4.50607 8.47781 4.50974 8.48665 4.50168C8.49486 4.49417 8.5016 4.47954 8.5016 4.46916C8.5016 4.45879 8.55569 4.42258 8.6218 4.3887C8.70983 4.3436 8.76039 4.32772 8.81067 4.32942L8.87933 4.33175L8.81364 4.34346L8.74794 4.35518L8.80953 4.35751C8.85586 4.35926 8.8714 4.36693 8.87227 4.38847C8.87325 4.41296 8.87547 4.41237 8.88754 4.38438C8.9174 4.31513 8.9017 4.40134 8.84653 4.60954C8.81495 4.72876 8.78909 4.85022 8.78905 4.87948C8.789 4.92953 8.79245 4.93267 8.84745 4.93267C8.88746 4.93267 8.90221 4.93863 8.89419 4.95158C8.88687 4.96338 8.88969 4.96601 8.9017 4.95861C8.91228 4.9521 8.91737 4.94105 8.91303 4.93405C8.90868 4.92704 8.9286 4.89994 8.95729 4.8738C8.98598 4.84766 8.9996 4.83918 8.98754 4.85493C8.94496 4.91059 8.98007 4.88238 9.07692 4.78308C9.13084 4.72782 9.16572 4.68774 9.15442 4.69403C9.12052 4.71291 9.13126 4.68642 9.17084 4.65352C9.21336 4.61817 9.24007 4.61224 9.22204 4.64216C9.21387 4.65569 9.21924 4.65491 9.23788 4.63982C9.25339 4.6273 9.26226 4.61324 9.25761 4.60861C9.24664 4.59767 9.28106 4.55623 9.3011 4.55623C9.30957 4.55623 9.31192 4.5636 9.30634 4.5726C9.28981 4.59925 9.30867 4.59126 9.33307 4.56127C9.35247 4.53743 9.35217 4.53533 9.33097 4.54615C9.31742 4.55307 9.32419 4.54311 9.346 4.52402C9.36781 4.50494 9.39528 4.49302 9.40706 4.49753C9.41884 4.50203 9.43353 4.49753 9.43973 4.48753C9.44703 4.47574 9.44344 4.47401 9.42951 4.48258C9.41486 4.4916 9.41197 4.48946 9.42043 4.47581C9.42724 4.46481 9.44355 4.4599 9.45666 4.46491C9.47026 4.47011 9.47609 4.46692 9.47022 4.45748C9.45617 4.43481 9.61071 4.36672 9.76619 4.3271C9.93116 4.28505 10.1518 4.28413 10.3082 4.32487C10.4394 4.35906 10.6342 4.45189 10.6206 4.47383C10.6156 4.4819 10.6201 4.49383 10.6307 4.50034C10.6427 4.50774 10.6455 4.5051 10.6382 4.4933C10.6154 4.45651 10.6561 4.47504 10.6954 4.51929C10.7312 4.55972 10.7315 4.56109 10.6982 4.53312C10.6779 4.51604 10.6613 4.50627 10.6613 4.5114C10.6613 4.51654 10.6927 4.54499 10.7311 4.57461C10.7885 4.61895 10.7953 4.62137 10.7694 4.58826C10.7521 4.56615 10.7767 4.58679 10.8241 4.63414C10.9152 4.72514 10.9219 4.75298 10.8571 4.77102C10.8232 4.78046 10.8222 4.78251 10.8501 4.7848C10.8682 4.78629 10.8091 4.81149 10.7187 4.84084C10.5412 4.89851 10.4372 4.94637 10.3533 5.00902C10.324 5.03095 10.2999 5.04395 10.2999 5.03788C10.2999 5.03182 10.2889 5.03603 10.2753 5.04724C10.2618 5.05845 10.2507 5.07549 10.2507 5.08511C10.2507 5.09472 10.2624 5.0883 10.2767 5.07082C10.3022 5.03951 10.3024 5.03953 10.2897 5.07179C10.2694 5.12343 10.2629 5.33618 10.2807 5.36929C10.2908 5.38815 10.3386 5.40998 10.4096 5.42821C10.5302 5.45918 10.6357 5.51324 10.6212 5.53664C10.6163 5.54448 10.6252 5.56095 10.6409 5.57322C10.6668 5.5934 10.6673 5.59281 10.6469 5.56689C10.6184 5.5306 10.6408 5.52956 10.6805 5.56533C10.712 5.59375 10.7224 5.62933 10.6941 5.6119C10.6674 5.59543 10.6754 5.61422 10.7055 5.63854C10.7291 5.65766 10.7312 5.65759 10.7193 5.638C10.7099 5.62231 10.7115 5.61877 10.7246 5.62684C10.7352 5.63335 10.76 5.66948 10.7797 5.70712C10.8255 5.79457 10.8294 5.991 10.7871 6.07835C10.7718 6.10986 10.7636 6.12091 10.7689 6.1029C10.7959 6.01092 10.7893 5.98519 10.7605 6.07017C10.7423 6.12418 10.7308 6.17796 10.7351 6.18968C10.7399 6.20266 10.7356 6.20641 10.724 6.19927C10.7112 6.19137 10.7085 6.1967 10.7158 6.21564C10.723 6.23456 10.7204 6.23989 10.7076 6.23201C10.6947 6.2241 10.692 6.22944 10.6993 6.24837C10.7066 6.26729 10.7039 6.27263 10.6911 6.26474C10.6785 6.25693 10.6756 6.26204 10.6825 6.28006C10.6887 6.29628 10.6853 6.30554 10.6739 6.3032C10.6635 6.30106 10.6367 6.3435 10.6145 6.39751C10.5834 6.47301 10.5742 6.52407 10.5749 6.61846C10.5757 6.73082 10.6221 6.99023 10.6385 6.9739C10.6424 6.9701 10.6337 6.91637 10.6193 6.8545C10.5841 6.70306 10.584 6.5308 10.619 6.42554C10.6346 6.37883 10.6535 6.33683 10.6609 6.33224C10.6684 6.32764 10.6605 6.36078 10.6433 6.40587C10.6221 6.46145 10.612 6.52969 10.612 6.61763C10.612 6.74527 10.6494 6.95279 10.6788 6.98807C10.6871 6.99799 10.6901 7.00976 10.6856 7.01423C10.6812 7.01871 10.694 7.03645 10.7143 7.05364C10.744 7.07896 10.7468 7.07947 10.7288 7.05627C10.7165 7.04051 10.7136 7.02763 10.7224 7.02763C10.7396 7.02763 10.8035 7.0924 10.7967 7.103C10.7945 7.10655 10.7982 7.10991 10.805 7.11046C10.824 7.11199 10.8912 7.17875 10.8912 7.19616C10.8912 7.20469 10.8782 7.20156 10.8624 7.18921C10.8364 7.16888 10.8358 7.16945 10.8561 7.19521C10.8684 7.21086 10.8852 7.21953 10.8934 7.21448C10.9131 7.20236 10.9838 7.36089 10.9978 7.44847C11.0144 7.55199 10.9333 7.79828 10.8912 7.77236C10.8842 7.76804 10.8684 7.77732 10.8561 7.79296C10.8358 7.81872 10.8364 7.8193 10.8624 7.79897C10.8782 7.78661 10.8912 7.78339 10.8912 7.7918C10.8912 7.81372 10.8005 7.89742 10.789 7.88602C10.7838 7.8808 10.7739 7.88552 10.7671 7.89652C10.7592 7.90928 10.7616 7.91228 10.7737 7.90481C10.8166 7.87838 10.7886 7.91198 10.7393 7.94616L10.6859 7.9831L10.7187 7.94424C10.7481 7.90958 10.7449 7.91033 10.69 7.95128C10.6561 7.97652 10.6284 8.00734 10.6284 8.01978C10.6284 8.0322 10.6206 8.04238 10.611 8.04238C10.6015 8.04238 10.5989 8.03387 10.6053 8.02347C10.6127 8.01167 10.6098 8.00904 10.5978 8.01644C10.5873 8.02295 10.5826 8.03477 10.5875 8.04269C10.5925 8.05061 10.582 8.06483 10.5643 8.07429C10.5224 8.09663 10.5087 8.09606 10.5232 8.07257C10.5305 8.06077 10.5277 8.05814 10.5157 8.06554C10.5051 8.07205 10.5004 8.08372 10.5053 8.09149C10.5101 8.09925 10.4441 8.1466 10.3587 8.1967C10.2733 8.24678 10.1988 8.29516 10.1932 8.3042C10.1876 8.31323 10.1749 8.32061 10.165 8.32061C10.1551 8.32061 10.1604 8.30588 10.1768 8.28788C10.1931 8.26988 10.203 8.25515 10.1988 8.25515C10.1946 8.25515 10.1694 8.2788 10.1429 8.30772C10.1164 8.33662 10.1076 8.35045 10.1234 8.33844C10.1629 8.30839 10.1594 8.32484 10.1111 8.39582C10.0684 8.45844 10.0574 8.45913 10.0873 8.39728C10.1044 8.36217 10.1042 8.36212 10.0784 8.39427C10.0625 8.4141 10.0559 8.44204 10.0617 8.4652C10.067 8.4862 10.0655 8.49983 10.0584 8.49548C10.0512 8.49114 10.0446 8.65807 10.0437 8.86647C10.0427 9.103 10.0467 9.20845 10.0544 9.14714C10.0615 9.09038 10.0633 9.15943 10.0587 9.31081L10.0507 9.57268L10.1392 9.48646C10.2718 9.35723 10.3944 9.13501 10.4212 8.97529C10.4265 8.94378 10.4139 8.96956 10.3932 9.03257C10.3429 9.18569 10.2591 9.33893 10.1802 9.42245L10.1178 9.48851C10.1177 9.48844 10.1176 9.48837 10.1175 9.4883L10.1725 9.41719C10.2594 9.30485 10.3265 9.17583 10.3657 9.04576C10.4037 8.91953 10.4311 8.88254 10.4704 8.90447C10.5215 8.93296 10.6601 9.12293 10.6496 9.15012C10.6427 9.16806 10.6456 9.17315 10.6583 9.16534C10.6711 9.15745 10.6738 9.16279 10.6665 9.18171C10.6592 9.20064 10.6619 9.20598 10.6747 9.19808C10.6875 9.19019 10.6902 9.19552 10.6829 9.21444C10.675 9.235 10.6779 9.23894 10.6939 9.22914C10.7077 9.22063 10.7117 9.22208 10.7048 9.23315C10.6894 9.25801 10.7106 9.30453 10.7315 9.29166C10.742 9.28518 10.7452 9.29053 10.7396 9.30511C10.7345 9.31844 10.7438 9.3841 10.7603 9.45101C10.7767 9.51793 10.7915 9.55427 10.7931 9.53176C10.7953 9.50016 10.7996 9.50576 10.8121 9.55631C10.8311 9.63301 10.8184 10.0087 10.7944 10.0801C10.7804 10.1217 10.779 10.1155 10.7851 10.0391L10.7922 9.94912L10.7679 10.0637C10.7545 10.1267 10.7471 10.1878 10.7515 10.1996C10.7563 10.2125 10.752 10.2163 10.7406 10.2093C10.7278 10.2014 10.7247 10.209 10.731 10.233C10.7367 10.2547 10.7339 10.2643 10.7237 10.2581C10.7131 10.2516 10.7113 10.2613 10.7187 10.2846C10.7261 10.3078 10.7243 10.3177 10.714 10.3113C10.6939 10.2989 10.6734 10.3463 10.6884 10.3705C10.6952 10.3815 10.6912 10.383 10.6774 10.3745C10.6618 10.3649 10.6585 10.3685 10.6658 10.3874C10.6716 10.4024 10.658 10.4404 10.6342 10.476C10.585 10.5495 10.4308 10.7102 10.4094 10.7102C10.4012 10.7102 10.4037 10.6991 10.4149 10.6856C10.447 10.6471 10.4237 10.6569 10.3887 10.6966C10.3692 10.7188 10.3667 10.7269 10.3821 10.718C10.4033 10.7058 10.4036 10.7077 10.3842 10.7316C10.359 10.7626 10.3243 10.7699 10.3426 10.7404C10.3499 10.7286 10.3471 10.7259 10.3351 10.7333C10.3245 10.7399 10.3198 10.7517 10.3248 10.7596C10.337 10.7793 10.2709 10.8127 10.2478 10.7984C10.2366 10.7915 10.2337 10.7943 10.2406 10.8053C10.2512 10.8225 10.0614 10.9336 10.0337 10.9264C10.0272 10.9247 10.0255 10.9327 10.0299 10.9441C10.0343 10.9555 10.0261 10.9793 10.0117 10.9971C9.99726 11.0148 9.99015 11.0201 9.99587 11.0089C10.0208 10.9598 9.98792 10.9954 9.9353 11.0743C9.90381 11.1216 9.83921 11.2026 9.79173 11.2544C9.74425 11.3061 9.71099 11.3485 9.71782 11.3485C9.72464 11.3485 9.71684 11.3632 9.70049 11.3812C9.66395 11.4214 9.6303 11.425 9.66154 11.3853C9.68194 11.3594 9.68136 11.3588 9.65551 11.379C9.63981 11.3913 9.63093 11.4077 9.63577 11.4155C9.64672 11.4332 9.48891 11.535 9.36777 11.5884C9.31796 11.6103 9.21908 11.6421 9.14803 11.659C9.06393 11.679 8.96861 11.7184 8.87495 11.7718C8.73597 11.8511 8.46308 11.9553 8.40063 11.9529C8.37253 11.9518 8.37272 11.9506 8.40306 11.9362C8.42813 11.9244 8.4223 11.9228 8.37842 11.9297C8.09381 11.9743 7.82189 11.9713 7.59703 11.921C7.5547 11.9116 7.51676 11.9071 7.51272 11.9112C7.50393 11.9199 7.66118 11.954 7.78718 11.9706C7.86756 11.9812 7.87029 11.9827 7.81182 11.9843C7.6486 11.9887 7.33343 11.8906 7.11941 11.7687C7.04236 11.7248 6.93569 11.6814 6.85373 11.6606C6.69302 11.6197 6.49947 11.5362 6.51339 11.5137C6.51875 11.5051 6.51448 11.4927 6.5039 11.4862C6.4919 11.4788 6.48907 11.4815 6.4964 11.4933C6.51095 11.5167 6.49725 11.5173 6.45535 11.495C6.43763 11.4855 6.42716 11.4713 6.43207 11.4634C6.43699 11.4554 6.43236 11.4436 6.42179 11.4371C6.40978 11.4297 6.40696 11.4323 6.41428 11.4441C6.43786 11.4822 6.395 11.4615 6.33236 11.4046C6.29697 11.3725 6.27912 11.3518 6.29267 11.3587C6.30621 11.3655 6.27419 11.3244 6.2215 11.2674C6.16883 11.2103 6.10687 11.1353 6.08384 11.1006C6.0608 11.0659 6.03852 11.0375 6.03431 11.0375C6.01777 11.0375 6.09797 11.1476 6.18578 11.2454C6.23666 11.3021 6.27133 11.3485 6.26284 11.3485C6.24097 11.3485 6.11135 11.1939 6.04044 11.0833C5.97926 10.9879 5.96036 10.9406 6.00616 10.9976C6.03052 11.0278 6.03083 11.0275 6.01304 10.9911C6.00278 10.9701 5.98998 10.9573 5.98461 10.9626C5.97139 10.9758 5.89744 10.9052 5.90749 10.889C5.91188 10.8819 5.90682 10.8708 5.89624 10.8643C5.88353 10.8564 5.88143 10.8596 5.89005 10.8734C5.90531 10.8981 5.90485 10.8979 5.7706 10.8282C5.71379 10.7987 5.67142 10.7679 5.67643 10.7599C5.68144 10.7518 5.67689 10.7399 5.66632 10.7333C5.65431 10.7259 5.65148 10.7286 5.65881 10.7404C5.67709 10.7699 5.64242 10.7626 5.61721 10.7316C5.6019 10.7128 5.60126 10.7078 5.61521 10.7162C5.64794 10.7358 5.63902 10.718 5.59906 10.6841C5.56922 10.6587 5.56653 10.6582 5.58466 10.6815C5.63601 10.7476 5.56817 10.703 5.48517 10.6161C5.38556 10.5118 5.29903 10.3766 5.31519 10.3506C5.32093 10.3413 5.31737 10.3337 5.30727 10.3337C5.29717 10.3337 5.29347 10.3264 5.29906 10.3174C5.30464 10.3084 5.30162 10.301 5.29232 10.301C5.28305 10.301 5.28017 10.2887 5.28594 10.2738C5.29219 10.2575 5.28976 10.2506 5.27996 10.2567C5.27058 10.2624 5.26286 10.2477 5.26204 10.2225C5.26125 10.1982 5.24953 10.1304 5.23598 10.0719C5.21788 9.99375 5.21047 9.97853 5.20809 10.0146L5.20484 10.0637L5.19231 10.0146C5.17524 9.94776 5.1746 9.63707 5.19137 9.55631C5.20387 9.49608 5.20521 9.49477 5.20816 9.53995C5.21049 9.57592 5.21793 9.56059 5.23598 9.48266C5.24953 9.42415 5.26125 9.35634 5.26204 9.33199C5.26283 9.30764 5.26886 9.29102 5.27544 9.29506C5.29083 9.30454 5.31019 9.25511 5.29848 9.23624C5.29361 9.22837 5.30431 9.19318 5.3223 9.15804C5.37401 9.05701 5.56585 8.85882 5.55068 8.9221C5.54905 8.92886 5.55984 8.96015 5.57462 8.99166C5.59753 9.04043 5.60015 9.04226 5.59221 9.00393C5.57502 8.9208 5.59813 8.95786 5.6517 9.09932C5.68095 9.17654 5.73746 9.28814 5.77729 9.34732C5.8171 9.40651 5.84722 9.45739 5.8442 9.46042C5.83418 9.47039 5.76024 9.36165 5.69796 9.24534C5.62815 9.115 5.61346 9.11228 5.67881 9.24179C5.7302 9.34363 5.83313 9.4878 5.84559 9.4754C5.85714 9.46387 5.89851 9.49828 5.89851 9.51941C5.89851 9.52841 5.88558 9.52566 5.86977 9.5133C5.84375 9.49297 5.84316 9.49355 5.86341 9.51931C5.87573 9.53496 5.89236 9.54373 5.90036 9.5388C5.90838 9.53387 5.91569 9.54315 5.91661 9.55944C5.91754 9.57572 5.92503 9.56327 5.93326 9.53176C5.9415 9.50026 5.94508 9.40451 5.94121 9.31899C5.93636 9.21187 5.93838 9.18387 5.94768 9.22898C5.95625 9.27053 5.9595 9.19577 5.95658 9.02439C5.95367 8.85311 5.95615 8.79624 5.96335 8.8689C5.97312 8.96751 5.97489 8.95385 5.97603 8.7707C5.9769 8.63019 5.97246 8.57183 5.96295 8.59885C5.9519 8.63028 5.95016 8.62268 5.95541 8.56612C5.95919 8.52561 5.95584 8.47774 5.94797 8.45973C5.93817 8.43731 5.93311 8.43474 5.93193 8.45155C5.93083 8.46705 5.92155 8.46103 5.90672 8.43518C5.87742 8.38412 5.87596 8.36426 5.90261 8.37955C5.91391 8.38603 5.91822 8.38585 5.91219 8.37916C5.90618 8.37246 5.89734 8.36944 5.89258 8.37245C5.88782 8.37544 5.85949 8.35441 5.82963 8.3257C5.79975 8.297 5.69773 8.22975 5.60289 8.17626C5.50804 8.12276 5.43044 8.07136 5.43044 8.06205C5.43044 8.05272 5.42371 8.03897 5.4155 8.03146C5.40681 8.02354 5.4055 8.0264 5.41236 8.03829C5.43632 8.07981 5.39111 8.05706 5.34581 8.00482C5.3201 7.97516 5.30581 7.96226 5.31407 7.97617C5.32231 7.99009 5.30014 7.97157 5.2648 7.93503C5.22944 7.8985 5.2153 7.8874 5.23336 7.91036L5.26621 7.95213L5.22607 7.91951C5.14562 7.85411 5.07076 7.75429 5.12916 7.79025C5.141 7.79755 5.14364 7.79473 5.13622 7.78277C5.12968 7.77223 5.11827 7.76735 5.11085 7.77191C5.08946 7.78509 5.04763 7.70944 5.01845 7.60479C4.99621 7.5251 4.99482 7.49322 5.01029 7.41949C5.03049 7.3232 5.09185 7.20135 5.1184 7.20479C5.14938 7.20878 5.37257 6.97197 5.3929 6.91355C5.40463 6.87987 5.41322 6.76707 5.41351 6.64301C5.41399 6.44171 5.41157 6.42561 5.36858 6.34431C5.34358 6.29706 5.31944 6.25839 5.31492 6.25839C5.31041 6.25839 5.32716 6.29706 5.35215 6.34431C5.3952 6.42571 5.39756 6.44147 5.39684 6.64301C5.39642 6.76465 5.38758 6.88054 5.37621 6.9136C5.35633 6.97148 5.12661 7.21623 5.12661 7.17955C5.12661 7.16907 5.17086 7.12169 5.22492 7.07426C5.36515 6.95126 5.37856 6.91532 5.37999 6.65938C5.38112 6.45667 5.37891 6.44196 5.3334 6.34841C5.30714 6.2944 5.28661 6.24526 5.28781 6.23924C5.28901 6.2332 5.27539 6.18601 5.25756 6.13438C5.23974 6.08274 5.22441 6.02508 5.22351 6.00622C5.2221 5.97647 5.22032 5.97735 5.21001 6.01289C5.1998 6.04811 5.19641 6.04279 5.1858 5.9747C5.17902 5.93118 5.17894 5.8649 5.18562 5.8274C5.19666 5.76557 5.19893 5.76301 5.20983 5.80012C5.2217 5.84043 5.2219 5.84046 5.22351 5.80313C5.22441 5.78229 5.23295 5.74915 5.24248 5.72948C5.25921 5.69494 5.25894 5.69481 5.23427 5.7255C5.20283 5.76462 5.20185 5.74095 5.23261 5.68555C5.24511 5.66304 5.26518 5.6443 5.2772 5.64389C5.28922 5.64349 5.29687 5.63326 5.2942 5.62119C5.29154 5.60911 5.30576 5.58183 5.32581 5.56055C5.36787 5.51592 5.40451 5.50777 5.37086 5.55052C5.35046 5.57645 5.35104 5.57704 5.37689 5.55686C5.39259 5.54458 5.40157 5.5283 5.39684 5.52065C5.38392 5.4998 5.50021 5.44638 5.60573 5.42468C5.65697 5.41414 5.70765 5.395 5.71834 5.38217C5.73894 5.35744 5.7338 5.13302 5.71123 5.07179C5.70363 5.05118 5.70849 5.05421 5.72434 5.07997C5.7382 5.10248 5.74968 5.11353 5.74986 5.10452C5.75032 5.08182 5.72178 5.03906 5.70613 5.03902C5.69903 5.03902 5.67104 5.02339 5.64395 5.00431C5.56705 4.95015 5.44406 4.89305 5.27763 4.83424C5.19357 4.80454 5.13177 4.77588 5.14031 4.77052C5.14931 4.76489 5.14675 4.75242 5.13422 4.74084C5.1172 4.72511 5.11088 4.72511 5.10449 4.74084C5.09863 4.75525 5.096 4.75468 5.09506 4.73877C5.09316 4.70651 5.30998 4.48829 5.33458 4.49771C5.34608 4.50211 5.36056 4.49753 5.36675 4.48753C5.37426 4.47545 5.3703 4.47399 5.35498 4.48319C5.33601 4.49458 5.33557 4.49255 5.35242 4.47178C5.38512 4.43153 5.58927 4.34463 5.71204 4.3187C5.85485 4.28854 6.07222 4.28826 6.21323 4.31805C6.34069 4.34497 6.57887 4.44985 6.56465 4.47278C6.55928 4.48144 6.56355 4.49383 6.57413 4.50034C6.58684 4.50816 6.58894 4.50505 6.58032 4.49118C6.57163 4.47717 6.5749 4.47268 6.59011 4.47774C6.60265 4.48189 6.61292 4.49329 6.61292 4.50304C6.61292 4.5128 6.61965 4.5269 6.62786 4.53442C6.63655 4.54234 6.63787 4.53947 6.631 4.52759C6.6134 4.4971 6.64649 4.50286 6.6725 4.53483C6.69193 4.5587 6.69165 4.56052 6.6704 4.54805C6.64915 4.53558 6.64887 4.5374 6.6683 4.56127C6.6927 4.59126 6.71156 4.59925 6.69504 4.5726C6.68945 4.5636 6.6918 4.55623 6.70027 4.55623C6.72031 4.55623 6.75473 4.59767 6.74376 4.60861C6.73912 4.61324 6.74841 4.6273 6.76444 4.63982C6.79093 4.66056 6.79154 4.66002 6.77104 4.63398C6.75864 4.61823 6.75495 4.60558 6.76283 4.60587C6.78816 4.60684 6.85387 4.66939 6.84483 4.68396C6.84004 4.6917 6.87379 4.73426 6.91982 4.77853C6.96587 4.8228 6.99772 4.84797 6.99059 4.83447C6.98345 4.82097 7.00673 4.83755 7.04231 4.8713C7.0779 4.90506 7.11442 4.93267 7.1235 4.93267C7.13259 4.93267 7.14825 4.88468 7.15834 4.82604C7.18534 4.66895 7.32214 4.39369 7.36125 4.41777C7.36949 4.42284 7.37228 4.41676 7.36745 4.40422C7.36263 4.3917 7.37153 4.37106 7.38721 4.35836C7.41158 4.33865 7.41372 4.33864 7.40184 4.35828C7.39235 4.37399 7.39403 4.37751 7.40718 4.36941C7.41776 4.36289 7.42288 4.35188 7.41856 4.34492C7.41426 4.33798 7.43446 4.30985 7.46346 4.28242C7.52469 4.22454 7.62295 4.17114 7.62295 4.19574C7.62295 4.20497 7.61372 4.21312 7.60242 4.21382C7.586 4.21485 7.586 4.21677 7.60242 4.22336C7.61372 4.22791 7.62348 4.2439 7.6241 4.2589C7.62502 4.28039 7.62803 4.27924 7.63829 4.25345C7.64814 4.2287 7.65841 4.25269 7.68032 4.35165C7.69625 4.42366 7.71651 4.49163 7.72533 4.5027C7.73584 4.51589 7.73509 4.54075 7.72315 4.57491C7.71311 4.60357 7.70789 4.62997 7.71154 4.6336C7.71517 4.63722 7.73006 4.60473 7.74463 4.56139C7.75921 4.51805 7.78925 4.45101 7.81139 4.41243C7.83353 4.37386 7.8444 4.34675 7.83558 4.35219C7.82675 4.35764 7.80149 4.39656 7.77948 4.4387C7.75746 4.48083 7.7391 4.50558 7.73869 4.49368C7.73757 4.46221 7.81427 4.33705 7.85685 4.30086C7.89297 4.27016 7.8931 4.27017 7.86902 4.30255C7.85562 4.32055 7.8927 4.29153 7.95142 4.23806C8.01013 4.18459 8.05634 4.13497 8.05413 4.12778C8.05191 4.12061 8.0942 4.09254 8.1481 4.06542C8.25201 4.01315 8.271 4.00711 8.2562 4.03097C8.25112 4.03912 8.26241 4.04179 8.28125 4.03688ZM10.1175 9.4883C10.1139 9.48527 10.105 9.4807 10.0947 9.47674C10.0776 9.47022 10.07 9.47785 10.07 9.50155C10.07 9.53011 10.0741 9.5324 10.0947 9.5154C10.1082 9.50418 10.1193 9.49302 10.1193 9.4906C10.1193 9.49007 10.1188 9.48935 10.1178 9.48851L10.1156 9.49085L10.1175 9.4883ZM8.33424 4.12251C8.33432 4.17652 8.3374 4.19664 8.34106 4.16723C8.3447 4.13781 8.34464 4.09362 8.34089 4.06902C8.33713 4.04443 8.33414 4.0685 8.33424 4.12251ZM8.17313 4.08109C8.18216 4.08109 8.20064 4.07395 8.21419 4.06523C8.22774 4.0565 8.23143 4.04937 8.2224 4.04937C8.21337 4.04937 8.19489 4.0565 8.18134 4.06523C8.16779 4.07395 8.1641 4.08109 8.17313 4.08109ZM8.11154 4.11466C8.13188 4.10484 8.1485 4.09338 8.1485 4.0892C8.1485 4.07668 8.13997 4.0803 8.10647 4.10704C8.07586 4.1315 8.07605 4.13179 8.11154 4.11466ZM7.88572 4.26654C7.88121 4.26202 7.91077 4.22962 7.95142 4.19454C8.05313 4.1068 8.07186 4.11374 7.97354 4.20274C7.92975 4.24237 7.89024 4.27107 7.88572 4.26654ZM8.31654 4.278C8.31654 4.3095 8.31992 4.32238 8.32404 4.30664C8.32818 4.29089 8.32818 4.2651 8.32404 4.24935C8.31992 4.23361 8.31654 4.24649 8.31654 4.278ZM7.67124 4.46622C7.6882 4.53823 7.70246 4.58242 7.7029 4.56442C7.70387 4.52555 7.64333 4.27503 7.64159 4.31073C7.64093 4.32423 7.65429 4.3942 7.67124 4.46622ZM6.02426 4.33073C6.07989 4.33323 6.12195 4.32977 6.11772 4.32301C6.11352 4.31625 6.04584 4.31191 5.96734 4.31335C5.82173 4.31602 5.84314 4.32256 6.02426 4.33073ZM9.97608 4.32278C10.0193 4.32616 10.0858 4.32612 10.1239 4.32269C10.162 4.31926 10.1267 4.31649 10.0454 4.31654C9.96409 4.31659 9.9329 4.31941 9.97608 4.32278ZM5.75512 4.33844C5.7711 4.3426 5.79327 4.34232 5.80439 4.33783C5.8155 4.33335 5.80243 4.32996 5.77533 4.33029C5.74823 4.33062 5.73914 4.33428 5.75512 4.33844ZM6.15821 4.33828C6.17005 4.34301 6.18422 4.34242 6.18968 4.33698C6.19513 4.33155 6.18544 4.32769 6.16813 4.32839C6.14899 4.32918 6.1451 4.33306 6.15821 4.33828ZM9.82809 4.33844C9.84407 4.3426 9.86624 4.34232 9.87736 4.33783C9.88848 4.33335 9.8754 4.32996 9.8483 4.33029C9.82121 4.33062 9.81211 4.33428 9.82809 4.33844ZM10.2137 4.33793C10.225 4.34248 10.2435 4.34248 10.2548 4.33793C10.2661 4.3334 10.2568 4.32968 10.2343 4.32968C10.2117 4.32968 10.2024 4.3334 10.2137 4.33793ZM5.65952 4.36608C5.67354 4.36071 5.685 4.35343 5.685 4.3499C5.685 4.33664 5.6537 4.34409 5.64406 4.35965C5.63831 4.36891 5.6449 4.37166 5.65952 4.36608ZM8.39943 4.54558C8.38662 4.55325 8.37609 4.54406 8.37024 4.52008C8.36522 4.49946 8.35472 4.44944 8.34692 4.40893C8.33649 4.35476 8.3327 4.34826 8.33253 4.38438C8.3324 4.41139 8.34083 4.46964 8.35126 4.51384C8.36893 4.58877 8.37187 4.59216 8.39485 4.56389C8.40839 4.54722 8.41046 4.53898 8.39943 4.54558ZM9.7549 4.35464C9.76675 4.35937 9.78092 4.35878 9.78637 4.35335C9.79182 4.34792 9.78213 4.34405 9.76482 4.34476C9.74569 4.34554 9.7418 4.34942 9.7549 4.35464ZM8.69046 4.39011C8.71756 4.3807 8.73973 4.37003 8.73973 4.36641C8.73973 4.35671 8.71975 4.36004 8.67815 4.37671C8.62314 4.39874 8.63343 4.40993 8.69046 4.39011ZM8.85599 4.45121C8.85678 4.47027 8.86067 4.47415 8.86591 4.46111C8.87066 4.44929 8.87007 4.43517 8.86462 4.42973C8.85916 4.4243 8.85529 4.43396 8.85599 4.45121ZM7.26901 4.5726C7.27353 4.5726 7.28869 4.55051 7.3027 4.5235C7.31671 4.49649 7.32447 4.4744 7.31996 4.4744C7.31544 4.4744 7.30028 4.49649 7.28627 4.5235C7.27226 4.55051 7.2645 4.5726 7.26901 4.5726ZM8.82729 4.58348C8.83116 4.58733 8.83927 4.57087 8.84532 4.54689C8.85135 4.52289 8.85312 4.50011 8.84926 4.49625C8.84538 4.4924 8.83727 4.50887 8.83123 4.53285C8.8252 4.55684 8.82343 4.57962 8.82729 4.58348ZM5.22926 4.60589C5.28119 4.55669 5.32369 4.51433 5.32369 4.51178C5.32369 4.49964 5.30799 4.51381 5.22459 4.60124L5.13483 4.69535L5.22926 4.60589ZM7.19672 4.74069C7.19714 4.75177 7.21174 4.72444 7.22917 4.67995C7.24659 4.63548 7.25826 4.5965 7.25509 4.59335C7.24725 4.58553 7.19575 4.71553 7.19672 4.74069ZM8.80672 4.63124C8.80751 4.65031 8.81141 4.65419 8.81664 4.64114C8.82139 4.62933 8.8208 4.6152 8.81535 4.60977C8.80989 4.60434 8.80602 4.61399 8.80672 4.63124ZM10.8433 4.69728C10.8651 4.72535 10.8863 4.74539 10.8903 4.7418C10.8944 4.73822 10.8765 4.71525 10.8507 4.69077L10.8037 4.64625L10.8433 4.69728ZM8.7903 4.69671C8.79109 4.71578 8.79498 4.71966 8.80022 4.70661C8.80497 4.6948 8.80438 4.68067 8.79892 4.67524C8.79347 4.6698 8.78959 4.67946 8.7903 4.69671ZM6.98008 4.80956C6.97569 4.81393 6.94301 4.78727 6.90747 4.75033C6.87193 4.71339 6.85763 4.69075 6.87569 4.70003C6.9167 4.72108 6.99082 4.79886 6.98008 4.80956ZM9.00362 4.82468C8.99855 4.81963 9.02198 4.7903 9.0557 4.75951C9.14005 4.68247 9.15485 4.68895 9.07671 4.76871C9.04159 4.80455 9.0087 4.82974 9.00362 4.82468ZM8.77388 4.76218C8.77467 4.78125 8.77856 4.78512 8.7838 4.77208C8.78854 4.76026 8.78795 4.74614 8.7825 4.7407C8.77705 4.73527 8.77317 4.74493 8.77388 4.76218ZM5.30727 4.82409C5.34025 4.83216 5.33862 4.82972 5.29906 4.81177C5.27196 4.79948 5.23131 4.78489 5.20873 4.77938C5.17575 4.77131 5.17738 4.77375 5.21694 4.7917C5.24404 4.804 5.28469 4.81858 5.30727 4.82409ZM7.18212 4.80174C7.18212 4.82424 7.18585 4.83346 7.19039 4.8222C7.19496 4.81095 7.19496 4.79254 7.19039 4.78128C7.18585 4.77003 7.18212 4.77923 7.18212 4.80174ZM10.7731 4.79655C10.785 4.80128 10.7992 4.80069 10.8046 4.79526C10.8101 4.78982 10.8004 4.78596 10.7831 4.78666C10.7639 4.78745 10.76 4.79133 10.7731 4.79655ZM8.75997 4.85084C8.75997 4.88234 8.76335 4.89522 8.76747 4.87948C8.77161 4.86373 8.77161 4.83794 8.76747 4.8222C8.76335 4.80645 8.75997 4.81933 8.75997 4.85084ZM10.6777 4.83306C10.6912 4.83357 10.7134 4.82683 10.7269 4.8181C10.757 4.79877 10.731 4.79877 10.6859 4.8181C10.6642 4.82738 10.6614 4.83247 10.6777 4.83306ZM5.46329 4.88306C5.47232 4.88306 5.46863 4.87593 5.45508 4.8672C5.44153 4.85848 5.42305 4.85134 5.41402 4.85134C5.40499 4.85134 5.40868 4.85848 5.42223 4.8672C5.43578 4.87593 5.45426 4.88306 5.46329 4.88306ZM7.1663 4.89175C7.16663 4.91876 7.17031 4.92783 7.17448 4.9119C7.17865 4.89598 7.17837 4.87388 7.17387 4.8628C7.16937 4.85172 7.16597 4.86475 7.1663 4.89175ZM7.0785 4.94904C7.08302 4.94904 7.06936 4.93063 7.04814 4.90812C7.02692 4.88562 7.00586 4.8672 7.00135 4.8672C6.99683 4.8672 7.01049 4.88562 7.03171 4.90812C7.05293 4.93063 7.07399 4.94904 7.0785 4.94904ZM5.97763 4.93624C5.98639 4.94496 6.00728 4.94922 6.02405 4.94567C6.04663 4.9409 6.04249 4.93678 6.00812 4.92981C5.97814 4.9237 5.96735 4.92599 5.97763 4.93624ZM9.95198 4.94385C9.96383 4.94858 9.978 4.94799 9.98345 4.94256C9.9889 4.93712 9.97921 4.93326 9.9619 4.93396C9.94277 4.93475 9.93888 4.93863 9.95198 4.94385ZM6.12022 4.98127C6.12925 4.98127 6.12556 4.97413 6.11201 4.96541C6.09846 4.95668 6.07998 4.94955 6.07095 4.94955C6.06192 4.94955 6.06561 4.95668 6.07916 4.96541C6.09271 4.97413 6.11119 4.98127 6.12022 4.98127ZM9.87294 4.98046C9.89552 4.96974 9.91708 4.95829 9.92085 4.95501C9.94338 4.93536 9.88992 4.9536 9.86376 4.97449C9.8337 4.9985 9.83423 4.99883 9.87294 4.98046ZM9.99224 5.12248C9.99648 5.12672 10.005 5.09223 10.0112 5.04588C10.0173 4.99951 10.0191 4.95829 10.015 4.95426C10.011 4.95023 10.0025 4.98472 9.99611 5.03087C9.98974 5.07703 9.988 5.11826 9.99224 5.12248ZM5.99705 5.08816C6.00823 5.13195 6.00958 5.13284 6.00958 5.09634C6.00958 5.07384 6.00394 5.03333 5.99705 5.00632C5.98586 4.96252 5.98452 4.96164 5.98452 4.99814C5.98452 5.02064 5.99015 5.06115 5.99705 5.08816ZM6.26785 5.11251C6.25179 5.09482 6.2046 5.05896 6.163 5.0328C6.07264 4.97603 6.01347 4.95568 6.01347 4.98144C6.01347 5.00665 6.07887 5.37567 6.09004 5.41345C6.0967 5.43602 6.0932 5.44073 6.07681 5.43129C6.06453 5.4242 6.06031 5.42476 6.06742 5.43253C6.0745 5.44029 6.11717 5.44939 6.16223 5.45278C6.2376 5.45842 6.24875 5.45435 6.30125 5.40202C6.36429 5.33921 6.37043 5.30412 6.33372 5.21657C6.30411 5.14593 6.30357 5.14011 6.32806 5.15518C6.3399 5.16248 6.34254 5.15966 6.33512 5.1477C6.32858 5.13716 6.31735 5.13217 6.31016 5.1366C6.30295 5.14104 6.28391 5.1302 6.26785 5.11251ZM9.90475 5.40924C9.9173 5.38587 9.9879 5.01791 9.9879 4.97586C9.9879 4.95634 9.94656 4.96529 9.88508 4.99814C9.8148 5.03567 9.80053 5.03858 9.81702 5.01197C9.82434 5.00017 9.82152 4.99753 9.80951 5.00493C9.79894 5.01145 9.79393 5.02264 9.79838 5.02981C9.80828 5.04578 9.74229 5.10778 9.72758 5.09634C9.70471 5.07858 9.62736 5.25225 9.62917 5.31729L9.63097 5.38276L9.64201 5.30911C9.65244 5.23949 9.71992 5.0857 9.73392 5.09965C9.7375 5.10321 9.72221 5.142 9.69994 5.18585C9.65845 5.26751 9.64656 5.36472 9.67586 5.38276C9.68489 5.38833 9.69228 5.40071 9.69228 5.41027C9.69228 5.42126 9.68318 5.42016 9.66765 5.40731C9.62145 5.36909 9.64285 5.40104 9.69576 5.44926C9.72477 5.47569 9.73776 5.48338 9.72464 5.46633C9.70248 5.43756 9.70352 5.4362 9.73901 5.44743C9.79403 5.46482 9.88631 5.44358 9.90475 5.40924ZM6.28856 5.09844C6.31461 5.11878 6.31518 5.11821 6.29477 5.09225C6.2733 5.06498 6.25982 5.05632 6.25982 5.06979C6.25982 5.07318 6.27274 5.08608 6.28856 5.09844ZM10.2375 5.15362C10.2378 5.18063 10.2415 5.1897 10.2456 5.17377C10.2498 5.15785 10.2495 5.13575 10.245 5.12467C10.2405 5.11359 10.2371 5.12662 10.2375 5.15362ZM5.7539 5.16999C5.75423 5.197 5.75791 5.20606 5.76208 5.19014C5.76625 5.17421 5.76597 5.15212 5.76147 5.14104C5.75697 5.12996 5.75357 5.14299 5.7539 5.16999ZM6.01667 5.18636C6.017 5.21336 6.02068 5.22243 6.02485 5.20651C6.02902 5.19058 6.02874 5.16849 6.02424 5.15741C6.01974 5.14632 6.01634 5.15935 6.01667 5.18636ZM9.97468 5.18636C9.97501 5.21336 9.97869 5.22243 9.98286 5.20651C9.98703 5.19058 9.98675 5.16849 9.98225 5.15741C9.97775 5.14632 9.97435 5.15935 9.97468 5.18636ZM6.3903 5.35003L6.38383 5.27849C6.38028 5.23914 6.36831 5.19863 6.35724 5.18847C6.34213 5.17459 6.33996 5.17502 6.34855 5.1902C6.35484 5.20132 6.3668 5.24183 6.37514 5.28022L6.3903 5.35003ZM6.0331 5.28456C6.03342 5.31156 6.0371 5.32063 6.04127 5.30471C6.04545 5.28878 6.04517 5.26669 6.04067 5.25561C6.03617 5.24453 6.03277 5.25755 6.0331 5.28456ZM9.95826 5.28456C9.95859 5.31156 9.96227 5.32063 9.96644 5.30471C9.97061 5.28878 9.97033 5.26669 9.96583 5.25561C9.96133 5.24453 9.95793 5.25755 9.95826 5.28456ZM10.2384 5.30093C10.2386 5.33693 10.2419 5.34973 10.2459 5.32937C10.2498 5.30901 10.2496 5.27955 10.2455 5.2639C10.2414 5.24826 10.2382 5.26492 10.2384 5.30093ZM5.7539 5.33366C5.75423 5.36067 5.75791 5.36973 5.76208 5.35381C5.76625 5.33788 5.76597 5.31579 5.76147 5.30471C5.75697 5.29363 5.75357 5.30665 5.7539 5.33366ZM6.04891 5.37458C6.04891 5.39708 6.05264 5.4063 6.05719 5.39504C6.06175 5.38379 6.06175 5.36538 6.05719 5.35412C6.05264 5.34287 6.04891 5.35207 6.04891 5.37458ZM9.93165 5.43283C9.94453 5.41535 9.95506 5.38774 9.95506 5.37145C9.95506 5.32772 9.94885 5.33485 9.92746 5.40322C9.91045 5.45757 9.91093 5.46096 9.93165 5.43283ZM6.32141 5.43342C6.34174 5.41626 6.35836 5.3997 6.35836 5.39659C6.35836 5.3835 6.34514 5.39317 6.31574 5.42777L6.28445 5.46459L6.32141 5.43342ZM5.49095 5.48126C5.49763 5.48792 5.67065 5.44345 5.68197 5.43216C5.68665 5.42749 5.68371 5.42453 5.67543 5.42558C5.61969 5.4326 5.48341 5.47373 5.49095 5.48126ZM10.5104 5.48126C10.5133 5.47839 10.4911 5.46861 10.4612 5.45951C10.377 5.43397 10.3072 5.41998 10.3181 5.43083C10.3303 5.44304 10.5033 5.48838 10.5104 5.48126ZM6.19413 5.47658C6.16251 5.47658 6.14957 5.47995 6.16539 5.48406C6.1812 5.48818 6.20705 5.48818 6.22287 5.48406C6.23868 5.47995 6.22574 5.47658 6.19413 5.47658ZM9.77029 5.48361C9.78159 5.48816 9.80007 5.48816 9.81135 5.48361C9.82265 5.47908 9.8134 5.47536 9.79082 5.47536C9.76824 5.47536 9.75901 5.47908 9.77029 5.48361ZM10.7766 5.78093C10.7872 5.81602 10.7901 5.81801 10.7912 5.79097C10.792 5.77244 10.781 5.74298 10.7668 5.7255C10.7526 5.70804 10.746 5.70352 10.7521 5.71547C10.7583 5.72743 10.7693 5.75689 10.7766 5.78093ZM5.19612 5.89832C5.19612 5.92982 5.1995 5.94272 5.20362 5.92696C5.20776 5.9112 5.20776 5.88544 5.20362 5.86968C5.1995 5.85391 5.19612 5.86681 5.19612 5.89832ZM10.7965 5.89832C10.7965 5.92982 10.7998 5.94272 10.804 5.92696C10.8081 5.9112 10.8081 5.88544 10.804 5.86968C10.7998 5.85391 10.7965 5.86681 10.7965 5.89832ZM5.22515 6.12745C5.2164 6.11395 5.20963 6.09186 5.21014 6.07835C5.21073 6.06217 5.21584 6.06495 5.22515 6.08654C5.24455 6.13153 5.24455 6.15737 5.22515 6.12745ZM6.76091 7.54225C6.61583 7.51224 6.51131 7.44862 6.4671 7.3634C6.44169 7.31443 6.43072 7.25327 6.4231 7.11789L6.41297 6.93761L6.41039 7.08492C6.40741 7.255 6.42673 7.34076 6.48549 7.41832C6.53695 7.48625 6.66501 7.54556 6.78536 7.55723C6.87164 7.56559 6.87053 7.56492 6.76091 7.54225ZM9.526 7.40693C9.54411 7.38158 9.56714 7.32821 9.57716 7.28834C9.58719 7.24847 9.59282 7.15325 9.58969 7.07673L9.584 6.93761L9.58067 7.08176C9.57883 7.16104 9.56885 7.25947 9.55848 7.30048C9.52097 7.4489 9.36963 7.53802 9.15286 7.53933C9.0559 7.53991 9.05097 7.54137 9.10926 7.55226C9.24958 7.57844 9.45451 7.50698 9.526 7.40693ZM9.34271 7.49243C9.49644 7.44119 9.54354 7.36539 9.55653 7.14844C9.56159 7.06398 9.56279 6.99526 9.55921 6.9957C9.55562 6.99614 9.52703 7.01455 9.49566 7.03662C9.43352 7.08033 9.40391 7.08843 9.4238 7.05627C9.43076 7.04503 9.41457 7.04989 9.38781 7.06711C9.31371 7.11479 9.15306 7.23911 9.14153 7.2577C9.1359 7.26678 9.19104 7.22858 9.2641 7.17285C9.33713 7.11711 9.40041 7.075 9.4047 7.07929C9.409 7.08356 9.36645 7.11925 9.31015 7.15862C9.25386 7.19796 9.16283 7.27297 9.10788 7.32528C9.05293 7.3776 9.0043 7.41677 8.99981 7.4123C8.99535 7.40785 8.9738 7.42436 8.95194 7.44903L8.91218 7.49386L8.95192 7.46124C8.985 7.43409 8.98997 7.4332 8.98165 7.456C8.95928 7.51731 9.19635 7.54124 9.34271 7.49243ZM6.84285 7.28132C6.80671 7.25435 6.70842 7.18644 6.62442 7.13042C6.54041 7.07439 6.46348 7.02351 6.45348 7.01734C6.44041 7.00928 6.43803 7.04837 6.44502 7.15596C6.46298 7.43207 6.55033 7.51045 6.84007 7.51045C6.97724 7.51045 7.0048 7.50597 7.02337 7.48067C7.04451 7.45188 7.04579 7.45188 7.0626 7.48067C7.07216 7.49705 7.08021 7.50239 7.08049 7.49253C7.08075 7.48268 7.0662 7.46127 7.04814 7.44499C7.03007 7.4287 7.01529 7.42163 7.01529 7.42929C7.01529 7.43695 6.98972 7.41852 6.95845 7.38832C6.92718 7.35813 6.90511 7.32778 6.90938 7.32089C6.91365 7.314 6.88564 7.28313 6.84715 7.25228C6.76201 7.18407 6.57186 7.05611 6.57186 7.06704C6.57186 7.07138 6.63783 7.11996 6.71846 7.175C6.79909 7.23004 6.87484 7.2875 6.88679 7.30271C6.89875 7.31791 6.87898 7.30829 6.84285 7.28132ZM10.9538 7.35533C10.9566 7.34734 10.9472 7.31823 10.9328 7.29061C10.8958 7.2193 10.8885 7.22839 10.9211 7.30512C10.9363 7.3407 10.951 7.3633 10.9538 7.35533ZM9.05588 7.33949C9.08976 7.30845 9.11747 7.28084 9.11747 7.27811C9.11747 7.26561 9.10357 7.27739 9.05089 7.33451L8.99429 7.39589L9.05588 7.33949ZM6.97834 7.37343C7.00438 7.39377 7.00496 7.3932 6.98455 7.36724C6.97215 7.35148 6.9592 7.3386 6.9558 7.3386C6.94229 7.3386 6.95098 7.35204 6.97834 7.37343ZM5.03128 7.42862C5.0316 7.45563 5.03528 7.46469 5.03945 7.44877C5.04363 7.43284 5.04335 7.41075 5.03885 7.39967C5.03435 7.38859 5.03095 7.40161 5.03128 7.42862ZM10.9601 7.42862C10.9604 7.45563 10.9641 7.46469 10.9683 7.44877C10.9724 7.43284 10.9721 7.41075 10.9676 7.39967C10.9631 7.38859 10.9597 7.40161 10.9601 7.42862ZM5.1016 7.74777C5.10679 7.74777 5.0997 7.72592 5.08583 7.6992C5.07197 7.67249 5.05404 7.62278 5.04601 7.58872C5.0352 7.54301 5.03103 7.53753 5.03008 7.56774C5.0288 7.60885 5.08396 7.74777 5.1016 7.74777ZM6.89726 7.54618C6.9091 7.55091 6.92327 7.55032 6.92872 7.54489C6.93418 7.53946 6.92449 7.53559 6.90718 7.5363C6.88804 7.53708 6.88415 7.54096 6.89726 7.54618ZM10.9068 7.74007C10.9149 7.73512 10.9338 7.6988 10.9489 7.65938C10.964 7.61993 10.9729 7.57397 10.9685 7.55725C10.9626 7.53424 10.9601 7.5368 10.9584 7.56774C10.9572 7.59024 10.9418 7.64024 10.9242 7.67887C10.9066 7.71748 10.8988 7.74502 10.9068 7.74007ZM5.8796 8.33698C5.88412 8.33698 5.87046 8.31857 5.84924 8.29606C5.82802 8.27356 5.80696 8.25515 5.80245 8.25515C5.79793 8.25515 5.8116 8.27356 5.83281 8.29606C5.85403 8.31857 5.87509 8.33698 5.8796 8.33698ZM10.5395 9.01621C10.6523 9.15411 10.6538 9.15573 10.6319 9.11441C10.6224 9.0964 10.5766 9.04117 10.5302 8.99166L10.4458 8.90164L10.5395 9.01621ZM5.4674 9.00087C5.49674 8.97444 5.52077 8.95049 5.52077 8.94768C5.52077 8.93503 5.50722 8.94617 5.46226 8.99575L5.41402 9.04894L5.4674 9.00087ZM5.32915 9.18806C5.33277 9.18806 5.35531 9.1586 5.37922 9.12259C5.42502 9.05362 5.42788 9.03773 5.38582 9.08577C5.35787 9.11771 5.31888 9.18806 5.32915 9.18806ZM5.61931 9.10622C5.62807 9.11973 5.63523 9.12341 5.63523 9.11441C5.63523 9.10541 5.62807 9.08699 5.61931 9.07349C5.61056 9.05999 5.6034 9.0563 5.6034 9.06531C5.6034 9.07431 5.61056 9.09272 5.61931 9.10622ZM5.23637 9.4039C5.23113 9.41695 5.22724 9.41307 5.22645 9.394C5.22574 9.37675 5.22962 9.3671 5.23507 9.37253C5.24053 9.37796 5.24112 9.39209 5.23637 9.4039ZM10.771 9.4039C10.7658 9.41695 10.7619 9.41307 10.7611 9.394C10.7604 9.37675 10.7643 9.3671 10.7697 9.37253C10.7752 9.37796 10.7758 9.39209 10.771 9.4039ZM5.92625 9.4622C5.92212 9.47795 5.91874 9.46507 5.91874 9.43356C5.91874 9.40206 5.92212 9.38917 5.92625 9.40492C5.93038 9.42066 5.93038 9.44646 5.92625 9.4622ZM5.55313 9.556C5.56855 9.56551 5.56835 9.55928 5.55232 9.52965C5.54076 9.50831 5.52159 9.47243 5.50972 9.44993L5.48812 9.40901L5.48802 9.45499C5.48797 9.48148 5.49489 9.49667 5.50435 9.49085C5.51338 9.48528 5.52077 9.48425 5.52077 9.48854C5.52077 9.49284 5.52572 9.50921 5.53178 9.52492C5.53862 9.54273 5.53636 9.54954 5.52575 9.54301C5.4843 9.51749 5.47482 9.87527 5.51269 10.0354C5.52604 10.0918 5.5573 10.1765 5.58215 10.2236C5.64183 10.3366 5.64526 10.35 5.60208 10.301L5.566 10.2601L5.59055 10.301C5.60405 10.3235 5.62159 10.3407 5.62953 10.3392C5.63746 10.3378 5.68459 10.3752 5.73427 10.4224C5.78396 10.4696 5.84144 10.5172 5.86201 10.5282C5.88259 10.5392 5.8954 10.5546 5.89049 10.5626C5.88557 10.5705 5.8902 10.5823 5.90077 10.5888C5.91367 10.5968 5.91557 10.5935 5.90655 10.579C5.89631 10.5625 5.90056 10.5606 5.92455 10.571C5.94185 10.5786 6.01404 10.6049 6.08499 10.6296C6.1635 10.6568 6.20208 10.6771 6.18353 10.6814C6.16678 10.6852 6.18808 10.6941 6.23087 10.7011C6.27366 10.7081 6.32793 10.709 6.35146 10.7031C6.39349 10.6926 6.39406 10.6906 6.38278 10.5908C6.37646 10.5349 6.37036 10.4855 6.36921 10.481C6.366 10.4683 6.5561 10.121 6.56629 10.121C6.57129 10.121 6.57088 10.1339 6.56537 10.1496C6.55703 10.1735 6.55946 10.173 6.58004 10.1465C6.59361 10.129 6.60459 10.1069 6.60446 10.0974C6.6043 10.086 6.60009 10.0857 6.59214 10.0965C6.58526 10.1059 6.55181 10.1087 6.51438 10.1029L6.44869 10.0929L6.51438 10.0885C6.57933 10.0842 6.57905 10.084 6.48975 10.0687C6.44006 10.0602 6.36117 10.0522 6.31439 10.0509C6.26764 10.0496 6.23346 10.0419 6.23845 10.0339C6.24351 10.0257 6.23119 10.0244 6.21055 10.031C6.1837 10.0394 6.17696 10.0372 6.18591 10.0228C6.19477 10.0085 6.18839 10.006 6.16333 10.0139C6.14308 10.0203 6.12843 10.0179 6.12843 10.008C6.12843 9.99869 6.11613 9.99576 6.1011 10.0015C6.08608 10.0073 6.07792 10.0052 6.08299 9.99691C6.08805 9.98863 6.04308 9.95855 5.98304 9.93007C5.88534 9.88372 5.88277 9.89087 5.97456 9.95378C5.99145 9.96535 5.96809 9.95586 5.92265 9.93269C5.83298 9.88694 5.63574 9.7206 5.63574 9.69072C5.63574 9.68055 5.67049 9.70509 5.71296 9.74522C5.766 9.79533 5.75725 9.78231 5.68504 9.70362C5.62721 9.6406 5.57277 9.58905 5.56403 9.58905C5.55529 9.58905 5.54472 9.57882 5.54055 9.56631C5.53562 9.5516 5.54005 9.54797 5.55313 9.556ZM5.21995 9.46937C5.21471 9.48242 5.21082 9.47854 5.21003 9.45947C5.20932 9.44222 5.2132 9.43256 5.21865 9.438C5.2241 9.44343 5.22469 9.45755 5.21995 9.46937ZM10.7874 9.46937C10.7822 9.48242 10.7783 9.47854 10.7775 9.45947C10.7768 9.44222 10.7807 9.43256 10.7861 9.438C10.7916 9.44343 10.7922 9.45755 10.7874 9.46937ZM10.5023 9.50225C10.508 9.51643 10.5113 9.5143 10.5121 9.4959C10.5143 9.44888 10.4864 9.4486 10.4663 9.49545C10.4493 9.53499 10.4498 9.53666 10.4705 9.51044C10.4879 9.48831 10.4959 9.48626 10.5023 9.50225ZM5.45764 9.81638C5.46002 9.95519 5.46102 9.95023 5.47216 9.74453C5.47873 9.62301 5.48231 9.52153 5.48011 9.51905C5.46889 9.50638 5.45539 9.68519 5.45764 9.81638ZM10.3781 10.2897C10.4727 10.1557 10.5148 10.0038 10.5133 9.80182C10.5128 9.7208 10.507 9.62564 10.5005 9.59034L10.4887 9.52617L10.443 9.59502C10.4178 9.63288 10.3914 9.66026 10.3842 9.65586C10.3771 9.65145 10.3312 9.68985 10.2822 9.74119L10.1932 9.83455L10.2876 9.74509C10.3396 9.69589 10.3821 9.66394 10.3821 9.67409C10.3821 9.70578 10.1752 9.88318 10.0835 9.9301C10.0354 9.9547 10.0099 9.96535 10.0268 9.95378C10.1186 9.89087 10.116 9.88372 10.0183 9.93007C9.95829 9.95855 9.91332 9.98863 9.91838 9.99691C9.92346 10.0052 9.91529 10.0073 9.90027 10.0015C9.88524 9.99576 9.87294 9.99869 9.87294 10.008C9.87294 10.0179 9.85829 10.0203 9.83804 10.0139C9.81298 10.006 9.80661 10.0085 9.81546 10.0228C9.82441 10.0372 9.81767 10.0394 9.79082 10.031C9.76399 10.0225 9.75724 10.0247 9.76619 10.0391C9.77537 10.0539 9.7644 10.0562 9.72308 10.0481C9.68212 10.04 9.67409 10.0416 9.69228 10.0543C9.7135 10.069 9.71294 10.0714 9.68818 10.0716C9.67238 10.0718 9.65944 10.0662 9.65944 10.0592C9.65944 10.0522 9.60954 10.0541 9.54858 10.0633C9.44738 10.0786 9.44273 10.0809 9.4952 10.0902L9.55268 10.1003L9.49931 10.1024C9.46994 10.1036 9.44593 10.1093 9.44593 10.1152C9.44593 10.121 9.48727 10.2025 9.53781 10.2964L9.62968 10.4671L9.61836 10.5794L9.60705 10.6917L9.66481 10.7025C9.73188 10.7151 9.82825 10.6981 9.81464 10.6761C9.8095 10.6678 9.81726 10.6611 9.83188 10.6611C9.8465 10.6611 9.85394 10.6684 9.84842 10.6773C9.84267 10.6865 9.84924 10.6893 9.86377 10.6837C9.87775 10.6784 9.88509 10.6674 9.88008 10.6594C9.87509 10.6513 9.88067 10.6447 9.8925 10.6447C9.90432 10.6447 9.96085 10.6226 10.0181 10.5956C10.1356 10.5402 10.1423 10.5384 10.1258 10.567C10.119 10.5788 10.1203 10.5817 10.129 10.5738C10.1372 10.5663 10.1439 10.5522 10.1439 10.5424C10.1439 10.5327 10.1542 10.5213 10.1667 10.5171C10.1819 10.5121 10.1852 10.5165 10.1765 10.5306C10.1679 10.5444 10.17 10.5475 10.1827 10.5397C10.1933 10.5332 10.1984 10.5223 10.1942 10.5154C10.1844 10.4996 10.3396 10.346 10.3525 10.3588C10.3689 10.3751 10.4984 10.1653 10.4964 10.1257C10.496 10.1186 10.4841 10.1349 10.4699 10.1619C10.4084 10.2792 10.3621 10.3521 10.3542 10.3441C10.3495 10.3395 10.3602 10.315 10.3781 10.2897ZM10.516 9.5645C10.516 9.587 10.5198 9.59622 10.5243 9.58496C10.5289 9.57371 10.5289 9.5553 10.5243 9.54404C10.5198 9.53279 10.516 9.54199 10.516 9.5645ZM10.3967 9.62288C10.4066 9.61677 10.4224 9.59746 10.4318 9.57995C10.4568 9.53348 10.4398 9.54106 10.4069 9.59106C10.3914 9.61468 10.3868 9.629 10.3967 9.62288ZM5.19851 9.77727C5.19851 9.88079 5.20119 9.92314 5.20444 9.87138C5.2077 9.81961 5.2077 9.73493 5.20444 9.68316C5.20119 9.63139 5.19851 9.67375 5.19851 9.77727ZM5.60543 9.65607C5.58597 9.63892 5.57004 9.61867 5.57004 9.61106C5.57004 9.58705 5.58178 9.59582 5.61176 9.64224L5.64083 9.68725L5.60543 9.65607ZM10.7988 9.76908C10.7988 9.8681 10.8015 9.9065 10.8048 9.8544C10.8081 9.80232 10.808 9.72131 10.8047 9.67437C10.8014 9.62744 10.7988 9.67006 10.7988 9.76908ZM10.534 9.67088C10.5342 9.70689 10.5376 9.71969 10.5415 9.69933C10.5454 9.67897 10.5453 9.64951 10.5412 9.63386C10.537 9.61821 10.5338 9.63487 10.534 9.67088ZM10.5495 9.80182C10.5498 9.82882 10.5535 9.83789 10.5577 9.82196C10.5618 9.80604 10.5616 9.78394 10.5571 9.77286C10.5526 9.76178 10.5492 9.77481 10.5495 9.80182ZM10.5136 10.0637L10.5309 10.0088C10.5404 9.97855 10.5451 9.93436 10.5415 9.91056L10.5348 9.86728L10.5323 9.91025C10.531 9.93388 10.5262 9.97807 10.5217 10.0084L10.5136 10.0637ZM5.4741 10.0064C5.4741 10.0289 5.47783 10.0381 5.48237 10.0269C5.48694 10.0156 5.48694 9.9972 5.48237 9.98594C5.47783 9.9747 5.4741 9.9839 5.4741 10.0064ZM9.98345 9.98355C9.978 9.98899 9.96383 9.98958 9.95198 9.98485C9.93888 9.97963 9.94277 9.97575 9.9619 9.97496C9.97921 9.97426 9.9889 9.97812 9.98345 9.98355ZM5.51197 10.1455C5.52437 10.1725 5.53457 10.1873 5.53462 10.1783C5.53467 10.1693 5.52473 10.1361 5.51256 10.1046C5.50039 10.0731 5.49019 10.0584 5.48991 10.0719C5.48963 10.0854 5.49955 10.1185 5.51197 10.1455ZM6.33748 10.0654C6.33203 10.0708 6.31786 10.0714 6.30602 10.0667C6.29291 10.0615 6.2968 10.0576 6.31594 10.0568C6.33325 10.0561 6.34294 10.06 6.33748 10.0654ZM5.21995 10.1077C5.21471 10.1207 5.21082 10.1168 5.21003 10.0978C5.20932 10.0805 5.2132 10.0709 5.21865 10.0763C5.2241 10.0817 5.22469 10.0959 5.21995 10.1077ZM6.42847 10.0826C6.41735 10.0871 6.39518 10.0874 6.3792 10.0832C6.36322 10.0791 6.37232 10.0754 6.39942 10.0751C6.42652 10.0747 6.43959 10.0781 6.42847 10.0826ZM9.63101 10.0826C9.61989 10.0871 9.59772 10.0874 9.58174 10.0832C9.56576 10.0791 9.57486 10.0754 9.60195 10.0751C9.62905 10.0747 9.64213 10.0781 9.63101 10.0826ZM9.4222 10.1465C9.44629 10.1764 9.44662 10.1759 9.4282 10.1373C9.40425 10.0872 9.39666 10.078 9.39666 10.0987C9.39666 10.1075 9.40816 10.129 9.4222 10.1465ZM5.23637 10.1731C5.23113 10.1862 5.22724 10.1823 5.22645 10.1632C5.22574 10.146 5.22962 10.1363 5.23507 10.1418C5.24053 10.1472 5.24112 10.1613 5.23637 10.1731ZM10.771 10.1731C10.7658 10.1862 10.7619 10.1823 10.7611 10.1632C10.7604 10.146 10.7643 10.1363 10.7697 10.1418C10.7752 10.1472 10.7758 10.1613 10.771 10.1731ZM6.44801 10.3828C6.45253 10.3828 6.47132 10.3534 6.48975 10.3174C6.50817 10.2814 6.51957 10.2519 6.51505 10.2519C6.51054 10.2519 6.49175 10.2814 6.47332 10.3174C6.45489 10.3534 6.4435 10.3828 6.44801 10.3828ZM9.58601 10.4483C9.59052 10.4483 9.57183 10.4041 9.54447 10.3501C9.51711 10.2961 9.49103 10.2519 9.48652 10.2519C9.482 10.2519 9.50069 10.2961 9.52805 10.3501C9.55541 10.4041 9.58149 10.4483 9.58601 10.4483ZM5.47255 10.5661C5.42675 10.5093 5.37804 10.4412 5.36427 10.4147C5.35053 10.3882 5.33529 10.3665 5.33043 10.3665C5.30995 10.3665 5.39771 10.4972 5.47369 10.5799L5.5558 10.6693L5.47255 10.5661ZM5.76558 10.4974C5.77009 10.4974 5.74492 10.4679 5.70964 10.4319C5.67436 10.3959 5.6418 10.3665 5.63728 10.3665C5.63276 10.3665 5.65794 10.3959 5.69322 10.4319C5.72849 10.4679 5.76106 10.4974 5.76558 10.4974ZM10.2876 10.4492C10.3215 10.4182 10.3492 10.3905 10.3492 10.3878C10.3492 10.3753 10.3353 10.3871 10.2826 10.4442L10.226 10.5056L10.2876 10.4492ZM10.5786 10.522C10.5988 10.504 10.6259 10.469 10.6387 10.4442C10.6733 10.3775 10.6581 10.3894 10.5965 10.4769C10.5588 10.5306 10.5532 10.5445 10.5786 10.522ZM6.41894 10.6856L6.41738 10.5589C6.41655 10.4893 6.41375 10.4322 6.41123 10.4321C6.39306 10.4315 6.38938 10.4988 6.40293 10.5843L6.41894 10.6856ZM9.59755 10.5138C9.59755 10.5453 9.60094 10.5582 9.60506 10.5424C9.6092 10.5267 9.6092 10.5009 9.60506 10.4851C9.60094 10.4694 9.59755 10.4823 9.59755 10.5138ZM6.97164 10.5263C6.95413 10.5374 7.37598 10.5358 7.50799 10.5243C7.5396 10.5215 7.43614 10.5181 7.27806 10.5168C7.11999 10.5154 6.9821 10.5197 6.97164 10.5263ZM8.79981 10.5338C8.93671 10.5363 9.04018 10.5329 9.02974 10.5263C9.01927 10.5197 8.88138 10.5154 8.72331 10.5168C8.39741 10.5196 8.43116 10.5271 8.79981 10.5338ZM6.94866 10.7633C6.9346 10.7503 6.92621 10.7039 6.92572 10.6366C6.92531 10.5781 6.92288 10.5303 6.92035 10.5302C6.90419 10.5299 6.89745 10.5936 6.90603 10.6657C6.91506 10.7417 6.92542 10.759 7.01058 10.8406C7.08882 10.9155 7.09253 10.9177 7.03214 10.8534C6.99202 10.8106 6.96658 10.7756 6.97561 10.7756C6.99566 10.7756 7.13498 10.9151 7.13063 10.9308C7.12892 10.937 7.13301 10.947 7.13973 10.9529C7.14645 10.959 7.14585 10.9534 7.1384 10.9406C7.12769 10.9222 7.13143 10.9205 7.1563 10.9322C7.17359 10.9404 7.22974 10.9472 7.2811 10.9473C7.39023 10.9475 7.43008 10.9178 7.54046 10.754C7.61638 10.6413 7.62661 10.5721 7.56958 10.5568C7.51981 10.5435 7.04948 10.5438 6.98249 10.5571C6.92987 10.5676 6.9293 10.5688 6.93822 10.6431C6.94319 10.6845 6.95257 10.7331 6.95906 10.7511C6.96876 10.778 6.96692 10.7802 6.94866 10.7633ZM7.54161 10.8047C7.62006 10.6979 7.63937 10.6595 7.63937 10.61C7.63937 10.5762 7.63382 10.545 7.62706 10.5408C7.62029 10.5367 7.6171 10.5639 7.61999 10.6013C7.62471 10.6622 7.61517 10.6829 7.52789 10.8013C7.41663 10.9523 7.36908 10.9802 7.24364 10.9682C7.19504 10.9635 7.16946 10.966 7.18223 10.9741C7.21808 10.9967 7.34172 10.9903 7.3946 10.963C7.42168 10.9491 7.48784 10.8778 7.54161 10.8047ZM8.40332 10.702C8.38511 10.68 8.37799 10.6465 8.38156 10.5997C8.38448 10.5615 8.38621 10.5301 8.38538 10.5301C8.37175 10.5301 8.362 10.5641 8.362 10.6116C8.362 10.6702 8.39425 10.7347 8.42354 10.7347C8.43175 10.7347 8.47309 10.7771 8.51539 10.8288C8.55768 10.8806 8.58545 10.9229 8.57709 10.9229C8.56872 10.9229 8.53475 10.8861 8.5016 10.8411C8.46844 10.7961 8.43754 10.7593 8.43293 10.7593C8.4158 10.7593 8.54114 10.9152 8.57745 10.9391C8.60805 10.9592 8.61245 10.9595 8.60084 10.9406C8.58949 10.9222 8.59302 10.9204 8.61797 10.932C8.65859 10.9508 8.80446 10.9508 8.84507 10.932C8.86872 10.921 8.87332 10.9225 8.86361 10.9382C8.83653 10.9818 8.91272 10.9249 8.98608 10.8466C9.02673 10.8033 9.03598 10.7893 9.00661 10.8157C8.94442 10.8715 8.93322 10.8492 8.99459 10.7917C9.04448 10.745 9.09333 10.5978 9.06748 10.5719C9.0477 10.5522 8.53765 10.5377 8.44863 10.5543C8.39545 10.5643 8.392 10.5686 8.39888 10.6171C8.40294 10.6458 8.41169 10.684 8.41831 10.702L8.43037 10.7347L8.40332 10.702ZM10.4929 10.6212C10.5223 10.5948 10.5463 10.5708 10.5463 10.568C10.5463 10.5553 10.5327 10.5665 10.4878 10.6161L10.4395 10.6693L10.4929 10.6212ZM9.06851 10.7509C9.07515 10.7468 9.08922 10.7093 9.09976 10.6675C9.12696 10.5599 9.11156 10.5609 9.08145 10.6688C9.06769 10.718 9.06186 10.755 9.06851 10.7509ZM9.58146 10.6365C9.58164 10.6725 9.58501 10.6853 9.58893 10.665C9.59286 10.6446 9.59271 10.6152 9.5886 10.5995C9.5845 10.5839 9.58128 10.6005 9.58146 10.6365ZM5.98062 10.627C6.01933 10.6454 6.01986 10.6451 5.9898 10.6211C5.97226 10.6071 5.95072 10.5956 5.9419 10.5956C5.92104 10.5956 5.93035 10.6032 5.98062 10.627ZM9.97884 10.651C9.99286 10.6456 10.0043 10.6383 10.0043 10.6348C10.0043 10.6215 9.97302 10.629 9.96338 10.6445C9.95763 10.6538 9.96422 10.6565 9.97884 10.651ZM6.29677 10.6883C6.28549 10.6928 6.26701 10.6928 6.25571 10.6883C6.24443 10.6837 6.25366 10.68 6.27624 10.68C6.29882 10.68 6.30807 10.6837 6.29677 10.6883ZM9.76208 10.6883C9.7508 10.6928 9.73232 10.6928 9.72102 10.6883C9.70974 10.6837 9.71897 10.68 9.74155 10.68C9.76413 10.68 9.77338 10.6837 9.76208 10.6883ZM6.42535 10.7197C6.42614 10.7388 6.43003 10.7427 6.43527 10.7296C6.44002 10.7178 6.43942 10.7037 6.43397 10.6982C6.42852 10.6928 6.42464 10.7025 6.42535 10.7197ZM9.60709 10.7214C9.61894 10.7261 9.63311 10.7255 9.63856 10.7201C9.64402 10.7146 9.63433 10.7108 9.61701 10.7115C9.59788 10.7123 9.59399 10.7161 9.60709 10.7214ZM8.88245 10.9229C8.87342 10.9229 8.87941 10.9082 8.89575 10.8902C8.9121 10.8722 8.93287 10.8575 8.9419 10.8575C8.95094 10.8575 8.94494 10.8722 8.9286 10.8902C8.91226 10.9082 8.89148 10.9229 8.88245 10.9229ZM10.0938 10.8801C10.1078 10.8747 10.1193 10.8674 10.1193 10.8639C10.1193 10.8507 10.088 10.8581 10.0783 10.8737C10.0726 10.8829 10.0792 10.8857 10.0938 10.8801ZM8.73152 10.9879C8.76765 10.9879 8.80575 10.9825 8.81618 10.9759C8.8266 10.9693 8.78851 10.9639 8.73152 10.9639C8.67453 10.9639 8.63645 10.9693 8.64686 10.9759C8.65729 10.9825 8.69539 10.9879 8.73152 10.9879ZM9.80547 11.2576C9.85417 11.2043 9.91244 11.133 9.93494 11.0991C9.95744 11.0652 9.97875 11.0375 9.9823 11.0375C10.0137 11.0375 9.80112 11.3079 9.74556 11.3386C9.72981 11.3473 9.75676 11.3108 9.80547 11.2576ZM6.35425 11.3997C6.3803 11.42 6.38088 11.4195 6.36046 11.3935C6.339 11.3662 6.32551 11.3576 6.32551 11.371C6.32551 11.3744 6.33844 11.3873 6.35425 11.3997ZM9.30634 11.5928C9.31537 11.5928 9.34124 11.5823 9.36382 11.5694C9.3864 11.5566 9.39748 11.5461 9.38845 11.5461C9.37942 11.5461 9.35355 11.5566 9.33097 11.5694C9.30839 11.5823 9.2973 11.5928 9.30634 11.5928ZM6.83156 11.6379C6.8434 11.6426 6.85758 11.642 6.86303 11.6366C6.86848 11.6312 6.85879 11.6273 6.84148 11.628C6.82235 11.6288 6.81846 11.6327 6.83156 11.6379ZM9.12979 11.6376C9.14109 11.6421 9.15956 11.6421 9.17084 11.6376C9.18214 11.633 9.1729 11.6293 9.15032 11.6293C9.12773 11.6293 9.1185 11.633 9.12979 11.6376ZM6.91368 11.6543C6.92552 11.659 6.93969 11.6584 6.94515 11.653C6.9506 11.6475 6.94091 11.6437 6.9236 11.6444C6.90447 11.6452 6.90057 11.649 6.91368 11.6543ZM7.22879 11.8009C7.22879 11.812 7.37806 11.8762 7.38582 11.8685C7.38938 11.865 7.3555 11.8466 7.31055 11.8276C7.26558 11.8087 7.22879 11.7967 7.22879 11.8009ZM8.66254 11.8552C8.67994 11.8561 8.77258 11.8081 8.77258 11.7981C8.77258 11.7874 8.77161 11.7878 8.70689 11.8231C8.67527 11.8404 8.65532 11.8548 8.66254 11.8552ZM8.52623 11.903C8.53978 11.9033 8.57304 11.8934 8.60014 11.881C8.66356 11.8521 8.63407 11.8516 8.55908 11.8804C8.52746 11.8925 8.51268 11.9027 8.52623 11.903ZM7.47514 11.9036C7.49138 11.903 7.48859 11.8979 7.46693 11.8886C7.42178 11.8693 7.39585 11.8693 7.42587 11.8886C7.43942 11.8973 7.46159 11.9041 7.47514 11.9036ZM8.45747 11.9161C8.46931 11.9209 8.48348 11.9203 8.48893 11.9148C8.49439 11.9094 8.4847 11.9055 8.46739 11.9063C8.44825 11.907 8.44436 11.9109 8.45747 11.9161ZM7.96372 11.9833C8.00663 11.9859 8.09717 11.9814 8.16492 11.9732C8.32748 11.9536 8.38951 11.9528 8.31273 11.9713C8.22431 11.9926 7.88572 12.0101 7.88571 11.9933C7.88571 11.9852 7.92082 11.9807 7.96372 11.9833Z" fill="#FCAB19"/>
</svg>
