<svg width="16" height="16" viewBox="0 0 16 16" fill="none" xmlns="http://www.w3.org/2000/svg">
<path fill-rule="evenodd" clip-rule="evenodd" d="M14 8C14 11.3137 11.3137 14 8 14C4.68629 14 2 11.3137 2 8C2 4.68629 4.68629 2 8 2C11.3137 2 14 4.68629 14 8ZM5.61666 7.47499C5.61572 7.49845 5.74672 8.75044 5.90954 10.2589L6.12289 12.2424C6.1452 12.4496 6.2528 12.6419 6.42473 12.782C6.59666 12.922 6.82063 12.9997 7.05303 13H8.95259C9.18515 12.9999 9.40935 12.9223 9.58148 12.7822C9.7536 12.6422 9.86133 12.4497 9.88366 12.2424L10.1026 10.2161L10.4039 7.43225H11V6.35289H8.58391L8.60168 5.57437L8.61759 4.79586L9.42233 4.35339C9.86401 4.10953 10.2617 3.86734 10.3038 3.81371C10.3469 3.76092 10.3815 3.63102 10.3815 3.5246C10.3815 3.28325 10.0979 3 9.85465 3C9.75359 3 9.24361 3.24638 8.55022 3.62851L7.41235 4.25702V6.35289H5V7.43225H5.30973C5.4791 7.43225 5.61759 7.45152 5.61666 7.47499Z" fill="#F07178"/>
</svg>
