<svg width="16" height="16" viewBox="0 0 16 16" fill="none" xmlns="http://www.w3.org/2000/svg">
<path fill-rule="evenodd" clip-rule="evenodd" d="M14 8C14 11.3137 11.3137 14 8 14C4.68629 14 2 11.3137 2 8C2 4.68629 4.68629 2 8 2C11.3137 2 14 4.68629 14 8ZM4.08807 7.99311C4.09316 8.02828 4.08945 8.06416 4.07728 8.09754C4.53562 7.7092 4.04395 7.19586 3.46144 7.43587C2.8906 7.64254 2.8631 8.67005 3.30311 9.10255C3.593 9.31425 3.93304 9.44678 4.28972 9.48711C4.64641 9.52744 5.00746 9.47418 5.3373 9.33255C5.63173 9.20384 5.89102 9.0856 6.12379 8.97945C7.82008 8.20592 8.10818 8.07454 10.3249 9.21255C11.629 9.78839 13.2574 9.53172 12.9657 7.94837C12.6824 6.89586 11.2549 7.47503 11.9382 8.09837H11.9665C11.9425 8.05893 11.9336 8.01215 11.9413 7.96663C11.9491 7.92112 11.973 7.87992 12.0087 7.85063C12.0443 7.82133 12.0894 7.8059 12.1356 7.80717C12.1817 7.80844 12.2259 7.82632 12.2599 7.85754C12.589 8.23171 11.9907 8.91338 11.3224 8.18837C9.50401 6.21502 8.3115 7.1667 8.00899 7.73754C7.27482 6.69586 6.07147 6.79586 5.0748 7.82754L5.05845 7.84447C4.622 8.29649 4.34171 8.58679 3.95978 8.45921C3.48894 8.30088 3.64228 7.82754 3.86395 7.8092C3.89943 7.80733 3.93483 7.81428 3.96696 7.82943C3.9991 7.84458 4.02699 7.86746 4.04812 7.89603C4.06926 7.92459 4.08298 7.95795 4.08807 7.99311Z" fill="#FFCB6B"/>
</svg>
