<svg width="16" height="16" viewBox="0 0 16 16" fill="none" xmlns="http://www.w3.org/2000/svg">
<path d="M4.25 4.25H11.75V11.75H4.25V4.25Z" fill="#FFCB6B"/>
<path d="M3 3L3.313 5.5L4.25 8L8 4.25L5.5 3.313L3 3ZM3 13L5.5 12.688L8 11.75L4.25 8L3.313 10.5L3 13ZM13 13L12.688 10.5L11.75 8L8 11.75L10.5 12.688L13 13ZM13 3L10.5 3.313L8 4.25L11.75 8L12.688 5.5L13 3Z" fill="#F78C6C"/>
<path d="M3 3L8 4.25L5.5 3H3Z" fill="#FFCB08"/>
<path d="M3 3V5.5L4.25 8L3 3ZM3 13L4.25 8L3 10.5V13Z" fill="#FFF200"/>
<path d="M3 13H5.5L8 11.75L3 13Z" fill="#F78C6C"/>
<path d="M13 13L8 11.75L10.5 13H13Z" fill="#F7941E"/>
<path d="M13 13V10.5L11.75 8L13 13ZM13 3L11.75 8L13 5.5V3Z" fill="#F15922"/>
<path d="M13 3H10.5L8 4.25L13 3Z" fill="#FFCB08"/>
</svg>
