<svg width="16" height="16" viewBox="0 0 16 16" fill="none" xmlns="http://www.w3.org/2000/svg">
<path fill-rule="evenodd" clip-rule="evenodd" d="M14 8C14 11.3137 11.3137 14 8 14C4.68629 14 2 11.3137 2 8C2 4.68629 4.68629 2 8 2C11.3137 2 14 4.68629 14 8ZM4.45062 8.60154L6.31859 10.4895C6.88557 11.0445 7.82155 10.2905 7.2339 9.56452L5.81726 8.13255L7.24657 6.66258C7.81189 6.02426 6.99257 5.15195 6.33125 5.7376L4.45062 7.63823C4.20696 7.86623 4.07263 8.31822 4.45062 8.60154ZM9.86685 10.4895L11.7475 8.58888C11.9781 8.35488 11.9921 7.93456 11.7225 7.6509L9.85451 5.76294C9.15119 5.16328 8.38588 6.11926 8.9392 6.68792L10.3682 8.13255L8.95153 9.56452C8.36721 10.2195 9.22553 11.0618 9.86685 10.4895Z" fill="#E34C26"/>
</svg>
