<svg width="16" height="16" viewBox="0 0 16 16" fill="none" xmlns="http://www.w3.org/2000/svg">
<g clip-path="url(#clip0_38_2300)">
<mask id="mask0_38_2300" style="mask-type:alpha" maskUnits="userSpaceOnUse" x="2" y="2" width="12" height="12">
<path d="M12.08 2H3.92C2.85961 2 2 3.07452 2 4.4V11.6C2 12.9255 2.85961 14 3.92 14H12.08C13.1404 14 14 12.9255 14 11.6V4.4C14 3.07452 13.1404 2 12.08 2Z" fill="#00B6C2"/>
</mask>
<g mask="url(#mask0_38_2300)">
<path d="M2 8C2 4.68629 4.68629 2 8 2V2C11.3137 2 14 4.68629 14 8V8C14 11.3137 11.3137 14 8 14V14C4.68629 14 2 11.3137 2 8V8Z" fill="#80CBC4"/>
<path d="M10.4567 8.33334L3.875 15L13.4942 14.5243L14 10.2384L10.4567 8.33334Z" fill="#343944"/>
<path d="M5.37524 8.22186C5.77307 8.22186 6.1546 8.06383 6.4359 7.78252C6.71721 7.50122 6.87524 7.11969 6.87524 6.72186C6.87524 6.32404 6.71721 5.94251 6.4359 5.6612C6.1546 5.3799 5.77307 5.22186 5.37524 5.22186C4.97742 5.22186 4.59589 5.3799 4.31458 5.6612C4.03328 5.94251 3.87524 6.32404 3.87524 6.72186C3.87524 7.11969 4.03328 7.50122 4.31458 7.78252C4.59589 8.06383 4.97742 8.22186 5.37524 8.22186Z" fill="white"/>
</g>
</g>
<defs>
<clipPath id="clip0_38_2300">
<rect x="2" y="2" width="12" height="12" rx="6" fill="white"/>
</clipPath>
</defs>
</svg>
