<svg width="14" height="14" viewBox="0 0 14 14" fill="none" xmlns="http://www.w3.org/2000/svg">
<path fill-rule="evenodd" clip-rule="evenodd" d="M13 7C13 10.3137 10.3137 13 7 13C3.68629 13 1 10.3137 1 7C1 3.68629 3.68629 1 7 1C10.3137 1 13 3.68629 13 7ZM8.6768 4.48813C7.99836 4.69237 7.26377 4.97318 6.86105 5.58715C6.57385 6.03391 6.78255 6.60831 7.1189 6.96444C7.35185 7.19356 7.2593 7.56947 7.02125 7.75711C6.77106 7.97538 7.05954 7.93709 7.20506 7.83178C7.55927 7.61287 7.9556 7.2127 7.80371 6.75701C7.76215 6.63637 7.68032 6.523 7.59826 6.40932C7.44591 6.19825 7.29279 5.98611 7.39525 5.72437C7.60744 5.34189 7.97851 5.1073 8.34636 4.87475L8.34637 4.87474C8.51069 4.77086 8.67436 4.66739 8.82295 4.55132C8.94772 4.46828 8.87033 4.47603 8.78455 4.48461C8.74308 4.48876 8.69966 4.49311 8.67616 4.4875L8.6768 4.48813ZM7.49353 2.53262L7.55735 2.82876C7.78532 3.73238 7.1765 4.20836 6.56989 4.68261C6.18808 4.9811 5.80715 5.27892 5.63631 5.68225C5.45505 6.2158 5.87628 6.70276 6.2139 7.06719C6.44557 7.30205 6.68108 7.54075 6.95232 7.73604C6.89851 7.46393 6.73643 7.23389 6.5755 7.00547C6.36616 6.70834 6.15875 6.41395 6.19411 6.03327C6.27629 5.60638 6.5997 5.33782 6.92184 5.07032C7.08759 4.93268 7.25299 4.79533 7.38503 4.63684C8.03028 3.92012 8.17324 3.17021 7.49353 2.53262ZM5.64593 9.37053C5.45255 9.42159 5.10663 9.54923 5.20045 9.80963C5.35895 10.061 5.67911 10.1215 5.96055 10.1747C5.99642 10.1815 6.03167 10.1882 6.06588 10.1951C6.83825 10.3046 7.62576 10.1859 8.33157 9.85366C8.19144 9.80981 8.05651 9.743 7.92438 9.67758L7.92436 9.67758C7.82962 9.63067 7.73631 9.58447 7.64356 9.54796C6.99705 9.68007 6.30713 9.73559 5.6638 9.56264C5.67528 9.53616 5.71803 9.49777 5.75889 9.4611C5.83619 9.39171 5.90667 9.32844 5.74549 9.36351L5.64593 9.37053ZM5.36477 8.46079L5.36472 8.46081C5.16985 8.53441 4.90633 8.63395 4.93559 8.87144C5.03542 9.0974 5.30496 9.15094 5.53772 9.19718C5.58174 9.20592 5.62445 9.2144 5.66444 9.22374C6.62177 9.36287 7.60336 9.24033 8.5224 8.95377L8.47704 8.9369C8.28771 8.86671 8.09196 8.79413 7.9531 8.64168C7.13873 8.80315 6.27841 8.88421 5.46404 8.71189C5.39041 8.67344 5.45939 8.61349 5.52179 8.55927C5.55676 8.52889 5.58965 8.5003 5.59423 8.4783C5.74041 8.35283 5.6683 8.37538 5.57693 8.40396C5.52468 8.4203 5.46614 8.43861 5.43851 8.43235C5.41574 8.44154 5.39087 8.45094 5.36477 8.46079ZM4.27822 10.4134C4.57436 10.2168 4.93942 10.1658 5.28916 10.2136C5.27113 10.2006 5.25326 10.1873 5.23546 10.1741C5.09136 10.0673 4.95144 9.96355 4.75944 9.99024C4.35289 10.0305 3.91763 10.1364 3.62149 10.4344C3.4747 10.6068 3.68276 10.8046 3.85955 10.825C5.36192 11.1078 6.92812 11.1493 8.43751 10.8857C8.5132 10.8659 8.59175 10.8483 8.67128 10.8304L8.67129 10.8304L8.6713 10.8304C9.00552 10.7554 9.35714 10.6765 9.58759 10.4198C9.72034 10.1938 9.40761 10.0292 9.22444 10.0151C9.18671 10.0247 9.22043 10.0632 9.26284 10.1115L9.26284 10.1115C9.30507 10.1596 9.35591 10.2176 9.35336 10.2666C9.21667 10.4174 9.00306 10.4534 8.79683 10.4881H8.79682C8.72381 10.5004 8.65172 10.5125 8.5843 10.5295C6.66964 10.7784 4.77795 10.6789 4.27822 10.4134ZM8.4786 7.99429L8.47866 7.99426C8.59345 7.93612 8.70705 7.87859 8.80066 7.78646C8.7216 7.78178 8.64282 7.78221 8.56424 7.78627C8.58548 7.78378 8.62967 7.76159 8.67955 7.73654C8.75013 7.70109 8.83211 7.65992 8.87661 7.66073C9.20848 7.52288 9.61184 7.88411 9.45356 8.22556C9.32522 8.54965 9.02654 8.74167 8.74306 8.92392C8.66424 8.97459 8.58658 9.02452 8.5141 9.07631C8.23711 9.30288 8.32582 9.31309 8.62132 9.20587C9.15551 9.04951 9.79692 8.79932 9.97244 8.21663C10.0988 7.73796 9.6329 7.3295 9.16572 7.37417L9.16636 7.37354C8.91746 7.3729 8.67812 7.49161 8.57664 7.73094C8.54715 7.77091 8.54501 7.78609 8.55997 7.78649C8.3721 7.7965 8.18538 7.82706 7.99866 7.85761L7.99865 7.85761L7.99865 7.85761C7.79715 7.89058 7.59566 7.92355 7.39274 7.9307C7.28243 7.93751 7.17173 7.94514 7.06076 7.9528H7.06075C6.40129 7.99829 5.73266 8.04441 5.08366 7.91985C4.99831 7.89991 5.08758 7.8621 5.15426 7.83386L5.15426 7.83385C5.17933 7.82324 5.20119 7.81398 5.20939 7.80753C5.32877 7.7544 5.45379 7.71941 5.57865 7.68446C5.73881 7.63963 5.8987 7.59487 6.0461 7.51203C6.01877 7.5056 5.9916 7.49791 5.96443 7.49023L5.96441 7.49022C5.88372 7.46739 5.80303 7.44456 5.71805 7.45459C5.22662 7.48267 4.71987 7.60329 4.30949 7.87773C4.16398 8.01559 4.34523 8.19365 4.49522 8.21216C5.53935 8.50127 7.90843 8.35576 8.37943 8.04558C8.41229 8.02787 8.44549 8.01105 8.4786 7.99429ZM4.51692 11.035C4.83338 11.3421 5.27759 11.3803 5.70128 11.4168C5.79455 11.4248 5.88683 11.4328 5.97653 11.4435C7.11065 11.492 8.27604 11.5022 9.36613 11.1607C9.67758 11.0599 10.0746 10.8148 9.98775 10.4274C10.0047 10.274 9.95915 10.356 9.9122 10.4405C9.88826 10.4837 9.86394 10.5274 9.84734 10.541C9.17338 11.2086 6.17119 11.3005 4.51692 11.035Z" fill="#80CBC4"/>
</svg>
