<svg width="16" height="16" viewBox="0 0 16 16" fill="none" xmlns="http://www.w3.org/2000/svg">
<path fill-rule="evenodd" clip-rule="evenodd" d="M14 8C14 11.3137 11.3137 14 8 14C4.68629 14 2 11.3137 2 8C2 4.68629 4.68629 2 8 2C11.3137 2 14 4.68629 14 8ZM9.54508 10.737C10.1351 11.796 11.5991 11.263 11.0511 10.53C10.821 10.3748 10.573 10.2625 10.3333 10.1539C10.0199 10.012 9.72073 9.87645 9.49408 9.66C8.98108 9.16899 8.81408 8.404 9.39708 7.719C9.82608 7.224 11.2571 7.004 11.8621 8.095L11.0951 8.58899C10.8611 8.10499 10.4081 8.12 10.2111 8.24199C9.95708 8.39799 9.89108 8.788 10.2071 8.972C10.3771 9.08469 10.5855 9.17544 10.8023 9.26978C11.2702 9.47346 11.7765 9.69387 12.0171 10.188C12.5121 11.452 11.6001 12.342 10.2041 12.176C9.56608 12.09 9.09574 11.7923 8.79308 11.283L8.74308 11.202L9.54508 10.737ZM8.19708 10.977C8.12708 11.527 7.86908 11.896 7.42708 12.075C6.64008 12.389 5.61808 12.097 5.27808 11.299L6.07008 10.82C6.30508 11.261 6.53008 11.36 6.87008 11.305C7.06808 11.273 7.20408 11.11 7.22708 10.883L7.23408 7.372H8.20708C8.20708 7.372 8.20208 10.921 8.19708 10.977Z" fill="#FFCB6B"/>
</svg>
