<svg width="16" height="16" viewBox="0 0 16 16" fill="none" xmlns="http://www.w3.org/2000/svg">
<path d="M11.483 5.50101V6.69401H11.675C11.9402 6.69401 12.1946 6.79936 12.3821 6.9869C12.5697 7.17444 12.675 7.42879 12.675 7.69401V11.656C12.675 11.9212 12.5697 12.1756 12.3821 12.3631C12.1946 12.5507 11.9402 12.656 11.675 12.656H7.71202C7.4468 12.656 7.19245 12.5507 7.00491 12.3631C6.81738 12.1756 6.71202 11.9212 6.71202 11.656V11.464H5.52002V12.849C5.52002 13.1142 5.62538 13.3686 5.81291 13.5561C6.00045 13.7437 6.2548 13.849 6.52002 13.849H12.868C13.1332 13.849 13.3876 13.7437 13.5751 13.5561C13.7627 13.3686 13.868 13.1142 13.868 12.849V6.50101C13.868 6.23579 13.7627 5.98144 13.5751 5.7939C13.3876 5.60636 13.1332 5.50101 12.868 5.50101H11.483Z" fill="#FC8289"/>
<path fill-rule="evenodd" clip-rule="evenodd" d="M11 6.5C11 8.98528 8.98528 11 6.5 11C4.01472 11 2 8.98528 2 6.5C2 4.01472 4.01472 2 6.5 2C8.98528 2 11 4.01472 11 6.5ZM7.72469 7.99008C8.23962 8.91422 9.51674 8.44973 9.03867 7.80971C8.83751 7.67379 8.62066 7.57566 8.41115 7.48087C8.13789 7.35722 7.87714 7.23924 7.68009 7.05042C7.23208 6.6218 7.08662 5.95464 7.59572 5.35632C7.97003 4.92382 9.21806 4.73279 9.74559 5.68408L9.07648 6.11561C8.87284 5.69281 8.4772 5.70639 8.30556 5.81306C8.08349 5.94882 8.02628 6.28919 8.30168 6.45016C8.44999 6.54822 8.63171 6.6273 8.82058 6.70949C9.22941 6.8874 9.67175 7.0799 9.88135 7.51104C10.3129 8.61458 9.51771 9.39132 8.29877 9.24587C7.7428 9.17088 7.33228 8.91131 7.06722 8.46718L7.02456 8.39639L7.72469 7.99008ZM6.54745 8.19954C6.48733 8.67955 6.26139 9.00247 5.87544 9.15762C5.18888 9.43302 4.29576 9.17702 4 8.48076L4.69141 8.06281C4.89602 8.44779 5.09384 8.53409 5.38961 8.48658C5.56222 8.45845 5.68149 8.31591 5.70089 8.11808L5.70671 5.05377H6.55618C6.55618 5.05377 6.5523 8.15105 6.54745 8.19954Z" fill="#FFCB6B"/>
</svg>
