<svg width="16" height="16" viewBox="0 0 16 16" fill="none" xmlns="http://www.w3.org/2000/svg">
<path fill-rule="evenodd" clip-rule="evenodd" d="M14 8C14 11.3137 11.3137 14 8 14C4.68629 14 2 11.3137 2 8C2 4.68629 4.68629 2 8 2C11.3137 2 14 4.68629 14 8ZM6.33333 5H5.66667C5.48986 5 5.32029 5.07024 5.19526 5.19526C5.07024 5.32029 5 5.48986 5 5.66667V7C5 7.17681 4.92976 7.34638 4.80474 7.4714C4.67971 7.59643 4.51014 7.66667 4.33333 7.66667H4V8.33333H4.33333C4.51014 8.33333 4.67971 8.40357 4.80474 8.5286C4.92976 8.65362 5 8.82319 5 9V10.3333C5 10.7 5.31 10.91 5.66667 11H6.33333V10.3333H5.66667V8.66667C5.66667 8.48986 5.59643 8.32029 5.4714 8.19526C5.34638 8.07024 5.17681 8 5 8C5.17681 8 5.34638 7.92976 5.4714 7.80474C5.59643 7.67971 5.66667 7.51014 5.66667 7.33333V5.66667H6.33333V5ZM11 5.66667C11 5.48986 10.9298 5.32029 10.8047 5.19526C10.6797 5.07024 10.5101 5 10.3333 5H9.66667V5.66667H10.3333V7.33333C10.3333 7.51014 10.4036 7.67971 10.5286 7.80474C10.6536 7.92976 10.8232 8 11 8C10.8232 8 10.6536 8.07024 10.5286 8.19526C10.4036 8.32029 10.3333 8.48986 10.3333 8.66667V10.3333H9.66667V11H10.3333C10.5101 11 10.6797 10.9298 10.8047 10.8047C10.9298 10.6797 11 10.5101 11 10.3333V9C11 8.82319 11.0702 8.65362 11.1953 8.5286C11.3203 8.40357 11.4899 8.33333 11.6667 8.33333H12V7.66667H11.6667C11.4899 7.66667 11.3203 7.59643 11.1953 7.4714C11.0702 7.34638 11 7.17681 11 7V5.66667ZM6.66667 7.66667C6.75507 7.66667 6.83986 7.70179 6.90237 7.7643C6.96488 7.82681 7 7.91159 7 8C7 8.08841 6.96488 8.17319 6.90237 8.2357C6.83986 8.29821 6.75507 8.33333 6.66667 8.33333C6.57826 8.33333 6.49348 8.29821 6.43096 8.2357C6.36845 8.17319 6.33333 8.08841 6.33333 8C6.33333 7.91159 6.36845 7.82681 6.43096 7.7643C6.49348 7.70179 6.57826 7.66667 6.66667 7.66667ZM8 7.66667C8.08841 7.66667 8.17319 7.70179 8.2357 7.7643C8.29821 7.82681 8.33333 7.91159 8.33333 8C8.33333 8.08841 8.29821 8.17319 8.2357 8.2357C8.17319 8.29821 8.08841 8.33333 8 8.33333C7.91159 8.33333 7.82681 8.29821 7.7643 8.2357C7.70179 8.17319 7.66667 8.08841 7.66667 8C7.66667 7.91159 7.70179 7.82681 7.7643 7.7643C7.82681 7.70179 7.91159 7.66667 8 7.66667ZM9.66667 8C9.66667 7.91159 9.63155 7.82681 9.56904 7.7643C9.50652 7.70179 9.42174 7.66667 9.33333 7.66667C9.24493 7.66667 9.16014 7.70179 9.09763 7.7643C9.03512 7.82681 9 7.91159 9 8C9 8.08841 9.03512 8.17319 9.09763 8.2357C9.16014 8.29821 9.24493 8.33333 9.33333 8.33333C9.42174 8.33333 9.50652 8.29821 9.56904 8.2357C9.63155 8.17319 9.66667 8.08841 9.66667 8Z" fill="#89DDFF"/>
</svg>
