<svg width="16" height="16" viewBox="0 0 16 16" fill="none" xmlns="http://www.w3.org/2000/svg">
<path fill-rule="evenodd" clip-rule="evenodd" d="M11.25 12.5C11.8467 12.5 12.419 12.2629 12.841 11.841C13.2629 11.419 13.5 10.8467 13.5 10.25C13.5 9.65326 13.2629 9.08097 12.841 8.65901C12.419 8.23705 11.8467 8 11.25 8C10.6533 8 10.081 8.23705 9.65901 8.65901C9.23705 9.08097 9 9.65326 9 10.25C9 10.8467 9.23705 11.419 9.65901 11.841C10.081 12.2629 10.6533 12.5 11.25 12.5Z" fill="#9883EC"/>
<path fill-rule="evenodd" clip-rule="evenodd" d="M5.25 12.5C5.84674 12.5 6.41903 12.2629 6.84099 11.841C7.26295 11.419 7.5 10.8467 7.5 10.25C7.5 9.65326 7.26295 9.08097 6.84099 8.65901C6.41903 8.23705 5.84674 8 5.25 8C4.65326 8 4.08097 8.23705 3.65901 8.65901C3.23705 9.08097 3 9.65326 3 10.25C3 10.8467 3.23705 11.419 3.65901 11.841C4.08097 12.2629 4.65326 12.5 5.25 12.5Z" fill="#FC8289"/>
<path fill-rule="evenodd" clip-rule="evenodd" d="M8.25 8C8.84674 8 9.41903 7.76295 9.84099 7.34099C10.2629 6.91903 10.5 6.34674 10.5 5.75C10.5 5.15326 10.2629 4.58097 9.84099 4.15901C9.41903 3.73705 8.84674 3.5 8.25 3.5C7.65326 3.5 7.08097 3.73705 6.65901 4.15901C6.23705 4.58097 6 5.15326 6 5.75C6 6.34674 6.23705 6.91903 6.65901 7.34099C7.08097 7.76295 7.65326 8 8.25 8Z" fill="#C3E88D"/>
</svg>
