<svg width="16" height="16" viewBox="0 0 16 16" fill="none" xmlns="http://www.w3.org/2000/svg">
<path d="M8 12.32C7.03007 12.3191 6.08866 11.9918 5.32734 11.3909C4.56602 10.7899 4.02909 9.95022 3.803 9.00701C4.153 9.47001 4.739 9.86501 5.485 10.143C6.231 10.421 7.105 10.569 8 10.569C8.896 10.569 9.772 10.419 10.52 10.139C11.266 9.86101 11.85 9.46401 12.198 8.99901C11.9734 9.94387 11.437 10.7855 10.6753 11.388C9.91367 11.9906 8.97119 12.3189 8 12.32ZM3.802 7.00001C4.02639 6.05496 4.56273 5.21312 5.32441 4.61037C6.08609 4.00763 7.02868 3.67917 8 3.67801C8.96993 3.67891 9.91134 4.00618 10.6727 4.60715C11.434 5.20811 11.9709 6.0478 12.197 6.99101C11.847 6.52801 11.261 6.13301 10.515 5.85501C9.769 5.57701 8.895 5.42901 8 5.42901C7.104 5.42901 6.228 5.57901 5.48 5.85901C4.734 6.13801 4.15 6.53601 3.802 7.00001Z" fill="#F78C6C"/>
<path d="M4.45993 2.423C4.57878 2.423 4.69646 2.44641 4.80626 2.49189C4.91606 2.53737 5.01583 2.60404 5.09986 2.68807C5.1839 2.77211 5.25056 2.87188 5.29604 2.98168C5.34152 3.09148 5.36493 3.20916 5.36493 3.328C5.36493 3.44685 5.34152 3.56453 5.29604 3.67433C5.25056 3.78413 5.1839 3.8839 5.09986 3.96794C5.01583 4.05197 4.91606 4.11863 4.80626 4.16412C4.69646 4.2096 4.57878 4.233 4.45993 4.233C4.21991 4.233 3.98972 4.13766 3.82 3.96794C3.65028 3.79822 3.55493 3.56803 3.55493 3.328C3.55493 3.08798 3.65028 2.85779 3.82 2.68807C3.98972 2.51835 4.21991 2.423 4.45993 2.423Z" fill="#8E95B4"/>
<path d="M3.85201 11.391C4.02838 11.391 4.19753 11.4611 4.32224 11.5858C4.44695 11.7105 4.51701 11.8796 4.51701 12.056C4.51701 12.2324 4.44695 12.4015 4.32224 12.5262C4.19753 12.6509 4.02838 12.721 3.85201 12.721C3.67564 12.721 3.5065 12.6509 3.38179 12.5262C3.25707 12.4015 3.18701 12.2324 3.18701 12.056C3.18701 11.8796 3.25707 11.7105 3.38179 11.5858C3.5065 11.4611 3.67564 11.391 3.85201 11.391ZM11.672 11.815C11.7859 11.8111 11.8994 11.8301 12.0057 11.871C12.1121 11.9119 12.2091 11.9738 12.2911 12.0529C12.373 12.1321 12.4382 12.227 12.4827 12.3319C12.5272 12.4368 12.5501 12.5495 12.5501 12.6635C12.5501 12.7774 12.5272 12.8902 12.4827 12.9951C12.4382 13.1 12.373 13.1949 12.2911 13.274C12.2091 13.3532 12.1121 13.4151 12.0057 13.456C11.8994 13.4968 11.7859 13.5159 11.672 13.512C11.452 13.5044 11.2436 13.4117 11.0906 13.2534C10.9376 13.0951 10.8521 12.8836 10.8521 12.6635C10.8521 12.4434 10.9376 12.2318 11.0906 12.0735C11.2436 11.9152 11.452 11.8225 11.672 11.815Z" fill="#6B7394"/>
</svg>
