<svg width="16" height="16" viewBox="0 0 16 16" fill="none" xmlns="http://www.w3.org/2000/svg">
<path fill-rule="evenodd" clip-rule="evenodd" d="M14 8C14 11.3137 11.3137 14 8 14C4.68629 14 2 11.3137 2 8C2 4.68629 4.68629 2 8 2C11.3137 2 14 4.68629 14 8ZM11.6667 4H10C9.95615 4.00001 9.91273 4.00867 9.87224 4.02549C9.83174 4.0423 9.79496 4.06695 9.764 4.098L7.14933 6.71267C5.48067 6.39933 4 7.70467 4 9.33333C4 10.804 5.196 12 6.66667 12C8.13733 12 9.33333 10.804 9.33333 9.33333C9.33333 9.07778 9.29689 8.82711 9.224 8.58133L9.90267 7.90267C9.96467 7.84 10 7.75533 10 7.66667V6.66667H11C11.0438 6.66675 11.0872 6.65819 11.1277 6.64149C11.1682 6.62479 11.205 6.60027 11.236 6.56933L11.9027 5.90267C11.9647 5.84 12 5.75533 12 5.66667V4.33333C12 4.24493 11.9649 4.16014 11.9024 4.09763C11.8399 4.03512 11.7551 4 11.6667 4ZM5.86193 10.1381C5.7369 10.013 5.66667 9.84348 5.66667 9.66667C5.66667 9.48986 5.7369 9.32029 5.86193 9.19526C5.98695 9.07024 6.15652 9 6.33333 9C6.51014 9 6.67971 9.07024 6.80474 9.19526C6.92976 9.32029 7 9.48986 7 9.66667C7 9.84348 6.92976 10.013 6.80474 10.1381C6.67971 10.2631 6.51014 10.3333 6.33333 10.3333C6.15652 10.3333 5.98695 10.2631 5.86193 10.1381Z" fill="#9883EC"/>
</svg>
