<svg width="16" height="16" viewBox="0 0 16 16" fill="none" xmlns="http://www.w3.org/2000/svg">
<path fill-rule="evenodd" clip-rule="evenodd" d="M14 8C14 11.3137 11.3137 14 8 14C4.68629 14 2 11.3137 2 8C2 4.68629 4.68629 2 8 2C11.3137 2 14 4.68629 14 8ZM5.36067 6.5788C5.41382 6.65169 5.43943 6.74514 5.432 6.83906C5.432 7.03331 5.40267 7.07306 4.62 7.96559L4 8.67211V5L4.64467 5.73427C5 6.13853 5.32067 6.51955 5.36067 6.5788ZM7.758 6.95456C8.70133 8.03309 9.46667 8.93462 9.47867 8.97662C9.51306 9.09965 9.51373 9.2316 9.47933 9.35463C9.44667 9.45663 8.18733 10.9034 8.084 10.9597C7.98533 11.0129 7.79533 11.0129 7.70867 10.9627C7.67133 10.9394 7.336 10.5667 6.96067 10.1347C6.326 9.40638 6.27133 9.33588 6.18733 9.13187C6.02733 8.74786 6.02467 8.72836 6.02467 6.7708C6.02467 5.80477 6.032 5.01425 6.04467 5.01425C6.054 5.01425 6.82467 5.88653 7.758 6.95456ZM12 6.47754C12 6.5023 11.546 7.04456 10.976 7.69708L9.95067 8.87012L9.09867 7.89509C8.62933 7.35807 8.25933 6.91481 8.27133 6.91181C8.304 6.89831 11.84 6.43479 11.9333 6.42954C11.98 6.42654 12 6.44004 12 6.47754ZM5.68 9.16638C5.68 10.1602 5.672 10.9739 5.66 10.9739C5.63267 10.9739 4.28 9.41463 4.25 9.34338C4.21067 9.25338 4.218 9.04712 4.26267 8.96837C4.314 8.88137 5.63533 7.35882 5.66 7.35882C5.672 7.35882 5.68 8.1726 5.68 9.16638Z" fill="#C792EA"/>
</svg>
