<svg width="16" height="16" viewBox="0 0 16 16" fill="none" xmlns="http://www.w3.org/2000/svg">
<path d="M4.81792 3H2.99992C2.87925 3 2.76352 3.04794 2.67819 3.13327C2.59286 3.2186 2.54492 3.33433 2.54492 3.455V12.545C2.54492 12.796 2.74892 13 2.99992 13H4.81792V3Z" fill="#FC8289"/>
<path fill-rule="evenodd" clip-rule="evenodd" d="M5.72705 3V13H13.0001C13.2501 13 13.4541 12.796 13.4541 12.546V3.455C13.4541 3.3345 13.4063 3.21892 13.3211 3.13362C13.236 3.04832 13.1206 3.00026 13.0001 3H5.72705ZM7.54505 4.818H8.91005V5.728H7.54505V4.818ZM7.54505 11.182H8.91005V10.272H7.54505V11.182ZM10.2731 9.364H8.45505V8.454H10.2731V9.364ZM8.90905 7.545H11.6361V6.636H8.91005L8.90905 7.545Z" fill="#69A7D3"/>
</svg>
