<svg width="16" height="16" viewBox="0 0 16 16" fill="none" xmlns="http://www.w3.org/2000/svg">
<path fill-rule="evenodd" clip-rule="evenodd" d="M0 11.141H0.821V8.396L2.401 10.116L3.858 8.396V11.106H4.773V6L2.315 8.594L0 6.151V11.141ZM5.921 8.947L6.545 8.288L7.706 9.514V6H8.55V9.486L9.69 8.282L10.322 8.948L8.122 11.337L5.921 8.947Z" fill="#6B7394"/>
<path fill-rule="evenodd" clip-rule="evenodd" d="M11.0531 10.602L11.6231 11.205L13.4331 9.295L15.1151 11.205L15.7161 10.505L13.9461 8.637L15.8361 6.641L15.2301 6L13.3861 7.947L11.5651 6L10.9961 6.641L12.7401 8.637L11.0531 10.602Z" fill="#FFCB6B"/>
</svg>
