<svg width="16" height="16" viewBox="0 0 16 16" fill="none" xmlns="http://www.w3.org/2000/svg">
<path fill-rule="evenodd" clip-rule="evenodd" d="M3 5.5H13C13.1326 5.5 13.2598 5.55268 13.3536 5.64645C13.4473 5.74021 13.5 5.86739 13.5 6V13C13.5 13.1326 13.4473 13.2598 13.3536 13.3536C13.2598 13.4473 13.1326 13.5 13 13.5H3C2.86739 13.5 2.74021 13.4473 2.64645 13.3536C2.55268 13.2598 2.5 13.1326 2.5 13V6C2.5 5.86739 2.55268 5.74021 2.64645 5.64645C2.74021 5.55268 2.86739 5.5 3 5.5ZM10 9.5L6.5 7.5V11.5L10 9.5Z" fill="#FC8289"/>
<path d="M2.10997 4.13999C2.09683 4.07564 2.09649 4.00934 2.10897 3.94486C2.12146 3.88038 2.14653 3.81899 2.18274 3.7642C2.21896 3.70941 2.26562 3.66229 2.32005 3.62554C2.37448 3.58878 2.43562 3.56311 2.49997 3.54999L12.152 1.58099C12.2163 1.56786 12.2826 1.56753 12.3471 1.58002C12.4116 1.59252 12.473 1.61758 12.5277 1.6538C12.5825 1.69001 12.6296 1.73667 12.6664 1.79109C12.7032 1.84551 12.7288 1.90664 12.742 1.97099C12.7551 2.03534 12.7554 2.10164 12.7429 2.16612C12.7304 2.23059 12.7054 2.29198 12.6692 2.34676C12.6329 2.40155 12.5863 2.44867 12.5319 2.48542C12.4775 2.52218 12.4163 2.54786 12.352 2.56099L2.69997 4.52999C2.63562 4.54314 2.56931 4.54348 2.50483 4.53099C2.44035 4.5185 2.37897 4.49344 2.32418 4.45722C2.26939 4.421 2.22227 4.37435 2.18552 4.31992C2.14876 4.26548 2.12309 4.20435 2.10997 4.13999Z" fill="#FFCB6B"/>
</svg>
