<svg width="16" height="16" viewBox="0 0 16 16" fill="none" xmlns="http://www.w3.org/2000/svg">
<path d="M4.5 2.5H2.5C2.36739 2.5 2.24021 2.55268 2.14645 2.64645C2.05268 2.74021 2 2.86739 2 3V13C2 13.1326 2.05268 13.2598 2.14645 13.3536C2.24021 13.4473 2.36739 13.5 2.5 13.5H4.5V2.5Z" fill="#F07178"/>
<path fill-rule="evenodd" clip-rule="evenodd" d="M5.5 2.5V13.5H13.5C13.6326 13.5 13.7598 13.4473 13.8536 13.3536C13.9473 13.2598 14 13.1326 14 13V3C14 2.86739 13.9473 2.74021 13.8536 2.64645C13.7598 2.55268 13.6326 2.5 13.5 2.5H5.5ZM7.5 4.5H9V5.5H7.5V4.5ZM7.5 11.5H9V10.5H7.5V11.5ZM10.5 9.5H8.5V8.5H10.5V9.5ZM9 7.5H12V6.5H9V7.5Z" fill="#FFCB6B"/>
</svg>
