<svg width="16" height="16" viewBox="0 0 16 16" fill="none" xmlns="http://www.w3.org/2000/svg">
<path fill-rule="evenodd" clip-rule="evenodd" d="M14 8C14 11.3137 11.3137 14 8 14C4.68629 14 2 11.3137 2 8C2 4.68629 4.68629 2 8 2C11.3137 2 14 4.68629 14 8ZM5 5.5C5 5.22386 5.22386 5 5.5 5H10.5C10.7761 5 11 5.22386 11 5.5V10.5C11 10.7761 10.7761 11 10.5 11H10.0011C9.72493 11 9.50107 10.7761 9.50107 10.5V6.99893C9.50107 6.72278 9.27722 6.49893 9.00107 6.49893H8.50215C8.22601 6.49893 8.00215 6.72278 8.00215 6.99893V10.5C8.00215 10.7761 7.77829 11 7.50215 11H5.5C5.22386 11 5 10.7761 5 10.5V5.5Z" fill="#FC8289"/>
</svg>
