<svg width="16" height="16" viewBox="0 0 16 16" fill="none" xmlns="http://www.w3.org/2000/svg">
<path fill-rule="evenodd" clip-rule="evenodd" d="M13.9999 8C13.9999 5.91303 12.9344 4.07492 11.3177 3C11.1969 2.91967 11.073 2.8436 10.9462 2.772C10.076 2.28049 9.07069 2 7.99992 2C6.77319 2 5.63244 2.36815 4.68213 3H4.68213C3.27494 3.93562 2.28534 5.44945 2.05249 7.20231C2.72585 6.6799 2.93314 5.97367 2.94805 5.9229C2.94864 5.92087 2.94893 5.91989 2.94893 5.92C2.98326 5.85634 3.01287 5.79593 3.04054 5.73947C3.17893 5.45712 3.26892 5.2735 3.65893 5.276C4.0111 5.27792 4.14256 5.50696 4.43456 6.01572L4.47493 6.086L4.5152 6.1551C4.61973 6.33469 4.74293 6.54636 4.79593 6.602C4.95546 6.76252 5.07814 6.66799 5.1315 6.62687L5.13393 6.625C5.18049 6.5867 5.20844 6.51738 5.24531 6.42593L5.24532 6.42592C5.25754 6.3956 5.27074 6.36286 5.28593 6.328C5.31157 6.26846 5.33774 6.20527 5.36327 6.14361L5.36328 6.14359L5.36328 6.14358C5.42437 5.99605 5.48185 5.85724 5.51993 5.798C5.55912 5.73695 5.58725 5.67165 5.61379 5.61002L5.61379 5.61001C5.65159 5.52225 5.68618 5.44194 5.74493 5.392C5.87263 5.28587 6.03309 5.26387 6.10939 5.25341C6.12152 5.25175 6.13152 5.25037 6.13893 5.249C6.39029 5.20008 6.52639 5.33543 6.64985 5.45821C6.67276 5.48099 6.69524 5.50334 6.71793 5.524C6.85756 5.66306 6.96627 5.83004 7.03693 6.014C7.23384 6.45126 7.44056 6.88404 7.65693 7.312C7.65693 7.312 7.73493 7.53 8.20693 7.727C8.27084 7.75332 8.37598 7.79063 8.47536 7.8259L8.47545 7.82593C8.53464 7.84693 8.59177 7.86721 8.63693 7.884C8.84093 7.959 9.04093 7.949 9.29093 7.919C9.46633 7.919 9.56191 7.67485 9.64227 7.46954L9.64993 7.45C9.67938 7.37547 9.70847 7.21857 9.73351 7.08353C9.75013 6.9939 9.76496 6.9139 9.77693 6.874C9.79113 6.8314 9.78485 6.79234 9.7788 6.75473C9.77122 6.70759 9.764 6.66272 9.79793 6.616C9.82125 6.58302 9.84169 6.56036 9.86005 6.54C9.8968 6.49924 9.92526 6.46769 9.95193 6.381C10.0409 6.103 10.5499 6.089 10.8359 6.089C10.9327 6.089 10.9854 6.12706 11.0407 6.16704C11.122 6.22575 11.209 6.2886 11.4499 6.241C11.6573 6.20168 11.8575 6.25662 12.0733 6.31586C12.0989 6.3229 12.1248 6.32999 12.1509 6.337C12.3569 6.391 12.5519 6.454 12.6689 6.591C12.7459 6.679 12.9339 7.122 12.7409 7.141C12.7476 7.14839 12.7534 7.15849 12.7597 7.16935L12.7597 7.16937C12.7712 7.18941 12.7842 7.21204 12.8069 7.225C12.7745 7.35329 12.6566 7.31136 12.5572 7.276C12.528 7.2656 12.5003 7.25577 12.4769 7.251C12.3379 7.221 12.2399 7.253 12.1039 7.315C12.0127 7.3551 11.9048 7.37758 11.7952 7.40042C11.626 7.43569 11.4525 7.47183 11.3299 7.575C11.219 7.66767 11.1804 7.83572 11.1448 7.99105C11.1259 8.07374 11.1077 8.15282 11.0799 8.215C11.0799 8.215 10.8589 8.786 10.3739 9.135C10.3619 9.14365 10.3487 9.1535 10.3342 9.16431L10.3341 9.16438C10.1997 9.2648 9.95451 9.44799 9.47793 9.522C9.24193 9.56 9.02193 9.562 8.77793 9.55C8.65893 9.543 8.54693 9.539 8.42693 9.536C8.41387 9.536 8.39522 9.5357 8.37356 9.53535H8.37355H8.37354C8.27743 9.53378 8.12195 9.53124 8.13093 9.55L8.10593 9.616C8.12893 9.686 8.13393 9.798 8.13593 9.848C8.13842 9.89684 8.13669 9.94767 8.13495 9.99887V9.99889V9.99891C8.13319 10.0504 8.13142 10.1023 8.13393 10.153C8.13937 10.2559 8.16098 10.3552 8.18263 10.4546L8.18263 10.4546L8.18263 10.4547C8.20473 10.5562 8.22688 10.6579 8.23193 10.764C8.24093 10.999 8.35893 11.247 8.47093 11.44C8.48882 11.4707 8.51107 11.4899 8.53288 11.5088C8.56226 11.5342 8.59086 11.5589 8.60693 11.61C8.62707 11.6698 8.62469 11.7317 8.62228 11.7944C8.62051 11.8406 8.61871 11.8873 8.62593 11.934C8.66923 12.2222 8.83432 12.7128 8.93656 13H8.53296C8.51141 12.9453 8.48907 12.891 8.46593 12.837C8.44295 12.7879 8.41669 12.7148 8.39144 12.6445L8.39142 12.6444L8.39141 12.6444L8.3914 12.6444C8.36832 12.5801 8.34607 12.5182 8.32793 12.479C8.27188 12.3616 8.20598 12.2492 8.13093 12.143C8.11363 12.1226 8.09828 12.105 8.08456 12.0893L8.08455 12.0893C8.0055 11.9988 7.98075 11.9704 7.95093 11.823C7.86187 11.3995 7.72569 10.9872 7.54493 10.594C7.44893 10.4 7.28693 10.236 7.13993 10.095C7.00993 9.971 6.72293 9.762 6.67093 9.772C6.29021 9.84686 6.12134 10.1621 5.95417 10.4741L5.95416 10.4742C5.91365 10.5498 5.87323 10.6252 5.82993 10.697C5.7936 10.7563 5.75701 10.8128 5.72095 10.8685L5.72095 10.8685L5.72091 10.8686C5.63294 11.0044 5.54814 11.1354 5.47793 11.29C5.44496 11.3641 5.42516 11.4409 5.40557 11.517C5.37229 11.6461 5.33962 11.773 5.24393 11.88C5.08693 12.057 4.98393 12.242 4.90593 12.47C4.89717 12.4956 4.84189 12.786 4.80169 13H4.68213C4.71739 13.0234 4.75292 13.0465 4.7887 13.0692C4.8761 13.1247 4.96502 13.178 5.0554 13.229C5.92527 13.7199 6.92989 14 7.99992 14C9.07069 14 10.0759 13.7195 10.9462 13.228C11.073 13.1564 11.1969 13.0803 11.3177 13C12.9344 11.9251 13.9999 10.087 13.9999 8ZM4.43066 12.8234C4.48111 12.6308 4.53479 12.4275 4.55493 12.357C4.56665 12.3192 4.5795 12.2838 4.59207 12.2491C4.61705 12.1803 4.64096 12.1145 4.65293 12.038C4.66685 11.9479 4.65663 11.8605 4.64698 11.778L4.64697 11.778L4.64695 11.7777C4.64482 11.7596 4.64273 11.7417 4.64093 11.724C4.6264 11.5661 4.7032 11.4721 4.7867 11.3698L4.78671 11.3698C4.83543 11.3101 4.88645 11.2476 4.92293 11.168C4.97813 11.0477 5.01871 10.9174 5.05899 10.788C5.08365 10.7088 5.1082 10.63 5.13593 10.554C5.20593 10.364 5.31593 10.095 5.50593 9.999C5.49041 9.98146 5.31654 9.9703 5.17494 9.9612L5.17492 9.9612L5.1749 9.9612H5.17489C5.10659 9.95681 5.04581 9.95291 5.01393 9.949C4.69949 9.90884 4.38738 9.8521 4.07893 9.779C3.87365 9.7195 3.67169 9.64906 3.47393 9.568C3.38717 9.52803 3.31326 9.4593 3.24465 9.3955C3.15192 9.30927 3.06889 9.23206 2.97693 9.247C2.87693 9.263 2.77793 9.298 2.71493 9.399C2.68371 9.44943 2.66547 9.52112 2.64765 9.59115C2.63579 9.63776 2.62412 9.68364 2.60893 9.722C2.57508 9.81306 2.52306 9.89762 2.47117 9.98197L2.47109 9.98209C2.45861 10.0024 2.44614 10.0227 2.43393 10.043C2.41973 10.0682 2.40317 10.0936 2.38495 10.1193C2.79543 11.2063 3.51249 12.1428 4.43066 12.8234Z" fill="#FFCB6B"/>
</svg>
