<svg width="16" height="16" viewBox="0 0 16 16" fill="none" xmlns="http://www.w3.org/2000/svg">
<path fill-rule="evenodd" clip-rule="evenodd" d="M14 8C14 11.3137 11.3137 14 8 14C4.68629 14 2 11.3137 2 8C2 4.68629 4.68629 2 8 2C11.3137 2 14 4.68629 14 8ZM5 5.5C5 5.22386 5.22386 5 5.5 5H10.5C10.7761 5 11 5.22386 11 5.5V10.5C11 10.7761 10.7761 11 10.5 11H10.0011C9.72493 11 9.50107 10.7761 9.50107 10.5V6.99893C9.50107 6.72278 9.27722 6.49893 9.00107 6.49893H8.50215C8.22601 6.49893 8.00215 6.72278 8.00215 6.99893V10.5C8.00215 10.7761 7.77829 11 7.50215 11H5.5C5.22386 11 5 10.7761 5 10.5V5.5Z" fill="#FC8289"/>
<path fill-rule="evenodd" clip-rule="evenodd" d="M13.5698 9.463H13.2418V8.798C13.2418 7.88 12.5088 7.134 11.6048 7.134C10.7008 7.134 9.96784 7.88 9.96784 8.798V9.463H9.63984C9.27984 9.463 8.98584 9.763 8.98584 10.128V13.455C8.98584 13.821 9.27984 14.12 9.63984 14.12H13.5698C13.9298 14.12 14.2248 13.82 14.2248 13.455V10.128C14.2255 10.0413 14.2091 9.95538 14.1765 9.87505C14.144 9.79472 14.0959 9.72159 14.0351 9.65984C13.9742 9.59809 13.9019 9.54892 13.822 9.51515C13.7422 9.48138 13.6565 9.46366 13.5698 9.463ZM11.6048 12.457C11.2448 12.457 10.9498 12.157 10.9498 11.791C10.9498 11.425 11.2448 11.126 11.6048 11.126C11.9648 11.126 12.2598 11.426 12.2598 11.791C12.2606 11.8778 12.2443 11.9638 12.2118 12.0443C12.1793 12.1247 12.1313 12.198 12.0704 12.2598C12.0096 12.3217 11.9372 12.3709 11.8573 12.4048C11.7774 12.4386 11.6916 12.4563 11.6048 12.457ZM10.5898 8.797V9.463H12.6198V8.798C12.6198 8.228 12.1648 7.766 11.6048 7.766C11.0448 7.766 10.5898 8.229 10.5898 8.798" fill="#FFCB6B"/>
</svg>
