<svg width="16" height="16" viewBox="0 0 16 16" fill="none" xmlns="http://www.w3.org/2000/svg">
<path fill-rule="evenodd" clip-rule="evenodd" d="M14 8C14 11.3137 11.3137 14 8 14C4.68629 14 2 11.3137 2 8C2 4.68629 4.68629 2 8 2C11.3137 2 14 4.68629 14 8ZM6.5878 10.3661C6.70647 10.0889 6.70647 9.811 6.64646 9.53449L6.64513 9.53308C6.6158 9.28668 6.52779 9.07107 6.26512 8.97867C6.17711 8.91706 6.08911 8.85546 5.97177 8.82466C5.88377 8.76376 5.7671 8.70146 5.64976 8.67066C5.56242 8.64056 5.47509 8.70146 5.41642 8.76376C5.38719 8.85377 5.41491 8.9139 5.44286 8.97454L5.44509 8.97937C5.47069 9.02015 5.49655 9.05494 5.51992 9.08637C5.5495 9.12615 5.57508 9.16056 5.59109 9.19497C5.62588 9.24405 5.66532 9.28834 5.70389 9.33167C5.76217 9.39712 5.81847 9.46035 5.85377 9.53449C5.90027 9.58271 5.93718 9.64016 5.96236 9.70349C5.98754 9.76682 6.00048 9.83477 6.00044 9.9034C5.97111 10.2114 5.85377 10.4578 5.62043 10.6734C5.59109 10.7042 5.56109 10.7042 5.53242 10.7042C5.38575 10.7042 5.26908 10.6426 5.15241 10.5502C5.03507 10.427 5.06507 10.3038 5.21108 10.2114C5.24041 10.1799 5.26975 10.1491 5.29908 10.1491C5.38708 10.0574 5.41709 9.965 5.35775 9.8726C5.35846 9.84081 5.35057 9.80947 5.33499 9.78221C5.31941 9.75495 5.29679 9.73289 5.26975 9.71859C5.18298 9.64239 5.09622 9.55864 5.00938 9.47481C4.92072 9.38923 4.83197 9.30357 4.74306 9.22578C4.27504 8.82536 4.04103 8.33325 4.01237 7.74733C3.95436 7.0704 4.10037 6.42428 4.45105 5.86917C4.56839 5.65356 4.71439 5.43795 4.9484 5.31475C5.02909 5.2807 5.11853 5.25628 5.21212 5.23073C5.28788 5.21004 5.36635 5.18861 5.44509 5.16074C5.9131 5.03754 6.35179 4.94514 6.84914 5.03754C7.25849 5.09984 7.5505 5.31475 7.69717 5.74596C7.78517 6.02317 7.78517 6.30038 7.78517 6.60839C7.75412 6.89406 7.64302 7.16364 7.46595 7.38296C7.28887 7.60229 7.05379 7.7615 6.79047 7.84043C6.55646 7.90203 6.43912 7.87193 6.29312 7.68642L6.03044 7.22441C6.00111 7.19291 6.00111 7.16211 6.00111 7.16211C5.98585 7.14645 5.97836 7.13061 5.9709 7.11486C5.9637 7.09964 5.95653 7.0845 5.94244 7.0697C5.95327 7.11572 5.96313 7.16174 5.97294 7.20756C6.01567 7.40707 6.05758 7.60279 6.17578 7.77813C6.23512 7.90133 6.32312 7.99373 6.46913 7.99373C6.96714 8.05534 7.40449 7.87053 7.69784 7.43932C8.04918 6.9766 8.10785 6.42288 8.01985 5.83766C8.01536 5.81923 8.0109 5.80148 8.00656 5.78422C7.98191 5.68612 7.96118 5.60362 7.96118 5.49885C7.93185 5.43795 7.96118 5.37565 8.01985 5.34485C8.03196 5.34485 8.04396 5.33972 8.05804 5.33369C8.07808 5.32512 8.10235 5.31475 8.13719 5.31475C8.5472 5.22164 8.95588 5.19014 9.3659 5.25245C9.84545 5.27962 10.3097 5.43897 10.712 5.71446C11.356 6.14567 11.736 6.76169 11.9413 7.53172C11.9576 7.58177 11.965 7.64087 11.973 7.7041C11.9797 7.7576 11.9869 7.81407 12 7.87053C12 7.93213 11.942 7.96363 11.8833 7.90133C11.824 7.87053 11.766 7.80963 11.7073 7.74733C11.6927 7.71653 11.6707 7.68572 11.6487 7.65492C11.6267 7.62412 11.6047 7.59332 11.59 7.56252C11.5313 7.49999 11.502 7.49999 11.502 7.56252C11.4733 7.59262 11.4733 7.65492 11.4733 7.68572C11.356 8.08544 11.1813 8.48585 10.888 8.79386C10.858 8.82466 10.8293 8.91707 10.8293 8.94787C10.8 9.13267 10.8 9.28668 10.8 9.44068C10.8146 9.62549 10.8366 9.80259 10.8586 9.97969C10.8806 10.1568 10.9026 10.3339 10.9173 10.5187C10.946 10.7028 10.888 10.826 10.712 10.8883C10.5953 10.9506 10.4493 10.9807 10.3319 10.9807H9.68791C9.68791 10.9563 9.68819 10.9319 9.68847 10.9076C9.69102 10.6867 9.69345 10.4757 9.48324 10.3647C9.53357 10.205 9.56281 10.0447 9.5884 9.90445C9.5923 9.88308 9.59612 9.86217 9.59991 9.84179C9.61512 9.76736 9.61514 9.69038 9.59998 9.61594C9.58481 9.54149 9.55479 9.47127 9.51191 9.40988C9.4239 9.31748 9.30723 9.28528 9.18989 9.34828C8.86922 9.53308 8.5472 9.53308 8.22519 9.40988C8.04985 9.34828 7.96185 9.37908 7.87451 9.53308C7.75717 9.68709 7.72784 9.8712 7.72784 10.0567C7.74418 10.1768 7.76072 10.3064 7.77712 10.4349C7.79018 10.5372 7.80314 10.6388 7.81584 10.7343C7.84518 10.8575 7.81584 10.889 7.69917 10.9191C7.43583 11.0122 7.17315 11.0122 6.87981 10.9821H6.85114C6.85114 10.7357 6.85114 10.4893 6.5878 10.3661ZM4.65772 8.73296C4.79411 8.7398 4.9285 8.69648 5.03774 8.61045V8.60905C5.0506 8.58205 5.0691 8.55504 5.08582 8.53062C5.10724 8.49936 5.12574 8.47235 5.12574 8.45505C5.15441 8.30174 5.03774 8.11694 4.92107 8.05534C4.86306 8.02384 4.80373 8.02384 4.77506 8.08544C4.67627 8.18917 4.59827 8.2929 4.50645 8.41501C4.48922 8.43794 4.47149 8.46151 4.45305 8.48585C4.43454 8.48585 4.42745 8.49785 4.41784 8.51411C4.41188 8.5242 4.40495 8.53593 4.39371 8.54745C4.36482 8.64032 4.39416 8.70216 4.48172 8.73296H4.65772ZM4.89107 7.37911C4.97907 7.37911 5.06707 7.28671 5.06707 7.19361C5.03774 7.0704 4.97907 7.0088 4.86173 6.978C4.77373 6.978 4.68572 7.0704 4.68572 7.19361C4.71506 7.28671 4.77373 7.37911 4.89107 7.37911Z" fill="#8993BE"/>
</svg>
