<svg width="16" height="16" viewBox="0 0 16 16" fill="none" xmlns="http://www.w3.org/2000/svg">
<path fill-rule="evenodd" clip-rule="evenodd" d="M9.68678 3.02L8.24978 5.507H11.1298L12.5738 3.02H9.68678ZM8.24978 5.507L6.80678 8L5.36978 10.493H8.24978L9.68678 8L11.1298 5.507H8.24978ZM3.92578 12.98H6.80578L8.24978 10.493H5.36978L3.92578 12.98Z" fill="#F07178"/>
<path fill-rule="evenodd" clip-rule="evenodd" d="M2.4899 5.507L3.9259 3.02H6.8059L5.3699 5.507H2.4899ZM2.4899 5.507L1.0459 8L2.4899 10.493H5.3699L3.9259 8L5.3699 5.507H2.4899ZM3.9259 12.98L5.3699 10.493H2.4899L3.9259 12.98ZM14.0099 5.507L12.5739 3.02L11.1299 5.507H14.0099ZM14.0099 5.507L15.4549 8L14.0109 10.493H11.1309L12.5739 8L11.1299 5.507H14.0099ZM11.1309 10.493L9.6929 12.98H12.5729L14.0109 10.493H11.1309Z" fill="#89DDFF"/>
</svg>
