<svg width="16" height="16" viewBox="0 0 16 16" fill="none" xmlns="http://www.w3.org/2000/svg">
<path d="M12.8559 4.185C12.7589 4.062 12.6529 3.945 12.5589 3.821C12.465 3.69083 12.3578 3.57084 12.2389 3.463C11.4837 2.83552 10.5862 2.40287 9.6249 2.203C9.29085 2.13947 8.95262 2.10037 8.6129 2.086C8.26692 2.05656 7.91914 2.05489 7.5729 2.081C6.9159 2.145 6.2259 2.204 5.6029 2.433C5.00871 2.65826 4.45894 2.98663 3.9789 3.403C3.7319 3.613 3.5379 3.874 3.3339 4.125C3.1219 4.385 2.9249 4.651 2.7599 4.942C2.4039 5.57 2.1009 6.268 2.0579 6.998C2.0479 7.178 2.0579 7.358 2.0769 7.537C2.0969 7.717 2.1139 7.916 2.1719 8.089C2.1809 8.113 2.1979 8.137 2.1969 8.165C2.1969 8.19 2.1709 8.203 2.1739 8.23C2.1769 8.257 2.2029 8.262 2.2099 8.286C2.2199 8.32 2.2099 8.353 2.2109 8.388C2.2139 8.467 2.2429 8.543 2.2609 8.618C2.2809 8.704 2.2709 8.76 2.2439 8.842C2.2759 8.82067 2.30923 8.80067 2.3439 8.782C2.3699 8.888 2.4039 8.991 2.4289 9.096C2.44228 9.19264 2.48812 9.28186 2.5589 9.349C2.5589 9.215 2.5239 9.103 2.5059 8.972L2.5559 8.984C2.5059 9.033 2.6029 9.16 2.6209 9.207C2.6529 9.175 2.6799 9.156 2.7269 9.16C2.7099 9.118 2.7019 9.073 2.6849 9.031C2.6709 8.999 2.6409 8.966 2.6349 8.943C2.6309 8.921 2.6419 8.904 2.6299 8.878C2.6199 8.858 2.5969 8.848 2.5869 8.828C2.5589 8.773 2.6029 8.718 2.5939 8.658C2.5749 8.523 2.5299 8.393 2.5139 8.257C2.4999 8.138 2.5289 7.992 2.4359 7.899C2.3779 7.947 2.3909 8.063 2.3059 8.03C2.2409 8.005 2.2589 7.905 2.3239 7.922C2.3239 7.862 2.2989 7.84 2.3289 7.787C2.3569 7.739 2.3969 7.706 2.4199 7.652C2.4699 7.536 2.4789 7.401 2.4869 7.277C2.5069 6.993 2.5639 6.739 2.6569 6.47C2.8339 5.959 3.0909 5.474 3.3719 5.012C3.8969 4.149 4.6829 3.402 5.6149 2.99C5.9039 2.86407 6.20338 2.76368 6.5099 2.69C6.8109 2.617 7.1209 2.624 7.4269 2.593C7.1709 2.954 6.9239 3.325 6.6549 3.677C6.3969 4.014 6.1329 4.347 5.8759 4.687C5.6099 5.039 5.3759 5.412 5.1289 5.777C5.00756 5.95567 4.88456 6.13367 4.7599 6.311C4.6999 6.397 4.6359 6.473 4.5689 6.552C4.5359 6.591 4.5369 6.624 4.5209 6.669C4.5039 6.716 4.4729 6.758 4.4479 6.799L4.4179 6.744C4.3589 6.839 4.3069 6.937 4.2479 7.032C4.2159 7.085 4.1069 7.187 4.2059 7.223L4.1459 7.273C4.1739 7.306 4.2159 7.323 4.2439 7.357L4.2669 7.327C4.2769 7.402 4.3049 7.323 4.3229 7.3C4.34423 7.26933 4.3669 7.241 4.3909 7.215C4.4409 7.163 4.5009 7.121 4.5539 7.07C4.6599 6.966 4.7549 6.848 4.8499 6.733C5.0599 6.476 5.2459 6.2 5.4639 5.949C5.4409 6.209 5.4329 6.469 5.4109 6.728C5.4009 6.851 5.4139 6.972 5.4009 7.096C5.38486 7.22203 5.37684 7.34895 5.3769 7.476C5.3799 7.736 5.3939 7.991 5.3769 8.25C5.3699 8.354 5.3899 8.453 5.3899 8.556C5.3899 8.622 5.3719 8.712 5.4559 8.712C5.4559 8.878 5.3979 9.029 5.4109 9.198C5.4169 9.275 5.4029 9.348 5.4029 9.424C5.4029 9.512 5.4729 9.577 5.4719 9.66C5.4199 9.66 5.3869 9.644 5.3619 9.692C5.3419 9.732 5.3649 9.816 5.3679 9.861C5.37118 9.94197 5.37118 10.023 5.3679 10.104C5.3669 10.152 5.3799 10.286 5.3429 10.327C5.3059 10.368 5.2329 10.354 5.1799 10.355C5.0799 10.3577 4.9809 10.3583 4.8829 10.357C4.6929 10.357 4.5029 10.365 4.3129 10.367C3.9289 10.372 3.5459 10.362 3.1609 10.38C3.0009 10.387 2.8179 10.396 2.6669 10.458C2.5999 10.485 2.5969 10.513 2.5699 10.574C2.5639 10.588 2.5339 10.587 2.5299 10.605C2.5239 10.637 2.5599 10.675 2.5689 10.705L2.6219 10.677L2.5819 10.742L2.7119 10.693C2.7119 10.721 2.8669 10.695 2.9049 10.698C2.9669 10.704 3.0269 10.722 3.0869 10.734C3.2539 10.768 3.4269 10.774 3.5969 10.784C3.9189 10.8 4.2389 10.798 4.5609 10.797C4.8969 10.797 5.2329 10.809 5.5689 10.801C5.8909 10.794 6.2129 10.778 6.5339 10.768C7.1939 10.746 7.8519 10.751 8.5109 10.709C9.17229 10.6644 9.83439 10.6307 10.4969 10.608C10.8616 10.5987 11.2269 10.582 11.5929 10.558C11.9529 10.534 12.3319 10.499 12.6909 10.528L12.6299 10.58C12.7349 10.582 12.5689 10.735 12.5579 10.752C12.5379 10.782 12.5349 10.822 12.5159 10.852C12.4959 10.884 12.4749 10.883 12.4479 10.908L12.4279 10.948C12.4089 10.98 12.4109 11.013 12.3909 11.045C12.3469 11.117 12.3289 11.131 12.2409 11.16L12.3009 11.18C12.2769 11.193 12.2989 11.22 12.2869 11.26C12.2709 11.31 12.2299 11.359 12.1979 11.4C12.1191 11.4991 12.031 11.5905 11.9349 11.673C11.7819 11.807 11.6499 11.959 11.4869 12.083C11.3242 12.2063 11.1559 12.322 10.9819 12.43C10.8119 12.535 10.6349 12.624 10.4669 12.732C10.2889 12.845 10.1009 12.905 9.9069 12.984C9.7179 13.061 9.5379 13.156 9.3339 13.185C9.1189 13.216 8.9009 13.238 8.6849 13.266C8.4649 13.296 8.2539 13.329 8.0309 13.33C7.9419 13.33 7.8549 13.34 7.7669 13.322C7.6569 13.302 7.5609 13.282 7.4499 13.275C7.24714 13.2665 7.04639 13.2312 6.8529 13.17C6.7749 13.144 6.7299 13.143 6.6529 13.138C6.5599 13.131 6.4769 13.081 6.3849 13.071C6.3089 13.063 6.3029 13.036 6.2409 13.005C6.1579 12.963 6.0739 12.939 5.9929 12.887C5.9159 12.837 5.8389 12.786 5.7529 12.752C5.6659 12.717 5.5719 12.702 5.4849 12.667C5.4069 12.635 5.3409 12.582 5.2719 12.537C5.1949 12.485 5.1239 12.467 5.0419 12.435C4.8659 12.369 4.7059 12.232 4.5689 12.108C4.4449 11.996 4.2419 11.963 4.1779 11.802C4.1539 11.742 4.1149 11.733 4.0669 11.69C3.99418 11.6234 3.91664 11.5622 3.8349 11.507C3.6779 11.401 3.5839 11.253 3.4779 11.101C3.4379 11.044 3.3859 10.946 3.3239 10.909C3.2639 10.874 3.2419 10.956 3.1709 10.956L3.4469 11.392C3.4189 11.372 3.3809 11.377 3.3579 11.349C3.3439 11.332 3.3489 11.298 3.3359 11.284C3.2989 11.244 3.2159 11.264 3.1679 11.256C3.2319 11.358 3.2949 11.48 3.3429 11.572C3.3949 11.674 3.5079 11.739 3.5709 11.833C3.4809 11.853 3.6019 11.984 3.6269 12.013C3.6569 12.047 3.6949 12.076 3.7249 12.109C3.7699 12.158 3.7599 12.186 3.7599 12.249C3.8099 12.199 3.8199 12.223 3.8639 12.259C3.89461 12.2817 3.92783 12.3008 3.9629 12.316L4.0129 12.306C4.0169 12.306 4.0779 12.343 4.0879 12.349C4.0929 12.352 4.0919 12.376 4.1079 12.384C4.1489 12.406 4.1729 12.399 4.2099 12.432C4.3429 12.555 4.4649 12.689 4.6139 12.797C4.9479 13.039 5.3369 13.253 5.7139 13.422C5.8999 13.506 6.0929 13.567 6.2919 13.616C6.5079 13.668 6.7219 13.74 6.9399 13.781C7.1079 13.813 7.2849 13.861 7.4559 13.866C7.5599 13.869 7.6619 13.862 7.7659 13.869C7.7949 13.87 8.0029 13.869 7.8959 13.918C8.1359 13.965 8.3679 13.948 8.6109 13.938C8.7189 13.932 8.8359 13.871 8.9389 13.875C8.9549 13.876 8.9689 13.896 8.9939 13.893C9.0139 13.89 9.0259 13.87 9.0439 13.863C9.0889 13.842 9.1269 13.85 9.1749 13.847C9.3769 13.832 9.5549 13.762 9.7689 13.722C9.7999 13.716 9.8549 13.717 9.8829 13.697C9.9169 13.673 9.9019 13.654 9.9229 13.624C9.9609 13.567 10.0829 13.48 10.1529 13.486L10.1129 13.526C10.1569 13.524 10.2259 13.532 10.2639 13.508C10.2999 13.485 10.2979 13.444 10.3299 13.421C10.3569 13.4 10.4109 13.403 10.4439 13.394C10.5119 13.3747 10.5776 13.349 10.6409 13.317C10.6959 13.289 10.7429 13.276 10.7969 13.257C10.8349 13.243 10.8639 13.221 10.9029 13.207L10.9689 13.184L10.9889 13.162C11.0042 13.1687 11.0192 13.1703 11.0339 13.167C11.1019 13.151 11.1549 13.103 11.2119 13.064H11.1149C11.1399 13.05 11.1769 13.011 11.2059 13.01C11.2259 13.01 11.2439 13.039 11.2659 13.044C11.3159 13.056 11.4879 12.984 11.4439 12.912C11.4829 12.891 11.4969 12.924 11.5269 12.915C11.5496 12.9039 11.5699 12.8886 11.5869 12.87C11.6259 12.823 11.5899 12.796 11.6249 12.748C11.6629 12.696 11.7349 12.671 11.7849 12.632C11.8139 12.61 11.8419 12.569 11.8789 12.56C11.9085 12.5471 11.9346 12.5272 11.9549 12.502C11.9689 12.476 11.9949 12.458 12.0159 12.439C12.0879 12.375 12.1649 12.317 12.2349 12.25C12.3809 12.112 12.5159 11.959 12.6429 11.802C12.8789 11.51 13.0759 11.182 13.2479 10.848C13.2959 10.756 13.3239 10.606 13.4369 10.575C13.4939 10.559 13.5589 10.57 13.6179 10.567C13.6944 10.563 13.769 10.5414 13.8359 10.504C13.7549 10.377 13.5389 10.164 13.5939 10.001C13.6689 9.785 13.7659 9.571 13.8169 9.346C13.9358 8.8233 13.9895 8.2879 13.9769 7.752C13.9609 7.099 13.9439 6.432 13.7329 5.808C13.5337 5.22142 13.2369 4.67269 12.8549 4.185H12.8559ZM6.2199 4.96C6.2169 4.965 6.2029 4.982 6.2199 4.96C6.2449 4.927 6.2689 4.914 6.2879 4.88C6.3189 4.825 6.3399 4.788 6.3879 4.75C6.4239 4.722 6.4379 4.701 6.4649 4.665C6.48823 4.63433 6.5119 4.605 6.5359 4.577C6.5529 4.557 6.5789 4.488 6.5859 4.542C6.6359 4.472 6.7059 4.39 6.7249 4.314C6.71625 4.30855 6.7085 4.3018 6.7019 4.294C6.70556 4.27854 6.71438 4.26479 6.7269 4.255C6.74283 4.2273 6.76308 4.20231 6.7869 4.181C6.8089 4.165 6.8259 4.175 6.8519 4.157C6.8809 4.137 6.9019 4.091 6.9239 4.065C6.9469 4.039 6.9869 4.012 6.9979 3.979C7.0059 3.958 6.9889 3.919 6.9999 3.905L7.0399 3.985C7.0569 3.942 7.0819 3.899 7.0969 3.855C7.1149 3.805 7.0949 3.809 7.1029 3.772C7.1129 3.727 7.1749 3.671 7.2009 3.633L7.3249 3.454C7.4749 3.235 7.6089 3 7.7999 2.813C8.4719 3.659 9.0729 4.55 9.6729 5.448C9.3439 5.448 9.0199 5.429 8.6909 5.454C8.3639 5.479 8.0379 5.512 7.7099 5.523C7.0629 5.543 6.4139 5.597 5.7659 5.589C5.9189 5.38 6.0619 5.165 6.2199 4.96ZM10.2169 6.601L10.2339 7.289C10.1689 7.105 10.0589 6.944 9.9529 6.782C9.84084 6.60628 9.70063 6.4502 9.5379 6.32C9.37014 6.20225 9.18799 6.10647 8.9959 6.035C8.9959 6.035 9.8779 6.013 9.9859 6.013C10.0659 6.013 10.0999 6.043 10.1449 6.108C10.2469 6.255 10.2129 6.43 10.2169 6.601ZM6.0129 6.166C6.3349 6.152 6.6569 6.14 6.9779 6.119C6.7779 6.24 6.6099 6.404 6.4529 6.576C6.2929 6.75 6.1229 6.92 5.9919 7.119C6.0089 6.802 6.0239 6.484 6.0129 6.166ZM6.3149 10.366C6.2579 10.371 6.0789 10.403 6.0399 10.356C5.9999 10.308 6.0359 10.162 6.0359 10.086C6.0139 9.761 5.9759 9.437 5.9779 9.111C6.0519 9.284 6.1279 9.437 6.2379 9.59C6.2899 9.662 6.3369 9.741 6.3949 9.808C6.4329 9.852 6.5569 9.883 6.5629 9.942C6.5679 9.985 6.5129 9.992 6.5459 10.042C6.5709 10.079 6.6479 10.097 6.6859 10.116C6.7499 10.15 6.8039 10.199 6.8679 10.236C6.9559 10.286 7.0579 10.303 7.1499 10.347C6.8719 10.352 6.5919 10.347 6.3149 10.366ZM7.0879 9.893C7.0979 9.897 7.1179 9.906 7.1059 9.9C7.1119 9.90333 7.11123 9.90333 7.1039 9.9C6.9479 9.832 6.7999 9.765 6.6769 9.643C6.6169 9.584 6.5469 9.527 6.4939 9.462C6.4419 9.399 6.4079 9.325 6.3679 9.255C6.2889 9.12 6.1619 8.993 6.1089 8.847C6.0949 8.806 6.0589 8.723 6.0089 8.795C5.9749 8.843 6.0259 8.918 6.0389 8.965C6.0189 8.965 5.9929 8.975 5.9789 8.992C5.9839 8.75 5.9689 8.507 5.9749 8.264C6.0589 8.323 6.1119 8.195 6.1309 8.134C6.1439 8.091 6.1449 8.044 6.1609 8.002C6.1679 7.98 6.2119 7.926 6.2069 7.904C6.1939 7.849 6.1419 7.884 6.1669 7.814C6.1839 7.766 6.2299 7.734 6.2469 7.681C6.2619 7.639 6.2889 7.501 6.3269 7.477L6.3239 7.51C6.4079 7.462 6.4539 7.427 6.4739 7.33C6.4929 7.244 6.5539 7.196 6.6049 7.125C6.65151 7.05033 6.71399 6.98683 6.7879 6.939C6.8609 6.897 6.9189 6.802 6.9959 6.775C7.0419 6.759 7.0719 6.757 7.1219 6.725C7.1489 6.708 7.1879 6.685 7.2019 6.655C7.2139 6.631 7.2019 6.617 7.2179 6.596C7.2599 6.546 7.3979 6.515 7.4579 6.486C7.5459 6.446 7.6359 6.39 7.7359 6.392C7.6759 6.506 7.8809 6.434 7.9319 6.452C7.9319 6.342 7.9549 6.322 8.0669 6.321C8.1889 6.319 8.3149 6.315 8.4369 6.335C8.6759 6.374 8.8769 6.525 9.0709 6.661C9.2729 6.801 9.4649 6.931 9.6049 7.139C9.6669 7.229 9.71323 7.32667 9.7439 7.432C9.7789 7.561 9.8259 7.713 9.8159 7.847C9.8069 7.963 9.7779 8.077 9.7699 8.195C9.76156 8.33531 9.72374 8.47229 9.6589 8.597C9.6439 8.626 9.6029 8.672 9.6119 8.705C9.6209 8.736 9.6509 8.729 9.6519 8.761C9.6539 8.791 9.6119 8.863 9.6019 8.889C9.58123 8.939 9.55956 8.989 9.5369 9.039C9.3489 9.442 9.0569 9.787 8.6229 9.927C8.1609 10.075 7.5329 10.127 7.0879 9.893ZM9.1209 10.266C9.18223 10.2293 9.24123 10.1893 9.2979 10.146C9.3379 10.116 9.3839 10.055 9.4279 10.033C9.4279 10.0337 9.42723 10.0343 9.4259 10.035C9.4129 10.045 9.3989 10.062 9.3899 10.071L9.3999 10.061L9.4319 10.032C9.5059 9.959 9.5979 9.909 9.6739 9.838C9.7439 9.77133 9.80723 9.69867 9.8639 9.62C9.9879 9.45 10.0779 9.26 10.1709 9.072C10.1759 9.458 10.2209 9.842 10.2709 10.226L9.1209 10.266ZM12.7279 10.175C12.5229 10.166 12.3139 10.175 12.1079 10.176C11.8659 10.1753 11.6246 10.183 11.3839 10.199C11.2759 10.2057 11.1679 10.2097 11.0599 10.211C11.0169 10.213 10.9629 10.224 10.9219 10.218C10.8759 10.211 10.8579 10.185 10.8219 10.158L10.8099 10.183C10.7779 10.149 10.7759 10.088 10.7799 10.045C10.7819 10.029 10.7919 10.006 10.7979 9.985C10.8319 9.992 10.8659 9.881 10.8629 9.863C10.8594 9.83553 10.8483 9.80957 10.8309 9.788C10.8139 9.765 10.8109 9.788 10.7989 9.758C10.7909 9.735 10.8019 9.678 10.8019 9.656C10.8319 9.68 10.8319 9.624 10.8579 9.605C10.8829 9.586 10.9149 9.588 10.9449 9.588C10.9189 9.542 10.9179 9.493 10.9089 9.443C10.8939 9.36 10.8889 9.367 10.9719 9.339C10.9229 9.315 10.9039 9.319 10.8879 9.268C10.8759 9.228 10.8879 9.175 10.8849 9.133C10.8829 9.09 10.8799 9.038 10.8619 8.998C10.8399 8.951 10.7919 8.95 10.7949 8.905L10.8809 8.94C10.8629 8.876 10.8269 8.817 10.8109 8.753C10.7949 8.689 10.8039 8.625 10.8039 8.56L10.8479 8.571C10.8439 8.529 10.8509 8.506 10.8379 8.467C10.8299 8.447 10.8129 8.431 10.8059 8.411C10.7859 8.351 10.7999 8.28 10.7999 8.219L10.8399 8.235C10.8299 8.192 10.8769 8.163 10.9029 8.137C10.8529 8.137 10.8529 8.144 10.8389 8.109C10.8309 8.087 10.8389 8.046 10.8369 8.022C10.8319 7.956 10.8059 7.911 10.8069 7.851L10.8249 7.131C11.3129 7.775 11.6969 8.492 12.1829 9.137C12.3129 9.31 12.8199 9.975 12.8509 10.015C12.8689 10.039 12.9329 10.098 12.9329 10.133C12.9349 10.213 12.7779 10.177 12.7279 10.175ZM13.3359 7.376L13.2859 7.326C13.2759 7.356 13.2759 7.435 13.2239 7.417C13.2179 7.501 13.2439 7.584 13.2349 7.668L13.2779 7.639C13.2669 7.701 13.3339 7.759 13.3249 7.819C13.3149 7.887 13.2699 7.841 13.2469 7.867C13.2209 7.897 13.2339 8.06 13.2489 8.089C13.2639 8.118 13.2889 8.125 13.2989 8.159C13.3129 8.202 13.2989 8.256 13.2909 8.299C13.2539 8.489 13.2669 8.674 13.2509 8.865C13.2409 8.976 13.2209 8.911 13.1509 8.912C13.0709 8.912 13.1229 9.03 13.1359 9.076C13.0739 9.071 13.0869 9.154 13.0859 9.194C13.0819 9.268 13.0459 9.324 13.0359 9.394C12.8079 9.061 12.6059 8.71 12.3729 8.38C12.1319 8.038 11.8989 7.69 11.6589 7.348C11.4209 7.008 11.2079 6.653 10.9729 6.311C10.9279 6.246 10.8569 6.179 10.8309 6.104C10.8039 6.029 10.8119 5.918 10.8109 5.839C10.8109 5.754 10.8159 5.669 10.8129 5.584C10.8099 5.492 10.8249 5.471 10.8879 5.408H10.4279C10.3279 5.408 10.2569 5.3 10.2069 5.228C10.1316 5.11733 10.0566 5.00633 9.9819 4.895C9.7969 4.622 9.5969 4.359 9.3989 4.095C9.0259 3.6 8.6789 3.083 8.2749 2.611C8.5309 2.643 8.7889 2.644 9.0449 2.681C9.29823 2.71767 9.54756 2.77033 9.7929 2.839C10.2559 2.969 10.6999 3.164 11.1259 3.386C11.2199 3.435 11.3169 3.481 11.4079 3.536C11.5109 3.597 11.5889 3.683 11.6719 3.769C11.8449 3.952 12.0079 4.142 12.1709 4.333C12.4469 4.658 12.7529 4.977 12.9179 5.377C13.0199 5.626 13.0919 5.896 13.1499 6.157C13.1799 6.293 13.1769 6.431 13.2029 6.565L13.2329 6.725C13.2385 6.74305 13.2465 6.76022 13.2569 6.776C13.2699 6.806 13.2739 6.854 13.3069 6.821C13.3429 7.003 13.3429 7.191 13.3359 7.376ZM3.6639 7.738L3.6939 7.718C3.6279 7.736 3.6299 7.677 3.6479 7.635C3.6739 7.575 3.7379 7.535 3.7739 7.481C3.79163 7.50021 3.8118 7.51702 3.8339 7.531C3.87723 7.475 3.92223 7.42 3.9689 7.366C4.0149 7.43 4.0829 7.401 4.0299 7.492C3.9979 7.547 3.9539 7.592 3.9119 7.64C3.9239 7.666 3.9489 7.68 3.9449 7.716C3.9379 7.782 3.8259 7.903 3.7799 7.952C3.7389 7.995 3.6999 7.975 3.6699 8.025C3.6539 8.053 3.6639 8.079 3.6369 8.108C3.6189 8.127 3.5909 8.135 3.5729 8.153C3.5369 8.188 3.5239 8.248 3.4819 8.273C3.4289 8.306 3.3789 8.299 3.3809 8.237C3.34623 8.24367 3.3119 8.25233 3.2779 8.263C3.3149 8.203 3.3499 8.136 3.3949 8.081C3.4279 8.042 3.4709 8.014 3.5049 7.976C3.5399 7.936 3.5549 7.886 3.5879 7.844C3.6189 7.806 3.6439 7.784 3.6639 7.738Z" fill="#FC8289"/>
<path d="M6.2199 4.96C6.2029 4.982 6.2169 4.965 6.2199 4.96ZM6.2199 4.96C6.2449 4.927 6.2689 4.914 6.2879 4.88C6.3189 4.825 6.3399 4.788 6.3879 4.75C6.4239 4.722 6.4379 4.701 6.4649 4.665C6.48823 4.63433 6.5119 4.605 6.5359 4.577C6.5529 4.557 6.5789 4.488 6.5859 4.542C6.6359 4.472 6.7059 4.39 6.7249 4.314C6.71625 4.30855 6.7085 4.3018 6.7019 4.294C6.70556 4.27854 6.71438 4.26479 6.7269 4.255C6.74283 4.2273 6.76308 4.20231 6.7869 4.181C6.8089 4.165 6.8259 4.175 6.8519 4.157C6.8809 4.137 6.9019 4.091 6.9239 4.065C6.9469 4.039 6.9869 4.012 6.9979 3.979C7.0059 3.958 6.9889 3.919 6.9999 3.905L7.0399 3.985C7.0569 3.942 7.0819 3.899 7.0969 3.855C7.1149 3.805 7.0949 3.809 7.1029 3.772C7.1129 3.727 7.1749 3.671 7.2009 3.633L7.3249 3.454C7.4749 3.235 7.6089 3 7.7999 2.813C8.4719 3.659 9.0729 4.55 9.6729 5.448C9.3439 5.448 9.0199 5.429 8.6909 5.454C8.3639 5.479 8.0379 5.512 7.7099 5.523C7.0629 5.543 6.4139 5.597 5.7659 5.589C5.9189 5.38 6.0619 5.165 6.2199 4.96ZM12.8559 4.185C12.7589 4.062 12.6529 3.945 12.5589 3.821C12.465 3.69083 12.3578 3.57084 12.2389 3.463C11.4837 2.83552 10.5862 2.40287 9.6249 2.203C9.29085 2.13947 8.95262 2.10037 8.6129 2.086C8.26692 2.05656 7.91914 2.05489 7.5729 2.081C6.9159 2.145 6.2259 2.204 5.6029 2.433C5.00871 2.65826 4.45894 2.98663 3.9789 3.403C3.7319 3.613 3.5379 3.874 3.3339 4.125C3.1219 4.385 2.9249 4.651 2.7599 4.942C2.4039 5.57 2.1009 6.268 2.0579 6.998C2.0479 7.178 2.0579 7.358 2.0769 7.537C2.0969 7.717 2.1139 7.916 2.1719 8.089C2.1809 8.113 2.1979 8.137 2.1969 8.165C2.1969 8.19 2.1709 8.203 2.1739 8.23C2.1769 8.257 2.2029 8.262 2.2099 8.286C2.2199 8.32 2.2099 8.353 2.2109 8.388C2.2139 8.467 2.2429 8.543 2.2609 8.618C2.2809 8.704 2.2709 8.76 2.2439 8.842C2.2759 8.82067 2.30923 8.80067 2.3439 8.782C2.3699 8.888 2.4039 8.991 2.4289 9.096C2.44228 9.19264 2.48812 9.28186 2.5589 9.349C2.5589 9.215 2.5239 9.103 2.5059 8.972L2.5559 8.984C2.5059 9.033 2.6029 9.16 2.6209 9.207C2.6529 9.175 2.6799 9.156 2.7269 9.16C2.7099 9.118 2.7019 9.073 2.6849 9.031C2.6709 8.999 2.6409 8.966 2.6349 8.943C2.6309 8.921 2.6419 8.904 2.6299 8.878C2.6199 8.858 2.5969 8.848 2.5869 8.828C2.5589 8.773 2.6029 8.718 2.5939 8.658C2.5749 8.523 2.5299 8.393 2.5139 8.257C2.4999 8.138 2.5289 7.992 2.4359 7.899C2.3779 7.947 2.3909 8.063 2.3059 8.03C2.2409 8.005 2.2589 7.905 2.3239 7.922C2.3239 7.862 2.2989 7.84 2.3289 7.787C2.3569 7.739 2.3969 7.706 2.4199 7.652C2.4699 7.536 2.4789 7.401 2.4869 7.277C2.5069 6.993 2.5639 6.739 2.6569 6.47C2.8339 5.959 3.0909 5.474 3.3719 5.012C3.8969 4.149 4.6829 3.402 5.6149 2.99C5.9039 2.86407 6.20338 2.76368 6.5099 2.69C6.8109 2.617 7.1209 2.624 7.4269 2.593C7.1709 2.954 6.9239 3.325 6.6549 3.677C6.3969 4.014 6.1329 4.347 5.8759 4.687C5.6099 5.039 5.3759 5.412 5.1289 5.777C5.00756 5.95567 4.88456 6.13367 4.7599 6.311C4.6999 6.397 4.6359 6.473 4.5689 6.552C4.5359 6.591 4.5369 6.624 4.5209 6.669C4.5039 6.716 4.4729 6.758 4.4479 6.799L4.4179 6.744C4.3589 6.839 4.3069 6.937 4.2479 7.032C4.2159 7.085 4.1069 7.187 4.2059 7.223L4.1459 7.273C4.1739 7.306 4.2159 7.323 4.2439 7.357L4.2669 7.327C4.2769 7.402 4.3049 7.323 4.3229 7.3C4.34423 7.26933 4.3669 7.241 4.3909 7.215C4.4409 7.163 4.5009 7.121 4.5539 7.07C4.6599 6.966 4.7549 6.848 4.8499 6.733C5.0599 6.476 5.2459 6.2 5.4639 5.949C5.4409 6.209 5.4329 6.469 5.4109 6.728C5.4009 6.851 5.4139 6.972 5.4009 7.096C5.38486 7.22203 5.37684 7.34895 5.3769 7.476C5.3799 7.736 5.3939 7.991 5.3769 8.25C5.3699 8.354 5.3899 8.453 5.3899 8.556C5.3899 8.622 5.3719 8.712 5.4559 8.712C5.4559 8.878 5.3979 9.029 5.4109 9.198C5.4169 9.275 5.4029 9.348 5.4029 9.424C5.4029 9.512 5.4729 9.577 5.4719 9.66C5.4199 9.66 5.3869 9.644 5.3619 9.692C5.3419 9.732 5.3649 9.816 5.3679 9.861C5.37118 9.94197 5.37118 10.023 5.3679 10.104C5.3669 10.152 5.3799 10.286 5.3429 10.327C5.3059 10.368 5.2329 10.354 5.1799 10.355C5.0799 10.3577 4.9809 10.3583 4.8829 10.357C4.6929 10.357 4.5029 10.365 4.3129 10.367C3.9289 10.372 3.5459 10.362 3.1609 10.38C3.0009 10.387 2.8179 10.396 2.6669 10.458C2.5999 10.485 2.5969 10.513 2.5699 10.574C2.5639 10.588 2.5339 10.587 2.5299 10.605C2.5239 10.637 2.5599 10.675 2.5689 10.705L2.6219 10.677L2.5819 10.742L2.7119 10.693C2.7119 10.721 2.8669 10.695 2.9049 10.698C2.9669 10.704 3.0269 10.722 3.0869 10.734C3.2539 10.768 3.4269 10.774 3.5969 10.784C3.9189 10.8 4.2389 10.798 4.5609 10.797C4.8969 10.797 5.2329 10.809 5.5689 10.801C5.8909 10.794 6.2129 10.778 6.5339 10.768C7.1939 10.746 7.8519 10.751 8.5109 10.709C9.17229 10.6644 9.83439 10.6307 10.4969 10.608C10.8616 10.5987 11.2269 10.582 11.5929 10.558C11.9529 10.534 12.3319 10.499 12.6909 10.528L12.6299 10.58C12.7349 10.582 12.5689 10.735 12.5579 10.752C12.5379 10.782 12.5349 10.822 12.5159 10.852C12.4959 10.884 12.4749 10.883 12.4479 10.908L12.4279 10.948C12.4089 10.98 12.4109 11.013 12.3909 11.045C12.3469 11.117 12.3289 11.131 12.2409 11.16L12.3009 11.18C12.2769 11.193 12.2989 11.22 12.2869 11.26C12.2709 11.31 12.2299 11.359 12.1979 11.4C12.1191 11.4991 12.031 11.5905 11.9349 11.673C11.7819 11.807 11.6499 11.959 11.4869 12.083C11.3242 12.2063 11.1559 12.322 10.9819 12.43C10.8119 12.535 10.6349 12.624 10.4669 12.732C10.2889 12.845 10.1009 12.905 9.9069 12.984C9.7179 13.061 9.5379 13.156 9.3339 13.185C9.1189 13.216 8.9009 13.238 8.6849 13.266C8.4649 13.296 8.2539 13.329 8.0309 13.33C7.9419 13.33 7.8549 13.34 7.7669 13.322C7.6569 13.302 7.5609 13.282 7.4499 13.275C7.24714 13.2665 7.04639 13.2312 6.8529 13.17C6.7749 13.144 6.7299 13.143 6.6529 13.138C6.5599 13.131 6.4769 13.081 6.3849 13.071C6.3089 13.063 6.3029 13.036 6.2409 13.005C6.1579 12.963 6.0739 12.939 5.9929 12.887C5.9159 12.837 5.8389 12.786 5.7529 12.752C5.6659 12.717 5.5719 12.702 5.4849 12.667C5.4069 12.635 5.3409 12.582 5.2719 12.537C5.1949 12.485 5.1239 12.467 5.0419 12.435C4.8659 12.369 4.7059 12.232 4.5689 12.108C4.4449 11.996 4.2419 11.963 4.1779 11.802C4.1539 11.742 4.1149 11.733 4.0669 11.69C3.99418 11.6234 3.91664 11.5622 3.8349 11.507C3.6779 11.401 3.5839 11.253 3.4779 11.101C3.4379 11.044 3.3859 10.946 3.3239 10.909C3.2639 10.874 3.2419 10.956 3.1709 10.956L3.4469 11.392C3.4189 11.372 3.3809 11.377 3.3579 11.349C3.3439 11.332 3.3489 11.298 3.3359 11.284C3.2989 11.244 3.2159 11.264 3.1679 11.256C3.2319 11.358 3.2949 11.48 3.3429 11.572C3.3949 11.674 3.5079 11.739 3.5709 11.833C3.4809 11.853 3.6019 11.984 3.6269 12.013C3.6569 12.047 3.6949 12.076 3.7249 12.109C3.7699 12.158 3.7599 12.186 3.7599 12.249C3.8099 12.199 3.8199 12.223 3.8639 12.259C3.89461 12.2817 3.92783 12.3008 3.9629 12.316L4.0129 12.306C4.0169 12.306 4.0779 12.343 4.0879 12.349C4.0929 12.352 4.0919 12.376 4.1079 12.384C4.1489 12.406 4.1729 12.399 4.2099 12.432C4.3429 12.555 4.4649 12.689 4.6139 12.797C4.9479 13.039 5.3369 13.253 5.7139 13.422C5.8999 13.506 6.0929 13.567 6.2919 13.616C6.5079 13.668 6.7219 13.74 6.9399 13.781C7.1079 13.813 7.2849 13.861 7.4559 13.866C7.5599 13.869 7.6619 13.862 7.7659 13.869C7.7949 13.87 8.0029 13.869 7.8959 13.918C8.1359 13.965 8.3679 13.948 8.6109 13.938C8.7189 13.932 8.8359 13.871 8.9389 13.875C8.9549 13.876 8.9689 13.896 8.9939 13.893C9.0139 13.89 9.0259 13.87 9.0439 13.863C9.0889 13.842 9.1269 13.85 9.1749 13.847C9.3769 13.832 9.5549 13.762 9.7689 13.722C9.7999 13.716 9.8549 13.717 9.8829 13.697C9.9169 13.673 9.9019 13.654 9.9229 13.624C9.9609 13.567 10.0829 13.48 10.1529 13.486L10.1129 13.526C10.1569 13.524 10.2259 13.532 10.2639 13.508C10.2999 13.485 10.2979 13.444 10.3299 13.421C10.3569 13.4 10.4109 13.403 10.4439 13.394C10.5119 13.3747 10.5776 13.349 10.6409 13.317C10.6959 13.289 10.7429 13.276 10.7969 13.257C10.8349 13.243 10.8639 13.221 10.9029 13.207L10.9689 13.184L10.9889 13.162C11.0042 13.1687 11.0192 13.1703 11.0339 13.167C11.1019 13.151 11.1549 13.103 11.2119 13.064H11.1149C11.1399 13.05 11.1769 13.011 11.2059 13.01C11.2259 13.01 11.2439 13.039 11.2659 13.044C11.3159 13.056 11.4879 12.984 11.4439 12.912C11.4829 12.891 11.4969 12.924 11.5269 12.915C11.5496 12.9039 11.5699 12.8886 11.5869 12.87C11.6259 12.823 11.5899 12.796 11.6249 12.748C11.6629 12.696 11.7349 12.671 11.7849 12.632C11.8139 12.61 11.8419 12.569 11.8789 12.56C11.9085 12.5471 11.9346 12.5272 11.9549 12.502C11.9689 12.476 11.9949 12.458 12.0159 12.439C12.0879 12.375 12.1649 12.317 12.2349 12.25C12.3809 12.112 12.5159 11.959 12.6429 11.802C12.8789 11.51 13.0759 11.182 13.2479 10.848C13.2959 10.756 13.3239 10.606 13.4369 10.575C13.4939 10.559 13.5589 10.57 13.6179 10.567C13.6944 10.563 13.769 10.5414 13.8359 10.504C13.7549 10.377 13.5389 10.164 13.5939 10.001C13.6689 9.785 13.7659 9.571 13.8169 9.346C13.9358 8.8233 13.9895 8.2879 13.9769 7.752C13.9609 7.099 13.9439 6.432 13.7329 5.808C13.5337 5.22142 13.2369 4.67269 12.8549 4.185H12.8559ZM10.2169 6.601L10.2339 7.289C10.1689 7.105 10.0589 6.944 9.9529 6.782C9.84084 6.60628 9.70063 6.4502 9.5379 6.32C9.37014 6.20225 9.18799 6.10647 8.9959 6.035C8.9959 6.035 9.8779 6.013 9.9859 6.013C10.0659 6.013 10.0999 6.043 10.1449 6.108C10.2469 6.255 10.2129 6.43 10.2169 6.601ZM6.0129 6.166C6.3349 6.152 6.6569 6.14 6.9779 6.119C6.7779 6.24 6.6099 6.404 6.4529 6.576C6.2929 6.75 6.1229 6.92 5.9919 7.119C6.0089 6.802 6.0239 6.484 6.0129 6.166ZM6.3149 10.366C6.2579 10.371 6.0789 10.403 6.0399 10.356C5.9999 10.308 6.0359 10.162 6.0359 10.086C6.0139 9.761 5.9759 9.437 5.9779 9.111C6.0519 9.284 6.1279 9.437 6.2379 9.59C6.2899 9.662 6.3369 9.741 6.3949 9.808C6.4329 9.852 6.5569 9.883 6.5629 9.942C6.5679 9.985 6.5129 9.992 6.5459 10.042C6.5709 10.079 6.6479 10.097 6.6859 10.116C6.7499 10.15 6.8039 10.199 6.8679 10.236C6.9559 10.286 7.0579 10.303 7.1499 10.347C6.8719 10.352 6.5919 10.347 6.3149 10.366ZM7.0879 9.893C7.0979 9.897 7.1179 9.906 7.1059 9.9C7.1119 9.90333 7.11123 9.90333 7.1039 9.9C6.9479 9.832 6.7999 9.765 6.6769 9.643C6.6169 9.584 6.5469 9.527 6.4939 9.462C6.4419 9.399 6.4079 9.325 6.3679 9.255C6.2889 9.12 6.1619 8.993 6.1089 8.847C6.0949 8.806 6.0589 8.723 6.0089 8.795C5.9749 8.843 6.0259 8.918 6.0389 8.965C6.0189 8.965 5.9929 8.975 5.9789 8.992C5.9839 8.75 5.9689 8.507 5.9749 8.264C6.0589 8.323 6.1119 8.195 6.1309 8.134C6.1439 8.091 6.1449 8.044 6.1609 8.002C6.1679 7.98 6.2119 7.926 6.2069 7.904C6.1939 7.849 6.1419 7.884 6.1669 7.814C6.1839 7.766 6.2299 7.734 6.2469 7.681C6.2619 7.639 6.2889 7.501 6.3269 7.477L6.3239 7.51C6.4079 7.462 6.4539 7.427 6.4739 7.33C6.4929 7.244 6.5539 7.196 6.6049 7.125C6.65151 7.05033 6.71399 6.98683 6.7879 6.939C6.8609 6.897 6.9189 6.802 6.9959 6.775C7.0419 6.759 7.0719 6.757 7.1219 6.725C7.1489 6.708 7.1879 6.685 7.2019 6.655C7.2139 6.631 7.2019 6.617 7.2179 6.596C7.2599 6.546 7.3979 6.515 7.4579 6.486C7.5459 6.446 7.6359 6.39 7.7359 6.392C7.6759 6.506 7.8809 6.434 7.9319 6.452C7.9319 6.342 7.9549 6.322 8.0669 6.321C8.1889 6.319 8.3149 6.315 8.4369 6.335C8.6759 6.374 8.8769 6.525 9.0709 6.661C9.2729 6.801 9.4649 6.931 9.6049 7.139C9.6669 7.229 9.71323 7.32667 9.7439 7.432C9.7789 7.561 9.8259 7.713 9.8159 7.847C9.8069 7.963 9.7779 8.077 9.7699 8.195C9.76156 8.33531 9.72374 8.47229 9.6589 8.597C9.6439 8.626 9.6029 8.672 9.6119 8.705C9.6209 8.736 9.6509 8.729 9.6519 8.761C9.6539 8.791 9.6119 8.863 9.6019 8.889C9.58123 8.939 9.55956 8.989 9.5369 9.039C9.3489 9.442 9.0569 9.787 8.6229 9.927C8.1609 10.075 7.5329 10.127 7.0879 9.893ZM9.1209 10.266C9.18223 10.2293 9.24123 10.1893 9.2979 10.146C9.3379 10.116 9.3839 10.055 9.4279 10.033C9.4279 10.0337 9.42723 10.0343 9.4259 10.035C9.4129 10.045 9.3989 10.062 9.3899 10.071L9.3999 10.061L9.4319 10.032C9.5059 9.959 9.5979 9.909 9.6739 9.838C9.7439 9.77133 9.80723 9.69867 9.8639 9.62C9.9879 9.45 10.0779 9.26 10.1709 9.072C10.1759 9.458 10.2209 9.842 10.2709 10.226L9.1209 10.266ZM12.7279 10.175C12.5229 10.166 12.3139 10.175 12.1079 10.176C11.8659 10.1753 11.6246 10.183 11.3839 10.199C11.2759 10.2057 11.1679 10.2097 11.0599 10.211C11.0169 10.213 10.9629 10.224 10.9219 10.218C10.8759 10.211 10.8579 10.185 10.8219 10.158L10.8099 10.183C10.7779 10.149 10.7759 10.088 10.7799 10.045C10.7819 10.029 10.7919 10.006 10.7979 9.985C10.8319 9.992 10.8659 9.881 10.8629 9.863C10.8594 9.83553 10.8483 9.80957 10.8309 9.788C10.8139 9.765 10.8109 9.788 10.7989 9.758C10.7909 9.735 10.8019 9.678 10.8019 9.656C10.8319 9.68 10.8319 9.624 10.8579 9.605C10.8829 9.586 10.9149 9.588 10.9449 9.588C10.9189 9.542 10.9179 9.493 10.9089 9.443C10.8939 9.36 10.8889 9.367 10.9719 9.339C10.9229 9.315 10.9039 9.319 10.8879 9.268C10.8759 9.228 10.8879 9.175 10.8849 9.133C10.8829 9.09 10.8799 9.038 10.8619 8.998C10.8399 8.951 10.7919 8.95 10.7949 8.905L10.8809 8.94C10.8629 8.876 10.8269 8.817 10.8109 8.753C10.7949 8.689 10.8039 8.625 10.8039 8.56L10.8479 8.571C10.8439 8.529 10.8509 8.506 10.8379 8.467C10.8299 8.447 10.8129 8.431 10.8059 8.411C10.7859 8.351 10.7999 8.28 10.7999 8.219L10.8399 8.235C10.8299 8.192 10.8769 8.163 10.9029 8.137C10.8529 8.137 10.8529 8.144 10.8389 8.109C10.8309 8.087 10.8389 8.046 10.8369 8.022C10.8319 7.956 10.8059 7.911 10.8069 7.851L10.8249 7.131C11.3129 7.775 11.6969 8.492 12.1829 9.137C12.3129 9.31 12.8199 9.975 12.8509 10.015C12.8689 10.039 12.9329 10.098 12.9329 10.133C12.9349 10.213 12.7779 10.177 12.7279 10.175ZM13.3359 7.376L13.2859 7.326C13.2759 7.356 13.2759 7.435 13.2239 7.417C13.2179 7.501 13.2439 7.584 13.2349 7.668L13.2779 7.639C13.2669 7.701 13.3339 7.759 13.3249 7.819C13.3149 7.887 13.2699 7.841 13.2469 7.867C13.2209 7.897 13.2339 8.06 13.2489 8.089C13.2639 8.118 13.2889 8.125 13.2989 8.159C13.3129 8.202 13.2989 8.256 13.2909 8.299C13.2539 8.489 13.2669 8.674 13.2509 8.865C13.2409 8.976 13.2209 8.911 13.1509 8.912C13.0709 8.912 13.1229 9.03 13.1359 9.076C13.0739 9.071 13.0869 9.154 13.0859 9.194C13.0819 9.268 13.0459 9.324 13.0359 9.394C12.8079 9.061 12.6059 8.71 12.3729 8.38C12.1319 8.038 11.8989 7.69 11.6589 7.348C11.4209 7.008 11.2079 6.653 10.9729 6.311C10.9279 6.246 10.8569 6.179 10.8309 6.104C10.8039 6.029 10.8119 5.918 10.8109 5.839C10.8109 5.754 10.8159 5.669 10.8129 5.584C10.8099 5.492 10.8249 5.471 10.8879 5.408H10.4279C10.3279 5.408 10.2569 5.3 10.2069 5.228C10.1316 5.11733 10.0566 5.00633 9.9819 4.895C9.7969 4.622 9.5969 4.359 9.3989 4.095C9.0259 3.6 8.6789 3.083 8.2749 2.611C8.5309 2.643 8.7889 2.644 9.0449 2.681C9.29823 2.71767 9.54756 2.77033 9.7929 2.839C10.2559 2.969 10.6999 3.164 11.1259 3.386C11.2199 3.435 11.3169 3.481 11.4079 3.536C11.5109 3.597 11.5889 3.683 11.6719 3.769C11.8449 3.952 12.0079 4.142 12.1709 4.333C12.4469 4.658 12.7529 4.977 12.9179 5.377C13.0199 5.626 13.0919 5.896 13.1499 6.157C13.1799 6.293 13.1769 6.431 13.2029 6.565L13.2329 6.725C13.2385 6.74305 13.2465 6.76022 13.2569 6.776C13.2699 6.806 13.2739 6.854 13.3069 6.821C13.3429 7.003 13.3429 7.191 13.3359 7.376ZM3.6639 7.738L3.6939 7.718C3.6279 7.736 3.6299 7.677 3.6479 7.635C3.6739 7.575 3.7379 7.535 3.7739 7.481C3.79163 7.50021 3.8118 7.51702 3.8339 7.531C3.87723 7.475 3.92223 7.42 3.9689 7.366C4.0149 7.43 4.0829 7.401 4.0299 7.492C3.9979 7.547 3.9539 7.592 3.9119 7.64C3.9239 7.666 3.9489 7.68 3.9449 7.716C3.9379 7.782 3.8259 7.903 3.7799 7.952C3.7389 7.995 3.6999 7.975 3.6699 8.025C3.6539 8.053 3.6639 8.079 3.6369 8.108C3.6189 8.127 3.5909 8.135 3.5729 8.153C3.5369 8.188 3.5239 8.248 3.4819 8.273C3.4289 8.306 3.3789 8.299 3.3809 8.237C3.34623 8.24367 3.3119 8.25233 3.2779 8.263C3.3149 8.203 3.3499 8.136 3.3949 8.081C3.4279 8.042 3.4709 8.014 3.5049 7.976C3.5399 7.936 3.5549 7.886 3.5879 7.844C3.6189 7.806 3.6439 7.784 3.6639 7.738Z" stroke="#FC8289" stroke-width="0.2" stroke-linejoin="round"/>
</svg>
