<svg width="16" height="16" viewBox="0 0 16 16" fill="none" xmlns="http://www.w3.org/2000/svg">
<path fill-rule="evenodd" clip-rule="evenodd" d="M14 8C14 11.3137 11.3137 14 8 14C4.68629 14 2 11.3137 2 8C2 4.68629 4.68629 2 8 2C11.3137 2 14 4.68629 14 8ZM4.09763 4.09763C4.16014 4.03512 4.24493 4 4.33333 4H11.6667C11.7551 4 11.8399 4.03512 11.9024 4.09763C11.9649 4.16014 12 4.24493 12 4.33333V9.66667C12 9.75507 11.9649 9.83986 11.9024 9.90237C11.8399 9.96488 11.7551 10 11.6667 10H4.33333C4.24493 10 4.16014 9.96488 4.09763 9.90237C4.03512 9.83986 4 9.75507 4 9.66667V4.33333C4 4.24493 4.03512 4.16014 4.09763 4.09763ZM7.50533 8.286L9.172 7.286C9.22128 7.25637 9.26206 7.21448 9.29037 7.16443C9.31868 7.11437 9.33356 7.05784 9.33356 7.00033C9.33356 6.94283 9.31868 6.8863 9.29037 6.83624C9.26206 6.78618 9.22128 6.7443 9.172 6.71467L7.50533 5.71467C7.45485 5.68376 7.39703 5.66692 7.33785 5.66587C7.27868 5.66483 7.22029 5.67962 7.16876 5.70872C7.11722 5.73783 7.07439 5.78018 7.04472 5.83139C7.01505 5.8826 6.99961 5.94081 7 6V8C7.00003 8.05902 7.01574 8.11697 7.04551 8.16794C7.07528 8.2189 7.11805 8.26104 7.16944 8.29006C7.22083 8.31908 7.27901 8.33394 7.33803 8.3331C7.39704 8.33227 7.45478 8.31645 7.50533 8.286ZM9.91632 11.8536C9.86273 11.9473 9.79006 12 9.71429 12H6.28571C6.20994 12 6.13727 11.9473 6.08368 11.8536C6.0301 11.7598 6 11.6326 6 11.5C6 11.3674 6.0301 11.2402 6.08368 11.1464C6.13727 11.0527 6.20994 11 6.28571 11H9.71429C9.79006 11 9.86273 11.0527 9.91632 11.1464C9.9699 11.2402 10 11.3674 10 11.5C10 11.6326 9.9699 11.7598 9.91632 11.8536Z" fill="#F07178"/>
</svg>
