<svg width="16" height="16" viewBox="0 0 16 16" fill="none" xmlns="http://www.w3.org/2000/svg">
<path d="M12.66 4.30499H12.117C11.9602 4.30499 11.833 4.43214 11.833 4.58899C11.833 4.74584 11.9602 4.87299 12.117 4.87299H12.66C12.8169 4.87299 12.944 4.74584 12.944 4.58899C12.944 4.43214 12.8169 4.30499 12.66 4.30499Z" fill="#89DDFF"/>
<path d="M6.549 13.4H3.784C3.62715 13.4 3.5 13.5271 3.5 13.684C3.5 13.8408 3.62715 13.968 3.784 13.968H6.549C6.70585 13.968 6.833 13.8408 6.833 13.684C6.833 13.5271 6.70585 13.4 6.549 13.4Z" fill="#FC8289"/>
<path d="M12.105 8.853H10.451C10.2941 8.853 10.167 8.98015 10.167 9.137C10.167 9.29385 10.2941 9.421 10.451 9.421H12.105C12.2618 9.421 12.389 9.29385 12.389 9.137C12.389 8.98015 12.2618 8.853 12.105 8.853Z" fill="#9883EC"/>
<path d="M9.32701 8.853H7.11701C6.96016 8.853 6.83301 8.98015 6.83301 9.137C6.83301 9.29385 6.96016 9.421 7.11701 9.421H9.32701C9.48386 9.421 9.61101 9.29385 9.61101 9.137C9.61101 8.98015 9.48386 8.853 9.32701 8.853Z" fill="#FC8289"/>
<path d="M5.994 8.853H3.784C3.62715 8.853 3.5 8.98015 3.5 9.137C3.5 9.29385 3.62715 9.421 3.784 9.421H5.994C6.15085 9.421 6.278 9.29385 6.278 9.137C6.278 8.98015 6.15085 8.853 5.994 8.853Z" fill="#89DDFF"/>
<path d="M6.549 11.126H3.784C3.62715 11.126 3.5 11.2532 3.5 11.41C3.5 11.5669 3.62715 11.694 3.784 11.694H6.549C6.70585 11.694 6.833 11.5669 6.833 11.41C6.833 11.2532 6.70585 11.126 6.549 11.126Z" fill="#9883EC"/>
<path d="M6.549 6.57899H3.784C3.62715 6.57899 3.5 6.70615 3.5 6.86299C3.5 7.01984 3.62715 7.14699 3.784 7.14699H6.549C6.70585 7.14699 6.833 7.01984 6.833 6.86299C6.833 6.70615 6.70585 6.57899 6.549 6.57899Z" fill="#9883EC"/>
<path d="M12.1051 3.168H6.56208C6.40523 3.168 6.27808 3.29515 6.27808 3.452C6.27808 3.60885 6.40523 3.736 6.56208 3.736H12.1051C12.2619 3.736 12.3891 3.60885 12.3891 3.452C12.3891 3.29515 12.2619 3.168 12.1051 3.168Z" fill="#FFCB6B"/>
<path d="M5.438 3.168H3.784C3.62715 3.168 3.5 3.29515 3.5 3.452C3.5 3.60885 3.62715 3.736 3.784 3.736H5.438C5.59485 3.736 5.722 3.60885 5.722 3.452C5.722 3.29515 5.59485 3.168 5.438 3.168Z" fill="#FC8289"/>
<path d="M6.54892 12.263H6.00592C5.84907 12.263 5.72192 12.3902 5.72192 12.547C5.72192 12.7038 5.84907 12.831 6.00592 12.831H6.54892C6.70577 12.831 6.83292 12.7038 6.83292 12.547C6.83292 12.3902 6.70577 12.263 6.54892 12.263Z" fill="#FFCB6B"/>
<path d="M6.54892 5.442H6.00592C5.84907 5.442 5.72192 5.56915 5.72192 5.726C5.72192 5.88285 5.84907 6.01 6.00592 6.01H6.54892C6.70577 6.01 6.83292 5.88285 6.83292 5.726C6.83292 5.56915 6.70577 5.442 6.54892 5.442Z" fill="#89DDFF"/>
<path d="M4.883 12.263H3.784C3.62715 12.263 3.5 12.3902 3.5 12.547C3.5 12.7038 3.62715 12.831 3.784 12.831H4.883C5.03985 12.831 5.167 12.7038 5.167 12.547C5.167 12.3902 5.03985 12.263 4.883 12.263Z" fill="#89DDFF"/>
<path d="M4.883 5.442H3.784C3.62715 5.442 3.5 5.56915 3.5 5.726C3.5 5.88285 3.62715 6.01 3.784 6.01H4.883C5.03985 6.01 5.167 5.88285 5.167 5.726C5.167 5.56915 5.03985 5.442 4.883 5.442Z" fill="#FFCB6B"/>
<path d="M12.6601 7.716H8.22809C8.07124 7.716 7.94409 7.84315 7.94409 8C7.94409 8.15685 8.07124 8.284 8.22809 8.284H12.6601C12.8169 8.284 12.9441 8.15685 12.9441 8C12.9441 7.84315 12.8169 7.716 12.6601 7.716Z" fill="#89DDFF"/>
<path d="M7.10499 7.716H5.45099C5.29414 7.716 5.16699 7.84315 5.16699 8C5.16699 8.15685 5.29414 8.284 5.45099 8.284H7.10499C7.26184 8.284 7.38899 8.15685 7.38899 8C7.38899 7.84315 7.26184 7.716 7.10499 7.716Z" fill="#FFCB6B"/>
<path d="M4.327 7.716H3.784C3.62715 7.716 3.5 7.84315 3.5 8C3.5 8.15685 3.62715 8.284 3.784 8.284H4.327C4.48385 8.284 4.611 8.15685 4.611 8C4.611 7.84315 4.48385 7.716 4.327 7.716Z" fill="#FC8289"/>
<path d="M10.994 4.30499H8.784C8.62715 4.30499 8.5 4.43214 8.5 4.58899C8.5 4.74584 8.62715 4.87299 8.784 4.87299H10.994C11.1508 4.87299 11.278 4.74584 11.278 4.58899C11.278 4.43214 11.1508 4.30499 10.994 4.30499Z" fill="#9883EC"/>
<path d="M7.66 4.30499H3.784C3.62715 4.30499 3.5 4.43214 3.5 4.58899C3.5 4.74584 3.62715 4.87299 3.784 4.87299H7.66C7.81685 4.87299 7.944 4.74584 7.944 4.58899C7.944 4.43214 7.81685 4.30499 7.66 4.30499Z" fill="#89DDFF"/>
<path d="M10.439 9.989H5.45099C5.29414 9.989 5.16699 10.1161 5.16699 10.273C5.16699 10.4298 5.29414 10.557 5.45099 10.557H10.439C10.5958 10.557 10.723 10.4298 10.723 10.273C10.723 10.1161 10.5958 9.989 10.439 9.989Z" fill="#FFCB6B"/>
<path d="M4.327 9.989H3.784C3.62715 9.989 3.5 10.1161 3.5 10.273C3.5 10.4298 3.62715 10.557 3.784 10.557H4.327C4.48385 10.557 4.611 10.4298 4.611 10.273C4.611 10.1161 4.48385 9.989 4.327 9.989Z" fill="#9883EC"/>
<path d="M13.216 5.442H10.451C10.2941 5.442 10.167 5.56915 10.167 5.726C10.167 5.88285 10.2941 6.01 10.451 6.01H13.216C13.3728 6.01 13.5 5.88285 13.5 5.726C13.5 5.56915 13.3728 5.442 13.216 5.442Z" fill="#FC8289"/>
<path d="M13.216 6.57899H10.451C10.2941 6.57899 10.167 6.70615 10.167 6.86299C10.167 7.01984 10.2941 7.14699 10.451 7.14699H13.216C13.3728 7.14699 13.5 7.01984 13.5 6.86299C13.5 6.70615 13.3728 6.57899 13.216 6.57899Z" fill="#FFCB6B"/>
<path d="M10.438 2.03101H3.784C3.62715 2.03101 3.5 2.15816 3.5 2.31501C3.5 2.47185 3.62715 2.59901 3.784 2.59901H10.438C10.5948 2.59901 10.722 2.47185 10.722 2.31501C10.722 2.15816 10.5948 2.03101 10.438 2.03101Z" fill="#89DDFF"/>
</svg>
