<svg width="16" height="16" viewBox="0 0 16 16" fill="none" xmlns="http://www.w3.org/2000/svg">
<path d="M12.0051 11.518L6.58207 13.112C6.54459 13.1236 6.50475 13.1253 6.46643 13.1169C6.4281 13.1085 6.3926 13.0904 6.3634 13.0642C6.33419 13.038 6.31226 13.0047 6.29976 12.9675C6.28726 12.9303 6.28461 12.8905 6.29207 12.852L8.23007 3.63299C8.26607 3.46099 8.50607 3.43299 8.58107 3.59299L12.1681 11.162C12.1838 11.1957 12.192 11.2325 12.1922 11.2697C12.1923 11.307 12.1844 11.3438 12.1689 11.3777C12.1533 11.4115 12.1307 11.4416 12.1024 11.4658C12.0741 11.4901 12.0409 11.5079 12.0051 11.518ZM12.9351 11.142L8.78207 2.37799C8.72979 2.27008 8.64951 2.17816 8.5496 2.11185C8.44969 2.04554 8.33382 2.00725 8.21407 2.00099C8.09397 1.99285 7.97393 2.01771 7.86694 2.07288C7.75995 2.12805 7.67008 2.21143 7.60707 2.31399L3.10307 9.56399C3.03547 9.67351 3.00033 9.79996 3.00175 9.92865C3.00317 10.0573 3.04107 10.183 3.11107 10.291L5.31207 13.681C5.39597 13.8085 5.5187 13.9055 5.66208 13.9577C5.80545 14.01 5.96184 14.0146 6.10807 13.971L12.4981 12.093C12.5942 12.0651 12.6832 12.0169 12.7591 11.9517C12.835 11.8865 12.896 11.8058 12.9381 11.715C12.9793 11.625 13.0004 11.5271 12.9999 11.4282C12.9994 11.3292 12.9772 11.2315 12.9351 11.142Z" fill="#B2CCD6"/>
</svg>
