<svg width="16" height="16" viewBox="0 0 16 16" fill="none" xmlns="http://www.w3.org/2000/svg">
<path fill-rule="evenodd" clip-rule="evenodd" d="M14 8C14 11.3137 11.3137 14 8 14C4.68629 14 2 11.3137 2 8C2 4.68629 4.68629 2 8 2C11.3137 2 14 4.68629 14 8ZM5.28005 9.79299L6.63905 10.989L5.28005 12.185V9.79299ZM9.51105 8.61399V12.184H10.7211V8.59799C10.7221 8.52099 10.7141 7.85899 10.1941 7.33899C9.95105 7.09499 9.50305 6.80499 8.75605 6.80499C7.93605 6.80499 7.09205 7.01599 6.48905 7.20999V3.81599H5.27905V8.99999L6.13405 8.61799C6.14705 8.61199 7.52605 7.99999 8.75605 7.99999C9.37005 7.99999 9.50605 8.33499 9.51105 8.61399ZM9.81405 5.75999H8.60505C9.08005 5.14299 9.37805 4.49499 9.51105 3.81699H10.7211C10.6391 4.49599 10.3611 5.14699 9.81405 5.75999Z" fill="#C792EA"/>
</svg>
