<svg width="16" height="16" viewBox="0 0 16 16" fill="none" xmlns="http://www.w3.org/2000/svg">
<path fill-rule="evenodd" clip-rule="evenodd" d="M7.9999 1L1.9939 4.51V11.51L7.9999 15L13.9999 11.45L14.0069 4.55L7.9999 1ZM13.4769 11.15L7.9999 14.39L2.5189 11.204V4.814L7.9999 1.61L13.4829 4.85L13.4769 11.15Z" fill="#6B7394"/>
<path fill-rule="evenodd" clip-rule="evenodd" d="M12.7849 6.827L9.97295 8.482L9.97095 12.445L12.7949 10.782L12.7849 6.827Z" fill="#89DDFF"/>
<path fill-rule="evenodd" clip-rule="evenodd" d="M11.6408 6.15199L12.7838 6.82699L9.97282 8.48199L9.97082 12.445L8.66382 11.685L8.67382 7.93799L11.6408 6.15199Z" fill="#3965BD"/>
<path fill-rule="evenodd" clip-rule="evenodd" d="M11.2558 5.175L11.2568 5.908L8.20583 7.75L8.20883 11.8L7.49883 12.217L7.49683 7.429L11.2558 5.175Z" fill="#C3E88D"/>
<path fill-rule="evenodd" clip-rule="evenodd" d="M10.004 4.436L11.256 5.175L7.49699 7.428L7.49899 12.216L6.09699 11.4L6.09399 6.707L10.004 4.436Z" fill="#C3E88D"/>
<path fill-rule="evenodd" clip-rule="evenodd" d="M9.61281 3.30299V4.18699L5.60481 6.53699V11.586L4.90381 11.994L4.91781 6.13799L9.61281 3.30299Z" fill="#BB80B3"/>
<path fill-rule="evenodd" clip-rule="evenodd" d="M8.07989 2.392L3.26489 5.197V11.036L4.91289 11.994L4.91789 6.139L9.61789 3.303L8.07989 2.392Z" fill="#FF9CAC"/>
</svg>
