<svg width="16" height="16" viewBox="0 0 16 16" fill="none" xmlns="http://www.w3.org/2000/svg">
<path d="M8 14C11.3137 14 14 11.3137 14 8C14 4.68629 11.3137 2 8 2C4.68629 2 2 4.68629 2 8C2 11.3137 4.68629 14 8 14Z" fill="white"/>
<path fill-rule="evenodd" clip-rule="evenodd" d="M9.20301 12.906C8.81301 12.6767 8.40968 12.356 7.99301 11.944C7.58501 12.3467 7.18634 12.6627 6.79701 12.892C6.40834 13.122 6.05068 13.232 5.72401 13.222C5.52381 13.2191 5.32752 13.1662 5.15301 13.068C4.86368 12.8993 4.66901 12.602 4.56901 12.176C4.46901 11.75 4.46434 11.2283 4.55501 10.611C4.59209 10.3894 4.63746 10.1692 4.69101 9.951C4.58235 9.923 4.47601 9.89033 4.37201 9.853C4.26735 9.81633 4.16501 9.779 4.06501 9.741C3.49435 9.517 3.06001 9.255 2.76201 8.955C2.46201 8.655 2.31201 8.33233 2.31201 7.987C2.31201 7.64033 2.46168 7.317 2.76101 7.017C3.06034 6.71767 3.49501 6.45567 4.06501 6.231C4.16605 6.19326 4.26809 6.15824 4.37101 6.126C4.47434 6.094 4.58101 6.059 4.69101 6.021C4.63604 5.79839 4.59066 5.57351 4.55501 5.347C4.45501 4.72833 4.45734 4.209 4.56201 3.789C4.66601 3.36767 4.86301 3.073 5.15301 2.905C5.23538 2.84836 5.32764 2.80765 5.42501 2.785C5.52435 2.76167 5.62401 2.75 5.72401 2.75C6.04935 2.75067 6.40701 2.86533 6.79701 3.094C7.23522 3.36214 7.63717 3.68545 7.99301 4.056C8.40034 3.64467 8.80134 3.324 9.19601 3.094C9.59001 2.86467 9.94534 2.75 10.262 2.75C10.362 2.75 10.462 2.76167 10.562 2.785C10.6627 2.80998 10.7588 2.85046 10.847 2.905C11.1363 3.07367 11.331 3.37067 11.431 3.796C11.531 4.22133 11.5357 4.75233 11.445 5.389C11.4079 5.61062 11.3626 5.83077 11.309 6.049C11.417 6.07719 11.5238 6.10988 11.629 6.147C11.733 6.18367 11.835 6.221 11.935 6.259C12.5043 6.483 12.939 6.745 13.239 7.045C13.5377 7.345 13.687 7.66767 13.687 8.013C13.687 8.35967 13.5377 8.683 13.239 8.983C12.9397 9.28233 12.505 9.54433 11.935 9.769C11.8343 9.807 11.7323 9.842 11.629 9.874C11.5257 9.906 11.419 9.941 11.309 9.979C11.364 10.2016 11.4094 10.4265 11.445 10.653C11.5443 11.2717 11.542 11.791 11.438 12.211C11.334 12.6323 11.137 12.927 10.847 13.095C10.7657 13.1517 10.675 13.1917 10.575 13.215C10.475 13.2383 10.375 13.25 10.275 13.25C9.95034 13.25 9.59301 13.1353 9.20301 12.906ZM7.68701 10.4C7.58301 10.4 7.47668 10.395 7.36801 10.385C7.47801 10.525 7.58368 10.6583 7.68701 10.785L7.99301 11.157C8.10168 11.0357 8.20801 10.9117 8.31201 10.785C8.41601 10.6583 8.52268 10.525 8.63201 10.385L8.31201 10.4H7.68701ZM6.15301 9.487C6.10301 9.393 6.04634 9.29467 5.98301 9.192V9.194C5.87673 9.00992 5.777 8.82214 5.68401 8.631C5.62068 8.791 5.55935 8.95267 5.50001 9.116C5.44371 9.27121 5.39169 9.42793 5.34401 9.586C5.50132 9.62346 5.65972 9.65614 5.81901 9.684L6.32201 9.768C6.25935 9.67467 6.20301 9.581 6.15301 9.487ZM5.81901 6.314C5.65926 6.34115 5.5005 6.37383 5.34301 6.412C5.38835 6.56067 5.43834 6.71833 5.49301 6.883C5.54894 7.05173 5.61233 7.2179 5.68301 7.381C5.72713 7.28148 5.77449 7.18343 5.82501 7.087C5.87544 6.99195 5.92779 6.89793 5.98201 6.805L6.15801 6.511L6.32201 6.229L5.81901 6.314ZM6.17901 7.529C6.10168 7.68233 6.02701 7.839 5.95501 7.999L6.17901 8.462C6.25478 8.621 6.3389 8.77588 6.43101 8.926C6.52168 9.07533 6.61001 9.225 6.69601 9.375C6.78134 9.525 6.87868 9.675 6.98801 9.825C7.15279 9.84352 7.31827 9.85519 7.48401 9.86C7.82794 9.86986 8.17208 9.86986 8.51601 9.86C8.68176 9.85519 8.84723 9.84352 9.01201 9.825L9.29701 9.376L9.56901 8.926L9.82101 8.462L10.045 7.999C9.97301 7.839 9.89834 7.68233 9.82101 7.529C9.74368 7.37567 9.65968 7.219 9.56901 7.059C9.47834 6.90967 9.39001 6.76 9.30401 6.61C9.21868 6.46 9.12135 6.31 9.01201 6.16C8.84934 6.142 8.68401 6.13033 8.51601 6.125C8.17208 6.11514 7.82794 6.11514 7.48401 6.125C7.31827 6.12981 7.15279 6.14148 6.98801 6.16L6.70301 6.609L6.43101 7.059C6.33968 7.219 6.25568 7.37567 6.17901 7.529ZM10.018 6.791L10.33 7.367C10.3933 7.20767 10.4547 7.04533 10.514 6.882C10.5727 6.71867 10.6247 6.557 10.67 6.397C10.3478 6.32082 10.0212 6.26471 9.69201 6.229C9.75234 6.31801 9.80905 6.40942 9.86201 6.503C9.91522 6.59834 9.96722 6.69435 10.018 6.791ZM10.3306 8.61758C10.3304 8.61705 10.3302 8.61653 10.33 8.616L10.332 8.615L10.3306 8.61758ZM10.3306 8.61758L10.175 8.91C10.1257 9.00333 10.0737 9.09233 10.019 9.177L9.85601 9.471L9.69201 9.753L10.195 9.668C10.3583 9.64067 10.5167 9.608 10.67 9.57C10.6247 9.42067 10.5727 9.264 10.514 9.1C10.4549 8.93721 10.3938 8.7764 10.3306 8.61758ZM10.439 12.687C10.4919 12.6785 10.5426 12.6595 10.588 12.631L10.589 12.632C10.7797 12.5187 10.9043 12.294 10.963 11.958C11.0223 11.6213 11.011 11.2093 10.929 10.722L10.875 10.406C10.8563 10.298 10.8337 10.1927 10.807 10.09C10.5717 10.156 10.3293 10.2073 10.08 10.244C9.83068 10.2813 9.57501 10.314 9.31301 10.342C9.15901 10.5667 9.00235 10.7797 8.84301 10.981C8.68501 11.1823 8.52434 11.372 8.36101 11.55C8.66004 11.8665 8.99497 12.1471 9.35901 12.386C9.68968 12.5967 9.99068 12.702 10.262 12.702C10.3253 12.702 10.3843 12.697 10.439 12.687ZM12.64 7.211C12.2867 6.94967 11.7927 6.725 11.158 6.537C11.0947 6.771 11.0157 7.00967 10.921 7.253C10.8257 7.49567 10.7237 7.74367 10.615 7.997C10.8225 8.46864 11.0038 8.95138 11.158 9.443C11.357 9.39139 11.5522 9.3259 11.742 9.247C12.1953 9.06767 12.5463 8.87133 12.795 8.658C13.045 8.442 13.17 8.222 13.17 7.998C13.17 7.73467 12.9933 7.47233 12.64 7.211ZM10.439 3.294C10.385 3.28467 10.3303 3.28 10.275 3.28L10.277 3.281C9.99701 3.28033 9.69368 3.388 9.36701 3.604C9.04101 3.81933 8.71034 4.09533 8.37501 4.432C8.7244 4.81306 9.04243 5.22172 9.32601 5.654C9.58265 5.68145 9.8387 5.71412 10.094 5.752C10.3382 5.78868 10.5807 5.83538 10.821 5.892C10.839 5.78 10.8593 5.67267 10.882 5.57C10.9043 5.46746 10.9243 5.36444 10.942 5.261C11.024 4.76433 11.033 4.35 10.969 4.018C10.9057 3.68533 10.779 3.46733 10.589 3.364C10.5466 3.32706 10.4946 3.3028 10.439 3.294ZM8.31301 5.59C8.41701 5.59533 8.52334 5.598 8.63201 5.598L8.63301 5.599C8.52368 5.467 8.41701 5.33567 8.31301 5.205C8.20901 5.07367 8.10268 4.94733 7.99401 4.826L7.68801 5.198C7.58468 5.32467 7.47801 5.458 7.36801 5.598C7.47473 5.59777 7.58142 5.59511 7.68801 5.59C7.89624 5.58069 8.10478 5.58069 8.31301 5.59ZM5.56101 3.296C5.50579 3.30498 5.45418 3.32923 5.41201 3.366H5.41101C5.22034 3.47867 5.09568 3.701 5.03701 4.033C4.97768 4.36567 4.98901 4.77533 5.07101 5.262L5.12501 5.578C5.14341 5.68421 5.1661 5.78963 5.19301 5.894C5.42834 5.838 5.67068 5.789 5.92001 5.747C6.16935 5.705 6.42501 5.67433 6.68701 5.655C6.83387 5.43044 6.99069 5.21255 7.15701 5.002C7.31501 4.80067 7.47568 4.611 7.63901 4.433C7.30368 4.087 6.97101 3.80833 6.64101 3.597C6.31034 3.38633 6.00935 3.281 5.73801 3.281C5.67401 3.28167 5.61501 3.28667 5.56101 3.296ZM3.35901 8.778C3.71235 9.04467 4.20635 9.26667 4.84101 9.444C4.90889 9.20377 4.98798 8.96784 5.07801 8.735C5.17268 8.487 5.27501 8.24167 5.38501 7.999C5.27501 7.74567 5.17501 7.49767 5.08501 7.255C4.99434 7.01167 4.91301 6.77267 4.84101 6.538C4.64198 6.58994 4.44683 6.65576 4.25701 6.735C3.80368 6.913 3.45268 7.112 3.20401 7.332C2.95401 7.552 2.82901 7.774 2.82901 7.998C2.82901 8.25133 3.00568 8.51133 3.35901 8.778ZM5.12601 10.414L5.07101 10.723C4.98901 11.2103 4.97868 11.6223 5.03801 11.959C5.09735 12.295 5.22201 12.5197 5.41201 12.633C5.46117 12.6588 5.51367 12.6776 5.56801 12.689C5.62415 12.6988 5.68102 12.7039 5.73801 12.704C6.01068 12.704 6.31201 12.5983 6.64201 12.387C7.006 12.1484 7.34092 11.8682 7.64001 11.552C7.47734 11.3733 7.31635 11.1837 7.15701 10.983C6.99901 10.7817 6.84301 10.5687 6.68901 10.344C6.42634 10.316 6.17035 10.281 5.92101 10.239C5.67168 10.197 5.42934 10.148 5.19401 10.092L5.12601 10.414ZM8.73308 8.749C8.93775 8.539 9.04008 8.289 9.04008 7.999L9.03908 8C9.03908 7.69933 8.93708 7.44366 8.73308 7.233C8.52908 7.02233 8.28208 6.917 7.99208 6.917C7.85558 6.91613 7.7204 6.94379 7.5952 6.99821C7.47001 7.05263 7.35757 7.1326 7.26508 7.233C7.06108 7.44366 6.95908 7.699 6.95908 7.999C6.95719 8.13829 6.9833 8.27654 7.03586 8.40555C7.08843 8.53456 7.16638 8.65169 7.26508 8.75C7.35768 8.85052 7.47029 8.93057 7.59566 8.98499C7.72104 9.03941 7.85641 9.067 7.99308 9.066C8.13166 9.06732 8.269 9.03982 8.39639 8.98525C8.52378 8.93068 8.63843 8.85023 8.73308 8.749Z" fill="#69A7D3"/>
</svg>
