<svg width="16" height="16" viewBox="0 0 16 16" fill="none" xmlns="http://www.w3.org/2000/svg">
<path fill-rule="evenodd" clip-rule="evenodd" d="M14 8C14 11.3137 11.3137 14 8 14C4.68629 14 2 11.3137 2 8C2 4.68629 4.68629 2 8 2C11.3137 2 14 4.68629 14 8ZM7.054 6.881C7.18267 6.977 7.247 7.12567 7.247 7.327C7.247 7.74233 6.986 7.95 6.464 7.95H5.917V6.738H6.439C6.721 6.738 6.926 6.78567 7.054 6.881ZM6.454 8.687L7.356 10.347H8.388L7.303 8.475C7.55756 8.40379 7.78148 8.25052 7.94 8.039C8.09333 7.83367 8.17 7.58367 8.17 7.289C8.17 6.871 8.03433 6.552 7.763 6.332C7.49167 6.11067 7.08233 6 6.535 6H5V10.347H5.917V8.687H6.454ZM8.82 10.347V6H11.829V6.734H9.737V7.779H11.639V8.513H9.736V9.613H11.956V10.347H8.82Z" fill="#FC8289"/>
</svg>
