<svg width="16" height="16" viewBox="0 0 16 16" fill="none" xmlns="http://www.w3.org/2000/svg">
<path fill-rule="evenodd" clip-rule="evenodd" d="M14 8C14 11.3137 11.3137 14 8 14C4.68629 14 2 11.3137 2 8C2 4.68629 4.68629 2 8 2C11.3137 2 14 4.68629 14 8ZM8.42917 5.1875C7.95453 5.18542 7.49837 5.35293 7.16083 5.65325L7.16167 5.65475C6.80833 5.2565 6.24667 5 5.61833 5C4.545 5 3.675 5.74325 3.67417 6.66275C3.67359 6.89108 3.72819 7.11679 3.83417 7.32425C3.33583 7.57625 3 8.042 3 8.5775C3 9.374 3.74583 10.0227 4.66833 10.0227C4.78333 10.0232 4.89778 10.013 5.01167 9.992C5.265 10.5815 5.92333 11 6.69833 11C7.44 11 8.0775 10.6123 8.35167 10.0625C8.56851 10.1517 8.80408 10.198 9.0425 10.1982C9.63 10.1982 10.1467 9.91775 10.4167 9.50525C10.5556 9.52975 10.6978 9.542 10.8433 9.542C12.0333 9.542 13 8.708 13 7.6775C13 6.647 12.0333 5.81225 10.8433 5.81225C10.5425 5.81225 10.2458 5.86625 9.9725 5.97125C9.66333 5.5025 9.09 5.1875 8.42917 5.1875Z" fill="#89DDFF"/>
</svg>
