<svg width="16" height="16" viewBox="0 0 16 16" fill="none" xmlns="http://www.w3.org/2000/svg">
<path fill-rule="evenodd" clip-rule="evenodd" d="M14 8C14 11.3137 11.3137 14 8 14C4.68629 14 2 11.3137 2 8C2 4.68629 4.68629 2 8 2C11.3137 2 14 4.68629 14 8ZM5.8633 8.94576L6.62484 8.52627C6.64361 8.51599 6.65998 8.50179 6.67284 8.48463C7.14136 7.89052 7.73839 7.84637 7.60938 8.53882C7.74289 8.44147 7.91339 8.52678 7.87089 8.66426C7.85941 8.70779 7.84771 8.75179 7.836 8.7958C7.72436 9.21548 7.61224 9.63702 7.68238 9.67835C7.77165 9.5547 7.94643 9.15637 8.13864 8.71834C8.22098 8.53067 8.30653 8.33571 8.38992 8.15195C8.42024 8.08432 8.43967 8.0099 8.45645 7.94563C8.47702 7.86684 8.49361 7.80329 8.52142 7.78615C8.58643 7.74601 8.73993 7.71741 8.89644 7.73899C8.98844 7.76458 9.00494 7.79719 8.98744 7.84587C8.98528 7.85262 8.98309 7.85947 8.98088 7.86639C8.94461 7.97964 8.90201 8.11264 8.89494 8.21668C8.87994 8.43545 8.94644 8.60505 9.02495 8.74655C9.05955 8.68633 9.09452 8.62664 9.12914 8.56755C9.31661 8.24758 9.49371 7.94529 9.54647 7.67125C9.55299 7.65371 9.55727 7.63724 9.56122 7.62204C9.57332 7.57551 9.58229 7.54099 9.64297 7.52473C9.7499 7.49262 9.86247 7.48406 9.97299 7.49964C10.073 7.52122 10.077 7.56487 10.065 7.61254C10.0602 7.62834 10.0554 7.64415 10.0506 7.65996C10.0271 7.73701 10.0037 7.81417 9.98499 7.89203C9.93999 8.09224 9.99299 8.33811 10.155 8.60656C10.4037 8.49147 10.6753 8.43484 10.949 8.44097C11.8906 8.45603 12.3186 9.41743 11.7321 9.76416L11.728 9.76655C11.6866 9.79103 11.6412 9.81786 11.5846 9.81835C11.5491 9.81835 11.5406 9.78924 11.5596 9.76416C11.5768 9.74534 11.5975 9.73001 11.6206 9.719C12.2131 9.31306 11.4776 8.39079 10.248 8.80325C10.315 8.98991 10.323 9.11135 10.299 9.23428C10.2565 9.45105 9.90849 9.73104 9.60547 9.7772C9.49047 9.8038 9.39446 9.72753 9.37896 9.61011C9.36846 9.31356 9.56847 9.05314 9.84348 8.80526C9.72898 8.61208 9.66348 8.3918 9.62097 8.17102C9.49047 8.42642 9.33296 8.71444 9.16795 8.95027C9.14292 8.98041 9.15101 9.00238 9.17047 9.0552C9.18406 9.09208 9.20319 9.144 9.22046 9.22425C9.33246 9.74659 8.85244 10.0005 8.46242 10.0356C8.18691 10.0527 8.1154 9.92874 8.32041 9.68789L8.74793 9.16102C8.78243 9.11937 8.78543 9.08726 8.76043 9.03758C8.66043 8.84925 8.58776 8.64135 8.54242 8.41388C8.31241 8.96382 8.0804 9.47664 7.83439 9.8901C7.74039 10.0477 7.62888 10.1656 7.50538 10.153C7.30737 10.132 7.27937 9.85448 7.31687 9.52079C7.28336 9.59292 7.25268 9.66181 7.22389 9.72643C7.12552 9.94727 7.04937 10.1182 6.95885 10.1982C6.84435 10.2996 6.64484 10.285 6.55333 10.154C6.33932 9.84494 6.29532 9.42646 6.43233 8.98339C6.43999 8.9563 6.44799 8.92987 6.45633 8.90411L6.44933 8.89859L6.01031 9.15199C6.29832 9.85899 5.9608 10.4676 5.52978 10.7752C5.25877 10.9689 4.52974 11.1907 4.32073 10.717C4.20972 10.4496 4.26273 10.1992 4.41073 9.96336C4.55724 9.71297 4.98626 9.42144 5.57279 9.10683C5.44786 9.01259 5.31878 8.92043 5.19079 8.82904C4.55545 8.37541 3.9467 7.94075 4.00371 7.36567C4.12372 6.15237 6.93635 4.42827 8.54892 5.18595C9.65297 5.79159 8.74893 7.34359 7.54388 7.63562C6.89735 7.79268 6.03531 7.83031 5.8473 7.26581C5.8273 7.21563 5.8868 7.16797 5.9248 7.22166C6.20982 7.5453 6.76184 7.53727 7.33987 7.34108C8.28241 7.02345 8.83794 6.14033 8.51592 5.73389C8.16491 5.29132 6.72284 5.33448 5.23877 6.46849C4.55724 7.00991 4.45873 7.55835 4.76675 7.97583C4.90076 8.15764 5.08819 8.3033 5.30368 8.47076C5.47653 8.60509 5.66744 8.75346 5.8633 8.94576ZM5.40978 10.3793C5.62129 10.1917 5.74979 9.96035 5.7713 9.67434C5.7798 9.55542 5.7643 9.43951 5.73279 9.32109C5.32277 9.56997 4.93776 9.81835 4.82275 10.0617C4.54874 10.5344 4.86525 10.8169 5.40978 10.3793ZM7.19786 8.41237C6.83584 8.6758 6.62783 9.38582 6.78434 9.76165C6.81934 9.84544 6.88685 9.79878 6.98085 9.59857C7.10836 9.30603 7.22586 9.00898 7.31837 8.7029C7.34403 8.61392 7.36404 8.5236 7.37837 8.43194C7.38837 8.35417 7.33037 8.3346 7.19786 8.41237ZM8.47442 9.8339L8.86844 9.37227C8.88494 9.54337 8.59443 9.88559 8.47442 9.8339ZM9.61647 9.49671C9.60447 9.55993 9.61297 9.57549 9.63447 9.57047C9.91649 9.4646 9.99549 9.20718 9.92349 9.00999C9.76848 9.14547 9.66998 9.30804 9.61647 9.49671Z" fill="#CC6699"/>
</svg>
