<svg width="16" height="16" viewBox="0 0 16 16" fill="none" xmlns="http://www.w3.org/2000/svg">
<path fill-rule="evenodd" clip-rule="evenodd" d="M8 14C11.3137 14 14 11.3137 14 8C14 4.68629 11.3137 2 8 2C4.68629 2 2 4.68629 2 8C2 11.3137 4.68629 14 8 14ZM8.53525 8.52877C8.51755 8.43063 8.5298 8.32944 8.5704 8.23837C8.60837 8.14851 8.67196 8.07182 8.75323 8.01787C8.8345 7.96391 8.92985 7.93508 9.0274 7.93497H9.05415C9.21468 7.93497 9.36863 7.8712 9.48214 7.75769C9.59565 7.64418 9.65941 7.49023 9.65941 7.32971C9.65941 7.16918 9.59565 7.01523 9.48214 6.90172C9.36863 6.78821 9.21468 6.72444 9.05415 6.72444H9.00295C8.90549 6.7244 8.81019 6.69568 8.72893 6.64187C8.64767 6.58806 8.58403 6.51153 8.54595 6.42181V6.39736C8.50536 6.30627 8.49313 6.20507 8.51085 6.10693C8.52857 6.0088 8.57542 5.91827 8.64529 5.84712L8.66364 5.82878C8.71989 5.77258 8.76452 5.70585 8.79498 5.6324C8.82544 5.55895 8.84114 5.48022 8.84117 5.4007C8.84121 5.32119 8.82558 5.24244 8.79519 5.16897C8.76479 5.09549 8.72022 5.02872 8.66402 4.97247C8.60782 4.91622 8.54109 4.87159 8.46764 4.84113C8.39419 4.81066 8.31546 4.79497 8.23594 4.79493C8.15643 4.7949 8.07768 4.81052 8.00421 4.84092C7.93073 4.87132 7.86396 4.91589 7.80771 4.97209L7.78937 4.98967C7.71824 5.05983 7.62762 5.10691 7.52932 5.12477C7.43102 5.14263 7.32962 5.13044 7.23836 5.08978C7.14851 5.05181 7.07182 4.98822 7.01787 4.90695C6.96391 4.82568 6.93508 4.73032 6.93497 4.63277V4.60526C6.93497 4.44474 6.8712 4.29079 6.75769 4.17728C6.64418 4.06377 6.49023 4 6.32971 4C6.16918 4 6.01523 4.06377 5.90172 4.17728C5.78821 4.29079 5.72444 4.44474 5.72444 4.60526V4.65723C5.7244 4.75469 5.69568 4.84999 5.64187 4.93125C5.58806 5.01251 5.51153 5.07615 5.42181 5.11423H5.39736C5.30619 5.15472 5.20495 5.16683 5.10681 5.14897C5.00867 5.13111 4.91818 5.08412 4.84712 5.01412L4.82878 4.99578C4.77253 4.93953 4.70575 4.89491 4.63225 4.86446C4.55876 4.83402 4.47998 4.81835 4.40043 4.81835C4.23977 4.81835 4.08569 4.88217 3.97209 4.99578C3.91584 5.05203 3.87122 5.11881 3.84077 5.19231C3.81033 5.2658 3.79466 5.34457 3.79466 5.42412C3.79466 5.58478 3.85848 5.73887 3.97209 5.85247L3.98967 5.87081C4.05967 5.94187 4.10666 6.03236 4.12452 6.1305C4.14237 6.22864 4.13027 6.32989 4.08978 6.42105C4.05566 6.51548 3.99373 6.59736 3.91215 6.65588C3.83056 6.71441 3.73316 6.74684 3.63277 6.7489H3.60526C3.44474 6.7489 3.29079 6.81267 3.17728 6.92618C3.06377 7.03969 3 7.19364 3 7.35416C3 7.51469 3.06377 7.66864 3.17728 7.78215C3.29079 7.89566 3.44474 7.95942 3.60526 7.95942H3.65723C3.75469 7.95947 3.84999 7.98819 3.93125 8.042C4.01251 8.09581 4.07615 8.17234 4.11423 8.26206C4.15489 8.35331 4.16709 8.45471 4.14923 8.55301C4.13137 8.65131 4.08428 8.74193 4.01412 8.81306L3.99578 8.8314C3.93953 8.88765 3.89491 8.95443 3.86446 9.02793C3.83402 9.10142 3.81835 9.18019 3.81835 9.25975C3.81835 9.3393 3.83402 9.41807 3.86446 9.49156C3.89491 9.56506 3.93953 9.63184 3.99578 9.68809C4.05203 9.74434 4.11881 9.78896 4.19231 9.81941C4.2658 9.84985 4.34457 9.86552 4.42412 9.86552C4.50368 9.86552 4.58245 9.84985 4.65594 9.81941C4.72944 9.78896 4.79622 9.74434 4.85247 9.68809L4.87081 9.66975C4.94196 9.59987 5.03249 9.55303 5.13062 9.53531C5.22876 9.51759 5.32996 9.52982 5.42105 9.5704C5.51548 9.60452 5.59736 9.66645 5.65588 9.74803C5.71441 9.82962 5.74684 9.92702 5.7489 10.0274V10.0542C5.7489 10.2147 5.81267 10.3686 5.92618 10.4821C6.03969 10.5956 6.19364 10.6594 6.35416 10.6594C6.51469 10.6594 6.66864 10.5956 6.78215 10.4821C6.89566 10.3686 6.95942 10.2147 6.95942 10.0542V10.0029C6.95947 9.90549 6.98819 9.81019 7.042 9.72893C7.09581 9.64767 7.17234 9.58403 7.26206 9.54595C7.35324 9.50519 7.45459 9.49287 7.55289 9.5106C7.65118 9.52832 7.74185 9.57526 7.81306 9.64529L7.8314 9.66364C7.8876 9.71989 7.95433 9.76452 8.02778 9.79498C8.10123 9.82544 8.17996 9.84114 8.25948 9.84117C8.33899 9.84121 8.41773 9.82558 8.49121 9.79519C8.56469 9.76479 8.63146 9.72022 8.68771 9.66402C8.74396 9.60782 8.78859 9.54109 8.81905 9.46764C8.84951 9.39419 8.86521 9.31546 8.86525 9.23594C8.86528 9.15643 8.84966 9.07768 8.81926 9.00421C8.78886 8.93073 8.74429 8.86396 8.68809 8.80771L8.66975 8.78937C8.59985 8.71822 8.55298 8.62692 8.53525 8.52877ZM7.79701 7.35875C7.79701 7.7404 7.6454 8.10642 7.37553 8.37629C7.10566 8.64616 6.73964 8.79777 6.35798 8.79777C5.97633 8.79777 5.61031 8.64616 5.34044 8.37629C5.07057 8.10642 4.91896 7.7404 4.91896 7.35875C4.91896 6.97709 5.07057 6.61107 5.34044 6.3412C5.61031 6.07133 5.97633 5.91972 6.35798 5.91972C6.73964 5.91972 7.10566 6.07133 7.37553 6.3412C7.6454 6.61107 7.79701 6.97709 7.79701 7.35875ZM11.4164 10.933C11.4149 10.9878 11.4298 11.0419 11.4592 11.0881C11.4885 11.1347 11.5311 11.1715 11.5815 11.1936L11.5945 11.199C11.6349 11.2161 11.6715 11.241 11.7023 11.2722C11.733 11.3035 11.7573 11.3405 11.7738 11.3812C11.7903 11.4219 11.7986 11.4654 11.7982 11.5092C11.7979 11.5531 11.7889 11.5965 11.7718 11.6369C11.7547 11.6773 11.7298 11.7139 11.6985 11.7447C11.6672 11.7754 11.6302 11.7997 11.5895 11.8162C11.5489 11.8327 11.5054 11.841 11.4615 11.8406C11.4176 11.8403 11.3743 11.8313 11.3339 11.8142L11.3209 11.808C11.27 11.7872 11.214 11.7822 11.1602 11.7935C11.1064 11.8048 11.0572 11.8319 11.019 11.8715C10.9811 11.9094 10.9551 11.9577 10.9442 12.0102C10.9334 12.0628 10.9381 12.1173 10.9579 12.1672L10.9686 12.1932C10.9858 12.234 10.9948 12.2778 10.995 12.3221C10.9952 12.3664 10.9865 12.4103 10.9696 12.4513C10.9526 12.4922 10.9277 12.5293 10.8963 12.5605C10.8648 12.5917 10.8275 12.6164 10.7864 12.633C10.7453 12.6496 10.7014 12.6579 10.6571 12.6574C10.6128 12.6569 10.569 12.6475 10.5284 12.6299C10.4877 12.6123 10.451 12.5868 10.4203 12.5549C10.3896 12.5229 10.3655 12.4852 10.3495 12.4439L10.3442 12.4294C10.3223 12.3787 10.2857 12.3358 10.2391 12.3062C10.1924 12.2766 10.138 12.2617 10.0828 12.2635C10.0277 12.2617 9.97338 12.2764 9.92678 12.3059C9.88018 12.3353 9.84349 12.3781 9.82147 12.4286L9.81612 12.4416C9.79004 12.5022 9.74672 12.5537 9.69155 12.5899C9.63638 12.626 9.5718 12.6451 9.50585 12.6449C9.45079 12.6447 9.39663 12.6309 9.34824 12.6047C9.29984 12.5784 9.25872 12.5406 9.22856 12.4945C9.19841 12.4484 9.18017 12.3956 9.17548 12.3407C9.17079 12.2859 9.17979 12.2307 9.20169 12.1802L9.20704 12.1672C9.22793 12.1164 9.23313 12.0605 9.22196 12.0067C9.21079 11.9529 9.18377 11.9037 9.14437 11.8654C9.10626 11.8274 9.05786 11.8015 9.00516 11.7907C8.95246 11.78 8.89777 11.785 8.84786 11.805L8.82187 11.8157C8.78092 11.8338 8.73673 11.8435 8.69194 11.8443C8.64716 11.845 8.60268 11.8367 8.56117 11.8198C8.51966 11.803 8.48195 11.778 8.4503 11.7463C8.41865 11.7146 8.3937 11.6769 8.37693 11.6354C8.36016 11.5938 8.35192 11.5493 8.3527 11.5046C8.35347 11.4598 8.36325 11.4156 8.38145 11.3747C8.39964 11.3337 8.42589 11.2969 8.45862 11.2663C8.49135 11.2357 8.5299 11.212 8.57197 11.1967L8.58573 11.1906C8.6364 11.1687 8.67931 11.132 8.70889 11.0854C8.73846 11.0388 8.75333 10.9844 8.75156 10.9292C8.7533 10.8743 8.73859 10.8202 8.70931 10.7737C8.68002 10.7273 8.63752 10.6907 8.58726 10.6686L8.57426 10.6632C8.53387 10.6461 8.49724 10.6212 8.46647 10.59C8.4357 10.5587 8.41139 10.5217 8.39492 10.481C8.37846 10.4403 8.37017 10.3968 8.37052 10.353C8.37087 10.3091 8.37985 10.2657 8.39697 10.2253C8.41408 10.1849 8.43898 10.1483 8.47024 10.1175C8.50151 10.0868 8.53853 10.0625 8.57919 10.046C8.61986 10.0295 8.66336 10.0212 8.70723 10.0216C8.7511 10.0219 8.79447 10.0309 8.83486 10.048L8.84786 10.0534C8.89868 10.0743 8.95459 10.0795 9.00839 10.0683C9.06219 10.0571 9.11142 10.0301 9.14972 9.99073L9.16195 9.98614C9.20002 9.94811 9.22611 9.89975 9.23697 9.84705C9.24784 9.79435 9.24301 9.73961 9.22309 9.68962L9.21162 9.66364C9.17849 9.58155 9.17931 9.48966 9.21392 9.40819C9.24854 9.32671 9.3141 9.26232 9.39618 9.22918C9.47827 9.19604 9.57016 9.19687 9.65164 9.23148C9.73311 9.26609 9.7975 9.33165 9.83064 9.41374L9.83676 9.4275C9.85704 9.47724 9.89144 9.51995 9.93571 9.55037C9.97998 9.58079 10.0322 9.59758 10.0859 9.59868C10.1409 9.60036 10.1951 9.58553 10.2415 9.55611C10.288 9.52668 10.3245 9.48402 10.3465 9.43361L10.3526 9.42062C10.3787 9.36004 10.422 9.30847 10.4772 9.27232C10.5323 9.23618 10.5969 9.21706 10.6629 9.21734C10.7179 9.21767 10.7719 9.2316 10.8202 9.2579C10.8685 9.28419 10.9095 9.32203 10.9396 9.36804C10.9698 9.41404 10.988 9.46679 10.9928 9.52157C10.9976 9.57634 10.9887 9.63146 10.967 9.68198L10.9617 9.69497C10.9408 9.74579 10.9356 9.80171 10.9468 9.85551C10.9579 9.90931 10.985 9.95854 11.0244 9.99684L11.0289 10.0091C11.0671 10.047 11.1155 10.073 11.1682 10.0837C11.2209 10.0944 11.2755 10.0895 11.3255 10.0694L11.3514 10.0587C11.4328 10.029 11.5226 10.0321 11.6018 10.0673C11.6809 10.1025 11.7433 10.167 11.7758 10.2474C11.8082 10.3277 11.8081 10.4176 11.7756 10.4979C11.743 10.5782 11.6806 10.6427 11.6013 10.6778L11.5876 10.6839C11.5378 10.7042 11.4951 10.7386 11.4647 10.7828C11.4343 10.8271 11.4175 10.8793 11.4164 10.933ZM10.8568 11.2588C10.9438 11.054 10.9457 10.823 10.8623 10.6166C10.7789 10.4103 10.617 10.2455 10.4121 10.1586C10.2072 10.0717 9.97622 10.0697 9.76989 10.1531C9.66772 10.1944 9.57469 10.2554 9.49611 10.3327C9.41752 10.4099 9.35492 10.5019 9.31188 10.6034C9.26884 10.7048 9.2462 10.8137 9.24526 10.9239C9.24432 11.0341 9.26509 11.1434 9.30639 11.2456C9.38979 11.4519 9.55174 11.6167 9.75662 11.7036C9.96149 11.7905 10.1925 11.7925 10.3988 11.7091C10.6052 11.6257 10.7699 11.4637 10.8568 11.2588Z" fill="#CBCEDC"/>
</svg>
