<svg width="16" height="16" viewBox="0 0 16 16" fill="none" xmlns="http://www.w3.org/2000/svg">
<path fill-rule="evenodd" clip-rule="evenodd" d="M14 8C14 11.3137 11.3137 14 8 14C4.68629 14 2 11.3137 2 8C2 4.68629 4.68629 2 8 2C11.3137 2 14 4.68629 14 8ZM6.24707 12.76L8.69507 2.97501L9.75307 3.24001L7.30507 13.025L6.24707 12.76ZM5.27262 11L3.13354 8.39214C3.09121 8.34071 3.05763 8.27959 3.03471 8.2123C3.0118 8.14501 3 8.07286 3 8C3 7.92714 3.0118 7.85499 3.03471 7.7877C3.05763 7.72041 3.09121 7.65929 3.13354 7.60786L5.27262 5L5.91592 5.78327L4.09767 8L5.91592 10.2167L5.27262 11ZM10.7274 11L10.0841 10.2167L11.9023 8L10.0841 5.78327L10.7274 5L12.8665 7.60786C12.9088 7.65929 12.9424 7.72041 12.9653 7.7877C12.9882 7.85499 13 7.92714 13 8C13 8.07286 12.9882 8.14501 12.9653 8.2123C12.9424 8.27959 12.9088 8.34071 12.8665 8.39214L10.7274 11Z" fill="#89DDFF"/>
</svg>
