<svg width="16" height="16" viewBox="0 0 16 16" fill="none" xmlns="http://www.w3.org/2000/svg">
<path d="M8 14C11.3137 14 14 11.3137 14 8C14 4.68629 11.3137 2 8 2C4.68629 2 2 4.68629 2 8C2 11.3137 4.68629 14 8 14Z" fill="#69A7D3"/>
<path fill-rule="evenodd" clip-rule="evenodd" d="M13.5781 10.994C12.9791 11.047 12.2011 10.889 11.7911 11.432C11.7931 12.039 12.5651 12.407 13.0681 12.682C13.5421 12.838 14.0091 13.308 14.4101 13.394C13.9791 12.713 13.2651 12.252 12.5821 11.833C12.4771 11.011 13.7621 11.713 13.9891 11.094C13.7291 10.399 12.9491 10.129 12.4001 9.69799C11.8201 9.39399 11.0521 9.19299 10.8351 8.50499C10.1991 7.12599 9.68511 5.60999 8.48211 4.58499C7.72211 3.88099 6.84811 3.18299 5.80511 2.96999C4.90011 3.00299 4.24811 2.24399 3.40311 2.08399C2.48111 2.01499 2.33811 3.14199 2.96611 3.61399C3.54411 4.18899 3.71511 4.97999 3.99911 5.70599C4.25111 6.24899 4.74711 6.62799 4.39511 7.24599C4.14511 8.22799 4.12611 9.39899 4.85511 10.197C5.37611 10.711 5.93311 10.123 5.86311 9.54999C6.13811 9.16999 6.31111 10.142 6.62911 10.29C6.96511 10.637 7.32311 11.005 7.74711 11.231C7.11811 10.637 6.71211 9.861 6.28811 9.119C6.40611 8.425 5.36511 8.18899 5.45211 9.00399C5.46711 9.32799 5.23111 10.254 4.88211 9.60399C4.45311 8.79999 4.59011 7.85699 4.83411 7.02299C5.06811 6.36499 4.51711 5.91999 4.24411 5.40399C4.02111 4.81499 3.97511 4.12099 3.45711 3.68199C2.95911 3.37099 2.82711 2.26899 3.66911 2.61399C4.30411 3.05199 4.98111 3.36899 5.76911 3.40399C6.93311 3.75199 7.90911 4.55699 8.66711 5.46899C9.57911 6.53299 9.93211 7.90499 10.6021 9.10299C10.7901 9.60599 11.3861 9.66299 11.8261 9.84899C12.3981 10.008 12.8151 10.433 13.3141 10.721C13.4161 10.798 13.5081 10.888 13.5781 10.994Z" fill="white"/>
<path d="M13.5781 10.994L13.6001 11.243C13.6879 11.2353 13.765 11.1819 13.8033 11.1026C13.8415 11.0233 13.8353 10.9297 13.7867 10.8562L13.5781 10.994ZM11.7911 11.432L11.5916 11.2813C11.5587 11.325 11.5409 11.3782 11.5411 11.4328L11.7911 11.432ZM13.0681 12.682L12.9482 12.9014C12.9615 12.9086 12.9755 12.9147 12.99 12.9195L13.0681 12.682ZM14.4101 13.394L14.3577 13.6384C14.4561 13.6595 14.5576 13.6196 14.6152 13.537C14.6728 13.4544 14.6752 13.3454 14.6214 13.2603L14.4101 13.394ZM12.5821 11.833L12.3341 11.8647C12.3437 11.9398 12.3868 12.0065 12.4514 12.0461L12.5821 11.833ZM13.9891 11.094L14.2238 11.1801C14.2444 11.124 14.2442 11.0624 14.2233 11.0064L13.9891 11.094ZM12.4001 9.69799L12.5545 9.50135C12.5425 9.49194 12.5297 9.48364 12.5162 9.47657L12.4001 9.69799ZM10.8351 8.50499L11.0735 8.42979C11.0704 8.41973 11.0665 8.40988 11.0621 8.40029L10.8351 8.50499ZM8.48211 4.58499L8.31207 4.76856L8.31997 4.77529L8.48211 4.58499ZM5.80511 2.96999L5.85513 2.72505C5.83569 2.72108 5.81584 2.71944 5.796 2.72016L5.80511 2.96999ZM3.40311 2.08399L3.44962 1.83836C3.44041 1.83662 3.43111 1.83539 3.42177 1.83469L3.40311 2.08399ZM2.96611 3.61399L3.14243 3.43676C3.13425 3.42863 3.12553 3.42107 3.11631 3.41415L2.96611 3.61399ZM3.99911 5.70599L3.76629 5.79707C3.76816 5.80185 3.77018 5.80658 3.77234 5.81124L3.99911 5.70599ZM4.39511 7.24599L4.17788 7.12226C4.16679 7.14173 4.15837 7.1626 4.15284 7.18432L4.39511 7.24599ZM4.85511 10.197L4.67029 10.3658L4.67953 10.375L4.85511 10.197ZM5.86311 9.54999L5.66058 9.40343C5.62361 9.45452 5.60731 9.51771 5.61496 9.58031L5.86311 9.54999ZM6.62911 10.29L6.80871 10.1161C6.78744 10.0941 6.76232 10.0762 6.7346 10.0633L6.62911 10.29ZM7.74711 11.231L7.62952 11.4516C7.74001 11.5105 7.87703 11.4786 7.95011 11.3769C8.02319 11.2752 8.00979 11.1352 7.91876 11.0492L7.74711 11.231ZM6.28811 9.119L6.04165 9.07709C6.03195 9.13414 6.04234 9.19279 6.07105 9.24303L6.28811 9.119ZM5.45211 9.00399L5.70184 8.99243C5.70161 8.98743 5.70123 8.98244 5.7007 8.97746L5.45211 9.00399ZM4.88211 9.60399L4.66154 9.72169L4.66185 9.72226L4.88211 9.60399ZM4.83411 7.02299L4.59856 6.93923C4.59697 6.94371 4.5955 6.94823 4.59417 6.9528L4.83411 7.02299ZM4.24411 5.40399L4.01031 5.49251C4.01399 5.50224 4.01827 5.51172 4.02313 5.52091L4.24411 5.40399ZM3.45711 3.68199L3.61875 3.49127C3.60954 3.48347 3.59977 3.47634 3.58953 3.46995L3.45711 3.68199ZM3.66911 2.61399L3.81106 2.4082C3.7963 2.39802 3.78049 2.38946 3.7639 2.38266L3.66911 2.61399ZM5.76911 3.40399L5.84072 3.16447C5.82105 3.15859 5.80072 3.15515 5.7802 3.15424L5.76911 3.40399ZM8.66711 5.46899L8.47483 5.62881L8.4773 5.63169L8.66711 5.46899ZM10.6021 9.10299L10.8363 9.01547C10.8318 9.00358 10.8265 8.99204 10.8203 8.98097L10.6021 9.10299ZM11.8261 9.84899L11.7288 10.0793C11.7387 10.0834 11.7488 10.087 11.7592 10.0899L11.8261 9.84899ZM13.3141 10.721L13.4647 10.5215C13.4565 10.5153 13.448 10.5096 13.4391 10.5045L13.3141 10.721ZM13.5561 10.745C13.4188 10.7571 13.2697 10.7573 13.1021 10.7584C12.9394 10.7596 12.7612 10.7617 12.5866 10.7807C12.2364 10.8189 11.8569 10.9299 11.5916 11.2813L11.9906 11.5826C12.1353 11.3911 12.3498 11.3095 12.6409 11.2778C12.7869 11.2618 12.9412 11.2596 13.1056 11.2584C13.2652 11.2573 13.4379 11.2574 13.6001 11.243L13.5561 10.745ZM11.5411 11.4328C11.5425 11.852 11.8109 12.1598 12.0868 12.3777C12.3641 12.5967 12.7086 12.7704 12.9482 12.9014L13.188 12.4626C12.9246 12.3186 12.6316 12.1708 12.3967 11.9853C12.1604 11.7987 12.0417 11.619 12.0411 11.4312L11.5411 11.4328ZM12.99 12.9195C13.1892 12.985 13.3947 13.12 13.6297 13.2735C13.844 13.4135 14.1024 13.5837 14.3577 13.6384L14.4625 13.1496C14.3168 13.1183 14.1412 13.0105 13.9032 12.855C13.686 12.713 13.421 12.535 13.1463 12.4445L12.99 12.9195ZM14.6214 13.2603C14.155 12.5234 13.3903 12.0355 12.7128 11.6199L12.4514 12.0461C13.1399 12.4685 13.8033 12.9026 14.1989 13.5277L14.6214 13.2603ZM12.8301 11.8013C12.8205 11.726 12.8305 11.6949 12.8335 11.6876C12.8344 11.6856 12.834 11.6835 12.8452 11.6774C12.891 11.6525 12.984 11.6398 13.1645 11.6373C13.3154 11.6353 13.5303 11.6403 13.7139 11.5989C13.9127 11.5539 14.1274 11.4429 14.2238 11.1801L13.7544 11.0079C13.7373 11.0546 13.7063 11.088 13.6036 11.1112C13.4857 11.1378 13.3433 11.1348 13.1577 11.1374C13.0017 11.1395 12.779 11.1442 12.6062 11.2382C12.5082 11.2915 12.4229 11.3743 12.3727 11.4937C12.3247 11.6077 12.3175 11.7344 12.3341 11.8647L12.8301 11.8013ZM14.2233 11.0064C14.067 10.5887 13.758 10.3113 13.4468 10.0925C13.2918 9.98348 13.1269 9.88282 12.9762 9.78839C12.8222 9.69182 12.6804 9.6002 12.5545 9.50135L12.2457 9.89464C12.3943 10.0113 12.5559 10.115 12.7107 10.212C12.8688 10.3112 13.0181 10.4023 13.1592 10.5015C13.4402 10.6991 13.6512 10.9043 13.755 11.1816L14.2233 11.0064ZM12.5162 9.47657C12.3638 9.39671 12.1982 9.32318 12.0461 9.25305C11.89 9.18109 11.7432 9.11066 11.6097 9.03089C11.3441 8.87216 11.156 8.69142 11.0735 8.42979L10.5967 8.58019C10.7312 9.00657 11.0356 9.27033 11.3533 9.4601C11.5114 9.55458 11.679 9.6344 11.8368 9.70713C11.9985 9.78168 12.1464 9.84728 12.2841 9.91942L12.5162 9.47657ZM11.0621 8.40029C10.7523 7.72846 10.4543 6.98187 10.0924 6.29562C9.72602 5.601 9.279 4.93553 8.64425 4.3947L8.31997 4.77529C8.88822 5.25946 9.29971 5.86449 9.65011 6.52887C10.0049 7.20162 10.2819 7.90253 10.6081 8.6097L11.0621 8.40029ZM8.652 4.40159C7.88936 3.69514 6.97142 2.95302 5.85513 2.72505L5.75509 3.21494C6.7248 3.41297 7.55486 4.06685 8.31222 4.7684L8.652 4.40159ZM5.796 2.72016C5.41628 2.73401 5.07914 2.5834 4.70017 2.37927C4.33845 2.18443 3.92043 1.92751 3.44962 1.83836L3.3566 2.32963C3.7308 2.40048 4.06127 2.60305 4.46306 2.81947C4.84758 3.02659 5.28894 3.23898 5.81422 3.21983L5.796 2.72016ZM3.42177 1.83469C3.13789 1.81345 2.89273 1.88393 2.70435 2.03001C2.51804 2.17449 2.40592 2.3784 2.35911 2.5928C2.26709 3.01436 2.41889 3.51545 2.81591 3.81384L3.11631 3.41415C2.88533 3.24054 2.79463 2.94213 2.84761 2.69944C2.87331 2.58172 2.93056 2.48732 3.01075 2.42513C3.08886 2.36456 3.20733 2.32004 3.38445 2.3333L3.42177 1.83469ZM2.78979 3.79123C3.04632 4.04643 3.21809 4.35472 3.36217 4.69971C3.43435 4.87254 3.49832 5.05136 3.56328 5.23648C3.62753 5.41958 3.69326 5.61039 3.76629 5.79707L4.23193 5.61492C4.16296 5.4386 4.10082 5.25828 4.03507 5.07092C3.97003 4.88556 3.90187 4.69457 3.82355 4.50703C3.66663 4.13127 3.4639 3.75656 3.14243 3.43676L2.78979 3.79123ZM3.77234 5.81124C3.84296 5.96341 3.92951 6.10157 4.00517 6.22188C4.08397 6.34719 4.14916 6.45053 4.19691 6.55325C4.24322 6.65289 4.26658 6.73902 4.26718 6.8228C4.26776 6.90435 4.24693 7.00103 4.17788 7.12226L4.61234 7.36973C4.7193 7.18196 4.76846 6.99951 4.76717 6.81922C4.76589 6.64115 4.7155 6.48273 4.65032 6.34249C4.58656 6.20533 4.5025 6.07348 4.42843 5.9557C4.35121 5.83292 4.28126 5.72008 4.22588 5.60075L3.77234 5.81124ZM4.15284 7.18432C3.89667 8.19053 3.85395 9.47173 4.67053 10.3656L5.03969 10.0284C4.39828 9.32626 4.39355 8.26546 4.63738 7.30767L4.15284 7.18432ZM4.67953 10.375C4.84312 10.5364 5.02953 10.6298 5.2258 10.6428C5.42159 10.6557 5.59743 10.5864 5.73561 10.4774C6.00384 10.2657 6.1562 9.8875 6.11127 9.51968L5.61496 9.58031C5.64002 9.78549 5.54889 9.98779 5.42587 10.0849C5.36842 10.1302 5.31169 10.1474 5.2587 10.1439C5.20619 10.1404 5.1276 10.1146 5.03069 10.019L4.67953 10.375ZM6.06564 9.69656C6.08556 9.66904 6.07771 9.6929 6.03377 9.70608C5.97601 9.7234 5.92976 9.70209 5.9152 9.69236C5.90777 9.6874 5.91614 9.69121 5.93874 9.723C5.95941 9.75207 5.98292 9.7914 6.01079 9.84222C6.06035 9.93258 6.13211 10.0775 6.20103 10.1895C6.26705 10.2968 6.3705 10.4454 6.52362 10.5166L6.7346 10.0633C6.7367 10.0643 6.72558 10.0593 6.70269 10.0336C6.6806 10.0089 6.65543 9.9739 6.62685 9.92746C6.5653 9.82745 6.51699 9.72541 6.44918 9.60177C6.41837 9.54559 6.38386 9.48617 6.34622 9.43324C6.31052 9.38303 6.26028 9.32159 6.193 9.27663C6.11857 9.2269 6.0112 9.19084 5.89011 9.22716C5.78282 9.25934 5.70942 9.33595 5.66058 9.40343L6.06564 9.69656ZM6.44951 10.4639C6.78012 10.8053 7.16482 11.2039 7.62952 11.4516L7.8647 11.0104C7.4814 10.8061 7.1501 10.4687 6.80871 10.1161L6.44951 10.4639ZM7.91876 11.0492C7.3233 10.4869 6.9374 9.75136 6.50517 8.99496L6.07105 9.24303C6.48682 9.97063 6.91293 10.7871 7.57546 11.4128L7.91876 11.0492ZM6.53457 9.1609C6.61885 8.66523 6.28191 8.31612 5.92769 8.24988C5.74879 8.21642 5.54192 8.25118 5.38787 8.40177C5.23268 8.55348 5.17654 8.77778 5.20352 9.03053L5.7007 8.97746C5.68418 8.82271 5.72554 8.77089 5.73739 8.75931C5.75037 8.74662 5.78006 8.73094 5.83578 8.74136C5.95081 8.76287 6.07537 8.87876 6.04165 9.07709L6.53457 9.1609ZM5.20238 9.01556C5.20483 9.06841 5.19666 9.16471 5.17371 9.27484C5.15084 9.38462 5.11792 9.48553 5.08255 9.55249C5.07421 9.56829 5.06673 9.58026 5.06053 9.5889C5.05749 9.59314 5.05501 9.59623 5.05316 9.59837C5.05131 9.60051 5.05033 9.60142 5.05033 9.60142C5.05034 9.60141 5.05161 9.60023 5.05427 9.5984C5.05695 9.59655 5.06124 9.59389 5.06719 9.59114C5.07974 9.58535 5.09758 9.58017 5.11887 9.58003C5.16488 9.57973 5.18504 9.60175 5.17572 9.59325C5.16484 9.58335 5.13886 9.55369 5.10237 9.48573L4.66185 9.72226C4.71261 9.8168 4.77035 9.90039 4.83912 9.96299C4.90945 10.027 5.00519 10.0808 5.12217 10.08C5.23869 10.0793 5.32891 10.0246 5.38924 9.96903C5.44837 9.91453 5.49213 9.8476 5.52467 9.786C5.59005 9.66221 5.63514 9.51149 5.6632 9.37684C5.69119 9.24253 5.7069 9.10158 5.70184 8.99243L5.20238 9.01556ZM5.10268 9.48631C4.72269 8.77417 4.83348 7.91548 5.07405 7.09319L4.59417 6.9528C4.34674 7.79851 4.18353 8.82582 4.66155 9.72168L5.10268 9.48631ZM5.06966 7.10676C5.21945 6.68556 5.11019 6.33264 4.94803 6.03929C4.86935 5.89697 4.77421 5.76135 4.68981 5.63964C4.60234 5.51354 4.52527 5.40082 4.46509 5.28708L4.02313 5.52091C4.09946 5.66517 4.19363 5.80158 4.27895 5.92459C4.36732 6.05202 4.44649 6.16551 4.51044 6.2812C4.63353 6.50385 4.68277 6.70243 4.59856 6.93923L5.06966 7.10676ZM4.47791 5.31547C4.42642 5.17945 4.38429 5.0351 4.34047 4.88015C4.29755 4.72836 4.2525 4.56454 4.19758 4.40526C4.08696 4.0844 3.92704 3.75255 3.61875 3.49127L3.29548 3.87272C3.50518 4.05044 3.62726 4.28509 3.72489 4.56823C3.7741 4.71095 3.81474 4.8585 3.85934 5.01622C3.90305 5.17077 3.95031 5.33404 4.01031 5.49251L4.47791 5.31547ZM3.58953 3.46995C3.51469 3.42321 3.44089 3.3372 3.38633 3.2256C3.33186 3.11417 3.30721 2.99877 3.31044 2.9112C3.31203 2.86825 3.31999 2.83971 3.32757 2.82333C3.33434 2.80871 3.33954 2.80586 3.34049 2.80528C3.34163 2.80459 3.35415 2.79688 3.39034 2.79796C3.42837 2.7991 3.48831 2.81008 3.57432 2.84533L3.7639 2.38266C3.52137 2.28329 3.27785 2.25836 3.08098 2.3779C2.88224 2.49857 2.8174 2.71327 2.81078 2.89278C2.80401 3.07647 2.85311 3.27332 2.93714 3.4452C3.02108 3.61691 3.15053 3.78528 3.32469 3.89404L3.58953 3.46995ZM3.52716 2.81979C4.18352 3.27252 4.90585 3.6159 5.75802 3.65375L5.7802 3.15424C5.05637 3.12209 4.4247 2.83147 3.81106 2.4082L3.52716 2.81979ZM5.6975 3.64352C6.798 3.97253 7.73533 4.73903 8.47485 5.62879L8.85937 5.3092C8.08289 4.37496 7.06822 3.53146 5.84072 3.16447L5.6975 3.64352ZM8.4773 5.63169C8.90994 6.13644 9.21455 6.71953 9.49798 7.33967C9.77698 7.95009 10.0424 8.61428 10.3839 9.22502L10.8203 8.98097C10.4919 8.3937 10.2457 7.7729 9.95274 7.13182C9.66417 6.50046 9.33629 5.86555 8.85693 5.3063L8.4773 5.63169ZM10.3679 9.19052C10.4956 9.53219 10.7623 9.71047 11.0187 9.8236C11.1455 9.87957 11.2786 9.92339 11.3982 9.96238C11.5221 10.0028 11.6306 10.0378 11.7288 10.0793L11.9235 9.61872C11.8016 9.56722 11.6706 9.52532 11.5532 9.48702C11.4313 9.44728 11.3212 9.41055 11.2205 9.36614C11.0219 9.27852 10.8966 9.1768 10.8363 9.01547L10.3679 9.19052ZM11.7592 10.0899C12.0055 10.1583 12.2258 10.286 12.4568 10.4433C12.6766 10.5929 12.9296 10.7877 13.1891 10.9375L13.4391 10.5045C13.1996 10.3663 12.9946 10.2046 12.7382 10.03C12.4929 9.86297 12.2187 9.69865 11.8931 9.60813L11.7592 10.0899ZM13.1635 10.9205C13.249 10.9851 13.319 11.0552 13.3695 11.1318L13.7867 10.8562C13.6973 10.7207 13.5832 10.6109 13.4647 10.5215L13.1635 10.9205Z" fill="white"/>
</svg>
