<svg width="16" height="16" viewBox="0 0 16 16" fill="none" xmlns="http://www.w3.org/2000/svg">
<path fill-rule="evenodd" clip-rule="evenodd" d="M14 8C14 11.3137 11.3137 14 8 14C4.68629 14 2 11.3137 2 8C2 4.68629 4.68629 2 8 2C11.3137 2 14 4.68629 14 8ZM5 4.41681L5.36729 11.7324L11 12V4L10.7175 4.01998L10.771 4.01713V5.2233L10.1799 4.85931L9.46989 5.2233L9.59405 4.09778L5 4.41681ZM9.69219 7.10251L8.51004 7.13106C8.5316 6.53154 8.26766 6.47444 8.12045 6.47444C7.98067 6.47444 7.74572 6.51726 7.74572 6.83843C7.74572 7.16531 8.08922 7.35017 8.49294 7.56713L8.49482 7.56815C9.06695 7.87628 9.75911 8.24905 9.75911 9.18655C9.75911 10.0858 9.03866 10.4998 8.12045 10.4998C7.17249 10.4998 6.34275 10.1857 6.43792 8.80828H7.67955C7.66468 9.36497 7.78959 9.56481 8.10558 9.56481C8.34795 9.56481 8.45874 9.42921 8.45874 9.20082C8.45874 8.85556 8.10073 8.65147 7.68909 8.4168L7.68848 8.41645C7.13086 8.09885 6.47435 7.72486 6.47435 6.86698C6.47435 6.01053 7.05576 5.43956 8.09145 5.43956C9.12714 5.43956 9.72193 5.98912 9.69219 7.10251Z" fill="#FF9CAC"/>
</svg>
