<svg width="16" height="16" viewBox="0 0 16 16" fill="none" xmlns="http://www.w3.org/2000/svg">
<path fill-rule="evenodd" clip-rule="evenodd" d="M14 8C14 11.3137 11.3137 14 8 14C4.68629 14 2 11.3137 2 8C2 4.68629 4.68629 2 8 2C11.3137 2 14 4.68629 14 8ZM11.4868 4.31889C11.0628 3.67929 10.4194 3.23182 9.68966 3.0688L9.69046 3.06797C8.96049 2.90498 8.19834 3.03762 7.55884 3.43892L5.32104 4.92522C5.01851 5.1236 4.75902 5.38554 4.55914 5.69431C4.35927 6.00307 4.2234 6.35186 4.16022 6.71842C4.0535 7.33563 4.14674 7.97228 4.42528 8.52825C4.23287 8.831 4.10274 9.17118 4.04127 9.52882C3.97835 9.90211 3.98745 10.2847 4.06806 10.6543C4.14866 11.0239 4.29914 11.373 4.5107 11.6813C4.93515 12.3213 5.57787 12.7685 6.30787 12.9318C7.03787 13.0952 7.80018 12.9624 8.43943 12.5605L10.6788 11.075C10.9815 10.8765 11.241 10.6144 11.4409 10.3055C11.6408 9.99662 11.7766 9.64767 11.8396 9.28096C11.9466 8.66466 11.8532 8.02755 11.5738 7.47279C11.7662 7.17004 11.8963 6.82904 11.9578 6.47139C12.0215 6.09775 12.013 5.71463 11.9328 5.34445C11.8526 4.97427 11.7023 4.62448 11.4908 4.31556L11.4868 4.31889ZM7.33929 11.8061C6.98722 11.9017 6.61518 11.8826 6.27428 11.7504V11.7495C5.93338 11.6181 5.63879 11.3802 5.43121 11.0692C5.30396 10.8834 5.21362 10.673 5.16549 10.4503C5.11737 10.2276 5.11244 9.9972 5.15099 9.77252C5.16429 9.69932 5.18239 9.62669 5.20528 9.5546L5.24679 9.42153L5.36176 9.50886C5.62628 9.71176 5.92223 9.86592 6.23676 9.96464L6.32059 9.99126L6.3126 10.0778C6.30292 10.2007 6.33514 10.3232 6.40361 10.4238C6.46602 10.5177 6.55464 10.5894 6.65746 10.6291C6.76027 10.6688 6.87232 10.6747 6.97843 10.6458C7.02706 10.6327 7.0734 10.6116 7.11575 10.5834L9.35196 9.09799C9.40676 9.06219 9.45376 9.01484 9.48992 8.95897C9.52609 8.9031 9.55062 8.83996 9.56193 8.77361C9.5731 8.70541 9.57151 8.63749 9.55714 8.56984C9.54054 8.49775 9.51031 8.42983 9.46821 8.37006C9.4261 8.31029 9.37298 8.25988 9.31194 8.22177C9.2509 8.18366 9.18317 8.15862 9.11272 8.14813C9.04228 8.13763 8.97053 8.14188 8.90168 8.16063C8.85333 8.17387 8.80727 8.19492 8.76516 8.22301L7.91092 8.79108C7.76988 8.88423 7.61819 8.95354 7.45585 8.99901C7.10372 9.0941 6.73207 9.07452 6.39093 8.94292C6.0498 8.81132 5.75554 8.57401 5.54777 8.26293C5.42052 8.07714 5.33018 7.86673 5.28205 7.64406C5.23393 7.42139 5.229 7.19095 5.26755 6.96627C5.30505 6.74554 5.38652 6.53544 5.5067 6.3495C5.62687 6.16356 5.7831 6.00591 5.96532 5.88669L8.20312 4.40206C8.34336 4.30785 8.49691 4.23713 8.65818 4.19247C8.88637 4.13082 9.12405 4.11709 9.35738 4.15207C9.59071 4.18705 9.81503 4.27004 10.0173 4.39621C10.2195 4.52238 10.3956 4.68921 10.5354 4.88698C10.6752 5.08475 10.7758 5.30951 10.8313 5.54818C10.8975 5.84479 10.8842 6.15464 10.793 6.44395L10.7507 6.57702L10.6357 6.48969C10.3712 6.28679 10.0752 6.13263 9.76072 6.03391L9.67689 6.00729L9.68487 5.92162C9.69498 5.79855 9.66303 5.67571 9.59466 5.57479C9.53225 5.48086 9.44364 5.40917 9.34082 5.36945C9.238 5.32973 9.12595 5.32389 9.01984 5.35272C8.97121 5.36588 8.92487 5.38694 8.88252 5.4151L6.64552 6.90223C6.59071 6.93802 6.54372 6.98538 6.50755 7.04124C6.47139 7.09711 6.44686 7.16025 6.43555 7.2266C6.42356 7.29442 6.42519 7.36408 6.44034 7.43121C6.45694 7.50321 6.48715 7.57104 6.5292 7.63075C6.57125 7.69045 6.6243 7.74082 6.68525 7.77892C6.7462 7.81702 6.81383 7.84208 6.88418 7.85264C6.95453 7.8632 7.0262 7.85904 7.095 7.84042C7.14339 7.82691 7.18946 7.80558 7.23151 7.7772L8.08576 7.20997C8.2261 7.11634 8.37965 7.04618 8.54082 7.00204C8.89304 6.90703 9.26474 6.92673 9.60589 7.05849C9.94703 7.19024 10.2412 7.42771 10.4489 7.73894C10.5761 7.92463 10.6663 8.1349 10.7145 8.35742C10.7626 8.57994 10.7676 8.81022 10.7291 9.03477C10.6908 9.25489 10.609 9.46431 10.4889 9.64973C10.3688 9.83515 10.213 9.99252 10.0314 10.1119L7.79356 11.5982C7.65305 11.6905 7.49897 11.7612 7.33929 11.8061Z" fill="#F07178"/>
</svg>
