<svg width="16" height="16" viewBox="0 0 16 16" fill="none" xmlns="http://www.w3.org/2000/svg">
<path fill-rule="evenodd" clip-rule="evenodd" d="M14 8C14 11.3137 11.3137 14 8 14C4.68629 14 2 11.3137 2 8C2 4.68629 4.68629 2 8 2C11.3137 2 14 4.68629 14 8ZM4.49731 10.5369C4.49731 10.0405 4.84633 9.62649 5.31521 9.52273C5.32369 9.47929 5.3327 9.43595 5.34224 9.39273C5.4538 8.8763 5.64098 8.37918 5.89774 7.91743C6.32176 7.1659 6.91103 6.58025 7.68306 6.20871H5.48398C5.44063 6.34082 5.35687 6.45597 5.24453 6.53789C5.13219 6.61982 4.99695 6.66438 4.85791 6.66529C4.4912 6.66529 4.19385 6.35889 4.19385 5.98011C4.19385 5.60134 4.4912 5.29494 4.85731 5.29494C5.14682 5.29494 5.39291 5.48553 5.48398 5.75152H9.32984C9.45533 5.31709 9.85817 5 10.3376 5C10.9154 5 11.3859 5.46563 11.3859 6.03923V6.04948C11.3859 6.62428 10.9172 7.0887 10.3376 7.0887C9.81378 7.0887 9.37899 6.70682 9.30158 6.20871H9.15897C7.78077 6.38422 6.84046 7.07242 6.24817 8.1231C6.01165 8.54881 5.8393 9.00712 5.7367 9.4832L5.73015 9.51377C6.22073 9.60033 6.59386 10.0257 6.59386 10.5369V10.5478C6.59386 11.1226 6.12582 11.587 5.54559 11.587C4.96717 11.587 4.49731 11.1214 4.49731 10.5478V10.5369ZM5.09624 10.5472V10.5369C5.09648 10.4782 5.1083 10.4201 5.13102 10.366C5.15375 10.3118 5.18693 10.2627 5.22867 10.2214C5.27041 10.1801 5.31989 10.1475 5.37427 10.1253C5.42866 10.1032 5.48687 10.092 5.54559 10.0924C5.79348 10.0924 5.99493 10.292 5.99493 10.5369V10.5478C5.9947 10.6065 5.98288 10.6646 5.96015 10.7187C5.93743 10.7728 5.90424 10.822 5.8625 10.8633C5.82076 10.9046 5.77128 10.9372 5.7169 10.9593C5.66252 10.9815 5.6043 10.9927 5.54559 10.9923C5.48687 10.9927 5.42866 10.9815 5.37427 10.9593C5.31989 10.9372 5.27041 10.9046 5.22867 10.8633C5.18693 10.822 5.15375 10.7728 5.13102 10.7187C5.1083 10.6646 5.09648 10.6065 5.09624 10.5478V10.5472ZM9.88826 6.04948V6.03923C9.88849 5.98051 9.90031 5.92242 9.92304 5.86828C9.94576 5.81414 9.97895 5.76502 10.0207 5.72372C10.0624 5.68243 10.1119 5.64978 10.1663 5.62764C10.2207 5.6055 10.2789 5.59431 10.3376 5.5947C10.5855 5.5947 10.7869 5.79374 10.7869 6.03923V6.04948C10.7867 6.10819 10.7749 6.16629 10.7522 6.22042C10.7294 6.27456 10.6963 6.32369 10.6545 6.36498C10.6128 6.40627 10.5633 6.43893 10.5089 6.46107C10.4545 6.4832 10.3963 6.4944 10.3376 6.494C10.2789 6.4944 10.2207 6.4832 10.1663 6.46107C10.1119 6.43893 10.0624 6.40627 10.0207 6.36498C9.97895 6.32369 9.94576 6.27456 9.92304 6.22042C9.90031 6.16629 9.88849 6.10819 9.88826 6.04948Z" fill="#FF9CAC"/>
</svg>
