<svg width="16" height="16" viewBox="0 0 16 16" fill="none" xmlns="http://www.w3.org/2000/svg">
<path d="M14 6H2V3C2 2.86739 2.05268 2.74021 2.14645 2.64645C2.24021 2.55268 2.36739 2.5 2.5 2.5H13.5C13.6326 2.5 13.7598 2.55268 13.8536 2.64645C13.9473 2.74021 14 2.86739 14 3V6ZM5.5 13.5H2.5C2.36739 13.5 2.24021 13.4473 2.14645 13.3536C2.05268 13.2598 2 13.1326 2 13V7H5.5V13.5Z" fill="#2ECC71"/>
<path d="M13.5 13.5H6.5V7H14V13C14 13.1326 13.9473 13.2598 13.8536 13.3536C13.7598 13.4473 13.6326 13.5 13.5 13.5Z" fill="#AEE33E"/>
</svg>
