<svg width="16" height="16" viewBox="0 0 16 16" fill="none" xmlns="http://www.w3.org/2000/svg">
<path fill-rule="evenodd" clip-rule="evenodd" d="M14 8C14 11.3137 11.3137 14 8 14C4.68629 14 2 11.3137 2 8C2 4.68629 4.68629 2 8 2C11.3137 2 14 4.68629 14 8ZM6 7.48127C6.26667 6.49376 6.93333 6 8 6C8.992 6 9.44615 6.42667 9.83692 6.79492L9.83802 6.79595C10.0788 7.02221 10.2958 7.22614 10.6 7.29651C11.1333 7.42011 11.6 7.23492 12 6.74095C11.7333 7.72847 11.0667 8.22222 10 8.22222C9.008 8.22222 8.55385 7.79556 8.16308 7.4273C7.92185 7.20063 7.704 6.99619 7.4 6.92571C6.86667 6.80254 6.4 6.98773 6 7.48127ZM4 9.70349C4.26667 8.71598 4.93333 8.22222 6 8.22222C6.992 8.22222 7.44615 8.64889 7.83692 9.01714C8.07815 9.24381 8.296 9.44825 8.6 9.51873C9.13333 9.6419 9.6 9.45672 10 8.96317C9.73333 9.95069 9.06667 10.4444 8 10.4444C7.008 10.4444 6.55385 10.0178 6.16308 9.64952C5.92185 9.42286 5.704 9.21841 5.4 9.14794C4.86667 9.02476 4.4 9.20995 4 9.70349Z" fill="#89DDFF"/>
</svg>
