<svg width="16" height="16" viewBox="0 0 16 16" fill="none" xmlns="http://www.w3.org/2000/svg">
<path fill-rule="evenodd" clip-rule="evenodd" d="M6.19985 11.5C6.12095 11.4997 6.04288 11.4838 5.97012 11.4532C5.89737 11.4227 5.83135 11.3781 5.77585 11.322L2.17585 7.679C2.06288 7.56479 1.99951 7.41064 1.99951 7.25C1.99951 7.08935 2.06288 6.9352 2.17585 6.821C2.23122 6.76476 2.29722 6.7201 2.37001 6.68961C2.44281 6.65913 2.52094 6.64343 2.59985 6.64343C2.67877 6.64343 2.7569 6.65913 2.82969 6.68961C2.90249 6.7201 2.96849 6.76476 3.02385 6.821L6.19985 10.034L12.9759 3.178C13.0312 3.12176 13.0972 3.0771 13.17 3.04661C13.2428 3.01613 13.3209 3.00043 13.3999 3.00043C13.4788 3.00043 13.5569 3.01613 13.6297 3.04661C13.7025 3.0771 13.7685 3.12176 13.8239 3.178C13.9368 3.2922 14.0002 3.44635 14.0002 3.607C14.0002 3.76764 13.9368 3.92179 13.8239 4.036L6.62385 11.322C6.56836 11.3781 6.50234 11.4227 6.42958 11.4532C6.35683 11.4838 6.27876 11.4997 6.19985 11.5Z" fill="#F07178"/>
</svg>
