<svg width="16" height="16" viewBox="0 0 16 16" fill="none" xmlns="http://www.w3.org/2000/svg">
<path fill-rule="evenodd" clip-rule="evenodd" d="M14 8C14 11.3137 11.3137 14 8 14C4.68629 14 2 11.3137 2 8C2 4.68629 4.68629 2 8 2C11.3137 2 14 4.68629 14 8ZM5.66667 8.33333V4.33333C5.66667 4.24493 5.63155 4.16014 5.56904 4.09763C5.50652 4.03512 5.42174 4 5.33333 4C5.24493 4 5.16014 4.03512 5.09763 4.09763C5.03512 4.16014 5 4.24493 5 4.33333V8.33333H5.66667ZM4.33333 9C4.24493 9 4.16014 9.03512 4.09763 9.09763C4.03512 9.16014 4 9.24493 4 9.33333V10.6667C4 10.7551 4.03512 10.8399 4.09763 10.9024C4.16014 10.9649 4.24493 11 4.33333 11H5V11.6667C5 11.7551 5.03512 11.8399 5.09763 11.9024C5.16014 11.9649 5.24493 12 5.33333 12C5.42174 12 5.50652 11.9649 5.56904 11.9024C5.63155 11.8399 5.66667 11.7551 5.66667 11.6667V11H6.33333C6.42174 11 6.50652 10.9649 6.56904 10.9024C6.63155 10.8399 6.66667 10.7551 6.66667 10.6667V9.33333C6.66667 9.24493 6.63155 9.16014 6.56904 9.09763C6.50652 9.03512 6.42174 9 6.33333 9H4.33333ZM8.33333 4.33333V5H7.66667V4.33333C7.66667 4.24493 7.70179 4.16014 7.7643 4.09763C7.82681 4.03512 7.91159 4 8 4C8.08841 4 8.17319 4.03512 8.2357 4.09763C8.29821 4.16014 8.33333 4.24493 8.33333 4.33333ZM9.33333 6C9.33333 5.91159 9.29821 5.82681 9.2357 5.7643C9.17319 5.70179 9.08841 5.66667 9 5.66667H7C6.91159 5.66667 6.82681 5.70179 6.7643 5.7643C6.70179 5.82681 6.66667 5.91159 6.66667 6V7.33333C6.66667 7.42174 6.70179 7.50652 6.7643 7.56904C6.82681 7.63155 6.91159 7.66667 7 7.66667H7.66667V11.6667C7.66667 11.7551 7.70179 11.8399 7.7643 11.9024C7.82681 11.9649 7.91159 12 8 12C8.08841 12 8.17319 11.9649 8.2357 11.9024C8.29821 11.8399 8.33333 11.7551 8.33333 11.6667V7.66667H9C9.08841 7.66667 9.17319 7.63155 9.2357 7.56904C9.29821 7.50652 9.33333 7.42174 9.33333 7.33333V6ZM11 4.33333V8.33333H10.3333V4.33333C10.3333 4.24493 10.3685 4.16014 10.431 4.09763C10.4935 4.03512 10.5783 4 10.6667 4C10.7551 4 10.8399 4.03512 10.9024 4.09763C10.9649 4.16014 11 4.24493 11 4.33333ZM9.66667 9C9.57826 9 9.49348 9.03512 9.43096 9.09763C9.36845 9.16014 9.33333 9.24493 9.33333 9.33333V10.6667C9.33333 10.7551 9.36845 10.8399 9.43096 10.9024C9.49348 10.9649 9.57826 11 9.66667 11H10.3333V11.6667C10.3333 11.7551 10.3685 11.8399 10.431 11.9024C10.4935 11.9649 10.5783 12 10.6667 12C10.7551 12 10.8399 11.9649 10.9024 11.9024C10.9649 11.8399 11 11.7551 11 11.6667V11H11.6667C11.7551 11 11.8399 10.9649 11.9024 10.9024C11.9649 10.8399 12 10.7551 12 10.6667V9.33333C12 9.24493 11.9649 9.16014 11.9024 9.09763C11.8399 9.03512 11.7551 9 11.6667 9H9.66667Z" fill="#89DDFF"/>
</svg>
