<svg width="16" height="16" viewBox="0 0 16 16" fill="none" xmlns="http://www.w3.org/2000/svg">
<path fill-rule="evenodd" clip-rule="evenodd" d="M14 8C14 11.3137 11.3137 14 8 14C4.68629 14 2 11.3137 2 8C2 4.68629 4.68629 2 8 2C11.3137 2 14 4.68629 14 8ZM9.52618 13H6.21073C6.21073 13 5.94536 12.7978 5.94536 11.3336C5.94536 9.86938 5.94536 8.33315 4 4.99969C5.62082 6.00008 6.57855 9.08708 6.94764 11.3336C7.31545 9.47823 8.86309 5.66638 10.4845 4C8.8671 7.37506 8.87235 9.29481 8.87627 10.7296C8.87777 11.2785 8.87907 11.7564 8.78927 12.2177C9.52618 9.47823 9.83545 8.69523 11 7.91292C9.74764 9.57654 9.55927 12.0882 9.53127 12.8034C9.52618 12.9294 9.52618 13 9.52618 13Z" fill="#C3E88D"/>
</svg>
