<svg width="16" height="16" viewBox="0 0 16 16" fill="none" xmlns="http://www.w3.org/2000/svg">
<path fill-rule="evenodd" clip-rule="evenodd" d="M14 8C14 11.3137 11.3137 14 8 14C4.68629 14 2 11.3137 2 8C2 4.68629 4.68629 2 8 2C11.3137 2 14 4.68629 14 8ZM8.66695 11.391L8.86995 10.655V10.656C9.02157 10.7299 9.18086 10.7869 9.34495 10.826C9.53762 10.876 9.73995 10.901 9.95195 10.901C10.1746 10.901 10.3439 10.861 10.4599 10.781C10.5138 10.7488 10.5582 10.703 10.5889 10.6483C10.6196 10.5935 10.6355 10.5317 10.6349 10.469C10.6343 10.3497 10.5789 10.248 10.4689 10.164C10.3569 10.08 10.1709 9.998 9.91095 9.918C9.55362 9.79933 9.26495 9.64433 9.04495 9.453C8.82495 9.26167 8.71495 9.02267 8.71495 8.736C8.71495 8.398 8.86162 8.11533 9.15495 7.888C9.44762 7.65933 9.84895 7.545 10.3589 7.545C10.5735 7.54209 10.7877 7.56221 10.9979 7.605C11.1579 7.63775 11.3145 7.68495 11.4659 7.746L11.2459 8.468C11.1294 8.41815 11.0098 8.37573 10.8879 8.341C10.7366 8.29633 10.5549 8.274 10.3429 8.274C10.1309 8.274 9.97362 8.31233 9.87095 8.389C9.76762 8.46633 9.71595 8.557 9.71595 8.661C9.71595 8.785 9.77862 8.88433 9.90395 8.959C10.0991 9.06375 10.3032 9.15076 10.5139 9.219C10.8979 9.34767 11.1813 9.50767 11.3639 9.699C11.5453 9.889 11.6359 10.1257 11.6359 10.409C11.6359 10.741 11.4936 11.0287 11.2089 11.272C10.9249 11.5147 10.4869 11.636 9.89495 11.636C9.64628 11.636 9.41028 11.61 9.18695 11.558C8.96495 11.5067 8.79162 11.451 8.66695 11.391ZM6.53995 11.636V8.238H5.27295V7.545H8.66695V8.238H7.40195V11.636H6.53995Z" fill="#3965BD"/>
</svg>
