<svg width="16" height="16" viewBox="0 0 16 16" fill="none" xmlns="http://www.w3.org/2000/svg">
<path fill-rule="evenodd" clip-rule="evenodd" d="M2.5 2.5H13.5C13.6326 2.5 13.7598 2.55268 13.8536 2.64645C13.9473 2.74021 14 2.86739 14 3V11C14 11.1326 13.9473 11.2598 13.8536 11.3536C13.7598 11.4473 13.6326 11.5 13.5 11.5H9V12.5H11C11.1326 12.5 11.2598 12.5527 11.3536 12.6464C11.4473 12.7402 11.5 12.8674 11.5 13C11.5 13.1326 11.4473 13.2598 11.3536 13.3536C11.2598 13.4473 11.1326 13.5 11 13.5H5C4.86739 13.5 4.74021 13.4473 4.64645 13.3536C4.55268 13.2598 4.5 13.1326 4.5 13C4.5 12.8674 4.55268 12.7402 4.64645 12.6464C4.74021 12.5527 4.86739 12.5 5 12.5H7V11.5H2.5C2.36739 11.5 2.24021 11.4473 2.14645 11.3536C2.05268 11.2598 2 11.1326 2 11V3C2 2.86739 2.05268 2.74021 2.14645 2.64645C2.24021 2.55268 2.36739 2.5 2.5 2.5ZM3 10.5H13V3.5H3V10.5Z" fill="#B2CCD6"/>
</svg>
