<svg width="16" height="16" viewBox="0 0 16 16" fill="none" xmlns="http://www.w3.org/2000/svg">
<path fill-rule="evenodd" clip-rule="evenodd" d="M14 8C14 11.3137 11.3137 14 8 14C4.68629 14 2 11.3137 2 8C2 4.68629 4.68629 2 8 2C11.3137 2 14 4.68629 14 8ZM10.0927 4L11.9993 4.74667L12 11.2567L10.0953 12L6.76 8.83867L4.758 10.3267L4 9.95533V6.04933L4.76267 5.67467L6.76667 7.16467L10.0927 4ZM8 7.99467L9.88133 6.588L9.882 9.412L8 7.99467ZM5.88267 7.99467L4.94133 7.17667L4.942 8.82333L5.88267 7.99467Z" fill="#3965BD"/>
</svg>
