<svg width="16" height="16" viewBox="0 0 16 16" fill="none" xmlns="http://www.w3.org/2000/svg">
<path d="M11.717 5.552L8.21302 10.619C8.17602 10.673 8.12242 10.7135 8.06035 10.7343C7.99828 10.7551 7.93111 10.7551 7.86904 10.7343C7.80697 10.7135 7.75337 10.673 7.71637 10.619C7.67938 10.565 7.66099 10.5004 7.66402 10.435L7.80402 7.637L5.54002 7.157C5.46727 7.14157 5.40285 7.09968 5.35924 7.03944C5.31563 6.97921 5.29595 6.90492 5.30402 6.831C5.30976 6.78173 5.32762 6.73466 5.35602 6.694L8.86001 1.628C8.89718 1.57446 8.95072 1.53444 9.01258 1.51394C9.07445 1.49344 9.14129 1.49357 9.20308 1.51431C9.26486 1.53506 9.31824 1.57529 9.3552 1.62897C9.39215 1.68266 9.41069 1.74688 9.40802 1.812L9.26801 4.609L11.532 5.089C11.605 5.10444 11.6695 5.14648 11.7132 5.20693C11.7568 5.26738 11.7763 5.34191 11.768 5.416C11.7624 5.46482 11.7449 5.51153 11.717 5.552Z" fill="#FFCB6B"/>
<path d="M8.04403 14.87C8.13734 14.8705 8.22982 14.8524 8.31603 14.8167C8.40224 14.781 8.48044 14.7284 8.54603 14.662L11.857 11.351C11.9827 11.2165 12.0513 11.0384 12.0482 10.8544C12.0451 10.6703 11.9707 10.4947 11.8406 10.3644C11.7105 10.2342 11.5349 10.1596 11.3508 10.1563C11.1668 10.1531 10.9886 10.2214 10.854 10.347L8.04403 13.157L1.92403 7.037C1.78953 6.9113 1.61148 6.84276 1.42742 6.84583C1.24336 6.8489 1.06768 6.92334 0.937453 7.05344C0.80722 7.18354 0.73261 7.35914 0.729359 7.54319C0.726108 7.72725 0.79447 7.90537 0.920027 8.04L7.54303 14.662C7.60858 14.7281 7.68665 14.7804 7.77268 14.816C7.8587 14.8515 7.95095 14.8705 8.04403 14.87Z" fill="#2ECC71"/>
<path d="M8.04696 14.87C7.95365 14.8705 7.86117 14.8524 7.77496 14.8167C7.68875 14.781 7.61055 14.7284 7.54496 14.662L4.23496 11.351C4.10927 11.2165 4.04073 11.0384 4.0438 10.8544C4.04687 10.6703 4.1213 10.4947 4.25141 10.3644C4.38151 10.2342 4.55711 10.1596 4.74116 10.1563C4.92522 10.1531 5.10334 10.2214 5.23796 10.347L8.04796 13.157L14.168 7.03699C14.3033 6.91622 14.4797 6.85183 14.661 6.85703C14.8423 6.86222 15.0148 6.93662 15.143 7.06494C15.2712 7.19326 15.3454 7.36579 15.3504 7.5471C15.3554 7.72842 15.2909 7.90478 15.17 8.03999L8.54996 14.662C8.48429 14.7282 8.40606 14.7806 8.31985 14.8162C8.23365 14.8517 8.14121 14.8697 8.04796 14.869" fill="#AEE33E"/>
</svg>
