<svg width="16" height="16" viewBox="0 0 16 16" fill="none" xmlns="http://www.w3.org/2000/svg">
<path d="M13.957 2.919L7.84995 13.796C7.82107 13.8471 7.77922 13.8896 7.72862 13.9193C7.67803 13.949 7.62048 13.9648 7.56182 13.9651C7.50316 13.9654 7.44546 13.9502 7.39456 13.921C7.34365 13.8918 7.30136 13.8498 7.27195 13.799L1.04395 2.92C1.01216 2.86529 0.996762 2.80259 0.9996 2.73938C1.00244 2.67617 1.02339 2.6151 1.05996 2.56346C1.09653 2.51182 1.14717 2.47179 1.20586 2.44812C1.26454 2.42446 1.32879 2.41817 1.39095 2.43L7.50395 3.52C7.54296 3.52748 7.58307 3.52714 7.62195 3.519L13.608 2.432C13.6698 2.42016 13.7338 2.42629 13.7924 2.44966C13.8509 2.47303 13.9015 2.51267 13.9382 2.56389C13.9749 2.61511 13.9962 2.67577 13.9995 2.7387C14.0028 2.80163 13.9881 2.86419 13.957 2.919Z" fill="url(#paint0_linear_38_2678)"/>
<path d="M10.417 1.003L5.89704 1.885C5.86109 1.89223 5.82854 1.91116 5.80448 1.93884C5.78041 1.96652 5.7662 2.00139 5.76404 2.038L5.48604 6.715C5.48477 6.74062 5.48946 6.76619 5.49973 6.7897C5.51001 6.81321 5.52559 6.83402 5.54526 6.85049C5.56493 6.86696 5.58815 6.87865 5.6131 6.88464C5.63805 6.89062 5.66404 6.89075 5.68904 6.885L6.94704 6.596C6.97404 6.5898 7.00215 6.59045 7.02883 6.5979C7.05551 6.60535 7.0799 6.61935 7.09978 6.63863C7.11966 6.65792 7.1344 6.68187 7.14265 6.70831C7.15091 6.73474 7.15242 6.76283 7.14704 6.79L6.77304 8.614C6.76778 8.64193 6.76977 8.67074 6.77883 8.69768C6.7879 8.72462 6.80372 8.74878 6.8248 8.76785C6.84587 8.78692 6.87149 8.80025 6.8992 8.80658C6.92691 8.81291 6.95578 8.81202 6.98304 8.804L7.76104 8.57C7.7884 8.56191 7.81739 8.561 7.8452 8.56738C7.87301 8.57375 7.89871 8.58718 7.91981 8.60638C7.94092 8.62558 7.95672 8.64989 7.9657 8.67697C7.97467 8.70406 7.97651 8.73299 7.97104 8.761L7.37704 11.625C7.34004 11.805 7.58004 11.902 7.67904 11.749L7.74604 11.646L11.428 4.326C11.4423 4.29832 11.4484 4.26719 11.4456 4.23619C11.4429 4.20519 11.4315 4.1756 11.4127 4.15082C11.3938 4.12604 11.3684 4.10709 11.3393 4.09615C11.3101 4.08521 11.2785 4.08273 11.248 4.089L9.95304 4.339C9.92522 4.34419 9.89653 4.34218 9.86971 4.33316C9.84288 4.32415 9.8188 4.30842 9.79977 4.28748C9.78073 4.26654 9.76736 4.24107 9.76093 4.21351C9.75451 4.18595 9.75523 4.1572 9.76304 4.13L10.608 1.211C10.6158 1.18367 10.6164 1.15481 10.6097 1.12719C10.6031 1.09957 10.5895 1.07411 10.5703 1.05324C10.551 1.03237 10.5267 1.01679 10.4997 1.00799C10.4727 0.999198 10.4449 0.997478 10.417 1.003Z" fill="#FFCB6B"/>
<defs>
<linearGradient id="paint0_linear_38_2678" x1="8.49995" y1="10.5" x2="1.49995" y2="2.5" gradientUnits="userSpaceOnUse">
<stop stop-color="#8251A8"/>
<stop offset="1" stop-color="#8BD4CD"/>
</linearGradient>
</defs>
</svg>
