<svg width="16" height="16" viewBox="0 0 16 16" fill="none" xmlns="http://www.w3.org/2000/svg">
<path fill-rule="evenodd" clip-rule="evenodd" d="M14 8C14 11.3137 11.3137 14 8 14C4.68629 14 2 11.3137 2 8C2 4.68629 4.68629 2 8 2C11.3137 2 14 4.68629 14 8ZM13 8L11.2838 10.9737L10.5489 10.5489L12.0187 8L10.5489 5.45115L11.2838 5.02634L13 8ZM3 8L4.71623 5.02634L5.45115 5.45115L3.98131 8L5.45115 10.5489L4.71623 10.9737L3 8ZM10.9439 8L9.46978 10.5489H6.5301L5.05601 8L6.5301 5.45115H9.46978L10.9439 8Z" fill="#82AAFF"/>
</svg>
