<svg width="16" height="16" viewBox="0 0 16 16" fill="none" xmlns="http://www.w3.org/2000/svg">
<path fill-rule="evenodd" clip-rule="evenodd" d="M14 8C14 11.3137 11.3137 14 8 14C4.68629 14 2 11.3137 2 8C2 4.68629 4.68629 2 8 2C11.3137 2 14 4.68629 14 8ZM11 5V10H12V10.8333C12 11.1428 11.8771 11.4395 11.6583 11.6583C11.4395 11.8771 11.1428 12 10.8333 12H6.66667C6.40145 12 6.1471 11.8946 5.95956 11.7071C5.77202 11.5196 5.66667 11.2652 5.66667 11V6H4V5.16667C4 4.85725 4.12292 4.5605 4.34171 4.34171C4.5605 4.12292 4.85725 4 5.16667 4H10C10.2652 4 10.5196 4.10536 10.7071 4.29289C10.8946 4.48043 11 4.73478 11 5ZM4.66667 5.16667V5.33333H5.66667V5.16667C5.66667 5.03406 5.61399 4.90688 5.52022 4.81311C5.42645 4.71935 5.29927 4.66667 5.16667 4.66667C5.03406 4.66667 4.90688 4.71935 4.81311 4.81311C4.71935 4.90688 4.66667 5.03406 4.66667 5.16667ZM8.862 7L9.33333 6.52867L10.236 7.43067C10.2985 7.49318 10.3336 7.57795 10.3336 7.66633C10.3336 7.75472 10.2985 7.83949 10.236 7.902L9.33333 8.80467L8.862 8.33333L9.52867 7.66667L8.862 7ZM6.6664 7.66633C6.6664 7.75472 6.70151 7.83949 6.764 7.902L7.66667 8.80533L8.138 8.334L7.47133 7.66733L8.138 7.00067L7.66667 6.52933L6.764 7.43067C6.70151 7.49318 6.6664 7.57795 6.6664 7.66633ZM11.1869 11.1869C11.0931 11.2807 10.9659 11.3333 10.8333 11.3333H7.892C7.95933 11.1933 8 11.0287 8 10.8333V10.6667H11.3333V10.8333C11.3333 10.9659 11.2807 11.0931 11.1869 11.1869Z" fill="#C3E88D"/>
</svg>
