<svg width="16" height="16" viewBox="0 0 16 16" fill="none" xmlns="http://www.w3.org/2000/svg">
<path fill-rule="evenodd" clip-rule="evenodd" d="M14 8C14 11.3137 11.3137 14 8 14C4.68629 14 2 11.3137 2 8C2 4.68629 4.68629 2 8 2C11.3137 2 14 4.68629 14 8ZM10.7191 10.9226C11.1989 10.5906 11.3949 10.5006 11.7831 10.4026C12.1009 10.3226 12.0789 9.79191 11.6549 9.79991C11.2153 9.80524 10.8303 10.0446 10.5056 10.2586C9.89759 10.6573 9.59423 10.6319 9.59423 10.6319C9.59446 10.6322 9.59365 10.6305 9.59181 10.627C9.59023 10.624 9.5879 10.6197 9.58481 10.6139C9.57358 10.5944 9.58263 10.5327 9.59656 10.4377C9.63403 10.1822 9.70679 9.68597 9.51447 9.12457C9.31334 8.5315 9.02916 8.25511 8.89137 8.1211C8.83337 8.06469 8.80131 8.03351 8.81228 8.01455C8.84446 7.95652 8.88674 7.89135 8.93492 7.81708C9.11811 7.5347 9.38661 7.12081 9.50944 6.46786C9.60177 5.96852 9.57727 5.14651 9.36938 4.7165C9.33044 4.6365 8.98626 4.84984 8.98626 4.84984C8.98626 4.84984 8.66406 4.08716 8.57425 4.02583C8.28345 3.82716 7.97318 4.83984 7.97318 4.83984C7.97318 4.83984 7.30932 4.7265 6.78802 5.32385C6.68376 5.44518 6.54307 5.50918 6.39799 5.56918C6.39554 5.57009 6.39306 5.57093 6.39053 5.57179C6.35027 5.58547 6.29825 5.60314 6.18005 5.94252C5.98535 6.49653 6.50664 7.10654 6.50664 7.10654C6.50664 7.10654 5.88674 7.57321 5.65624 8.15322C5.40187 8.78923 5.47912 9.41057 5.47912 9.41057C5.47912 9.41057 5.03822 9.81724 5.0043 10.2426C4.97792 10.6113 5.07716 10.9099 5.18393 11.0853C5.30264 11.2759 5.45023 11.1833 5.45023 11.1833C5.45023 11.1833 5.15692 11.5466 5.43076 11.7013C5.68073 11.8399 6.10217 11.9199 6.32513 11.6799C6.43754 11.5611 6.48727 11.341 6.52716 11.1644C6.545 11.0854 6.56087 11.0152 6.5795 10.9666C6.58893 10.9431 6.61284 10.9767 6.64106 11.0165C6.65605 11.0376 6.67225 11.0604 6.68816 11.0773C6.73966 11.1293 6.82633 11.1853 6.82633 11.1853C6.82633 11.1853 6.4319 11.3659 6.59395 11.7786C6.64733 11.9146 6.83889 12.0026 7.15104 11.9999C7.26786 11.9973 8.54536 11.9226 8.88451 11.8353C9.08047 11.7859 9.14893 11.6779 9.14893 11.6779C9.14893 11.6779 9.96793 11.4379 10.7191 10.9226Z" fill="#89DDFF"/>
</svg>
