<svg width="16" height="16" viewBox="0 0 16 16" fill="none" xmlns="http://www.w3.org/2000/svg">
<path fill-rule="evenodd" clip-rule="evenodd" d="M2 8C2 4.691 4.691 2 8 2C11.309 2 14 4.691 14 8C14 11.309 11.309 14 8 14C4.691 14 2 11.309 2 8ZM9.30701 8.472H6.93001L8.04301 5.802L9.30701 8.472ZM9.79001 9.594L10.611 11.51H11.902L8.03401 3.104L4.29401 11.51H5.68901L6.43901 9.594H9.79001Z" fill="#9883EC"/>
<path fill-rule="evenodd" clip-rule="evenodd" d="M16 7.498L13.83 9.81C13.7759 9.86765 13.711 9.91408 13.6389 9.94664C13.5669 9.9792 13.4891 9.99724 13.4101 9.99975C13.3311 10.0023 13.2523 9.98917 13.1784 9.96125C13.1044 9.93333 13.0367 9.89111 12.979 9.837C12.9213 9.7829 12.8749 9.71797 12.8424 9.64592C12.8098 9.57387 12.7918 9.49612 12.7893 9.41709C12.7867 9.33807 12.7998 9.25933 12.8278 9.18536C12.8557 9.11139 12.8979 9.04365 12.952 8.986L14.349 7.498L12.953 6.013C12.8989 5.95548 12.8566 5.88787 12.8287 5.81402C12.8007 5.74018 12.7875 5.66155 12.79 5.58262C12.7924 5.50369 12.8103 5.42601 12.8427 5.35401C12.8752 5.28201 12.9215 5.21711 12.979 5.163C13.0365 5.1089 13.1041 5.06665 13.178 5.03868C13.2518 5.0107 13.3305 4.99755 13.4094 4.99996C13.4883 5.00238 13.566 5.02031 13.638 5.05275C13.71 5.08518 13.7749 5.13148 13.829 5.189L16 7.5V7.498ZM0 7.498L2.17 9.81C2.2241 9.86765 2.28903 9.91408 2.36108 9.94664C2.43313 9.9792 2.51089 9.99724 2.58991 9.99975C2.66893 10.0023 2.74767 9.98917 2.82164 9.96125C2.89561 9.93333 2.96335 9.89111 3.021 9.837C3.07865 9.7829 3.12508 9.71797 3.15764 9.64592C3.19019 9.57387 3.20824 9.49612 3.21075 9.41709C3.21326 9.33807 3.20017 9.25933 3.17225 9.18536C3.14432 9.11139 3.1021 9.04365 3.048 8.986L1.651 7.498L3.047 6.013C3.1011 5.95548 3.14335 5.88787 3.17132 5.81402C3.1993 5.74018 3.21246 5.66155 3.21004 5.58262C3.20763 5.50369 3.18969 5.42601 3.15725 5.35401C3.12482 5.28201 3.07852 5.21711 3.021 5.163C2.96348 5.1089 2.89587 5.06665 2.82202 5.03868C2.74818 5.0107 2.66955 4.99755 2.59062 4.99996C2.51169 5.00238 2.434 5.02031 2.36201 5.05275C2.29001 5.08518 2.2251 5.13148 2.171 5.189L0 7.5V7.498Z" fill="white"/>
</svg>
