<svg width="16" height="16" viewBox="0 0 16 16" fill="none" xmlns="http://www.w3.org/2000/svg">
<path d="M8 2C4.691 2 2 4.691 2 8C2 11.309 4.691 14 8 14C11.309 14 14 11.309 14 8C14 4.691 11.309 2 8 2Z" fill="#FB503B"/>
<path fill-rule="evenodd" clip-rule="evenodd" d="M9.74382 6.98383C10.1513 6.9085 10.5591 6.83434 10.967 6.76135C11.0429 6.74739 11.1101 6.73518 11.2375 6.90095L11.7199 7.55529C11.9555 7.87723 12.1919 8.19829 12.2225 8.2358C12.2792 8.3056 12.2652 8.36231 12.1597 8.39372L11.2218 8.66767L10.9836 8.73659C11.3326 9.24524 11.9956 10.218 12.0523 10.3096C12.1291 10.4335 12.0593 10.4702 11.9459 10.5208C11.0145 10.8943 10.0801 11.2601 9.1427 11.6183L9.13397 11.6209C8.92022 11.6925 8.82164 11.7256 8.6803 11.5093C8.57299 11.3452 7.99193 10.2006 7.70751 9.63784C7.16833 9.79139 6.18158 10.0732 5.89716 10.1482C5.61972 10.2206 5.50107 10.0392 5.4557 9.92663L5.04913 8.96605C4.58581 7.8771 4.12631 6.78652 3.67065 5.69434C3.56857 5.42998 3.68112 5.38025 3.78407 5.37153C3.88615 5.36106 5.32745 5.23019 5.51502 5.22147C5.69301 5.21274 5.71831 5.25375 5.78985 5.37153L5.80294 5.39247L7.87938 9.18765L10.4906 8.50452L9.62691 7.1653C9.5545 7.05624 9.62779 7.00564 9.74382 6.98383ZM5.90501 9.70589C5.82911 9.72509 5.82649 9.71724 5.81777 9.69019V9.6867C5.80904 9.65791 4.07896 5.75803 4.0554 5.70917C4.03098 5.66119 4.03185 5.62192 4.0554 5.62192C4.06675 5.62192 4.44539 5.58615 4.81008 5.55038L5.48362 5.48669C5.52375 5.48408 5.52724 5.49193 5.53684 5.51287L5.54469 5.5277L7.49376 9.20685L7.5051 9.22779C7.5304 9.27228 7.53476 9.28188 7.47631 9.29758L5.90414 9.70677L5.90501 9.70589ZM10.0056 7.2857L10.7707 8.43298L11.7627 8.16514C11.8194 8.15205 11.8621 8.13024 11.8368 8.09534L11.7147 7.92434C11.514 7.6469 11.1389 7.12691 11.1031 7.07369C11.0569 7.0039 11.0237 7.01262 10.9862 7.02135L10.9818 7.02309C10.9426 7.03181 10.0736 7.20456 10.0204 7.21241C9.9663 7.21939 9.98462 7.25255 10.0056 7.2857ZM11.6048 10.1517L11.5995 10.1421L11.1904 9.53489C11.1036 9.40022 11.0155 9.26644 10.926 9.13356C10.8622 9.03727 10.7988 8.94071 10.7358 8.84391C10.7044 8.79505 10.6869 8.78545 10.6119 8.81075L8.06609 9.53489C8.06609 9.53489 8.84781 11.0137 8.90801 11.1079C8.96821 11.2039 9.00398 11.1952 9.05109 11.1734C9.07901 11.1612 9.93227 10.8444 10.639 10.5827C11.1258 10.403 11.5428 10.2486 11.5725 10.2363C11.6397 10.2102 11.6257 10.1866 11.6048 10.1517Z" fill="white"/>
<path d="M10.9836 8.73659L10.9225 8.5272L10.6346 8.61096L10.8039 8.85961L10.9836 8.73659ZM9.13399 11.6209L9.06593 11.4142L9.13486 11.6209H9.13399ZM7.70752 9.63784L7.90208 9.53925L7.82094 9.37872L7.64645 9.42758L7.70752 9.63697V9.63784ZM3.67066 5.69434L3.46738 5.77373L3.67066 5.69521V5.69434ZM5.80295 5.39247L5.99489 5.28777L5.98878 5.27905L5.80295 5.39247ZM7.87939 9.18765L7.68833 9.29235L7.77034 9.44241L7.9361 9.39879L7.88027 9.18852L7.87939 9.18765ZM10.4907 8.50452L10.5465 8.71565L10.8379 8.63888L10.6739 8.38586L10.4907 8.50452ZM5.81603 9.6867L6.02542 9.62475V9.62213L5.81603 9.6867ZM4.81096 5.55125L4.79002 5.33401L4.81096 5.55213V5.55125ZM7.47719 9.29845L7.42135 9.08645L7.47719 9.29758V9.29845ZM10.7716 8.43385L10.5901 8.55512L10.6774 8.68599L10.8283 8.64411L10.7716 8.43385ZM10.0064 7.28657L9.82323 7.40522L9.82497 7.40784L10.0064 7.28657ZM11.7636 8.16601L11.713 7.954H11.7121L11.7636 8.16601ZM11.7156 7.92521L11.8918 7.79783L11.7147 7.92521H11.7156ZM11.7156 7.92521L11.5376 8.05259L11.7147 7.92521H11.7156ZM10.0213 7.21328L10.0518 7.42878H10.0527L10.0213 7.21328ZM11.6004 10.143L11.788 10.0313L11.7845 10.0261L11.781 10.0208L11.6004 10.143ZM11.6057 10.1517L11.4181 10.2634L11.6057 10.1526V10.1517ZM11.1912 9.53576L11.0028 9.64569L11.0063 9.6518L11.0106 9.65791L11.1912 9.53576ZM10.6128 8.81162L10.673 9.02188L10.6843 9.01752L10.6128 8.81162ZM8.06697 9.53576L8.00764 9.32637L7.74852 9.39966L7.87416 9.63784L8.06697 9.53576ZM10.9112 6.55109C10.8222 6.56505 9.81886 6.74914 9.70545 6.77007L9.78397 7.19932C10.1822 7.12553 10.5806 7.05282 10.9792 6.98121L10.9112 6.55109ZM10.9286 6.5476C10.9228 6.54882 10.917 6.54999 10.9112 6.55109L10.9792 6.98121L11.0071 6.97685L10.9286 6.5476ZM11.4111 6.77095C11.3492 6.67914 11.2627 6.60659 11.1616 6.56156C11.056 6.52055 10.9635 6.54149 10.9286 6.5476L11.0071 6.97685L11.0307 6.97336C11.0224 6.97325 11.0141 6.97178 11.0063 6.96899C10.9984 6.96551 10.9993 6.96376 11.0098 6.97336C11.0297 6.99191 11.0479 7.01236 11.0639 7.03443L11.4111 6.77095ZM11.8962 7.42791C11.6885 7.14436 11.4774 6.85819 11.4111 6.77095L11.0639 7.03443C11.1275 7.11906 11.3343 7.40086 11.5446 7.68615L11.8962 7.42791ZM12.3926 8.0997L12.3917 8.09795C12.3905 8.09652 12.3894 8.09507 12.3882 8.09359L12.3769 8.07876C12.3255 8.01099 12.2749 7.94264 12.2251 7.87373L11.8962 7.42791L11.5446 7.68615C11.7775 8.00198 12.0192 8.33177 12.0541 8.37452L12.3926 8.0997ZM12.2225 8.60398C12.2923 8.58304 12.4118 8.53418 12.458 8.40331C12.5078 8.26634 12.4354 8.15292 12.3926 8.0997L12.0541 8.37452C12.0576 8.37888 12.0506 8.37191 12.0454 8.35358C12.0356 8.32188 12.0366 8.28787 12.048 8.25674C12.0571 8.22967 12.0741 8.20595 12.0968 8.18869C12.1073 8.18084 12.1108 8.18084 12.0986 8.18433L12.2225 8.60398ZM11.2837 8.87793L12.2225 8.60398L12.0986 8.18433L11.1616 8.45915L11.2837 8.87793ZM11.0455 8.94685L11.2837 8.87793L11.1616 8.45915L10.9234 8.52807L11.0455 8.94685ZM12.2391 10.1953C12.1789 10.0994 11.5097 9.11873 11.1651 8.61445L10.8047 8.86048C11.1555 9.37436 11.815 10.3393 11.8683 10.4248L12.2391 10.1953ZM12.0358 10.7206C12.0689 10.7063 12.1012 10.6903 12.1326 10.6726C12.1781 10.6468 12.2176 10.6117 12.2487 10.5696C12.2915 10.51 12.3104 10.4366 12.3019 10.3637C12.2937 10.3036 12.2722 10.2461 12.2391 10.1953L11.8683 10.4248C11.8787 10.4422 11.8709 10.4361 11.8683 10.4135C11.8653 10.3794 11.8746 10.3453 11.8944 10.3175C11.9084 10.2957 11.9224 10.2904 11.9119 10.2965C11.894 10.3062 11.8757 10.3149 11.8569 10.3227L12.0358 10.7206ZM9.21076 11.826C9.30411 11.7946 9.98638 11.5293 10.646 11.2711C11.3064 11.012 11.9721 10.7476 12.0349 10.7197L11.8561 10.3218L11.8534 10.3236C11.8508 10.3236 11.8482 10.3253 11.8447 10.3271C11.8031 10.3446 11.7612 10.3615 11.7191 10.3777L11.4041 10.5033L10.4863 10.8645C9.81625 11.128 9.15231 11.3854 9.07379 11.4115L9.21076 11.826ZM9.20291 11.8286L9.21163 11.826L9.07379 11.4115L9.06593 11.4142L9.20291 11.8286ZM8.49797 11.6279C8.58085 11.7553 8.68729 11.8652 8.84869 11.8888C8.92111 11.8992 8.98829 11.8888 9.04238 11.8766C9.0956 11.8643 9.15231 11.8452 9.20291 11.8286L9.06593 11.4142C9.02575 11.4283 8.98501 11.4409 8.94379 11.4517C8.915 11.4587 8.90889 11.4569 8.91151 11.4569C8.93507 11.4604 8.92111 11.4787 8.86265 11.3897L8.49797 11.6279ZM7.51209 9.73555C7.65517 10.0182 7.87154 10.4457 8.0661 10.8235C8.25717 11.1934 8.43602 11.5337 8.49797 11.6279L8.86265 11.3897C8.71996 11.138 8.58381 10.8825 8.45434 10.6237C8.26066 10.2477 8.04429 9.82106 7.90208 9.53925L7.51209 9.73555ZM5.95301 10.3594C6.24092 10.2835 7.23029 10.0017 7.76772 9.84723L7.64732 9.42845C7.1064 9.58287 6.12314 9.86293 5.84133 9.93709L5.95301 10.3594ZM5.2533 10.0086C5.29604 10.118 5.36858 10.2132 5.46269 10.2835C5.53332 10.3324 5.61416 10.3647 5.69911 10.3779C5.78405 10.391 5.87087 10.3847 5.95301 10.3594L5.84133 9.93709C5.81291 9.9462 5.78375 9.94917 5.75409 9.94582C5.74049 9.94371 5.72762 9.93832 5.71657 9.93011C5.6895 9.90744 5.66901 9.87791 5.65725 9.84461L5.2533 10.0086ZM4.84848 9.05155L5.2533 10.0086L5.65725 9.84548L5.25068 8.88142L4.84848 9.05155ZM3.46738 5.77373C3.53979 5.96131 4.34507 7.86239 4.84848 9.05068L5.24981 8.88055C4.74378 7.68528 3.94374 5.79467 3.87482 5.61581L3.46738 5.77373ZM3.76402 5.15429C3.704 5.15642 3.64538 5.173 3.59313 5.20261C3.54088 5.23223 3.49655 5.27401 3.46389 5.32441C3.38101 5.46226 3.41067 5.62628 3.46738 5.77373L3.87482 5.61581C3.86156 5.58585 3.85274 5.55498 3.84864 5.52246C3.84864 5.51199 3.85126 5.52682 3.8373 5.54951C3.82749 5.5662 3.81291 5.57957 3.79542 5.5879C3.78932 5.59051 3.78844 5.58964 3.80328 5.5879L3.76402 5.15341V5.15429ZM5.50457 5.00335C4.92405 5.04947 4.34386 5.0995 3.76402 5.15341L3.80328 5.5879C3.90884 5.57917 5.34403 5.4483 5.52638 5.43958L5.50457 5.00335ZM5.97569 5.25724C5.94952 5.21361 5.89892 5.122 5.80993 5.06529C5.71729 5.01276 5.61035 4.99106 5.50457 5.00335L5.52638 5.43958C5.54727 5.43764 5.5683 5.43764 5.5892 5.43958C5.59443 5.44045 5.58658 5.43958 5.57524 5.4326C5.56477 5.42562 5.56128 5.42038 5.56738 5.42824C5.57524 5.43783 5.58483 5.45267 5.60403 5.48495L5.97569 5.25811V5.25724ZM5.98878 5.27905L5.97569 5.25724L5.60403 5.48495C5.60752 5.4928 5.61275 5.49891 5.61711 5.50676L5.98878 5.27905ZM8.07133 9.08383L5.99489 5.28777L5.61101 5.49803L7.68833 9.29235L8.07133 9.08383ZM10.4357 8.29338L7.82443 8.97739L7.93523 9.39966L10.5465 8.71565L10.4357 8.29338ZM9.44371 7.28482L10.3074 8.6223L10.6739 8.38586C10.3862 7.93836 10.0977 7.49224 9.80839 7.04577L9.44371 7.28482ZM9.7037 6.77007C9.60502 6.78337 9.51404 6.83056 9.44633 6.90356C9.39899 6.96096 9.37556 7.03438 9.38089 7.10859C9.38525 7.17838 9.41317 7.23946 9.44371 7.28482L9.80839 7.04577C9.80316 7.03705 9.81363 7.05013 9.81537 7.0798C9.81751 7.1161 9.806 7.15189 9.78309 7.18013C9.76564 7.20194 9.74907 7.20805 9.75256 7.2063C9.76271 7.20235 9.77323 7.19943 9.78397 7.19758L9.7037 6.77007ZM5.60926 9.75126L5.61537 9.77133C5.6275 9.80811 5.64849 9.84135 5.67648 9.86813C5.70447 9.8949 5.73861 9.91439 5.7759 9.92488C5.82563 9.93796 5.86838 9.9336 5.88932 9.93098C5.91224 9.92759 5.93496 9.92293 5.95737 9.91703L5.85268 9.49388L5.83174 9.49825C5.85316 9.49646 5.87473 9.49853 5.89543 9.50435C5.92518 9.51298 5.9525 9.52844 5.97522 9.54949C5.99794 9.57055 6.01543 9.59662 6.0263 9.62563C6.02804 9.62912 6.02891 9.63173 6.02717 9.6265L5.60926 9.75126ZM5.60926 9.74864V9.75126L6.02717 9.6265L6.0263 9.62388L5.60926 9.74864ZM3.85824 5.80601L3.87831 5.85138C3.96592 6.04593 4.05287 6.24078 4.13917 6.43592C4.6305 7.5435 5.12082 8.65152 5.61013 9.75998L5.61362 9.76696L5.60926 9.75126L6.02542 9.62213L6.02019 9.60905C6.01764 9.60164 6.01473 9.59436 6.01146 9.58724C5.98801 9.53168 5.96387 9.47642 5.93905 9.42147L5.74013 8.97215C5.24471 7.85193 4.74799 6.73227 4.24997 5.6132L3.85824 5.80601ZM4.05367 5.40468C4.01549 5.40452 3.97786 5.41375 3.94409 5.43155C3.91032 5.44935 3.88143 5.47517 3.85999 5.50676C3.83271 5.54788 3.81814 5.59613 3.81811 5.64548C3.81811 5.7083 3.83817 5.765 3.85824 5.80601L4.24997 5.6132C4.24648 5.60535 4.25521 5.6193 4.25521 5.65071C4.25458 5.68688 4.24335 5.72207 4.22293 5.75192C4.20426 5.77937 4.17916 5.80184 4.1498 5.81735C4.12045 5.83287 4.08774 5.84095 4.05454 5.84091V5.40468H4.05367ZM4.78828 5.33401C4.54401 5.35743 4.29972 5.3807 4.05542 5.40381L4.05367 5.40468V5.84004L4.0938 5.83829C4.1692 5.83178 4.24452 5.82451 4.31977 5.81648L4.82929 5.76762L4.78828 5.33401ZM5.47054 5.26858C5.44175 5.27032 5.11458 5.3026 4.78828 5.33401L4.82929 5.76762C5.04622 5.74713 5.26317 5.72678 5.48014 5.70655L5.49584 5.70481L5.46967 5.26858H5.47054ZM5.73402 5.42038C5.73315 5.41864 5.72443 5.39945 5.71221 5.38112C5.69194 5.34905 5.66445 5.32216 5.63195 5.3026C5.56128 5.2616 5.48712 5.2677 5.47054 5.26858L5.49584 5.70481L5.48276 5.70393C5.45525 5.70031 5.42886 5.6908 5.40537 5.67604C5.38188 5.66129 5.36185 5.64164 5.34665 5.61843C5.3388 5.60622 5.33444 5.59662 5.3388 5.60622L5.73402 5.42038ZM5.73577 5.42475L5.73402 5.42038L5.3388 5.60622L5.35189 5.63065L5.73577 5.42475ZM7.68745 9.10564L5.73751 5.42649L5.35189 5.63065L7.30095 9.30892L7.68658 9.10477L7.68745 9.10564ZM7.69705 9.12222C7.69409 9.11643 7.69118 9.11061 7.68833 9.10477L7.30183 9.30892C7.30706 9.31852 7.3123 9.32637 7.31491 9.33335L7.69705 9.12222ZM7.53128 9.50784C7.55742 9.50176 7.58286 9.49299 7.60719 9.48167C7.63646 9.46747 7.66254 9.44746 7.68384 9.42286C7.70513 9.39826 7.72121 9.36959 7.73108 9.33859C7.74761 9.28401 7.74452 9.22536 7.72235 9.17282C7.71363 9.15101 7.70054 9.1292 7.69705 9.12222L7.31491 9.33335C7.32364 9.34906 7.32102 9.34469 7.3184 9.33771C7.30191 9.29646 7.30068 9.25068 7.31491 9.20859C7.32253 9.18344 7.3351 9.16006 7.35188 9.13983C7.36866 9.11961 7.38931 9.10294 7.41263 9.09081C7.42659 9.08383 7.43531 9.08208 7.42135 9.08557L7.53128 9.50784ZM5.95824 9.9179C6.03764 9.89783 7.50162 9.51657 7.53128 9.50784L7.42135 9.08645L5.85268 9.49388L5.95824 9.9179ZM10.9531 8.31258L10.1879 7.1653L9.82497 7.40784L10.5901 8.55512L10.9531 8.31171V8.31258ZM11.7121 7.954C11.428 8.0286 11.1445 8.10421 10.8614 8.18258L10.7541 8.21137L10.7245 8.2201C10.7219 8.22069 10.7192 8.22127 10.7166 8.22184H10.7149L10.7716 8.43385L10.8283 8.64411L10.8309 8.64324L10.8396 8.64062L10.8684 8.6319C11.1257 8.56207 11.3831 8.49257 11.6406 8.42338L11.7601 8.39197L11.7976 8.3815L11.8098 8.37888L11.8133 8.37801H11.8142L11.7121 7.954ZM11.6597 8.22272C11.6456 8.20187 11.6357 8.17751 11.6308 8.15278C11.6258 8.12806 11.6259 8.10259 11.631 8.07789C11.6359 8.05211 11.6462 8.02767 11.6612 8.00616C11.6763 7.98466 11.6957 7.96658 11.7182 7.95313L11.7243 7.95051L11.713 7.954L11.8133 8.37801C11.8681 8.36654 11.9198 8.34365 11.9651 8.31083C12.0137 8.27391 12.0472 8.22057 12.0593 8.16077C12.0655 8.12749 12.0648 8.0933 12.0573 8.0603C12.0498 8.0273 12.0357 7.99617 12.0157 7.96883L11.6606 8.22184L11.6597 8.22272ZM11.5376 8.05259L11.6597 8.22272L12.0157 7.96883L11.8918 7.79783L11.5385 8.05259H11.5376ZM11.5376 8.05259L11.8918 7.79783L11.5385 8.05259H11.5376ZM10.9225 7.19496C10.9609 7.25254 11.3413 7.77951 11.5376 8.05259L11.8918 7.79783C11.6894 7.5169 11.3177 7.00302 11.2855 6.95329L10.9225 7.19496ZM11.0403 7.23335C11.0525 7.22986 11.0473 7.2316 11.0386 7.23335C11.0191 7.23512 10.9996 7.23304 10.981 7.22724C10.9286 7.21241 10.9121 7.17926 10.9225 7.19496L11.2855 6.95329C11.2436 6.88493 11.1786 6.83298 11.1022 6.80846C11.0185 6.78403 10.9426 6.80846 10.933 6.81021L11.0403 7.23335ZM11.0359 7.23422L11.0403 7.23335L10.933 6.81021L10.9295 6.81108L11.0359 7.23422ZM10.0527 7.42791C10.381 7.36601 10.7087 7.30144 11.0359 7.23422L10.9295 6.81108L10.8885 6.8198C10.7474 6.84923 10.6061 6.87744 10.4645 6.90443C10.3101 6.93476 10.1557 6.96471 10.0012 6.9943L9.98899 6.99604L10.0527 7.42791ZM10.1905 7.16792C10.1853 7.16006 10.1862 7.16181 10.1888 7.16617C10.1888 7.16792 10.2027 7.19322 10.2036 7.2316C10.2047 7.26128 10.1991 7.29082 10.1871 7.31801C10.1752 7.3452 10.1573 7.36935 10.1347 7.38865C10.0954 7.4218 10.0562 7.42703 10.0518 7.42791L9.98899 6.99604C9.93788 7.00276 9.89062 7.02395 9.85115 7.05711C9.82377 7.08047 9.80202 7.1097 9.78752 7.14263C9.77302 7.17557 9.76614 7.21135 9.76739 7.24731C9.77001 7.29966 9.78746 7.33979 9.79618 7.35724C9.80425 7.37347 9.81328 7.39007 9.82323 7.40522L10.1897 7.16879L10.1905 7.16792ZM11.412 10.2529L11.4181 10.2625L11.7932 10.04L11.788 10.0313L11.4128 10.2529H11.412ZM11.0106 9.65703L11.4189 10.2634L11.781 10.02L11.3718 9.41275L11.0106 9.65703ZM10.7454 9.25396C10.8232 9.37191 10.9009 9.48911 10.9784 9.6073L11.0028 9.64482L11.3797 9.42583C11.3622 9.3953 11.2235 9.18591 11.1092 9.01229L10.7454 9.25396ZM10.5526 8.96081C10.5718 8.99222 10.6564 9.1196 10.7445 9.25309L11.1092 9.01229C11.0457 8.91765 10.9829 8.82255 10.9208 8.72699L10.5526 8.96081ZM10.6835 9.01665C10.6983 9.01229 10.6992 9.01316 10.6922 9.01403C10.6676 9.01685 10.6426 9.01408 10.6192 9.00592C10.5958 8.99777 10.5745 8.98443 10.557 8.96692C10.5482 8.95732 10.5465 8.95122 10.5526 8.96081L10.9208 8.72699C10.9068 8.70518 10.8571 8.6223 10.7541 8.59002C10.6837 8.57195 10.6093 8.57715 10.5421 8.60485L10.6843 9.01752L10.6835 9.01665ZM8.12717 9.74515L10.673 9.02101L10.5535 8.60136L8.00764 9.32637L8.12717 9.74428V9.74515ZM9.09298 10.991L9.08949 10.9858C9.07401 10.9607 9.05945 10.9351 9.04587 10.909L8.94379 10.7197C8.72517 10.313 8.5085 9.90527 8.29381 9.4965L8.26851 9.44939L8.2624 9.43717L8.26066 9.43456V9.43368L8.06697 9.53576L7.87503 9.63697L7.87416 9.63784L7.87678 9.64133L7.88288 9.65354L7.90818 9.70066C8.02953 9.92993 8.15109 10.1591 8.27287 10.3882C8.47179 10.7633 8.68816 11.1681 8.72393 11.2257L9.09298 10.991ZM8.95949 10.9762C8.95077 10.9805 8.95949 10.9762 8.97345 10.9727C8.99957 10.9674 9.02661 10.9689 9.05197 10.9771C9.07059 10.9826 9.08763 10.9925 9.1017 11.0059C9.10607 11.0093 9.1017 11.0067 9.09298 10.991L8.72393 11.2248C8.76707 11.3018 8.83595 11.3611 8.91849 11.3923C9.02842 11.4272 9.11915 11.3836 9.14445 11.3714L8.95949 10.9762ZM10.5648 10.3794C10.0883 10.5559 9.61198 10.7319 9.13573 10.909C9.04849 10.9413 8.97694 10.9683 8.95949 10.9762L9.14445 11.3714L9.28841 11.3173L9.66706 11.176L10.7157 10.7877L10.5648 10.3794ZM11.4931 10.0339L11.4861 10.0366C11.4601 10.0467 11.4339 10.0566 11.4076 10.0662L11.2026 10.1421L10.5648 10.3794L10.7157 10.7877C11.1991 10.6089 11.6214 10.4527 11.6545 10.4388L11.4931 10.0339ZM11.4189 10.2634C11.4259 10.2756 11.4224 10.2704 11.4189 10.2616C11.4057 10.23 11.4018 10.1952 11.4076 10.1613C11.4146 10.1178 11.4368 10.0782 11.4704 10.0496C11.4879 10.0348 11.5001 10.0313 11.4931 10.0339L11.6536 10.4396C11.6877 10.4257 11.8142 10.3751 11.8377 10.2329C11.8457 10.1845 11.8397 10.1348 11.8203 10.0898C11.8098 10.0662 11.7959 10.0453 11.7932 10.04L11.4181 10.2634H11.4189Z" fill="white"/>
</svg>
