<svg width="16" height="16" viewBox="0 0 16 16" fill="none" xmlns="http://www.w3.org/2000/svg">
<g clip-path="url(#clip0_1_26)">
<rect x="2" y="2" width="12" height="12" rx="6" fill="white"/>
<mask id="mask0_1_26" style="mask-type:alpha" maskUnits="userSpaceOnUse" x="0" y="2" width="16" height="12">
<path d="M13.1 2H2.9C1.57452 2 0.5 3.07452 0.5 4.4V11.6C0.5 12.9255 1.57452 14 2.9 14H13.1C14.4255 14 15.5 12.9255 15.5 11.6V4.4C15.5 3.07452 14.4255 2 13.1 2Z" fill="#00B6C2"/>
</mask>
<g mask="url(#mask0_1_26)">
<path d="M0.5 2H15.5V14H0.5V2Z" fill="#80CBC4"/>
<path d="M10.2756 8L1.5 15.5L14.3256 14.9648L15 10.1432L10.2756 8Z" fill="#343944"/>
<path d="M5.87519 8.24961C6.12541 8.25594 6.37437 8.21212 6.60739 8.12074C6.84041 8.02936 7.05278 7.89226 7.232 7.71752C7.41121 7.54279 7.55364 7.33395 7.65088 7.10331C7.74813 6.87268 7.79823 6.62491 7.79823 6.37461C7.79823 6.12431 7.74813 5.87654 7.65088 5.6459C7.55364 5.41527 7.41121 5.20643 7.232 5.03169C7.05278 4.85696 6.84041 4.71986 6.60739 4.62848C6.37437 4.53709 6.12541 4.49328 5.87519 4.49961C5.38612 4.51198 4.92124 4.71496 4.57971 5.06524C4.23818 5.41552 4.04703 5.88538 4.04703 6.37461C4.04703 6.86383 4.23818 7.3337 4.57971 7.68398C4.92124 8.03426 5.38612 8.23723 5.87519 8.24961Z" fill="white"/>
</g>
</g>
<defs>
<clipPath id="clip0_1_26">
<rect x="2" y="2" width="12" height="12" rx="6" fill="white"/>
</clipPath>
</defs>
</svg>
