<svg width="16" height="16" viewBox="0 0 16 16" fill="none" xmlns="http://www.w3.org/2000/svg">
<path d="M8 2C4.691 2 2 4.691 2 8C2 11.309 4.691 14 8 14C11.309 14 14 11.309 14 8C14 4.691 11.309 2 8 2Z" fill="#89DDFF"/>
<path fill-rule="evenodd" clip-rule="evenodd" d="M5.91667 4.25H5.08333C4.86232 4.25 4.65036 4.3378 4.49408 4.49408C4.3378 4.65036 4.25 4.86232 4.25 5.08333V6.75C4.25 6.97101 4.1622 7.18298 4.00592 7.33926C3.84964 7.49554 3.63768 7.58333 3.41667 7.58333H3V8.41667H3.41667C3.63768 8.41667 3.84964 8.50446 4.00592 8.66074C4.1622 8.81702 4.25 9.02899 4.25 9.25V10.9167C4.25 11.375 4.6375 11.6375 5.08333 11.75H5.91667V10.9167H5.08333V8.83333C5.08333 8.61232 4.99554 8.40036 4.83926 8.24408C4.68298 8.0878 4.47101 8 4.25 8C4.47101 8 4.68298 7.9122 4.83926 7.75592C4.99554 7.59964 5.08333 7.38768 5.08333 7.16667V5.08333H5.91667V4.25ZM11.75 5.08333C11.75 4.86232 11.6622 4.65036 11.5059 4.49408C11.3496 4.3378 11.1377 4.25 10.9167 4.25H10.0833V5.08333H10.9167V7.16667C10.9167 7.38768 11.0045 7.59964 11.1607 7.75592C11.317 7.9122 11.529 8 11.75 8C11.529 8 11.317 8.0878 11.1607 8.24408C11.0045 8.40036 10.9167 8.61232 10.9167 8.83333V10.9167H10.0833V11.75H10.9167C11.1377 11.75 11.3496 11.6622 11.5059 11.5059C11.6622 11.3496 11.75 11.1377 11.75 10.9167V9.25C11.75 9.02899 11.8378 8.81702 11.9941 8.66074C12.1504 8.50446 12.3623 8.41667 12.5833 8.41667H13V7.58333H12.5833C12.3623 7.58333 12.1504 7.49554 11.9941 7.33926C11.8378 7.18298 11.75 6.97101 11.75 6.75V5.08333Z" fill="white"/>
<path fill-rule="evenodd" clip-rule="evenodd" d="M6.33334 7.58333C6.44385 7.58333 6.54983 7.62723 6.62797 7.70537C6.70611 7.78351 6.75001 7.88949 6.75001 7.99999C6.75001 8.1105 6.70611 8.21648 6.62797 8.29462C6.54983 8.37276 6.44385 8.41666 6.33334 8.41666C6.22283 8.41666 6.11685 8.37276 6.03871 8.29462C5.96057 8.21648 5.91667 8.1105 5.91667 7.99999C5.91667 7.88949 5.96057 7.78351 6.03871 7.70537C6.11685 7.62723 6.22283 7.58333 6.33334 7.58333ZM8.00001 7.58333C8.11051 7.58333 8.21649 7.62723 8.29463 7.70537C8.37277 7.78351 8.41667 7.88949 8.41667 7.99999C8.41667 8.1105 8.37277 8.21648 8.29463 8.29462C8.21649 8.37276 8.11051 8.41666 8.00001 8.41666C7.8895 8.41666 7.78352 8.37276 7.70538 8.29462C7.62724 8.21648 7.58334 8.1105 7.58334 7.99999C7.58334 7.88949 7.62724 7.78351 7.70538 7.70537C7.78352 7.62723 7.8895 7.58333 8.00001 7.58333ZM10.0833 7.99999C10.0833 7.88949 10.0394 7.78351 9.9613 7.70537C9.88316 7.62723 9.77718 7.58333 9.66667 7.58333C9.55616 7.58333 9.45018 7.62723 9.37204 7.70537C9.2939 7.78351 9.25001 7.88949 9.25001 7.99999C9.25001 8.1105 9.2939 8.21648 9.37204 8.29462C9.45018 8.37276 9.55616 8.41666 9.66667 8.41666C9.77718 8.41666 9.88316 8.37276 9.9613 8.29462C10.0394 8.21648 10.0833 8.1105 10.0833 7.99999Z" fill="white"/>
</svg>
