<svg width="16" height="16" viewBox="0 0 16 16" fill="none" xmlns="http://www.w3.org/2000/svg">
<path d="M8 2C4.691 2 2 4.691 2 8C2 11.309 4.691 14 8 14C11.309 14 14 11.309 14 8C14 4.691 11.309 2 8 2Z" fill="#009900"/>
<path d="M6.49699 9.94699C6.49699 10.267 6.23299 10.53 5.91399 10.53C5.75962 10.5292 5.61178 10.4675 5.50262 10.3584C5.39346 10.2492 5.33178 10.1014 5.33099 9.94699V5.94699C5.33099 5.63699 5.60499 5.37999 5.99299 5.37999C6.29699 5.37699 6.58799 5.50699 6.78799 5.73599L6.96399 5.94599L9.39999 8.85999V5.96199C9.39999 5.64199 9.66399 5.37999 9.98299 5.37999C10.303 5.37999 10.566 5.64299 10.566 5.96199V9.96399C10.566 10.274 10.291 10.53 9.90399 10.53C9.75366 10.5321 9.60467 10.5014 9.46739 10.4401C9.33011 10.3788 9.20781 10.2883 9.10899 10.175L6.49599 7.04899V9.94799L6.49699 9.94699Z" fill="white"/>
</svg>
