<svg width="16" height="16" viewBox="0 0 16 16" fill="none" xmlns="http://www.w3.org/2000/svg">
<path d="M8 2C4.691 2 2 4.691 2 8C2 11.309 4.691 14 8 14C11.309 14 14 11.309 14 8C14 4.691 11.309 2 8 2Z" fill="#CB3837"/>
<path d="M5.99905 5.99905V9.99809H8V6.99809H8.99905V9.99809H9.99809V5.99905H5.99905ZM10.4275 5C10.5793 5 10.7249 5.06032 10.8323 5.16769C10.9397 5.27506 11 5.42068 11 5.57252V10.4275C11 10.5793 10.9397 10.7249 10.8323 10.8323C10.7249 10.9397 10.5793 11 10.4275 11H5.57252C5.42068 11 5.27506 10.9397 5.16769 10.8323C5.06032 10.7249 5 10.5793 5 10.4275V5.57252C5 5.42068 5.06032 5.27506 5.16769 5.16769C5.27506 5.06032 5.42068 5 5.57252 5H10.4275Z" fill="white"/>
</svg>
