<svg width="16" height="16" viewBox="0 0 16 16" fill="none" xmlns="http://www.w3.org/2000/svg">
<path fill-rule="evenodd" clip-rule="evenodd" d="M2 8C2 4.691 4.691 2 8 2C11.309 2 14 4.691 14 8C14 11.309 11.309 14 8 14C4.691 14 2 11.309 2 8ZM5.5 6.99971C5.83308 5.66686 6.66692 5 8 5C9.24 5 9.80769 5.576 10.2962 6.07314L10.2975 6.07454C10.5985 6.37998 10.8698 6.65529 11.25 6.75029C11.9169 6.91743 12.5 6.66629 13 6.00029C12.6669 7.33314 11.8331 8 10.5 8C9.26 8 8.69231 7.424 8.20385 6.92686C7.90231 6.62086 7.63 6.34486 7.25 6.24971C6.58308 6.08257 6 6.33371 5.5 6.99971ZM3 9.99971C3.33308 8.66686 4.16692 8 5.5 8C6.74 8 7.30769 8.576 7.79615 9.07314C8.09769 9.37914 8.37 9.65514 8.75 9.75029C9.41692 9.91743 10 9.66629 10.5 9.00029C10.1669 10.3331 9.33308 11 8 11C6.76 11 6.19231 10.424 5.70385 9.92686C5.40231 9.62086 5.13 9.34486 4.75 9.24971C4.08308 9.08257 3.5 9.33371 3 9.99971Z" fill="#2AB6FC"/>
</svg>
